<?xml version="1.0" encoding="UTF-8" standalone="no"?>
<!-- Created with Inkscape (http://www.inkscape.org/) -->

<svg
   xmlns:dc="http://purl.org/dc/elements/1.1/"
   xmlns:cc="http://creativecommons.org/ns#"
   xmlns:rdf="http://www.w3.org/1999/02/22-rdf-syntax-ns#"
   xmlns:svg="http://www.w3.org/2000/svg"
   xmlns="http://www.w3.org/2000/svg"
   xmlns:sodipodi="http://sodipodi.sourceforge.net/DTD/sodipodi-0.dtd"
   xmlns:inkscape="http://www.inkscape.org/namespaces/inkscape"
   width="210mm"
   height="297mm"
   viewBox="0 0 210 297"
   version="1.1"
   id="svg8"
   inkscape:version="0.92.2 (5c3e80d, 2017-08-06)"
   sodipodi:docname="overtrek-automatisch-inkscape-incbackground.svg">
  <defs
     id="defs2" />
  <sodipodi:namedview
     id="base"
     pagecolor="#ffffff"
     bordercolor="#666666"
     borderopacity="1.0"
     inkscape:pageopacity="0.0"
     inkscape:pageshadow="2"
     inkscape:zoom="1.4"
     inkscape:cx="314.35565"
     inkscape:cy="592.90956"
     inkscape:document-units="mm"
     inkscape:current-layer="layer1"
     showgrid="false"
     inkscape:window-width="1920"
     inkscape:window-height="1001"
     inkscape:window-x="-9"
     inkscape:window-y="-9"
     inkscape:window-maximized="1" />
  <metadata
     id="metadata5">
    <rdf:RDF>
      <cc:Work
         rdf:about="">
        <dc:format>image/svg+xml</dc:format>
        <dc:type
           rdf:resource="http://purl.org/dc/dcmitype/StillImage" />
        <dc:title></dc:title>
      </cc:Work>
    </rdf:RDF>
  </metadata>
  <g
     inkscape:label="Laag 1"
     inkscape:groupmode="layer"
     id="layer1">
    <path
       style="fill:#000000;stroke-width:0.35277778"
       d="m 18.772801,172.80159 c 0,-2.31422 0.11491,-2.87154 0.701525,-3.40242 0.385839,-0.34918 1.201361,-1.4138 1.812273,-2.36582 1.335527,-2.08124 1.130577,-2.90457 -1.088594,-4.37315 l -1.425204,-0.94315 v -4.01007 c 0,-2.27301 0.143921,-4.01007 0.332249,-4.01007 0.182737,0 1.239312,0.79375 2.347944,1.76389 1.108632,0.97014 2.19942,1.76389 2.423972,1.76389 0.224552,0 0.844458,0.45528 1.377568,1.01173 0.701726,0.73244 1.425964,1.06685 2.623641,1.21146 0.909892,0.10985 2.209974,0.45704 2.889071,0.77152 1.61088,0.74598 4.138927,2.28371 3.766678,2.29116 -0.159647,0.003 0.192268,0.5912 0.782034,1.30668 0.873064,1.05918 0.992544,1.39758 0.643044,1.82126 -0.338012,0.40976 -0.335522,0.55192 0.01172,0.66879 0.242535,0.0816 0.440972,0.37332 0.440972,0.64819 0,0.73715 2.851151,0.6424 6.205375,-0.20623 2.930321,-0.74138 3.87253,-1.43891 4.229253,-3.13097 0.250197,-1.18678 1.051393,-2.65907 2.026377,-3.72372 1.719105,-1.8772 2.074375,-2.71879 1.339452,-3.173 -0.561563,-0.34707 -0.693226,-2.00935 -0.174906,-2.20825 0.765925,-0.29391 0.580543,-1.2373 -0.775966,-3.9488 -0.859128,-1.71729 -1.590563,-2.69179 -2.293056,-3.05507 -1.019449,-0.52717 -1.386788,-1.66521 -0.67875,-2.1028 0.688903,-0.42577 0.3238,-1.08662 -1.875566,-3.39485 -1.224474,-1.28509 -2.488261,-2.87259 -2.808415,-3.52778 l -0.582098,-1.19126 1.080907,-0.32575 c 1.33102,-0.40114 2.656253,0.23933 4.91517,2.37545 0.859682,0.81294 1.801183,1.49426 2.092224,1.51404 0.291042,0.0198 0.886355,0.0595 1.322917,0.0882 0.549237,0.0361 0.79375,0.276 0.79375,0.77861 0,0.39951 0.142446,0.63834 0.316546,0.53074 0.1741,-0.1076 0.8091,-0.0971 1.411111,0.0233 0.906112,0.18122 1.094566,0.38609 1.094566,1.18995 0,1.00221 1.047467,2.33984 1.069061,1.36521 0.01429,-0.64475 0.840941,0.75789 0.858164,1.45611 0.0075,0.30293 0.274591,0.4854 0.62478,0.4268 0.408583,-0.0684 0.547035,0.0662 0.416923,0.40529 -0.107146,0.27921 -0.02522,0.61245 0.182023,0.74055 0.217699,0.13454 0.376827,-0.0556 0.376827,-0.45029 0,-0.37575 0.20376,-0.85229 0.452804,-1.05897 0.675312,-0.56047 1.449426,0.0751 1.209414,0.99287 -0.29712,1.13619 0.06472,1.76597 1.014638,1.76597 0.628121,0 0.889357,0.24253 1.045006,0.97014 0.114137,0.53358 0.351024,1.32545 0.526418,1.75971 0.36188,0.896 0.154362,1.65556 -0.787675,2.88303 -0.471967,0.61498 -0.635589,1.37181 -0.591076,2.73403 0.03387,1.03601 0.19581,1.88365 0.359901,1.88365 0.164091,0 0.298347,0.24749 0.298347,0.54998 0,0.34232 -0.1665,0.45263 -0.440972,0.29214 -0.242535,-0.14182 -0.123472,0.11423 0.264584,0.56899 0.388055,0.45476 0.507118,0.7108 0.264583,0.56898 -0.242535,-0.14181 -0.440972,-0.10694 -0.440972,0.0775 0,1.07939 2.758256,0.6945 10.544676,-1.47143 l 4.371065,-1.21589 0.776817,0.9031 c 0.953237,1.1082 1.694004,0.90016 2.667046,-0.74902 0.59006,-1.00007 1.007844,-1.25753 2.528626,-1.55822 1.247366,-0.24664 2.074002,-0.24529 2.621715,0.004 0.982073,0.44746 2.995242,-0.26005 2.727236,-0.95847 -0.250193,-0.65199 1.416103,-0.97586 2.493987,-0.48474 0.496194,0.22608 0.902164,0.5658 0.902164,0.75494 0,0.18914 0.39272,0.70786 0.87272,1.1527 0.8396,0.77812 0.85465,0.86883 0.39661,2.39076 -0.58237,1.93509 -1.71917,4.44459 -2.01898,4.45696 -0.396324,0.0164 -0.637188,-2.01906 -0.360374,-3.04523 0.361264,-1.33916 0.13488,-2.24711 -0.499575,-2.00365 -0.278885,0.10702 -0.507065,0.41875 -0.507065,0.69273 0,0.36339 -0.254261,0.43433 -0.939949,0.26223 -0.8252,-0.20711 -0.905245,-0.1541 -0.655665,0.43425 0.513443,1.21036 0.633874,2.61044 0.224543,2.61044 -0.584592,0 -0.475227,0.95123 0.136348,1.18591 0.686831,0.26356 0.686831,1.95073 0,2.21429 -0.291041,0.11169 -0.529166,0.51462 -0.529166,0.89541 0,1.02464 1.550624,0.72654 1.70023,-0.32686 0.062,-0.43656 0.26997,-0.79375 0.462153,-0.79375 0.364698,0 0.203627,1.7806 -0.223605,2.47187 -0.135442,0.21915 -0.463239,0.31519 -0.728444,0.21342 -0.895801,-0.34375 -0.903375,0.48094 -0.01199,1.30703 0.620452,0.57502 0.82514,1.05036 0.684269,1.58906 -0.204093,0.78045 0.162415,0.94687 1.73338,0.78707 0.71292,-0.0725 0.75807,0.1178 0.25217,1.06308 -0.43151,0.80626 -1.398715,0.91219 -1.398715,0.15318 0,-0.75164 -0.457291,-0.65494 -0.998132,0.21109 -0.300171,0.48065 -0.701082,0.67781 -1.143194,0.56219 -0.374491,-0.0979 -0.680896,-0.0342 -0.680896,0.14169 0,0.17587 -1.905,0.31975 -4.233334,0.31975 -2.328333,0 -4.233333,-0.13414 -4.233333,-0.2981 0,-0.16395 0.300281,-0.56985 0.667286,-0.90198 0.425768,-0.38532 0.596558,-0.87436 0.471869,-1.35117 -0.147613,-0.56448 0.14206,-1.03061 1.184165,-1.90551 1.307589,-1.09778 1.344923,-1.18357 0.715405,-1.64389 -0.71871,-0.52553 -0.724792,-0.51539 1.183168,-1.97292 0.737365,-0.5633 0.800163,-0.74975 0.410601,-1.21915 -0.600604,-0.72368 -0.28424,-1.1823 1.011951,-1.467 1.228633,-0.26985 1.650756,-0.78341 1.098151,-1.33601 -0.768936,-0.76894 -0.421185,-1.30982 0.842126,-1.30982 1.445881,0 1.505931,-0.2015 0.439219,-1.47383 l -0.791996,-0.94468 -4.409723,0.8301 c -6.043955,1.13774 -12.07395,3.13751 -17.722297,5.87738 -0.336917,0.16343 -0.836133,0.29714 -1.10937,0.29714 -0.993478,0 -5.00289,1.42943 -5.84539,2.08399 -0.760836,0.59111 -0.805057,0.74339 -0.3686,1.26928 0.65992,0.79516 0.465028,3.36254 -0.298386,3.93081 -0.321818,0.23955 -0.95987,0.34389 -1.417894,0.23186 -0.723456,-0.17694 -0.801373,-0.10476 -0.593588,0.54991 0.238132,0.75029 0.211725,0.75359 -6.024205,0.75359 h -6.263386 l 0.947946,-0.98944 c 0.52137,-0.54419 0.947946,-1.09756 0.947946,-1.22971 0,-0.13215 -0.648287,-0.66929 -1.440638,-1.19365 -1.200085,-0.79418 -1.552721,-0.88337 -2.11188,-0.53417 -0.369183,0.23056 -0.916989,0.4192 -1.217346,0.4192 -0.451338,0 -0.5055,0.30609 -0.312116,1.76389 l 0.233988,1.76388 h -9.570449 -9.570449 z m 7.216879,1.73359 c 0.11163,-0.18062 0.04162,-0.42812 -0.155569,-0.54999 -0.197192,-0.12187 -0.358532,0.0259 -0.358532,0.3284 0,0.61967 0.211686,0.71091 0.514101,0.22159 z m 26.568944,-0.4433 c -0.0768,-0.23041 -0.328264,-0.4818 -0.558804,-0.55865 -0.257793,-0.0859 -0.336634,0.0753 -0.204792,0.41893 0.246071,0.64124 0.975247,0.77467 0.763596,0.13972 z m -16.852489,-0.24549 c 0,-0.1714 0.3175,-0.39466 0.705556,-0.49614 1.173705,-0.30693 0.824334,-1.01227 -0.440972,-0.89027 -0.878751,0.0847 -1.172857,0.29593 -1.259259,0.90429 -0.07582,0.53389 0.06855,0.79375 0.440972,0.79375 0.304537,0 0.553703,-0.14023 0.553703,-0.31163 z m 8.466667,-3.03975 c 0,-0.54795 -0.959038,-0.97524 -1.224569,-0.5456 -0.103857,0.16805 -0.0958,0.54796 0.0179,0.84426 0.237937,0.62005 1.206672,0.38028 1.206672,-0.29866 z m 41.275002,-4.40973 c 0,-0.19402 -0.15875,-0.35277 -0.352777,-0.35277 -0.194028,0 -0.352778,0.15875 -0.352778,0.35277 0,0.19403 0.15875,0.35278 0.352778,0.35278 0.194027,0 0.352777,-0.15875 0.352777,-0.35278 z m 0.705556,-1.40004 c 0,-0.18793 -0.238125,-0.25032 -0.529167,-0.13864 -0.291041,0.11168 -0.529166,0.26545 -0.529166,0.34171 0,0.0763 0.238125,0.13864 0.529166,0.13864 0.291042,0 0.529167,-0.15377 0.529167,-0.34171 z m 8.295965,10.13129 c -0.51755,-1.53629 -0.28055,-2.73402 0.541,-2.73402 0.78545,0 2.66724,0.87105 2.86103,1.32432 0.066,0.15446 0.67569,0.63137 1.35479,1.05981 l 1.234715,0.77898 -2.921485,0.006 c -2.02723,0.004 -2.96696,-0.12904 -3.07005,-0.43503 z m 26.188065,-0.80592 c -0.92164,-0.67617 -1.6757,-1.28061 -1.6757,-1.3432 0,-0.0626 0.85036,-0.0433 1.88969,0.0429 2.14372,0.17778 3.40198,-0.31998 3.40198,-1.34579 0,-0.38123 0.15875,-0.69315 0.35278,-0.69315 0.19402,0 0.35277,-0.1556 0.35277,-0.34578 0,-0.19019 -0.67468,0.0264 -1.4993,0.48125 -1.67291,0.92281 -4.14514,1.50036 -4.14514,0.96837 0,-0.18658 1.54781,-1.07119 3.43958,-1.96578 1.89177,-0.89461 3.67771,-1.78497 3.96875,-1.97859 3.34127,-2.22283 6.19064,-2.39681 11.28889,-0.68931 5.14519,1.72321 6.10216,2.39158 7.04886,4.92304 0.43713,1.16887 0.92576,2.04427 1.08585,1.94533 0.16009,-0.0989 0.23871,-0.94972 0.1747,-1.89062 -0.064,-0.9409 -0.002,-1.89509 0.13684,-2.12043 0.39768,-0.64345 1.2824,-0.10364 1.99314,1.21611 0.85097,1.58016 1.31924,1.07232 1.21139,-1.31373 -0.0466,-1.03163 -0.10745,-2.35194 -0.13514,-2.93402 -0.0817,-1.71665 0.63375,-1.40777 0.89743,0.38746 0.13323,0.90708 0.37136,1.75634 0.52917,1.88725 0.15781,0.13091 0.81117,-0.0335 1.4519,-0.36544 0.70013,-0.36268 0.98165,-0.67115 0.70555,-0.7731 -0.3509,-0.12957 -0.31419,-0.32186 0.15543,-0.81417 0.49156,-0.5153 0.70318,-0.5562 1.05539,-0.204 0.3522,0.35221 0.33502,0.50725 -0.0857,0.77323 -0.4014,0.25377 -0.28644,0.33397 0.48462,0.33809 0.55595,0.003 2.21085,-0.55657 3.67755,-1.24343 1.46669,-0.68686 2.87714,-1.1681 3.13431,-1.06941 0.74832,0.28716 0.54179,1.56369 -0.42038,2.59822 -0.85294,0.91709 -2.28704,4.1605 -2.28704,5.17246 0,1.56129 -0.10533,1.58548 -6.90486,1.58548 h -6.48338 l -0.97879,-0.92265 c -0.64026,-0.60352 -0.82628,-0.97669 -0.53783,-1.07891 0.72067,-0.25539 0.50875,-0.95254 -0.64976,-2.13749 -1.18002,-1.20696 -2.90323,-2.19331 -3.8318,-2.19331 -0.31944,0 -0.73161,-0.13515 -0.91594,-0.30033 -1.17344,-1.05153 -7.46363,-1.86159 -8.62542,-1.11079 -0.40481,0.26161 -0.27374,0.34325 0.55775,0.34738 0.78945,0.004 1.21362,0.24215 1.54989,0.87047 0.25463,0.47578 0.91646,1.02315 1.47072,1.21637 0.55427,0.19322 1.00775,0.5807 1.00775,0.86108 0,0.84623 0.96696,0.94606 1.49279,0.15411 l 0.49132,-0.73997 0.75362,0.80892 c 0.5373,0.57672 0.69807,1.0867 0.56009,1.77661 -0.1831,0.9155 -0.0964,0.99099 1.6068,1.39959 0.99019,0.23754 1.88859,0.57469 1.99646,0.74922 0.11436,0.18505 -3.82007,0.31369 -9.43789,0.30859 l -9.63402,-0.009 -1.67569,-1.22941 z m 36.06612,-0.56744 c 0.003,-0.3188 0.21794,-0.66118 0.4777,-0.76086 0.25976,-0.0997 0.89476,-1.0735 1.41111,-2.16405 0.92454,-1.95267 1.26028,-3.08145 0.55778,-1.87534 -0.19776,0.33955 -0.51981,0.61736 -0.71565,0.61736 -0.19583,0 -0.24128,-0.18572 -0.10098,-0.41273 0.17391,-0.28139 0.0591,-0.33752 -0.36081,-0.17638 -0.33874,0.12998 -0.77103,0.23634 -0.96064,0.23634 -0.18961,0 -0.24678,0.15851 -0.12704,0.35224 0.12522,0.20261 -0.12207,0.31501 -0.58208,0.26459 -0.53735,-0.0589 -0.84411,0.12608 -0.93487,0.56376 -0.10941,0.52765 0.0219,0.61206 0.6911,0.44423 0.4544,-0.11396 0.62801,-0.11615 0.38581,-0.005 -0.26392,0.12125 -0.35791,0.53085 -0.23459,1.02222 0.11318,0.45093 0.0213,1.16458 -0.20416,1.58587 -0.50208,0.93814 -0.16502,2.24227 0.36352,1.40651 0.18062,-0.2856 0.33083,-0.78011 0.3338,-1.09889 z m 0.53457,-2.77178 c -0.11991,-0.19402 -0.0593,-0.35277 0.13475,-0.35277 0.19403,0 0.45089,0.15875 0.57081,0.35277 0.11991,0.19403 0.0593,0.35278 -0.13475,0.35278 -0.19403,0 -0.45089,-0.15875 -0.57081,-0.35278 z m -3.35139,2.31544 c 0,-1.1616 -1.01482,-2.6108 -1.09583,-1.56488 -0.0206,0.26629 -0.061,0.80167 -0.0896,1.18972 -0.0707,0.95759 0.43857,2.00746 0.85036,1.75295 0.1843,-0.1139 0.33508,-0.73391 0.33508,-1.37779 z m 1.41111,-0.87913 c 0,-0.37419 -0.23056,-0.91092 -0.51236,-1.19272 -0.28181,-0.2818 -0.40087,-0.63609 -0.26459,-0.78732 0.13629,-0.15121 0.0801,-0.17975 -0.12485,-0.0634 -0.54701,0.31053 -0.18266,2.72381 0.41124,2.72381 0.26981,0 0.49056,-0.30616 0.49056,-0.68036 z m -14.32476,1.2764 c -1.07587,-1.11876 -1.53161,-2.01149 -0.64074,-1.25513 0.3729,0.3166 1.05617,0.69114 1.51837,0.83232 0.66593,0.2034 0.73915,0.32825 0.35277,0.6015 -0.36049,0.25493 -0.28069,0.29946 0.30617,0.17085 0.43656,-0.0957 0.79375,-0.0301 0.79375,0.14578 0,0.61094 -1.59185,0.27258 -2.33032,-0.49532 z m -48.116895,-1.28077 c 0,-0.18258 0.15693,-0.42895 0.34873,-0.54749 0.19998,-0.1236 0.25912,0.018 0.13865,0.33195 -0.23452,0.61116 -0.48738,0.72298 -0.48738,0.21554 z m 3.175,-1.62915 c 0,-0.30249 0.16133,-0.45027 0.35853,-0.3284 0.19719,0.12187 0.2672,0.36937 0.15556,0.54999 -0.30241,0.48932 -0.51409,0.39808 -0.51409,-0.22159 z m -7.761118,-0.31951 c 0,-0.28419 0.357187,-0.84684 0.793744,-1.25033 0.43657,-0.40348 2.698754,-2.55698 5.027094,-4.78554 3.11518,-2.9817 4.88559,-4.38147 6.702775,-5.29953 1.35819,-0.68618 2.97654,-1.56398 3.59633,-1.95068 1.05864,-0.66051 1.18043,-0.668 2.0112,-0.12367 0.52435,0.34358 1.17853,0.48605 1.60714,0.35001 0.42041,-0.13343 0.72283,-0.0719 0.72283,0.14714 0,0.47545 2.00005,0.49785 2.29188,0.0257 0.11927,-0.19299 0.51885,-0.51251 0.88796,-0.71004 0.5884,-0.31491 0.71787,-0.18546 1.05066,1.05043 0.35171,1.30612 1.1671,2.12715 2.11253,2.12715 0.60355,0 2.11632,-3.54785 2.12019,-4.9724 0.002,-0.81692 0.25453,-1.49547 0.709,-1.90676 0.77645,-0.70268 0.90253,-0.49807 0.34037,0.55236 -0.4622,0.86361 0.20667,0.93517 1.10893,0.11864 0.71717,-0.64903 1.44158,-0.37847 1.13384,0.42348 -0.1733,0.45163 0.007,0.50236 1.07374,0.30223 0.96033,-0.18016 1.28681,-0.12001 1.30116,0.23972 0.0105,0.26413 0.75541,0.95649 1.65528,1.53857 2.18351,1.41241 2.30705,1.94028 0.45411,1.94028 -1.74296,0 -3.59418,0.85854 -3.33085,1.54475 0.23166,0.60371 -0.71479,0.98822 -1.77652,0.72174 -0.89662,-0.22503 -1.38821,0.50237 -1.0084,1.49214 0.19431,0.50636 0.0294,0.55251 -1.2458,0.34861 -1.23407,-0.19735 -1.46975,-0.14009 -1.46975,0.35709 0,0.32568 -0.11906,0.47307 -0.26458,0.32755 -0.14552,-0.14552 -0.26459,-0.44758 -0.26459,-0.67125 0,-0.54802 -5.29933,-2.31343 -7.01666,-2.33751 -0.90835,-0.0127 -1.53248,0.18945 -1.84629,0.59812 -0.44417,0.57843 -0.48752,0.5697 -0.6875,-0.13855 -0.216,-0.765 -1.38319,-1.18576 -3.28184,-1.18305 -1.36857,0.002 -2.69726,0.94729 -6.242285,4.4413 -7.154794,7.05184 -8.265698,7.94994 -8.265698,6.68232 z M 120.3728,159.55832 c 0,-0.67153 1.54722,-1.62807 2.63343,-1.62807 1.09892,0 1.13767,-0.45139 0.12014,-1.39936 -0.49081,-0.45726 -1.03961,-0.64753 -1.4993,-0.5198 -0.56686,0.15752 -0.61185,0.12364 -0.20615,-0.15522 0.28542,-0.19618 0.42382,-0.45183 0.30755,-0.5681 -0.11627,-0.11627 -0.685,0.2622 -1.26385,0.84105 -0.68087,0.68086 -1.17343,0.93148 -1.39509,0.70982 -0.43519,-0.43519 -1.5929,-0.0119 -1.41599,0.51771 0.073,0.21863 0.61402,0.3481 1.20221,0.2877 1.02649,-0.1054 1.06543,-0.0594 0.96975,1.14653 -0.0548,0.69098 0.0459,1.25633 0.22381,1.25633 0.17792,0 0.32349,-0.21986 0.32349,-0.48859 z m -14.81666,-1.45168 c 0,-0.66777 -0.38293,-0.67119 -1.25549,-0.0112 -0.65592,0.49611 -0.64389,0.51842 0.28535,0.52916 0.63214,0.007 0.97014,-0.17314 0.97014,-0.51794 z m 56.44444,10.93611 c 0,-0.29104 0.15377,-0.52917 0.34171,-0.52917 0.18794,0 0.25033,0.23813 0.13865,0.52917 -0.11169,0.29104 -0.26546,0.52916 -0.34171,0.52916 -0.0762,0 -0.13865,-0.23812 -0.13865,-0.52916 z m 11.35357,-2.01672 c -0.2296,-0.2296 -0.41746,-0.78076 -0.41746,-1.22481 0,-0.78862 -0.21273,-1.12342 -2.20486,-3.46998 -0.53357,-0.62851 -0.97014,-1.36228 -0.97014,-1.6306 0,-0.50331 -0.82454,-1.41141 -3.47515,-3.82734 -1.49158,-1.35951 -3.24712,-2.11207 -4.93635,-2.11608 -0.52907,-10e-4 -0.89321,-0.25602 -1.01128,-0.70753 -0.10148,-0.38805 -0.38713,-0.70555 -0.63478,-0.70555 -0.52271,0 -0.87855,-0.77562 -0.87855,-1.91494 0,-0.43939 -0.635,-2.09832 -1.41111,-3.68652 -0.77611,-1.5882 -1.41111,-3.00448 -1.41111,-3.1473 0,-0.14283 -0.39687,-0.84374 -0.88194,-1.55758 -1.04396,-1.53632 -1.04616,-1.5496 -0.30308,-1.83475 0.59961,-0.23009 2.24335,0.63311 2.24335,1.17808 0,0.17029 0.64546,1.71444 1.43436,3.43145 1.97663,4.3021 2.29729,5.04552 2.82435,6.54788 0.35796,1.02035 0.69786,1.36068 1.53991,1.54179 2.56234,0.55114 6.48682,3.58928 7.6796,5.94518 0.39937,0.78881 1.2492,2.01716 1.8885,2.72965 1.44718,1.61287 2.32938,5.8526 0.92574,4.44895 z m -23.81196,-1.91621 c -0.32247,-0.32247 0.0303,-1.77637 0.91496,-3.77099 0.73613,-1.65973 2.51856,-3.0558 3.90146,-3.0558 0.9003,0 1.44209,-0.99253 1.01756,-1.86411 -0.20942,-0.42995 -0.64866,-1.63224 -0.97608,-2.67177 -0.63645,-2.02063 -0.43035,-1.86737 -5.09951,-3.79203 -0.67909,-0.27992 -1.8218,-0.82254 -2.53933,-1.2058 -0.71754,-0.38327 -1.71213,-0.69685 -2.21021,-0.69685 -0.49807,0 -1.76178,-0.4832 -2.80822,-1.07378 -1.04645,-0.59058 -2.90936,-1.31133 -4.1398,-1.60166 -2.67229,-0.63057 -4.49009,-1.11732 -6.69661,-1.79314 -1.5181,-0.46497 -1.72988,-0.44942 -2.91042,0.21364 -0.70025,0.39331 -1.27823,0.59876 -1.2844,0.45655 -0.006,-0.1422 -0.23993,0.0436 -0.51947,0.41296 -0.45966,0.60733 -0.52973,0.6155 -0.73312,0.0855 -0.12369,-0.32232 0.0344,-0.98169 0.3512,-1.46526 0.5877,-0.89694 1.26538,-1.17223 1.26538,-0.51403 0,0.24629 0.23219,0.24092 0.71318,-0.0165 0.64855,-0.34709 0.70054,-0.65434 0.57365,-3.38988 -0.0768,-1.65451 -0.31831,-3.18696 -0.5368,-3.40545 -0.21849,-0.21849 -0.38719,-0.72269 -0.37489,-1.12045 0.0218,-0.70521 0.03,-0.70436 0.32806,0.0345 0.35416,0.87779 1.06069,1.41792 1.06069,0.81089 0,-0.22736 -0.73365,-1.38766 -1.63034,-2.57846 -0.8967,-1.19079 -1.70743,-2.36352 -1.80164,-2.60605 -0.0942,-0.24254 -0.31405,-0.44097 -0.48853,-0.44097 -0.17449,0 0.16512,0.66589 0.75469,1.47977 0.58957,0.81387 0.99636,1.67674 0.90398,1.91748 -0.0924,0.24075 0.0117,0.49761 0.23129,0.5708 0.26214,0.0874 0.17985,0.42839 -0.23961,0.99293 -0.38164,0.51364 -0.55484,0.61127 -0.43015,0.24249 0.11515,-0.3406 0.0345,-0.61736 -0.1798,-0.61736 -0.21369,0 -0.67478,-0.33006 -1.02464,-0.73345 -0.34986,-0.4034 -0.84474,-0.76674 -1.09971,-0.80743 -0.88549,-0.1413 -1.71198,-0.79202 -2.53909,-1.99911 -0.78994,-1.15285 -0.80416,-1.27165 -0.28292,-2.3647 0.69708,-1.46179 1.51808,-1.4631 2.73296,-0.004 0.84849,1.01881 0.8875,1.03505 0.35016,0.14578 -0.33258,-0.55041 -0.52737,-1.07807 -0.43287,-1.17257 0.25779,-0.25778 3.23476,1.41311 3.24359,1.82054 0.004,0.19403 0.61029,1.52114 1.34685,2.94913 1.27902,2.47968 1.32811,2.69988 1.09248,4.90019 -0.16548,1.54521 -0.12745,2.23012 0.11549,2.07998 0.19922,-0.12312 0.4493,0.003 0.55575,0.28049 0.10644,0.27739 0.004,0.57224 -0.22762,0.65523 -0.23163,0.083 -0.32481,0.25573 -0.20706,0.38387 0.33099,0.36021 1.37341,-0.1549 1.37341,-0.67868 0,-0.64846 1.67118,-0.13864 3.40296,1.03813 1.86916,1.27012 2.58389,1.20739 2.63495,-0.23126 0.0224,-0.63059 0.0776,-1.30528 0.12266,-1.4993 0.0451,-0.19403 0.11867,-0.67028 0.16354,-1.05834 0.0465,-0.40231 0.15807,-0.51602 0.25952,-0.26458 0.53067,1.31513 3.09519,-0.0986 4.76017,-2.62422 2.34761,-3.56099 4.5312,-7.05119 4.5312,-7.24256 0,-0.11697 0.53521,-1.37777 1.18937,-2.80177 2.74595,-5.97754 3.41567,-7.6362 3.89423,-9.64464 0.68848,-2.88935 2.22033,-7.19546 2.69818,-7.58472 0.1886,-0.15363 1.03766,-2.36165 1.03766,-2.69847 0,-0.34881 -1.37546,-0.0606 -1.514,0.31722 -0.12646,0.34488 -0.26029,0.34814 -0.61417,0.0149 -0.36616,-0.34475 -0.36695,-0.52908 -0.004,-0.96625 0.2466,-0.29713 0.58446,-0.45612 0.75082,-0.3533 0.51487,0.3182 0.78976,-1.57275 0.31227,-2.14809 -0.47891,-0.57705 -0.27891,-0.96132 0.5648,-1.08515 0.38713,-0.0568 0.47074,0.1194 0.30477,0.64235 -0.15132,0.47676 -0.0979,0.63981 0.1578,0.48176 0.23645,-0.14613 0.31027,-0.0402 0.19014,0.27292 -0.10802,0.28149 -0.01,0.62708 0.21809,0.76797 0.31712,0.19599 0.31664,0.31665 -0.002,0.51359 -0.30466,0.18829 -0.26137,0.41255 0.16122,0.83514 0.31775,0.31775 0.49372,0.71365 0.39105,0.87978 -0.10268,0.16614 0.14893,0.6623 0.55913,1.1026 1.06972,1.1481 1.28792,4.95076 0.28418,4.95076 -0.55345,0 -2.11263,-1.49429 -2.11263,-2.02472 0,-1.0548 -0.68299,0.0276 -1.38129,2.18907 -0.80376,2.48792 -0.90848,3.11884 -0.38259,2.30509 0.20918,-0.32368 0.34407,-0.36473 0.34737,-0.10572 0.003,0.23289 -0.24575,0.56399 -0.55272,0.73578 -0.50612,0.28324 -0.50729,0.434 -0.0125,1.6181 0.30007,0.71817 0.4094,1.2216 0.24297,1.11874 -0.40242,-0.24871 -0.79004,1.35951 -0.50604,2.09959 0.14642,0.38158 0.0547,0.56003 -0.2649,0.5154 -1.22664,-0.17128 -1.79363,0.0296 -1.58899,0.56282 0.12047,0.31395 0.0613,0.45555 -0.13864,0.33196 -0.46392,-0.28672 -0.4432,0.40156 0.0392,1.30299 0.21495,0.40163 0.23411,0.62983 0.0429,0.5117 -0.18976,-0.11728 -0.43941,0.2587 -0.55477,0.83551 -0.21966,1.09833 0.0283,2.21549 0.43585,1.96361 0.13095,-0.0809 0.22054,0.27717 0.19912,0.79577 -0.0317,0.76647 -0.29256,1.02746 -1.39409,1.39467 -1.02228,0.3408 -1.41738,0.35101 -1.60862,0.0416 -0.16467,-0.26643 -0.33981,-0.13822 -0.49981,0.36588 -0.13547,0.42683 -0.94657,1.9605 -1.80245,3.40816 -0.85589,1.44766 -1.55615,2.74933 -1.55615,2.8926 0,0.62599 -3.37562,4.04053 -4.62419,4.67751 -1.30664,0.66659 -1.37249,0.78115 -1.36182,2.36899 0.006,0.91769 0.20461,1.90967 0.44098,2.2044 0.46355,0.57803 2.66953,1.58132 4.19492,1.90788 0.51862,0.11103 1.41467,0.59879 1.9912,1.08392 0.57654,0.48512 1.22378,0.88204 1.43831,0.88204 0.21452,0 0.39004,0.14889 0.39004,0.33086 0,0.18197 0.27781,0.32401 0.61736,0.31566 0.33955,-0.008 1.49049,0.33 2.55764,0.7519 1.06715,0.42191 2.93749,1.08997 4.1563,1.48459 2.69956,0.87404 3.08712,1.23572 3.39635,3.16952 0.13313,0.83257 0.48314,1.78015 0.77779,2.10573 0.3373,0.37272 0.49441,1.09477 0.42417,1.9495 -0.10452,1.27199 -0.17823,1.35189 -1.16989,1.26809 -1.90708,-0.16113 -4.04089,0.68574 -4.79267,1.90213 -0.37931,0.61375 -0.89449,1.1945 -1.14484,1.29057 -0.25036,0.0961 -0.65039,0.8262 -0.88897,1.62251 -0.41724,1.39261 -0.73334,1.70791 -1.22218,1.21907 z m 0.94836,-42.45734 c 0.12076,-0.48507 -0.0858,-0.24695 -0.45904,0.52916 -0.37323,0.77612 -0.68402,1.56986 -0.69064,1.76389 -0.0184,0.53962 0.90099,-1.29417 1.14968,-2.29305 z m 2.49913,-5.26729 c 0.11164,-0.18062 0.0416,-0.42812 -0.15557,-0.54999 -0.19719,-0.12187 -0.35853,0.0259 -0.35853,0.3284 0,0.61967 0.21169,0.7109 0.5141,0.22159 z m -40.02521,46.1895 c 0,-0.19403 0.15875,-0.35278 0.35278,-0.35278 0.19402,0 0.35277,0.15875 0.35277,0.35278 0,0.19403 -0.15875,0.35278 -0.35277,0.35278 -0.19403,0 -0.35278,-0.15875 -0.35278,-0.35278 z m 45.86111,-2.64583 c 0,-0.29104 0.0624,-0.52917 0.13865,-0.52917 0.0763,0 0.23002,0.23813 0.34171,0.52917 0.11168,0.29104 0.0493,0.52917 -0.13865,0.52917 -0.18794,0 -0.34171,-0.23813 -0.34171,-0.52917 z m -7.40833,-3.35947 c 0,-0.20176 0.24497,-0.46085 0.54438,-0.57574 0.8274,-0.3175 0.92455,0.0252 0.14513,0.51197 -0.43641,0.27254 -0.68951,0.29595 -0.68951,0.0638 z m -49.12573,-1.45453 c 0.46893,-0.46893 2.91643,-0.61325 2.80979,-0.16568 -0.0409,0.17159 -0.77819,0.36744 -1.63846,0.43523 -1.14897,0.0905 -1.45986,0.019 -1.17133,-0.26955 z m -27.498836,-1.01484 c -0.330525,-0.57768 -0.455172,-1.05033 -0.276994,-1.05033 0.399799,0 1.140975,1.33053 0.989019,1.77544 -0.06109,0.17888 -0.381501,-0.14742 -0.712025,-0.72511 z m 35.769006,0.56526 c -1.49292,-0.40141 -1.50803,-0.42052 -0.82285,-1.04061 1.04354,-0.94439 2.33504,-0.63415 2.37928,0.57155 0.0196,0.53358 0.0196,0.94941 0,0.92406 -0.0196,-0.0253 -0.71997,-0.23009 -1.55643,-0.455 z m 1.16806,-0.55725 c -0.11992,-0.19403 -0.37678,-0.35278 -0.57081,-0.35278 -0.19403,0 -0.25466,0.15875 -0.13475,0.35278 0.11992,0.19402 0.37678,0.35277 0.57081,0.35277 0.19402,0 0.25466,-0.15875 0.13475,-0.35277 z m -31.715091,0.21262 c 0.264079,-0.68818 1.578596,-1.06944 2.585463,-0.74987 1.122126,0.35615 0.867791,0.84482 -0.415512,0.79835 -0.630591,-0.0228 -1.42614,0.0855 -1.76789,0.24075 -0.483937,0.21983 -0.572858,0.15586 -0.402061,-0.28923 z m 14.391496,-1.34813 c 0.22912,-1.14559 0.76328,-1.96046 1.07848,-1.64526 0.27497,0.27497 -0.59721,2.78077 -0.96789,2.78077 -0.19216,0 -0.23982,-0.48936 -0.11059,-1.13551 z m 2.52325,-0.59683 c -0.32278,-0.62418 -0.40648,-1.13416 -0.20644,-1.25779 0.18505,-0.11437 0.58076,0.26449 0.87936,0.8419 0.32278,0.62419 0.40648,1.13416 0.20643,1.2578 -0.18505,0.11436 -0.58076,-0.26449 -0.87935,-0.84191 z m -8.984304,-1.64845 c 0.01693,-0.41097 0.10052,-0.49456 0.213134,-0.21314 0.101907,0.25466 0.08938,0.55893 -0.02783,0.67616 -0.117228,0.11723 -0.200604,-0.0911 -0.185286,-0.46302 z m -12.375075,-1.1845 c 0,-0.18258 0.15875,-0.43008 0.352778,-0.54999 0.194028,-0.11992 0.352778,0.0295 0.352778,0.33196 0,0.30249 -0.15875,0.54998 -0.352778,0.54998 -0.194028,0 -0.352778,-0.14938 -0.352778,-0.33195 z m -5.732008,-1.376 c -0.53323,-0.3218 -0.969793,-0.71521 -0.970139,-0.87422 -0.0014,-0.58627 1.522798,-0.0383 2.030441,0.73009 0.609311,0.92222 0.298888,0.96442 -1.060302,0.14413 z m 51.945892,-0.56133 c 0,-0.55019 1.31714,-1.11729 1.70173,-0.7327 0.24199,0.242 -0.89754,1.23809 -1.41637,1.23809 -0.15695,0 -0.28536,-0.22742 -0.28536,-0.50539 z M 18.772801,146.08162 c 0,-2.30867 0.07924,-2.66034 0.55802,-2.47661 0.30691,0.11777 0.843276,0.21413 1.191923,0.21413 0.78055,0 1.578767,1.78217 1.255045,2.80213 -0.128737,0.40561 -0.857524,1.05554 -1.619527,1.44429 l -1.385461,0.70681 z m 69.427252,1.28435 c -0.248888,-0.39854 -0.639847,-0.72461 -0.8688,-0.72461 -0.909235,0 -1.010048,-4.21926 -0.134394,-5.6246 0.465501,-0.74709 2.780316,-0.0749 3.576456,1.03849 0.66026,0.9234 1.11526,4.02979 0.72341,4.93889 -0.12545,0.29104 -0.46621,0.54506 -0.75725,0.56449 -0.29104,0.0194 -0.87966,0.14707 -1.308034,0.28363 -0.576251,0.18371 -0.896584,0.0598 -1.231388,-0.47629 z m 6.786522,0.007 c -0.33014,-0.61688 -0.51761,-0.67526 -1.12479,-0.35031 -0.93418,0.49996 -1.2892,0.12298 -1.50231,-1.59522 -0.22082,-1.78029 -0.069,-1.9798 1.15529,-1.5177 0.78205,0.29519 1.13568,0.77875 1.57565,2.15457 0.6033,1.88657 0.55193,2.53398 -0.10384,1.30866 z m 7.968305,0.0464 c -0.11346,-0.18357 -0.68584,-0.42968 -1.27196,-0.54691 -1.01771,-0.20353 -1.06567,-0.29369 -1.06567,-2.00335 0,-2.39887 0.72452,-3.70696 2.35039,-4.24355 1.1844,-0.39089 1.3595,-0.36233 1.90444,0.31065 1.1963,1.47736 1.12924,5.35271 -0.0926,5.35271 -0.1398,0 -0.5611,0.32945 -0.93624,0.73211 -0.37513,0.40267 -0.77489,0.58192 -0.88834,0.39835 z m -6.565565,-0.64629 c -0.003,-0.41281 0.23273,-0.94818 0.52377,-1.18972 0.29104,-0.24155 0.52917,-0.65228 0.52917,-0.91273 0,-0.61971 1.3185,-1.31496 1.99872,-1.05394 0.41573,0.15953 0.47907,0.5329 0.2889,1.70286 -0.2943,1.81062 -0.62217,2.23006 -1.19948,1.53445 -0.44584,-0.53721 -1.41193,-0.38733 -1.87649,0.29112 -0.14817,0.21638 -0.2615,0.057 -0.26459,-0.37204 z m -14.793294,-1.31956 c -0.900924,-1.45772 -0.914354,-2.43822 -0.0592,-4.32133 1.702784,-3.74967 4.334316,-2.75129 4.334316,1.6444 0,2.85859 -0.274871,3.56303 -1.290786,3.30805 -0.450705,-0.11312 -0.925527,-0.0341 -1.055158,0.17569 -0.435759,0.70507 -1.189638,0.38979 -1.929173,-0.80681 z m -15.27222,-0.29188 c -0.318703,-0.71702 -0.908681,-1.50926 -1.311063,-1.76055 -0.994029,-0.62079 -0.920221,-0.93095 0.171852,-0.72219 1.151156,0.22006 2.006166,1.51506 1.844354,2.79346 l -0.125681,0.99294 z m 10.470329,0.73132 c -0.393894,-0.1915 -0.917388,-0.80277 -1.16332,-1.35837 -0.55027,-1.24314 0.01587,-2.83575 1.547421,-4.35308 l 1.001426,-0.99212 0.618822,0.81574 c 0.784719,1.03441 1.17444,4.04353 0.688192,5.31364 -0.395894,1.03411 -1.33477,1.23433 -2.692541,0.57419 z m 31.93701,0.0458 c -0.29105,-0.18663 -0.80698,-0.25288 -1.14653,-0.14722 -0.33955,0.10566 -0.62428,0.0623 -0.63273,-0.0963 -0.008,-0.15859 -0.15779,-1.00273 -0.33188,-1.87585 -0.37947,-1.90318 0.11709,-4.17122 0.9831,-4.49035 0.32938,-0.12137 0.70824,-0.3847 0.84192,-0.58517 0.34201,-0.51289 1.6842,0.75772 2.27508,2.15377 0.69359,1.6387 0.59214,3.15207 -0.29142,4.34714 -0.85106,1.15113 -0.93258,1.18445 -1.69754,0.69393 z m 5.29166,-0.2673 c -0.9129,-0.29207 -1.41111,-1.23117 -1.41111,-2.65988 0,-1.58727 0.92461,-3.77825 1.59445,-3.77825 0.25065,0 0.95447,0.75296 1.56403,1.67323 0.81237,1.22646 1.04917,1.90886 0.88683,2.55567 -0.37937,1.51152 -1.60421,2.53876 -2.6342,2.20923 z m -18.439265,-1.11819 c -0.15344,-0.58679 -0.10753,-0.72453 0.15425,-0.46274 0.205,0.205 0.30332,0.58096 0.21848,0.83547 -0.0881,0.26421 -0.24798,0.1043 -0.37273,-0.37273 z m -21.42462,-2.14494 c 0,-0.19403 -0.213522,-0.35278 -0.47449,-0.35278 -0.631984,0 -1.492433,-1.02947 -1.754163,-2.09873 -0.287404,-1.17418 0.870758,-2.97039 2.375722,-3.68454 0.656855,-0.3117 1.360841,-0.56673 1.564411,-0.56673 1.227258,0 1.023056,3.21431 -0.360609,5.67621 -0.740424,1.3174 -1.350871,1.7813 -1.350871,1.02657 z m 43.334205,-0.94281 c -0.72452,-0.19195 -1.72698,-2.23767 -1.96459,-4.00913 -0.15207,-1.13381 -0.0665,-1.35944 0.59545,-1.56953 1.86455,-0.59179 4.38907,1.85606 3.99065,3.86944 -0.33613,1.69862 -1.00801,2.13668 -2.62151,1.70922 z m 32.95399,-0.28869 c -1.79331,-0.77944 -1.34322,-1.24347 0.52917,-0.54554 0.92163,0.34354 1.91382,0.71263 2.20486,0.8202 0.29104,0.10757 0.0529,0.2019 -0.52917,0.20963 -0.58208,0.008 -1.57427,-0.21021 -2.20486,-0.48429 z M 63.575581,140.2985 c 0,-1.17307 -0.983738,-3.88769 -1.408843,-3.88769 -0.150646,0 -0.533943,-0.39688 -0.851771,-0.88194 -0.317832,-0.48507 -0.426163,-0.88195 -0.240736,-0.88195 0.185427,0 0.437907,0.3175 0.561072,0.70556 0.123165,0.38805 0.343299,0.70555 0.489187,0.70555 0.249872,0 2.512169,-4.83214 2.510296,-5.36186 -3.53e-4,-0.13562 -0.587506,-0.001 -1.304502,0.29811 -0.717,0.29958 -1.550437,0.59531 -1.852083,0.65718 -0.30165,0.0619 -0.814448,0.21799 -1.139554,0.34692 -0.406439,0.16119 -0.778559,-0.0517 -1.191143,-0.68135 -0.470818,-0.71855 -0.704395,-0.82918 -1.084595,-0.51364 -0.561897,0.46634 -0.648952,1.37409 -0.131773,1.37409 0.194028,0 0.352778,0.39875 0.352778,0.88611 0,0.83978 -0.07839,0.87528 -1.499306,0.67903 -4.229243,-0.58413 -7.59898,-1.62286 -8.378472,-2.58267 -0.728577,-0.89712 -2.701186,-1.74096 -4.938889,-2.11274 -2.99144,-0.49701 -6.393265,-2.03652 -6.317924,-2.8592 0.02704,-0.29531 0.03089,-0.74294 0.0085,-0.99474 -0.05755,-0.64858 -1.797575,-2.18798 -2.473387,-2.18821 -0.592157,-2e-4 -3.917238,-3.03006 -3.917238,-3.56944 0,-0.17101 -0.156631,-0.31092 -0.348069,-0.31092 -0.191438,0 -0.982372,-0.43656 -1.757632,-0.97014 -1.099007,-0.7564 -1.460929,-1.26905 -1.642705,-2.32688 -0.196313,-1.14241 -2.1618,-4.58265 -2.953542,-5.16965 -0.487831,-0.36167 -2.906625,-4.39705 -3.677719,-6.13569 -1.472124,-3.31929 -1.660669,-3.98982 -1.549243,-5.509619 0.149318,-2.03663 0.774573,-2.37352 2.768047,-1.49147 0.866877,0.38357 2.290515,0.89558 3.163641,1.1378 3.988214,1.10642 7.564428,2.986559 10.101866,5.310899 1.108402,1.01531 1.362616,1.43863 1.058334,1.76232 -0.312171,0.33208 -0.227204,0.33691 0.385333,0.0219 0.657881,-0.33834 0.752428,-0.31713 0.580759,0.13023 -0.118763,0.30949 0.03303,0.62572 0.360717,0.75146 0.311173,0.11941 0.565769,0.43825 0.565769,0.70853 0,0.27028 0.119062,0.49447 0.264583,0.49819 0.145521,0.004 0.882186,0.54582 1.637033,1.20465 0.754847,0.65883 1.558613,1.12643 1.786148,1.03912 0.227534,-0.0873 0.706099,0.16435 1.063477,0.55924 0.357378,0.3949 1.081986,0.718 1.61024,0.718 1.008853,0 1.955749,0.7967 1.610615,1.35514 -0.324807,0.52555 0.509489,2.50858 1.214041,2.88564 1.166373,0.62423 1.824827,0.43417 1.553534,-0.44842 -0.286834,-0.93314 -0.07379,-0.77619 0.536629,0.39535 0.350713,0.6731 0.348136,0.78217 -0.0132,0.55885 -0.250985,-0.15512 -0.188724,0.0941 0.141193,0.56509 0.644497,0.92015 0.787536,2.09669 0.254906,2.09669 -0.184386,0 -0.497059,-0.27782 -0.694828,-0.61737 -0.338713,-0.58153 -0.360202,-0.58007 -0.370307,0.0252 -0.0095,0.57117 -0.06952,0.58377 -0.539894,0.1134 -0.631237,-0.63123 -0.69107,-1.28511 -0.117594,-1.28511 0.226365,0 0.327242,-0.0843 0.22417,-0.1874 -0.447622,-0.44763 -2.357025,1.10953 -2.596875,2.11781 -0.139759,0.58751 -0.274047,1.14757 -0.298418,1.24459 -0.02437,0.097 -0.150468,0.34272 -0.280215,0.54601 -0.333922,0.5232 0.07464,1.03129 1.35775,1.68853 0.976112,0.49998 1.163442,0.50596 1.542502,0.0492 0.237302,-0.28593 0.633161,-0.51988 0.879686,-0.51988 0.246525,0 0.556829,-0.27781 0.689563,-0.61736 0.207889,-0.5318 0.312139,-0.48353 0.752217,0.3483 0.471144,0.89054 0.929162,1.12417 2.748289,1.40186 0.857986,0.13097 1.641371,1.35728 1.013191,1.58604 -0.334463,0.12181 -0.313117,0.3958 0.09185,1.17891 0.624486,1.20763 1.706279,1.86569 2.600461,1.58189 0.363944,-0.11551 0.835664,0.0289 1.088203,0.33323 0.245181,0.29542 0.354182,0.53713 0.242232,0.53713 -0.111954,0 0.186108,0.38966 0.662358,0.86591 0.47625,0.47625 0.86591,1.03188 0.86591,1.23473 0,0.20284 0.595313,0.35627 1.322917,0.34096 0.727604,-0.0153 1.119389,-0.10962 0.870631,-0.20956 -0.251792,-0.10116 0.984144,-1.10275 2.788056,-2.25943 1.782188,-1.14274 3.493841,-2.30462 3.803675,-2.58196 0.309834,-0.27734 1.717523,-1.08178 3.1282,-1.78764 2.223206,-1.11244 2.632016,-1.21624 3.06897,-0.77929 0.416863,0.41687 0.424875,0.61245 0.04629,1.1302 -0.286568,0.39191 -0.630177,0.51957 -0.918615,0.34131 -0.289448,-0.17889 -0.375099,-0.14612 -0.230329,0.0881 0.12719,0.2058 -0.204096,0.54413 -0.739242,0.75496 -1.067397,0.42053 -1.91575,0.92732 -3.258725,1.94669 -0.657529,0.4991 -0.704057,0.60111 -0.180439,0.39561 0.388055,-0.1523 1.10243,-0.36145 1.5875,-0.46479 0.744227,-0.15855 0.815082,-0.10691 0.453757,0.33069 -0.345504,0.41844 -0.288738,0.63798 0.293991,1.13692 0.397196,0.34009 0.634499,0.84683 0.527339,1.12608 -0.719427,1.8748 -5.181103,6.85715 -6.140549,6.85715 -0.299089,0 -0.437617,0.10618 -0.307841,0.23596 0.129773,0.12977 -0.01598,0.51433 -0.323878,0.85456 -0.307908,0.34023 -0.64666,1.26593 -0.752779,2.0571 -0.223008,1.66268 -0.805596,1.94276 -0.805596,0.3873 z m 2.643336,-11.29198 c 0.123592,-0.19998 -0.01803,-0.25912 -0.331957,-0.13865 -0.611159,0.23452 -0.722979,0.48738 -0.215533,0.48738 0.182576,0 0.428949,-0.15693 0.54749,-0.34873 z M 38.704746,108.54137 c -0.119915,-0.19403 -0.486472,-0.35035 -0.814569,-0.34738 -0.514095,0.005 -0.523406,0.0527 -0.06738,0.34738 0.69087,0.44647 1.157881,0.44647 0.881944,0 z m -1.940277,-1.41111 c 0,-0.19403 -0.16812,-0.35278 -0.373598,-0.35278 -0.205479,0 -0.275485,0.15875 -0.155569,0.35278 0.119916,0.19402 0.288034,0.35277 0.373598,0.35277 0.08556,0 0.155569,-0.15875 0.155569,-0.35277 z m 56.857586,32.47707 c -0.22897,-0.65685 -0.34067,-1.26991 -0.24821,-1.36238 0.23553,-0.23552 0.94424,1.71752 0.79056,2.17858 -0.0693,0.20793 -0.31337,-0.15936 -0.54235,-0.8162 z m 1.73138,-0.58008 c 0.0169,-0.41097 0.10052,-0.49456 0.21314,-0.21314 0.1019,0.25466 0.0894,0.55893 -0.0278,0.67616 -0.11723,0.11722 -0.2006,-0.0911 -0.18528,-0.46302 z m -24.36952,-0.75963 c 0,-0.20307 -0.364635,-0.46073 -0.810299,-0.57258 -0.810895,-0.20352 -0.829377,-0.28328 -0.646303,-2.78872 0.02501,-0.34239 0.572865,-1.198 1.217432,-1.90135 1.168337,-1.27488 1.17486,-1.2769 2.120809,-0.65708 1.419959,0.93039 1.550804,2.066 0.425192,3.69026 -1.109786,1.60142 -2.306831,2.75832 -2.306831,2.22947 z m 18.96181,-1.17951 c -0.33955,-0.19777 -0.617364,-0.26824 -0.617364,-0.1566 0,0.11163 -0.48144,-0.046 -1.06987,-0.35028 -1.098342,-0.56797 -1.153121,-1.37999 -0.06536,-0.96889 0.821887,0.31062 2.899124,1.53961 2.899124,1.71526 0,0.24112 -0.50106,0.13646 -1.14653,-0.23949 z m 3.61597,-1.38286 c -0.39594,-0.77611 -0.95113,-1.41111 -1.23376,-1.41111 -0.28262,0 -0.76763,-0.38729 -1.07779,-0.86065 -0.31015,-0.47336 -0.77401,-0.78004 -1.03078,-0.68151 -0.25677,0.0985 -0.57166,0.01 -0.699754,-0.19768 -0.12809,-0.20725 -0.541023,-0.37682 -0.917627,-0.37682 -0.376605,0 -0.684735,-0.23813 -0.684735,-0.52917 0,-0.29104 -0.119063,-0.51037 -0.264583,-0.48739 -0.75558,0.1193 -1.265668,-0.15827 -2.50788,-1.36469 -0.749191,-0.72761 -1.622979,-1.2715 -1.941749,-1.20865 -0.786522,0.15506 -1.120832,-0.86417 -0.528729,-1.61198 0.451206,-0.56985 0.422165,-0.56958 -0.477288,0.004 -1.142022,0.7289 -1.733211,0.78652 -1.487014,0.14494 0.163022,-0.42482 -1.43274,-1.49991 -2.02921,-1.36711 -0.132341,0.0295 -0.786864,-0.17465 -1.454496,-0.45361 -0.667635,-0.27896 -1.31342,-0.40765 -1.435075,-0.28599 -0.121659,0.12166 -0.221199,0.12108 -0.221199,-0.001 0,-0.12236 0.592476,-0.62507 1.316613,-1.11713 l 1.316616,-0.89451 h -0.984656 c -0.541563,0 -0.893325,-0.14779 -0.781696,-0.32841 0.111633,-0.18062 0.0339,-0.43288 -0.172698,-0.56057 -0.260241,-0.16084 -0.245872,-0.38856 0.04677,-0.74117 0.360634,-0.43454 0.28278,-0.4559 -0.532197,-0.14605 -0.618596,0.23519 -0.878113,0.23915 -0.737256,0.0112 0.119553,-0.19346 0.04925,-0.35173 -0.156228,-0.35173 -0.205479,0 -0.373598,-0.29381 -0.373598,-0.65291 0,-1.13479 -0.755626,-2.87486 -1.248414,-2.87486 -0.260607,0 -0.569066,-0.15409 -0.685461,-0.34242 -0.281076,-0.45479 0.714851,-2.34397 1.492895,-2.83189 0.514347,-0.32256 0.470197,-0.34746 -0.264576,-0.14923 -1.134928,0.30617 -2.297977,0.90283 -4.832128,2.47894 -1.918314,1.19309 -1.973622,1.30638 -0.313475,0.6421 0.466739,-0.18675 0.598375,-0.14582 0.426311,0.13258 -0.413085,0.66839 0.773663,2.13755 1.560456,1.9318 0.404026,-0.10566 0.689392,-0.003 0.689392,0.24738 0,0.90761 1.4916,2.53809 2.161617,2.36288 0.363333,-0.095 0.660605,-0.10984 0.660605,-0.0329 0,0.21032 -6.279399,3.3219 -6.703861,3.3219 -0.202378,0 -0.107919,-0.39688 0.209913,-0.88195 0.370191,-0.56498 0.432044,-0.88194 0.17211,-0.88194 -0.291363,0 -0.30316,-0.19172 -0.04184,-0.68 0.621358,-1.16102 -0.07676,-2.03683 -1.465142,-1.83805 -0.134257,0.0192 -1.003815,-0.10698 -1.932358,-0.28045 -0.961415,-0.17961 -1.935135,-0.18328 -2.261687,-0.008 -0.468746,0.25086 -0.544393,0.15498 -0.414369,-0.52519 0.143415,-0.75023 0.267649,-0.80094 1.26293,-0.5155 0.883215,0.25331 1.232803,0.18765 1.7489,-0.32844 0.624854,-0.62486 0.607674,-0.67063 -0.549304,-1.4634 -0.933185,-0.63943 -1.181089,-1.04099 -1.133767,-1.83648 0.07952,-1.33659 1.736076,-3.00615 4.308228,-4.34204 1.120761,-0.58208 2.090748,-1.17765 2.155525,-1.32347 0.06478,-0.14583 0.727089,-0.36258 1.4718,-0.48166 1.313801,-0.21009 1.361094,-0.26798 1.59228,-1.94889 0.415907,-3.02402 1.886363,-3.59553 3.947608,-1.53429 1.090055,1.09006 1.210568,1.38471 1.007996,2.4645 -0.303072,1.61552 0.189568,2.44437 1.84701,3.10754 0.749099,0.29973 2.380919,1.40989 3.626263,2.46702 1.245344,1.05713 2.621453,2.03231 3.058015,2.16707 0.436563,0.13476 0.793751,0.45545 0.793751,0.71266 0,0.25721 0.238125,0.55902 0.529166,0.67071 0.291042,0.11168 0.529167,0.44118 0.529167,0.73223 0,0.29104 0.198437,0.4558 0.440972,0.36614 0.714297,-0.26408 3.861571,3.62903 4.539051,5.6147 0.52786,1.54718 0.89469,1.52079 0.69076,-0.0497 -0.0315,-0.24253 0.10844,-0.44097 0.31097,-0.44097 0.20254,0 0.36825,0.23813 0.36825,0.52917 0,0.29104 0.16812,0.52917 0.37359,0.52917 0.20548,0 0.28227,0.14778 0.17064,0.3284 -0.11163,0.18062 -0.0533,0.42089 0.12958,0.53392 0.20657,0.12767 0.20875,0.63715 0.006,1.34496 -0.40449,1.41037 -0.40449,1.41016 0.026,1.1441 0.56057,-0.34645 0.40876,1.12835 -0.17639,1.7135 -0.29104,0.29104 -0.52917,0.61988 -0.52917,0.73075 0,0.11087 0.23813,0.20159 0.52917,0.20159 0.56051,0 0.72165,0.54495 0.24774,0.83784 -0.40768,0.25196 -0.91328,-0.18198 -1.38726,-1.19062 -0.34976,-0.7443 -0.3815,-0.55159 -0.20336,1.23472 0.11609,1.16417 0.41051,2.79136 0.65426,3.61597 0.55476,1.87679 0.38071,1.9049 -0.5461,0.0882 z m -0.11914,-8.90763 c -0.0979,-0.24254 -0.17794,-0.0441 -0.17794,0.44097 0,0.48507 0.0801,0.6835 0.17794,0.44097 0.0979,-0.24253 0.0979,-0.63941 0,-0.88194 z m 25.993095,9.5416 c -1.36955,-1.50267 -1.64359,-2.35183 -1.05092,-3.25637 0.85704,-1.308 1.92858,-1.37191 3.1147,-0.1858 0.87109,0.87109 1.01435,1.26512 0.92245,2.53709 -0.10044,1.3901 -0.191,1.51389 -1.17824,1.61063 -0.75622,0.0741 -1.28574,-0.13253 -1.80799,-0.70555 z m -38.633876,-0.0633 c -0.781396,-0.57138 -0.951752,-2.05928 -0.295586,-2.58164 0.445252,-0.35445 0.403296,-0.39103 -0.25757,-0.22456 -0.533347,0.13435 -0.860323,0.0142 -1.007883,-0.37032 -0.120127,-0.31306 -0.439557,-0.56919 -0.709841,-0.56919 -0.270281,0 -0.491423,-0.15875 -0.491423,-0.35278 0,-0.19403 -0.308131,-0.35278 -0.684735,-0.35278 -0.376604,0 -0.798008,-0.18328 -0.936452,-0.40728 -0.155956,-0.25235 -0.09677,-0.31153 0.155568,-0.15557 0.241339,0.14915 0.407285,0.0276 0.407285,-0.29827 0,-0.30249 -0.3175,-0.56983 -0.705555,-0.59409 -1.436942,-0.0898 -2.944559,-0.88366 -2.633624,-1.38677 0.1146,-0.18542 0.0025,-0.90646 -0.249132,-1.60231 -0.413568,-1.1437 -0.392282,-1.31286 0.221725,-1.76183 0.901202,-0.65898 1.02164,-0.63404 1.434874,0.29709 0.255764,0.57631 0.61801,0.77541 1.322338,0.7268 0.86493,-0.0597 0.912368,-0.009 0.437646,0.46547 -0.649517,0.64952 -0.267124,1.52584 1.039346,2.38188 0.492951,0.32299 0.896271,0.81765 0.896271,1.09923 0,0.28159 0.47625,0.75826 1.058334,1.05926 0.582083,0.30101 1.060764,0.74165 1.063734,0.9792 0.004,0.31856 0.08202,0.31111 0.297346,-0.0284 0.23611,-0.37227 0.589276,-0.34525 1.846682,0.14125 0.855105,0.33085 1.686835,0.7177 1.848284,0.85967 0.443064,0.38962 -0.549105,1.75243 -1.275814,1.75243 -0.394066,0 -0.596713,0.21766 -0.532504,0.57195 0.129685,0.71554 -1.420237,0.95777 -2.249314,0.35154 z m -2.409526,-5.15682 c 0,-0.19403 -0.07001,-0.35278 -0.155568,-0.35278 -0.08556,0 -0.253682,0.15875 -0.373598,0.35278 -0.119916,0.19402 -0.04991,0.35277 0.155568,0.35277 0.205479,0 0.373598,-0.15875 0.373598,-0.35277 z m 7.055556,4.94995 c 0,-0.18793 -0.256593,-0.24324 -0.570205,-0.12289 -0.48569,0.18637 -0.509993,0.1063 -0.163978,-0.54024 0.223425,-0.41748 0.519705,-0.754 0.6584,-0.74783 0.575098,0.0256 1.540242,1.02818 1.325012,1.37642 -0.290439,0.46994 -1.249229,0.49645 -1.249229,0.0345 z m 12.157761,-0.18745 c 0.14202,-0.38806 0.31901,-2.05493 0.39331,-3.70417 0.0743,-1.64924 0.0191,-2.64618 -0.12258,-2.21544 -0.19312,0.58701 -0.3902,0.70049 -0.78682,0.45307 -0.36681,-0.22883 -0.52917,-0.92883 -0.52917,-2.28156 0,-1.0733 0.1042,-1.95186 0.23156,-1.95237 0.12735,-3.5e-4 0.16023,-0.27873 0.073,-0.61828 -0.0961,-0.37421 0.14549,-0.80481 0.61334,-1.09327 0.66042,-0.4072 0.74361,-0.40231 0.57623,0.0339 -0.10759,0.28038 -0.071,1.36766 0.0812,2.41618 l 0.27685,1.90641 0.044,-2.40444 c 0.05,-2.7336 0.3199,-3.38842 2.199915,-5.33806 0.92488,-0.95912 1.23697,-1.51998 1.0028,-1.80213 -0.25024,-0.30152 0.0427,-0.38806 1.10964,-0.32785 0.7973,0.045 1.28857,-0.0177 1.09172,-0.13941 -0.21281,-0.13153 -0.0132,-0.62196 0.4924,-1.20975 0.46767,-0.54369 0.85031,-0.89227 0.85031,-0.7746 0,0.11767 0.51594,-0.26962 1.14653,-0.86064 0.63059,-0.59102 1.27194,-1.07531 1.42524,-1.07621 0.15329,-10e-4 0.88277,-0.63663 1.62107,-1.41275 0.88072,-0.92582 1.65147,-1.41111 2.24118,-1.41111 0.49435,0 0.98365,-0.22105 1.08732,-0.49122 0.10368,-0.27017 0.87473,-0.74818 1.71344,-1.06225 0.83872,-0.31406 1.18144,-0.50833 0.76162,-0.4317 -0.81386,0.14854 -1.16285,-0.52744 -1.17214,-2.27035 -0.01,-1.84292 3.13249,-3.68439 4.29808,-2.5188 0.58308,0.58308 0.78502,3.28919 0.26924,3.60796 -0.26424,0.16331 0.0404,0.27641 0.75579,0.28058 0.65915,0.004 1.67471,0.22118 2.2568,0.48296 1.96528,0.88385 6.02442,3.71009 6.60821,4.60107 0.53872,0.82219 0.53761,0.96917 -0.0156,2.0773 -0.81445,1.63133 -1.52409,1.53604 -6.4162,-0.86158 -2.23132,-1.09357 -4.5332,-2.07882 -5.11528,-2.18943 l -1.05833,-0.20112 1.15851,0.53464 c 0.6981,0.32215 1.35545,0.99506 1.65403,1.69315 0.45431,1.06219 0.43787,1.20322 -0.19762,1.69617 -0.38123,0.29572 -0.7929,1.16884 -0.91483,1.94028 -0.25066,1.58587 -0.67909,2.01408 -1.69733,1.69646 -0.59649,-0.18607 -0.63557,-0.13823 -0.25841,0.31622 0.36998,0.4458 0.29879,0.63082 -0.42526,1.10523 -0.47829,0.3134 -1.15576,0.4829 -1.50547,0.37668 -0.34971,-0.10623 -0.0405,0.13748 0.68707,0.54157 0.7276,0.40409 1.32292,0.89903 1.32292,1.09988 0,0.20084 -0.15875,0.26705 -0.35278,0.14714 -0.19403,-0.11992 -0.35278,-0.0684 -0.35278,0.11442 0,0.31362 -1.05899,0.78046 -2.02556,0.89293 -0.24094,0.0281 -0.90446,0.49046 -1.47449,1.0276 -0.60584,0.57088 -1.12866,0.82736 -1.25845,0.61736 -0.38262,-0.6191 -0.76676,-0.39281 -0.73756,0.43449 0.0213,0.604 -0.16175,0.78706 -0.76574,0.76574 -0.43657,-0.0154 -0.79714,0.14335 -0.80129,0.35278 -0.01,0.50623 -2.59968,2.32106 -3.31203,2.32106 -0.30854,0 -0.56099,0.14713 -0.56099,0.32694 0,0.59186 -2.01715,1.39536 -2.44041,0.9721 -0.2739,-0.27389 -0.38182,-0.22968 -0.38182,0.15642 0,0.62296 -1.434585,2.07233 -2.051195,2.07233 -0.23003,0 -0.42329,0.19844 -0.42946,0.44097 -0.006,0.24254 -0.26565,0.75847 -0.57663,1.14653 l -0.56541,0.70555 z m 7.753715,-0.56229 c -0.10866,-0.17581 0.11608,-0.31966 0.49942,-0.31966 0.38333,0 0.77705,-0.19844 0.87491,-0.44097 0.11294,-0.27991 0.18811,-0.23051 0.20579,0.13524 0.0304,0.62984 -1.26138,1.14112 -1.58012,0.62539 z m 4.07741,0.004 c 0,-0.2102 -0.19087,-0.31855 -0.42416,-0.24079 -0.41033,0.13678 -2.04528,-1.04812 -2.04528,-1.48228 0,-0.11777 0.5097,-0.25296 1.13267,-0.30043 0.62297,-0.0475 1.24195,-0.26312 1.37551,-0.47922 0.29469,-0.47682 1.31824,-0.13611 1.57116,0.523 0.27846,0.72564 -0.4642,2.3619 -1.072,2.3619 -0.29584,0 -0.5379,-0.17198 -0.5379,-0.38218 z M 59.151352,134.6237 c -0.127892,-0.20694 -0.159984,-0.4488 -0.07131,-0.53747 0.246052,-0.24606 1.320539,0.24108 1.320539,0.59868 0,0.44161 -0.967779,0.39418 -1.249229,-0.0612 z m 35.468673,0.0235 c 0,-0.19403 0.15875,-0.35278 0.35278,-0.35278 0.19403,0 0.35278,0.15875 0.35278,0.35278 0,0.19403 -0.15875,0.35278 -0.35278,0.35278 -0.19403,0 -0.35278,-0.15875 -0.35278,-0.35278 z m 77.677355,-0.0203 c -2.71704,-1.08559 -2.77563,-4.25609 -0.142,-7.68366 0.54592,-0.71049 1.1748,-1.68868 1.39751,-2.17375 0.32229,-0.70195 0.39072,0.22809 0.33534,4.55713 -0.0418,3.26857 -0.21037,5.4764 -0.42237,5.53263 -0.19403,0.0515 -0.71984,-0.0531 -1.16848,-0.23235 z m -78.206515,-1.39076 c -0.11992,-0.19402 0.11821,-0.35277 0.52916,-0.35277 0.41096,0 0.64909,0.15875 0.52917,0.35277 -0.11992,0.19403 -0.35804,0.35278 -0.52917,0.35278 -0.17112,0 -0.40925,-0.15875 -0.52916,-0.35278 z m 2.64583,-0.37359 c 0,-0.20548 0.15875,-0.27549 0.35278,-0.15557 0.19403,0.11991 0.35278,0.28803 0.35278,0.3736 0,0.0856 -0.15875,0.15556 -0.35278,0.15556 -0.19403,0 -0.35278,-0.16811 -0.35278,-0.37359 z M 20.89926,131.78503 c -1.789399,-0.7141 -2.126459,-1.46031 -2.126459,-4.70775 0,-1.65735 0.137341,-3.01336 0.305203,-3.01336 0.167861,0 0.718995,0.32549 1.224741,0.72331 0.734825,0.57801 1.063273,0.64638 1.635075,0.34036 0.393545,-0.21062 0.715537,-0.60414 0.715537,-0.8745 0,-0.27035 0.213052,-0.7046 0.47345,-0.965 0.260398,-0.2604 0.662858,-0.82737 0.894357,-1.25993 0.562229,-1.05053 2.025968,-1.05886 2.35778,-0.0134 0.471195,1.48461 2.073809,2.73307 4.727593,3.68286 4.788292,1.71374 5.204683,4.06011 0.994553,5.60433 -1.495737,0.54861 -1.956713,0.5632 -4.540125,0.14366 -2.594751,-0.42138 -2.977312,-0.40844 -3.920072,0.13263 -1.177402,0.67574 -1.50472,0.70043 -2.741633,0.20681 z m 75.875905,-0.09 c -0.3145,-0.37896 -0.32099,-0.57731 -0.0249,-0.76032 0.57536,-0.35559 1.28914,0.43427 0.81811,0.9053 -0.25512,0.25512 -0.49803,0.21073 -0.79324,-0.14498 z m 16.774185,-1.4395 c -0.13112,-0.34167 -0.0266,-0.44615 0.31503,-0.31504 0.558,0.21413 0.70333,0.82624 0.19617,0.82624 -0.17327,0 -0.40331,-0.23004 -0.5112,-0.5112 z m -53.956337,-0.79219 c -0.09229,-0.15626 -0.280808,-0.81078 -0.418935,-1.45448 -0.138126,-0.6437 -0.473382,-1.25565 -0.745013,-1.35988 -0.271632,-0.10424 -0.41033,-0.3247 -0.308215,-0.48992 0.102111,-0.16523 0.402643,-0.21715 0.667843,-0.11538 0.265204,0.10177 0.586987,0.0155 0.715081,-0.19179 0.12809,-0.20726 0.06477,-0.39667 -0.140706,-0.42093 -0.205479,-0.0242 -0.558807,-0.0639 -0.785174,-0.0882 -0.226363,-0.0242 -0.477756,-0.24264 -0.558644,-0.48531 -0.0937,-0.2811 0.0571,-0.36286 0.415575,-0.2253 0.412003,0.1581 0.504243,0.0637 0.344513,-0.35254 -0.146802,-0.38256 -0.02593,-0.56844 0.369598,-0.56844 0.32325,0 0.503964,-0.13554 0.401581,-0.3012 -0.10238,-0.16565 0.218697,-0.48565 0.7135,-0.71109 1.107571,-0.50465 3.797325,0.15689 3.524861,0.86693 -0.09281,0.24186 0.0273,0.51497 0.266908,0.60692 0.23961,0.0919 0.476204,0.85441 0.525766,1.69436 0.04956,0.83996 -0.02134,1.41575 -0.157533,1.27955 -0.136204,-0.1362 -0.501883,0.0421 -0.812624,0.39612 -0.766392,0.87326 -2.08855,1.54122 -2.521289,1.27377 -0.194825,-0.1204 -0.310607,-0.0181 -0.257295,0.22732 0.108201,0.49811 -0.976594,0.86515 -1.239798,0.41949 z m 88.296457,-0.44943 c 0,-0.45882 0.17201,-0.62848 0.50689,-0.49997 0.27879,0.10698 0.42056,0.4195 0.31504,0.69448 -0.2824,0.73591 -0.82193,0.60823 -0.82193,-0.19451 z m -32.34874,-0.29627 c -0.27445,-0.17063 -0.3098,-0.44464 -0.10095,-0.78245 0.27529,-0.44528 0.41179,-0.42416 0.95152,0.1472 0.34656,0.36688 0.44523,0.56433 0.21927,0.43878 -0.22596,-0.12556 -0.46408,-0.0736 -0.52916,0.11538 -0.0651,0.18903 -0.30839,0.22551 -0.54068,0.0811 z m 9.50638,-0.86223 c -2.69379,-1.17806 -3.12693,-1.5866 -1.68213,-1.5866 0.48153,0 0.79079,0.13709 0.68723,0.30464 -0.10355,0.16755 0.022,0.22396 0.27892,0.12536 0.44711,-0.17157 0.75626,0.007 2.74445,1.58181 1.17337,0.92963 0.97394,0.88782 -2.02847,-0.42521 z m 9.50295,-0.28573 c 0.0849,-0.25467 0.3627,-0.53248 0.61736,-0.61736 0.26459,-0.0882 0.39688,0.0441 0.30868,0.30868 -0.0849,0.25466 -0.3627,0.53247 -0.61736,0.61736 -0.26458,0.0882 -0.39687,-0.0441 -0.30868,-0.30868 z m -18.23224,-0.32756 c -0.30467,-0.49296 0.93854,-2.09541 1.63599,-2.10875 0.73167,-0.014 1.07981,0.83421 0.55698,1.35703 -0.21767,0.21768 -0.69088,0.39577 -1.05159,0.39577 -0.3607,0 -0.5577,0.15875 -0.43779,0.35278 0.11992,0.19403 0.0593,0.35278 -0.13475,0.35278 -0.19402,0 -0.45,-0.15733 -0.56884,-0.34961 z m 12.87443,-0.2683 c -1.03731,-0.5182 -1.25223,-0.82833 -1.34422,-1.93973 -0.0634,-0.76581 0.0481,-1.32292 0.26459,-1.32292 0.20574,0 0.37407,-0.21264 0.37407,-0.47254 0,-0.60345 1.58589,-1.33751 2.29868,-1.06399 1.23913,0.4755 1.67626,2.47848 0.66636,3.05337 -0.27258,0.15516 -0.49559,0.75047 -0.49559,1.32291 0,1.21461 -0.12099,1.24362 -1.76389,0.4229 z m -72.385593,-0.32864 c 0.25466,-0.1019 0.558931,-0.0894 0.676159,0.0278 0.117224,0.11723 -0.09114,0.20061 -0.463021,0.18529 -0.410969,-0.0169 -0.494559,-0.10052 -0.213138,-0.21313 z m 93.935233,-1.87604 c -0.0107,-0.29104 0.13449,-0.76729 0.32258,-1.05833 0.41674,-0.64487 0.41674,-0.0879 0,0.88194 -0.19991,0.46523 -0.30979,0.52531 -0.32258,0.17639 z m -27.0177,-0.35277 c -0.11991,-0.19403 -0.0499,-0.35278 0.15557,-0.35278 0.20548,0 0.3736,0.15875 0.3736,0.35278 0,0.19402 -0.07,0.35277 -0.15557,0.35277 -0.0856,0 -0.25368,-0.15875 -0.3736,-0.35277 z m -68.615276,-0.3736 c 0,-0.20548 0.15875,-0.27549 0.352778,-0.15557 0.194028,0.11992 0.352778,0.28804 0.352778,0.3736 0,0.0856 -0.15875,0.15557 -0.352778,0.15557 -0.194028,0 -0.352778,-0.16812 -0.352778,-0.3736 z m 66.234026,-0.90346 c -0.53357,-0.28015 -0.97014,-0.66305 -0.97014,-0.85088 0,-0.54626 0.6099,-0.39409 0.84171,0.21002 0.11641,0.30334 0.36055,0.4595 0.54254,0.34702 0.18199,-0.11247 0.43713,-0.0326 0.56698,0.1775 0.38336,0.62029 0.0533,0.65943 -0.98109,0.11634 z m 17.02153,0.0423 c 0.24154,-0.29104 0.59792,-0.52916 0.79195,-0.52916 0.19679,0 0.15859,0.23398 -0.0864,0.52916 -0.24155,0.29105 -0.59792,0.52917 -0.79195,0.52917 -0.19679,0 -0.15859,-0.23398 0.0864,-0.52917 z m -80.9625,-0.71892 c -0.582084,-0.24576 -1.065548,-0.66079 -1.074368,-0.92229 -0.0088,-0.2615 -0.207256,-0.43576 -0.440972,-0.38726 -0.233715,0.0485 -0.424938,-0.19112 -0.424938,-0.5325 0,-0.34138 -0.336215,-0.83067 -0.747148,-1.0873 -0.566629,-0.35386 -0.648314,-0.56543 -0.338088,-0.87566 0.310229,-0.31023 0.494298,-0.28192 0.761858,0.11716 0.288125,0.42975 0.333933,0.39799 0.249894,-0.17326 -0.07149,-0.48593 0.112508,-0.7156 0.60265,-0.75227 0.388056,-0.029 0.864306,-0.0967 1.058334,-0.15027 0.358937,-0.0992 1.343695,0.19847 2.285033,0.69072 0.75607,0.39536 1.003145,1.81351 0.520513,2.98763 -0.555074,1.35036 -1.175138,1.62472 -2.452768,1.0853 z m 74.84789,-1.94973 c -0.96094,-1.37193 0.11049,-3.11898 1.92628,-3.14096 1.46496,-0.0177 1.9157,0.80178 1.23267,2.24116 -0.83662,1.76304 -2.26862,2.17093 -3.15895,0.8998 z m -78.904835,-0.68273 c 0,-0.19403 0.15875,-0.35278 0.352778,-0.35278 0.194028,0 0.352778,0.15875 0.352778,0.35278 0,0.19402 -0.15875,0.35277 -0.352778,0.35277 -0.194028,0 -0.352778,-0.15875 -0.352778,-0.35277 z m 36.98351,-0.2374 c -1.061024,-0.281 -0.964824,-1.06958 0.27736,-2.27355 0.98487,-0.95457 1.28337,-1.08688 1.53466,-0.68028 0.20877,0.33779 0.12351,0.64259 -0.25773,0.92135 -0.50864,0.37193 -0.48701,0.44282 0.20181,0.66145 0.48897,0.15519 0.7674,0.52684 0.76029,1.01484 -0.0111,0.76039 -0.0178,0.76126 -0.54014,0.0702 -0.30349,-0.40153 -0.99492,-0.72323 -1.62225,-0.75478 -0.74553,-0.0375 -0.93842,0.0431 -0.60638,0.25342 0.26781,0.16962 0.77411,0.31084 1.12511,0.31381 0.351,0.003 0.54007,0.16415 0.42015,0.35818 -0.22629,0.36614 -0.31586,0.37414 -1.29288,0.11538 z m 8.17205,-0.44734 c 0,-0.39951 0.12841,-0.72638 0.28535,-0.72638 0.15694,0 0.59351,-0.2499 0.97014,-0.55535 0.667645,-0.54145 0.664915,-0.5511 -0.10896,-0.3858 -0.91262,0.19493 -1.03442,-0.18383 -0.26459,-0.82273 0.29105,-0.24155 0.52917,-0.29776 0.52917,-0.12491 0,0.17284 0.436315,0.579 0.969585,0.90258 1.02385,0.62123 0.95066,0.69929 -1.072205,1.14348 -0.54151,0.11891 -0.89611,0.35932 -0.788,0.53426 0.10812,0.17493 0.0352,0.41777 -0.16196,0.53964 -0.19851,0.12269 -0.35853,-0.1026 -0.35853,-0.50479 z m 1.697735,0.091 c 0.25466,-0.10191 0.55893,-0.0894 0.67616,0.0278 0.11723,0.11723 -0.0911,0.2006 -0.46302,0.18529 -0.41097,-0.0169 -0.494555,-0.10052 -0.21314,-0.21314 z m 26.10207,-0.14429 c -0.0706,-0.21191 -0.54488,-0.41035 -1.05387,-0.44097 -0.509,-0.0306 -0.85986,-0.16196 -0.77968,-0.29184 0.0802,-0.12988 -0.10514,-0.48707 -0.41183,-0.79375 -0.70558,-0.70558 -0.17117,-0.72955 0.74396,-0.0334 1.96139,1.49213 2.41609,1.92278 2.04142,1.93346 -0.22636,0.006 -0.46936,-0.16163 -0.54,-0.37354 z m -62.54842,-0.32028 c -0.119916,-0.19403 -0.04991,-0.35278 0.155568,-0.35278 0.205479,0 0.373599,0.15875 0.373599,0.35278 0,0.19403 -0.07001,0.35278 -0.155568,0.35278 -0.08556,0 -0.253683,-0.15875 -0.373599,-0.35278 z m -10.062058,-1.22167 c 0.488861,-0.59236 0.428536,-0.6228 -0.970139,-0.48941 -1.35825,0.12953 -1.491415,0.0705 -1.491415,-0.66084 0,-0.47866 0.213767,-0.80308 0.529167,-0.80308 0.291042,0 0.529167,-0.15875 0.529167,-0.35278 0,-0.49826 -0.458012,-0.43801 -1.255491,0.16518 -0.879099,0.66491 -1.091313,0.66326 -1.349859,-0.0105 -0.151173,-0.39395 -0.02659,-0.51958 0.437351,-0.44098 0.356808,0.0605 0.673074,-0.009 0.702815,-0.15468 0.150561,-0.73671 -0.0095,-0.97013 -0.665226,-0.97013 -0.6977,0 -0.700005,-0.0207 -0.07677,-0.68968 0.630612,-0.67688 1.950011,-0.78726 2.839463,-0.23755 0.234327,0.1448 0.426049,0.089 0.426049,-0.12404 0,-0.21304 0.33993,-0.0707 0.7554,0.31642 0.704211,0.65607 0.815932,1.2787 0.653979,3.6446 -0.02321,0.33919 -0.389516,0.80174 -0.813992,1.02789 -0.716073,0.38151 -0.734153,0.3656 -0.2505,-0.22045 z m 88.204088,0.23912 c -0.002,-0.59807 1.0521,-2.19245 1.44993,-2.19245 0.50961,0 0.33959,0.4648 -0.58067,1.5875 -0.47713,0.58209 -0.86829,0.85431 -0.86926,0.60495 z m -52.565639,-0.60495 c 0.24154,-0.29104 0.589824,-0.52916 0.773954,-0.52916 0.18412,0 0.0966,0.23812 -0.19439,0.52916 -0.29104,0.29104 -0.639324,0.52917 -0.773954,0.52917 -0.134629,0 -0.0472,-0.23813 0.19439,-0.52917 z m 8.466664,-0.8403 c 0,-0.19403 0.15875,-0.45089 0.35278,-0.57081 0.19403,-0.11991 0.35278,-0.0593 0.35278,0.13475 0,0.19403 -0.15875,0.45089 -0.35278,0.57081 -0.19403,0.11991 -0.35278,0.0593 -0.35278,-0.13475 z M 55.81447,115.79413 c 0,-0.30249 0.15875,-0.54999 0.352777,-0.54999 0.194028,0 0.352778,0.14938 0.352778,0.33196 0,0.18258 -0.15875,0.43007 -0.352778,0.54999 -0.194027,0.11992 -0.352777,-0.0295 -0.352777,-0.33196 z m 32.984723,0.15557 c 0.119917,-0.19403 0.376778,-0.35278 0.570808,-0.35278 0.19402,0 0.254664,0.15875 0.13475,0.35278 -0.11992,0.19403 -0.37678,0.35278 -0.570807,0.35278 -0.194028,0 -0.254667,-0.15875 -0.134751,-0.35278 z m 2.645832,-0.70556 c 0,-0.19402 0.2475,-0.35277 0.54999,-0.35277 0.30249,0 0.45187,0.15875 0.33196,0.35277 -0.11992,0.19403 -0.36741,0.35278 -0.54999,0.35278 -0.18258,0 -0.33196,-0.15875 -0.33196,-0.35278 z m 45.949305,0.11914 c -0.65315,-0.26354 -0.53458,-1.91057 0.17639,-2.45027 0.33955,-0.25776 0.9428,-0.4737 1.34056,-0.47987 0.39775,-0.006 0.94572,-0.20965 1.2177,-0.45219 0.40978,-0.3654 0.42701,-0.35029 0.10056,0.0882 -0.40939,0.5499 -0.45396,0.70574 -0.45396,1.5875 0,0.29104 -0.25299,0.52917 -0.56219,0.52917 -0.30921,0 -0.64522,0.3175 -0.7467,0.70555 -0.18952,0.72471 -0.31214,0.77868 -1.07236,0.47192 z m -49.77345,-0.78392 c 0.281538,-0.45081 0.878636,-0.68672 1.855071,-0.73291 2.414624,-0.11424 2.629294,-0.15416 2.443704,-0.45444 -0.36802,-0.59547 -3.746963,-3.61592 -4.045085,-3.61592 -0.170554,0 -0.325755,-0.15875 -0.344886,-0.35278 -0.0831,-0.84271 -0.761263,-1.62826 -1.245313,-1.44251 -0.293148,0.11249 -0.426127,0.0471 -0.304493,-0.14969 0.118766,-0.19217 -0.19049,-0.50392 -0.687236,-0.69278 -0.496743,-0.18886 -0.903171,-0.50607 -0.903171,-0.7049 0,-0.19883 -0.119063,-0.3262 -0.264583,-0.28305 -0.457765,0.13573 -2.208245,-1.19869 -2.004625,-1.52816 0.1068,-0.1728 0.06575,-0.32633 -0.09122,-0.34118 -1.012603,-0.0958 -1.631008,-0.37182 -2.821513,-1.25954 -0.739447,-0.55138 -1.423822,-1.09846 -1.520836,-1.21574 -0.09701,-0.11728 -0.414514,-0.21769 -0.705556,-0.22315 -0.659687,-0.0124 -3.880556,-1.41023 -3.880556,-1.684169 0,-0.11074 0.326302,-0.0267 0.725114,0.186729 0.398812,0.21344 0.914749,0.32076 1.146528,0.23851 0.523448,-0.18578 4.478359,1.75797 4.478359,2.20101 0,0.17774 0.357187,0.37766 0.79375,0.44427 0.436562,0.0666 0.750129,0.32757 0.696814,0.57992 -0.05331,0.25235 0.0727,0.35398 0.280038,0.22584 0.494259,-0.30547 1.462666,0.50641 1.169617,0.98057 -0.132309,0.21408 -0.0561,0.26169 0.182683,0.11411 0.535446,-0.33093 2.600565,1.14204 2.294795,1.63678 -0.139065,0.22501 -0.06994,0.27827 0.169291,0.13042 0.222659,-0.13761 1.039368,0.26044 1.81767,0.8859 1.499196,1.20478 5.648124,5.81935 5.648124,6.28202 0,0.15085 -0.62336,0.51913 -1.38526,0.81841 -0.94282,0.37035 -1.33438,0.41158 -1.22598,0.12911 0.0898,-0.23398 -0.15234,-0.41504 -0.555034,-0.41504 -0.392856,0 -0.714285,0.20411 -0.714285,0.45357 0,0.24947 -0.318845,0.45357 -0.708544,0.45357 -0.605755,0 -0.648314,-0.0965 -0.293382,-0.66478 z m 11.411365,0.31605 c -0.12359,-0.19998 0.018,-0.25912 0.33196,-0.13865 0.61116,0.23452 0.722975,0.48738 0.21553,0.48738 -0.18257,0 -0.42895,-0.15693 -0.54749,-0.34873 z m 0.90009,-0.49638 c -0.8696,-0.31419 -1.05723,-0.49885 -0.66126,-0.6508 0.30406,-0.11668 0.933925,-0.0144 1.399715,0.22723 0.46579,0.24165 1.08086,0.37575 1.36681,0.298 0.44604,-0.12127 0.44472,-0.0882 -0.009,0.23287 -0.62763,0.44387 -0.56112,0.44727 -2.096025,-0.1073 z m 3.154355,-0.21322 c -0.31795,-0.20548 -0.36147,-0.34413 -0.10901,-0.34738 0.23108,-0.003 0.51826,0.15335 0.63818,0.34738 0.27068,0.43799 0.14856,0.43799 -0.52917,0 z m -46.831248,-1.55787 c -1.707321,-1.70232 -1.825008,-2.25073 -0.705556,-3.28784 1.219274,-1.12959 6.673724,-4.3484 7.735112,-4.56469 0.519278,-0.10581 0.877341,-0.37333 0.795697,-0.59447 -0.246055,-0.66646 2.183092,-1.98957 3.652718,-1.98957 2.117376,0 2.689447,1.0778 1.735286,3.26934 l -0.425062,0.97629 -1.374571,-0.74007 c -0.756017,-0.40705 -1.787892,-0.88699 -2.293055,-1.06655 -0.761835,-0.27078 -0.825857,-0.2509 -0.375388,0.11657 0.298704,0.24367 0.739871,1.1118 0.980366,1.92919 0.749156,2.54623 0.04921,3.5778 -3.87363,5.7089 -1.811853,0.9843 -3.532403,1.77797 -3.823445,1.76372 -0.291042,-0.0143 -1.203854,-0.69861 -2.028472,-1.52082 z m 40.509103,0.64653 c 0.0169,-0.41097 0.10052,-0.49456 0.21314,-0.21314 0.1019,0.25466 0.0894,0.55893 -0.0278,0.67616 -0.11723,0.11723 -0.2006,-0.0911 -0.18528,-0.46302 z m -8.759102,-0.69949 c -0.824618,-0.49423 -1.499305,-1.07481 -1.499305,-1.29018 0,-0.21537 -0.09437,-0.2972 -0.209727,-0.18185 -0.463504,0.4635 -4.865144,-3.11449 -4.519482,-3.67378 0.101607,-0.1644 0.0336,-0.29891 -0.151116,-0.29891 -0.184721,0 -0.430396,-0.24637 -0.545948,-0.54749 -0.115549,-0.30112 -0.09285,-0.49207 0.05045,-0.42434 0.143298,0.0677 0.736794,0.35182 1.318877,0.63131 0.582083,0.27949 2.083058,1.542 3.335496,2.80559 1.252439,1.26358 2.839939,2.64966 3.527773,3.08017 1.747434,1.09368 0.529174,0.99999 -1.307018,-0.10052 z m -3.96875,-3.68083 c -1.153767,-0.90249 -1.73821,-0.91294 -0.656442,-0.0118 0.458058,0.3816 0.991581,0.69557 1.185609,0.69771 0.194028,0.002 -0.0441,-0.30655 -0.529167,-0.68598 z m 45.508337,2.98878 c -3.71548,-1.94868 -4.34757,-2.67932 -4.03094,-4.65941 0.31201,-1.9512 1.29212,-2.99028 2.54784,-2.70113 2.13001,0.49046 8.53865,4.46469 8.53865,5.29512 0,0.74438 -2.81988,3.66662 -3.52257,3.65043 -0.2939,-0.007 -1.88375,-0.72003 -3.53298,-1.58501 z m -30.691665,1.0978 c 0,-0.0807 0.67469,-0.66525 1.499295,-1.29899 l 1.49931,-1.15226 -1.21573,1.299 c -1.070405,1.14372 -1.782875,1.60418 -1.782875,1.15225 z m 3.167735,-0.24697 c 0.48108,-0.19194 1.19546,-0.6173 1.5875,-0.94525 0.47131,-0.39424 0.42305,-0.26842 -0.14243,0.37135 -0.47039,0.53219 -1.18476,0.95756 -1.5875,0.94526 -0.65472,-0.02 -0.63963,-0.0593 0.14243,-0.37136 z m -54.834621,-0.64024 c -0.11163,-0.18062 -0.05826,-0.41783 0.118603,-0.52714 0.176862,-0.1093 0.412594,0.0385 0.523849,0.3284 0.219322,0.57155 -0.310712,0.73551 -0.642452,0.19874 z m 47.257166,-0.0244 c -0.11992,-0.19403 -0.0499,-0.35278 0.15556,-0.35278 0.20548,0 0.3736,0.15875 0.3736,0.35278 0,0.19403 -0.07,0.35278 -0.15557,0.35278 -0.0856,0 -0.25368,-0.15875 -0.37359,-0.35278 z m 1.94027,0 c 0,-0.19403 0.16812,-0.35278 0.3736,-0.35278 0.20548,0 0.27549,0.15875 0.15557,0.35278 -0.11992,0.19403 -0.28804,0.35278 -0.3736,0.35278 -0.0856,0 -0.15557,-0.15875 -0.15557,-0.35278 z m 49.741665,-0.35278 c 0.33734,-0.63032 1.41111,-1.01381 1.41111,-0.50396 0,0.35143 -0.99203,1.20952 -1.39832,1.20952 -0.28107,0 -0.28465,-0.19757 -0.0128,-0.70556 z M 48.472492,111.0495 c -0.253157,-0.72621 -0.237708,-1.15276 0.05368,-1.48229 0.311743,-0.35254 0.259552,-0.34929 -0.219261,0.0137 -0.541358,0.41034 -0.698494,0.38356 -1.134585,-0.1934 -0.278409,-0.36834 -0.458788,-0.82846 -0.400843,-1.02249 0.163147,-0.54629 2.038472,-0.77345 3.301482,-0.39991 0.94911,0.2807 1.120063,0.4879 1.031457,1.25013 -0.124475,1.07077 -0.826056,2.85393 -1.122878,2.85393 -0.113267,0 -0.118109,-0.14211 -0.01076,-0.31581 0.107351,-0.17369 -0.05971,-0.41362 -0.371236,-0.53317 -0.404698,-0.15529 -0.508004,-0.0651 -0.361824,0.31582 0.112529,0.29324 0.06636,0.53316 -0.102598,0.53316 -0.168957,0 -0.467145,-0.45883 -0.662638,-1.01962 z m 41.032259,-1.7371 c -1.552224,-1.50491 -4.733458,-4.01316 -7.069412,-5.57389 -7.20035,-4.810789 -13.513901,-7.525119 -22.563925,-9.700699 -3.873024,-0.93106 -12.14256,-1.23744 -15.774092,-0.58443 -2.392876,0.43029 -2.669627,0.42669 -2.293056,-0.0298 0.336755,-0.40824 0.334039,-0.55088 -0.01271,-0.66758 -0.242535,-0.0816 -0.440972,-0.34871 -0.440972,-0.59351 0,-0.2448 -0.3175,-0.73243 -0.705556,-1.08361 -0.388055,-0.35119 -0.705555,-0.93535 -0.705555,-1.29813 0,-0.75896 -1.271126,-1.34521 -2.933383,-1.35291 -1.766364,-0.008 -2.755986,-0.72755 -3.809096,-2.76893 -0.825666,-1.60048 -2.110781,-3.01036 -2.782522,-3.05265 -0.09701,-0.006 -1.086705,-0.46124 -2.199313,-1.0114 -1.708609,-0.84487 -2.428987,-0.99419 -4.636332,-0.96101 -2.172035,0.0327 -2.652854,-0.0635 -2.846971,-0.56937 -0.256735,-0.66904 0.614825,-1.50921 1.565598,-1.50921 0.312165,0 0.718386,-0.14331 0.902712,-0.31847 0.184327,-0.17515 1.367014,-0.41713 2.628195,-0.53773 2.424081,-0.23181 4.056945,-0.45686 4.056945,-0.55915 0,-0.0339 0.7067,-0.11272 1.570445,-0.17525 0.915792,-0.0663 1.740825,-0.34671 1.979169,-0.67266 0.224798,-0.30743 0.641363,-0.55897 0.9257,-0.55897 0.511248,0 2.051075,-1.4075 2.051075,-1.87482 0,-0.13301 -0.396875,-0.24184 -0.881945,-0.24184 -0.646759,0 -0.881944,-0.18815 -0.881944,-0.70556 0,-0.71598 0.901362,-1.00008 1.117333,-0.35217 0.07867,0.236 0.527108,0.236 1.349986,0 0.677704,-0.19436 2.684691,-0.35338 4.45997,-0.35338 2.55252,0 3.270524,0.11138 3.432096,0.53244 0.112374,0.29284 0.397415,0.49127 0.633424,0.44097 0.288185,-0.0614 0.446569,0.50575 0.482278,1.72704 0.06458,2.20881 0.717599,3.90573 1.612296,4.1897 0.365355,0.11595 1.630261,1.15311 2.810903,2.30478 l 2.146623,2.09395 h 2.666026 c 2.290025,0 2.758934,0.10713 3.324768,0.75954 0.789101,0.90984 0.82639,1.68411 0.158133,3.28347 -0.48949,1.17152 -0.686431,2.3034 -0.585555,3.36533 0.08106,0.85328 0.95581,1.79172 1.482313,1.59025 0.377479,-0.14445 0.462975,-0.97006 0.383452,-3.70279 l -0.102349,-3.51689 1.279158,-1.24223 c 1.523401,-1.47942 2.399034,-1.5506 4.664665,-0.37919 1.686429,0.87194 3.994058,1.00524 6.48141,0.37441 0.526898,-0.13363 1.02991,-0.0773 1.157824,0.12967 0.124396,0.20128 0.419526,0.30677 0.655849,0.23444 0.236319,-0.0723 0.884968,-0.23188 1.441439,-0.35454 0.556472,-0.12266 0.915035,-0.31975 0.796809,-0.43798 -0.118223,-0.11822 -0.01789,-0.45253 0.222959,-0.74289 0.277248,-0.33425 0.43791,-1.69437 0.43791,-3.70721 0,-2.22982 0.131692,-3.22317 0.440972,-3.32628 0.242535,-0.0809 0.440973,-0.36632 0.440973,-0.63437 0,-0.26804 0.325098,-0.66134 0.722443,-0.87399 0.39734,-0.21265 0.869664,-0.77386 1.049602,-1.24714 l 0.327159,-0.86049 8.210815,0.004 8.210815,0.004 1.76389,2.35664 c 0.97014,1.29615 2.557635,2.89575 3.527775,3.55465 2.37836,1.61535 2.81973,2.51111 2.3674,4.8046 -0.40684,2.0628 -0.17028,8.75506 0.32018,9.05818 0.35223,0.21769 -0.30929,1.87863 -1.50016,3.76656 -0.39776,0.63059 -0.65595,1.14653 -0.57375,1.14653 0.0822,0 0.66378,-0.79375 1.29241,-1.76389 0.62863,-0.97014 1.1713,-1.76344 1.20594,-1.76289 0.0346,5.6e-4 0.0903,0.61754 0.1236,1.37111 0.0333,0.75356 0.31255,2.11215 0.62047,3.01908 0.57969,1.70745 0.79915,4.719949 0.44467,6.103949 -0.2064,0.80582 0.0461,1.00871 0.65854,0.52917 0.18585,-0.14552 -0.29834,0.28527 -1.07597,0.95731 -0.77764,0.67205 -2.72168,2.4843 -4.3201,4.02723 -2.851075,2.7521 -2.919685,2.79314 -3.615965,2.163 -0.67054,-0.60682 -1.01398,-1.46824 -0.44518,-1.11658 0.32542,0.20119 0.3151,-2.48207 -0.0108,-2.80796 -0.12873,-0.12873 -0.39332,0.18484 -0.58797,0.69682 -0.19465,0.51198 -0.40277,0.93087 -0.46249,0.93087 -0.22082,0 0.0133,-1.6156 0.35791,-2.46944 0.38097,-0.94402 0.27214,-1.41112 -0.32876,-1.41112 -0.20521,0 -0.29276,0.30725 -0.19456,0.68278 0.10643,0.40697 -0.0311,0.76322 -0.34048,0.88194 -0.83603,0.32082 -0.88061,0.25722 -0.66401,-0.94735 0.1828,-1.01663 0.16514,-1.05081 -0.1559,-0.30165 -0.19914,0.46468 -0.26363,1.15504 -0.14331,1.53413 0.18228,0.57428 0.0953,0.65005 -0.52162,0.45426 -0.53702,-0.17044 -0.74038,-0.0831 -0.74038,0.31795 0,0.30412 -0.15875,0.55294 -0.35278,0.55294 -0.19402,0 -0.35277,0.2475 -0.35277,0.54999 0,0.30249 0.15875,0.45188 0.35277,0.33196 0.19403,-0.11992 0.35278,-0.0549 0.35278,0.1445 0,0.19939 0.26417,0.26115 0.58704,0.13726 0.39472,-0.15147 0.50347,-0.0901 0.33196,0.18745 -0.1403,0.22701 -0.52353,0.41516 -0.85163,0.41813 -0.45787,0.004 -0.48797,0.0742 -0.1295,0.30152 0.37725,0.23918 0.35544,0.40771 -0.11339,0.87654 -0.31924,0.31924 -0.68815,0.57581 -0.81982,0.57017 -0.13166,-0.006 -1.50938,-1.24156 -3.061604,-2.74647 z m 9.841474,-7.38564 c 0.732105,-1.01864 1.251735,-1.85208 1.154725,-1.85208 -0.24597,0 -2.705925,3.3837 -2.705925,3.72203 0,0.15187 0.0495,0.20997 0.11004,0.12913 0.0605,-0.0808 0.70904,-0.98043 1.44116,-1.99908 z m -9.31231,-1.71889 c 0,-0.267279 0.16178,-0.485969 0.3595,-0.485969 0.20774,0 0.26564,-0.37398 0.13715,-0.88593 -0.17333,-0.69058 -0.10706,-0.84169 0.30053,-0.68528 0.64781,0.24859 1.02564,-0.58401 1.17194,-2.58254 0.0881,-1.20295 -0.0326,-1.59536 -0.59678,-1.94028 -0.38894,-0.23779 -0.95629,-0.9525 -1.26078,-1.58824 -0.723154,-1.50988 -2.834312,-3.60661 -3.631421,-3.60661 -0.344893,0 -0.824706,-0.23813 -1.06625,-0.52917 -0.241543,-0.29104 -0.644627,-0.52917 -0.895741,-0.52917 -0.251115,0 -0.509489,-0.13406 -0.574167,-0.2979 -0.118396,-0.29995 -3.870555,0.41633 -5.673842,1.08311 -0.876745,0.32419 -0.970139,0.52441 -0.970139,2.07981 0,0.9466 -0.0063,1.84016 -0.01397,1.98568 -0.0077,0.14552 0.349501,0.31874 0.79375,0.38494 0.44425,0.0662 1.083649,0.36691 1.420894,0.66824 0.559957,0.50034 0.743645,0.45928 2.116667,-0.47313 0.826918,-0.56157 1.702036,-1.25915 1.944701,-1.55019 0.384436,-0.46108 0.537609,-0.41569 1.190449,0.35278 0.684424,0.80564 0.733175,1.17748 0.563517,4.29815 -0.207822,3.8226 0.01425,4.310539 2.156844,4.739049 0.621895,0.12438 1.220925,0.3721 1.331176,0.55049 0.261048,0.42239 1.195972,-0.34982 1.195972,-0.98784 z m -3.681486,-9.554779 c -0.191446,-0.50278 -0.150925,-0.5433 0.197485,-0.19748 0.241095,0.2393 0.349486,0.52396 0.24087,0.63257 -0.108617,0.10862 -0.305876,-0.0872 -0.438355,-0.43509 z m -33.71296,20.710479 c 0,-0.19403 0.15875,-0.35278 0.352778,-0.35278 0.194028,0 0.352778,0.15875 0.352778,0.35278 0,0.19403 -0.15875,0.35278 -0.352778,0.35278 -0.194028,0 -0.352778,-0.15875 -0.352778,-0.35278 z m 51.858331,-0.32338 c 0,-0.2102 0.14711,-0.38218 0.32691,-0.38218 0.1798,0 0.40755,-0.27781 0.50611,-0.61736 0.10788,-0.37164 0.15328,-0.27734 0.11406,0.23695 -0.0629,0.82525 -0.94708,1.53718 -0.94708,0.76259 z m -58.469402,-0.55333 c -0.312175,-0.35474 -0.326137,-0.5659 -0.04875,-0.73734 0.213789,-0.13213 0.527278,-0.0214 0.696642,0.24594 0.645811,1.01961 0.148734,1.39662 -0.647889,0.4914 z m 50.446207,-0.0979 c 0.0327,-0.43412 0.18443,-0.78931 0.33716,-0.78931 0.36813,0 0.34296,0.40887 -0.0649,1.05389 -0.26073,0.41239 -0.31903,0.35574 -0.2723,-0.26458 z m -44.105849,-0.789 c -0.32734,-0.52415 -0.324384,-0.72834 0.01335,-0.92246 0.238561,-0.13711 0.316062,-0.11939 0.172225,0.0394 -0.143838,0.15878 -0.08153,0.50557 0.138465,0.77064 0.219994,0.26508 0.331669,0.55028 0.248169,0.63378 -0.0835,0.0835 -0.340997,-0.1511 -0.572214,-0.52134 z m 50.412434,-0.6394 c 0.6531,-0.73956 1.82245,-1.80547 2.59856,-2.3687 1.08038,-0.78403 0.86196,-0.46888 -0.93193,1.34466 -2.52854,2.55622 -3.60232,3.21599 -1.66663,1.02404 z m 38.2469,0.32071 c -0.47423,-0.91706 -0.47216,-1.04594 0.0198,-1.23472 1.0829,-0.41555 2.60826,-0.22935 2.60826,0.31838 0,0.29104 -0.25299,0.52917 -0.5622,0.52917 -0.3092,0 -0.64522,0.3175 -0.7467,0.70555 -0.25789,0.9862 -0.69966,0.87958 -1.31915,-0.31838 z m -100.030288,0.14199 c 0,-0.29104 0.257563,-0.52916 0.572363,-0.52916 0.468767,0 0.492875,0.0958 0.133193,0.52916 -0.241543,0.29104 -0.499106,0.52917 -0.572363,0.52917 -0.07326,0 -0.133193,-0.23813 -0.133193,-0.52917 z m 3.852252,-0.79428 c -0.744464,-1.44443 -1.935898,-2.14422 -1.500664,-0.88141 0.184674,0.53582 0.144283,0.52952 -0.305809,-0.0477 -0.495006,-0.63483 -0.464826,-2.33354 0.04146,-2.33354 0.132603,0 0.454961,0.19844 0.716351,0.44097 0.387593,0.35963 0.435984,0.32918 0.262352,-0.16509 -0.117097,-0.33334 -0.06109,-0.69989 0.124467,-0.81457 0.185554,-0.11468 0.337371,-0.0234 0.337371,0.20283 0,0.22624 0.23004,0.32307 0.5112,0.21518 0.332662,-0.12766 0.446139,-0.0266 0.324912,0.28929 -0.133382,0.34759 0.022,0.43099 0.547133,0.29367 0.419341,-0.10966 0.733422,-0.0231 0.733422,0.20213 0,0.21666 -0.178188,0.39392 -0.395974,0.39392 -0.291259,0 -0.292068,0.1252 -0.0031,0.47343 0.468222,0.56416 0.177229,0.93768 -0.730499,0.93768 -0.558876,0 -0.599258,0.11195 -0.265399,0.73577 0.216574,0.40467 0.328232,0.80131 0.248129,0.88141 -0.0801,0.0801 -0.370526,-0.29068 -0.645381,-0.82396 z m 62.009866,-0.44207 c 0.62007,-0.58119 1.28153,-1.0567 1.46991,-1.0567 0.18838,0 0.41338,-0.19844 0.5,-0.44098 0.0916,-0.25649 0.28838,-0.31008 0.47037,-0.12809 0.18199,0.18199 0.1284,0.37877 -0.12809,0.47037 -0.24254,0.0866 -0.44097,0.37741 -0.44097,0.64619 0,0.26878 -0.20846,0.4087 -0.46324,0.31094 -0.25477,-0.0978 -0.75563,0.14534 -1.113,0.54024 -0.35738,0.39489 -0.82362,0.71726 -1.03608,0.71636 -0.21246,-10e-4 0.12103,-0.47715 0.7411,-1.05833 z m -37.992672,-0.37197 c 0,-0.20548 0.15875,-0.27548 0.352778,-0.15557 0.194028,0.11992 0.352778,0.28804 0.352778,0.3736 0,0.0856 -0.15875,0.15557 -0.352778,0.15557 -0.194028,0 -0.352778,-0.16812 -0.352778,-0.3736 z m 69.144442,-0.29032 c 0,-0.19402 0.15875,-0.45089 0.35278,-0.5708 0.19403,-0.11992 0.35278,-0.0593 0.35278,0.13475 0,0.19402 -0.15875,0.45089 -0.35278,0.5708 -0.19403,0.11992 -0.35278,0.0593 -0.35278,-0.13475 z m -87.841665,-0.38334 c 0,-0.18794 0.238125,-0.25033 0.529166,-0.13865 0.291042,0.11169 0.529167,0.26545 0.529167,0.34171 0,0.0763 -0.238125,0.13864 -0.529167,0.13864 -0.291041,0 -0.529166,-0.15376 -0.529166,-0.3417 z m 1.940278,-0.36385 c -0.119916,-0.19403 -0.04991,-0.35278 0.155569,-0.35278 0.205478,0 0.373597,0.15875 0.373597,0.35278 0,0.19403 -0.07001,0.35278 -0.155569,0.35278 -0.08556,0 -0.253681,-0.15875 -0.373597,-0.35278 z m 94.159677,0.0556 c -0.66483,-0.4807 -0.44151,-1.03593 0.39722,-0.98759 0.47795,0.0275 0.86911,0.23154 0.86924,0.45332 3.1e-4,0.49807 -0.83132,0.8489 -1.26646,0.53427 z M 37.470024,105.54276 c 0,-0.54877 0.199908,-0.88195 0.529167,-0.88195 0.329259,0 0.529167,0.33318 0.529167,0.88195 0,0.54876 -0.199908,0.88194 -0.529167,0.88194 -0.329259,0 -0.529167,-0.33318 -0.529167,-0.88194 z m 16.227779,0.17639 c 0,-0.19403 0.15875,-0.35278 0.352778,-0.35278 0.194027,0 0.352777,0.15875 0.352777,0.35278 0,0.19402 -0.15875,0.35277 -0.352777,0.35277 -0.194028,0 -0.352778,-0.15875 -0.352778,-0.35277 z m -5.302213,-0.90969 c -0.295691,-0.77772 -0.718841,-1.02554 -1.514982,-0.88724 -0.159943,0.0278 -0.188661,-0.11475 -0.06382,-0.31675 0.124843,-0.202 0.374768,-0.27594 0.555389,-0.16431 0.18062,0.11163 0.328401,-0.0389 0.328401,-0.33462 0,-0.29566 0.299026,-0.6976 0.664501,-0.8932 0.586268,-0.31376 1.065486,-1.69092 1.270272,-3.650469 0.10415,-0.99657 0.559014,-1.2449 3.004116,-1.64004 4.693501,-0.7585 9.172223,-0.24418 9.172223,1.0533 0,0.71007 -0.514332,0.96587 -3.175,1.57909 -1.067153,0.24595 -1.578109,0.463449 -1.135458,0.483329 1.29696,0.0582 1.304714,0.95107 0.01845,2.12524 -1.209234,1.10385 -5.564047,2.99714 -7.633527,3.31872 -0.991937,0.15414 -1.214241,0.0538 -1.490574,-0.67305 z m 73.57377,-0.13113 c -0.7524,-1.45498 -0.67347,-2.08769 0.31672,-2.53885 1.09639,-0.49955 3.04893,-0.13242 4.22791,0.79496 1.02513,0.80638 0.9209,1.37291 -0.25298,1.37491 -0.42511,7.4e-4 -1.2927,0.31823 -1.92798,0.70556 -1.51721,0.92504 -1.72668,0.89521 -2.36367,-0.33658 z m 17.76332,-0.16984 c -2.15378,-0.60373 -5.38828,-2.20231 -6.14261,-3.03583 -0.85144,-0.94082 -0.41611,-1.743069 0.97097,-1.789389 1.02994,-0.0344 0.98254,-0.0715 -0.4299,-0.33677 -3.17536,-0.59631 -4.23334,-1.03087 -4.23334,-1.73882 0,-1.29567 3.2167,-1.72218 7.86993,-1.04351 3.56476,0.51992 3.99499,0.79573 4.26027,2.73118 0.15366,1.121039 0.0857,1.703119 -0.22165,1.898239 -0.32472,0.20615 -0.28861,0.28286 0.13501,0.28682 0.31805,0.003 0.95305,0.3228 1.41111,0.71072 0.72695,0.61565 0.76556,0.76142 0.30367,1.14653 -0.29104,0.24266 -0.52917,0.67933 -0.52917,0.97037 0,0.69638 -1.34235,0.77566 -3.39429,0.20046 z m -97.774532,-0.91004 c -0.803086,-0.93794 -0.768069,-1.20196 0.230279,-1.73626 0.637998,-0.34145 1.01666,-0.3527 1.5875,-0.0472 1.043812,0.55863 0.959534,1.72516 -0.155257,2.149 -1.125816,0.42803 -0.949928,0.46671 -1.662522,-0.36554 z m 106.296782,-0.67784 c -0.2988,-0.5583 -0.23068,-0.72447 0.37588,-0.91699 0.90141,-0.28609 1.47928,0.21192 1.17276,1.0107 -0.30393,0.79203 -1.1004,0.74384 -1.54864,-0.0937 z M 36.764469,102.38858 c 0,-0.94693 0.55769,-1.52032 0.794397,-0.81677 0.204865,0.60891 -0.102702,1.67789 -0.482764,1.67789 -0.171399,0 -0.311633,-0.3875 -0.311633,-0.86112 z m 37.041668,-0.19721 c 0,-0.19403 0.15875,-0.35278 0.352778,-0.35278 0.194028,0 0.352778,0.15875 0.352778,0.35278 0,0.19403 -0.15875,0.35278 -0.352778,0.35278 -0.194028,0 -0.352778,-0.15875 -0.352778,-0.35278 z m -0.881944,-0.35278 c -0.119917,-0.19403 -0.04991,-0.35278 0.155568,-0.35278 0.205479,0 0.373598,0.15875 0.373598,0.35278 0,0.19403 -0.07,0.35278 -0.155568,0.35278 -0.08556,0 -0.253682,-0.15875 -0.373598,-0.35278 z M 62.74419,100.95212 c 0.328489,-0.85603 4.564962,-1.318409 4.281247,-0.46727 -0.150752,0.45226 -0.775321,0.62006 -2.982732,0.80137 -1.093072,0.0898 -1.428098,0.004 -1.298515,-0.3341 z m -21.39361,-0.70103 c 0,-0.291039 0.3175,-0.846669 0.705556,-1.234719 0.388055,-0.38806 0.94368,-0.70556 1.234722,-0.70556 0.804226,0 0.631775,1.29924 -0.254884,1.920279 -0.991326,0.69435 -1.685394,0.70259 -1.685394,0.02 z m 20.108334,0.17639 c 0,-0.19403 0.247495,-0.35278 0.549988,-0.35278 0.302493,0 0.451873,0.15875 0.331957,0.35278 -0.119916,0.19403 -0.367411,0.35278 -0.549988,0.35278 -0.182577,0 -0.331957,-0.15875 -0.331957,-0.35278 z m 6.614584,0.11914 c 0.242535,-0.0979 0.63941,-0.0979 0.881944,0 0.242535,0.0979 0.0441,0.17794 -0.440972,0.17794 -0.485069,0 -0.683507,-0.0801 -0.440972,-0.17794 z m 80.513482,-1.089279 c -0.6688,-0.84834 -0.69203,-0.98487 -0.18505,-1.08746 0.76937,-0.1557 1.60421,0.57039 1.60421,1.39524 0,0.936569 -0.52854,0.821949 -1.41916,-0.30778 z M 36.789264,99.104561 c -0.01364,-0.63059 0.133955,-1.14652 0.327982,-1.14652 0.418809,0 0.418809,0.61288 0,1.58749 -0.254073,0.591269 -0.307204,0.519829 -0.327982,-0.44097 z m 27.491873,-0.26458 c 0,-0.63337 0.745571,-0.63616 2.645833,-0.01 l 1.411111,0.46506 -2.028472,0.037 c -1.584343,0.0289 -2.028472,-0.0789 -2.028472,-0.49217 z m 2.910416,-0.5722 c -1.018645,-0.39151 -1.852083,-0.84228 -1.852083,-1.00171 0,-0.76432 2.655002,-0.6735 4.674306,0.15988 0.769207,0.31746 0.802562,1.09109 0.05934,1.37629 -0.743698,0.28538 -0.752864,0.28368 -2.881563,-0.53446 z m 54.109407,-0.0559 c -0.57525,-0.42064 -0.58405,-0.513 -0.0881,-0.92463 0.76511,-0.63498 2.97776,-1.08797 4.15966,-0.85159 1.26487,0.25297 1.01932,0.61934 -0.85502,1.27568 -0.82439,0.28868 -1.74157,0.62455 -2.03818,0.74637 -0.29661,0.12181 -0.82688,0.0112 -1.17839,-0.24583 z m -58.078157,-0.25384 c -0.317955,-0.20548 -0.361466,-0.34413 -0.109015,-0.34738 0.231083,-0.003 0.518266,0.15335 0.638182,0.34738 0.270686,0.43798 0.148562,0.43798 -0.529167,0 z m -26.105557,-1.36948 c 0,-0.19402 0.15875,-0.45089 0.352778,-0.5708 0.194028,-0.11992 0.352778,-0.0593 0.352778,0.13475 0,0.19402 -0.15875,0.45089 -0.352778,0.5708 -0.194028,0.11992 -0.352778,0.0593 -0.352778,-0.13475 z m 22.25304,-0.33184 c -2.368483,-0.74301 -2.953755,-1.69323 -0.834153,-1.35429 1.918081,0.30671 4.055777,1.23829 3.798129,1.65517 -0.280078,0.45317 -0.694327,0.41112 -2.963976,-0.30088 z m -15.903039,-0.10032 c 0,-0.21478 0.238125,-0.29914 0.529166,-0.18746 0.322337,0.12369 0.529167,5.7e-4 0.529167,-0.31503 0,-0.28495 0.143888,-0.5181 0.319751,-0.5181 0.175863,0 0.236723,0.3175 0.135244,0.70556 -0.191271,0.73142 -1.513328,1.00664 -1.513328,0.31503 z m 85.725003,-0.10193 c 0,-0.26868 0.93268,-0.64448 3.46848,-1.39753 1.43988,-0.4276 1.82318,-0.44608 1.82318,-0.0879 0,0.24944 -0.39048,0.63144 -0.86774,0.84889 -1.04371,0.47555 -4.42392,0.96192 -4.42392,0.63655 z m -5.71059,-0.45409 c 0.25466,-0.10191 0.55893,-0.0894 0.67616,0.0279 0.11722,0.11723 -0.0911,0.20061 -0.46302,0.18529 -0.41097,-0.0169 -0.49456,-0.10052 -0.21314,-0.21314 z m 29.3467,-0.49609 c -0.7598,-0.62148 -0.77474,-0.66899 -0.10784,-0.34303 0.42576,0.20809 0.87169,0.53624 0.99096,0.72923 0.31841,0.51519 0.10456,0.42168 -0.88312,-0.3862 z M 39.233913,94.997171 c 0,-0.0763 0.24637,-0.23319 0.547489,-0.34874 0.313946,-0.12047 0.45555,-0.0613 0.331958,0.13865 -0.207171,0.33521 -0.879447,0.49581 -0.879447,0.21009 z m 87.488887,-0.4511 c 4.72551,-1.54783 6.95566,-1.91644 12.34723,-2.04084 l 5.46805,-0.12616 -5.29166,0.28702 c -4.10297,0.22255 -6.23128,0.53219 -9.47445,1.37838 -4.43559,1.15731 -5.67199,1.3607 -3.04917,0.5016 z m 23.48006,-0.78847 c -0.10873,-0.17593 0.12002,-0.23679 0.50835,-0.13524 0.82373,0.21541 0.92786,0.45512 0.19769,0.45512 -0.27959,0 -0.59731,-0.14395 -0.70604,-0.31988 z m 23.27985,-11.40998 c -0.1478,-0.33955 -0.1478,-0.89517 0,-1.23472 0.25593,-0.58797 0.27576,-0.58797 0.41639,0 0.0812,0.33955 0.0812,0.89517 0,1.23472 -0.14063,0.58796 -0.16046,0.58796 -0.41639,0 z m -10.77657,-1.67569 c -0.99509,-0.31869 -0.93662,-0.38626 0.44097,-0.50969 0.62074,-0.0556 0.97014,0.084 0.97014,0.38778 0,0.52356 -0.1236,0.53424 -1.41111,0.12191 z M 18.772801,79.613591 c 0,-0.19403 0.15875,-0.35278 0.352778,-0.35278 0.194028,0 0.352778,0.15875 0.352778,0.35278 0,0.19403 -0.15875,0.35278 -0.352778,0.35278 -0.194028,0 -0.352778,-0.15875 -0.352778,-0.35278 z m 32.17131,-5.28724 c -1.056529,-0.25017 -2.145288,-1.17993 -2.173978,-1.85651 -0.0062,-0.14552 2.766906,-0.26458 6.162392,-0.26458 3.395486,0 6.173611,0.058 6.173611,0.12878 0,0.21485 -4.286419,1.55213 -6.279169,1.95899 -2.07817,0.42429 -2.22631,0.42556 -3.882856,0.0333 z m 122.521749,-1.76831 c -0.11991,-0.19403 -0.0499,-0.35278 0.15557,-0.35278 0.20548,0 0.3736,0.15875 0.3736,0.35278 0,0.19403 -0.07,0.35277 -0.15557,0.35277 -0.0856,0 -0.25368,-0.15874 -0.3736,-0.35277 z"
       id="path826"
       inkscape:connector-curvature="0" />
  </g>
</svg>
