<?xml version="1.0" encoding="UTF-8" standalone="no"?>
<!-- Created with Inkscape (http://www.inkscape.org/) -->

<svg
   xmlns:osb="http://www.openswatchbook.org/uri/2009/osb"
   xmlns:dc="http://purl.org/dc/elements/1.1/"
   xmlns:cc="http://creativecommons.org/ns#"
   xmlns:rdf="http://www.w3.org/1999/02/22-rdf-syntax-ns#"
   xmlns:svg="http://www.w3.org/2000/svg"
   xmlns="http://www.w3.org/2000/svg"
   xmlns:sodipodi="http://sodipodi.sourceforge.net/DTD/sodipodi-0.dtd"
   xmlns:inkscape="http://www.inkscape.org/namespaces/inkscape"
   width="56.353451mm"
   height="37.790718mm"
   viewBox="0 0 56.353451 37.790718"
   version="1.1"
   id="svg8"
   inkscape:version="0.92.2 (5c3e80d, 2017-08-06)"
   sodipodi:docname="overtrek-handmatig-inkscape.svg"
   inkscape:export-filename="D:\projects\burgerszoo-docs\documentatie\onderzoeken\poot-afbeelding-naar-plankje\overtrek-handmatig-inkscape.png"
   inkscape:export-xdpi="96"
   inkscape:export-ydpi="96">
  <defs
     id="defs2">
    <linearGradient
       id="linearGradient2609"
       osb:paint="solid">
      <stop
         style="stop-color:#000000;stop-opacity:1;"
         offset="0"
         id="stop2607" />
    </linearGradient>
    <inkscape:path-effect
       effect="bspline"
       id="path-effect884"
       is_visible="true"
       weight="33.333333"
       steps="2"
       helper_size="0"
       apply_no_weight="true"
       apply_with_weight="true"
       only_selected="false" />
    <inkscape:path-effect
       effect="bspline"
       id="path-effect880"
       is_visible="true"
       weight="33.333333"
       steps="2"
       helper_size="0"
       apply_no_weight="true"
       apply_with_weight="true"
       only_selected="false" />
    <inkscape:path-effect
       effect="bspline"
       id="path-effect872"
       is_visible="true"
       weight="33.333333"
       steps="2"
       helper_size="0"
       apply_no_weight="true"
       apply_with_weight="true"
       only_selected="false" />
    <inkscape:path-effect
       effect="bspline"
       id="path-effect868"
       is_visible="true"
       weight="33.333333"
       steps="2"
       helper_size="0"
       apply_no_weight="true"
       apply_with_weight="true"
       only_selected="false" />
    <inkscape:path-effect
       effect="bspline"
       id="path-effect864"
       is_visible="true"
       weight="33.333333"
       steps="2"
       helper_size="0"
       apply_no_weight="true"
       apply_with_weight="true"
       only_selected="false" />
    <inkscape:path-effect
       effect="bspline"
       id="path-effect860"
       is_visible="true"
       weight="33.333333"
       steps="2"
       helper_size="0"
       apply_no_weight="true"
       apply_with_weight="true"
       only_selected="false" />
    <inkscape:path-effect
       effect="bspline"
       id="path-effect856"
       is_visible="true"
       weight="33.333333"
       steps="2"
       helper_size="0"
       apply_no_weight="true"
       apply_with_weight="true"
       only_selected="false" />
  </defs>
  <sodipodi:namedview
     id="base"
     pagecolor="#ffffff"
     bordercolor="#666666"
     borderopacity="1.0"
     inkscape:pageopacity="0.0"
     inkscape:pageshadow="2"
     inkscape:zoom="2.8"
     inkscape:cx="93.909691"
     inkscape:cy="40.537403"
     inkscape:document-units="mm"
     inkscape:current-layer="layer1"
     showgrid="false"
     inkscape:window-width="1920"
     inkscape:window-height="1001"
     inkscape:window-x="-9"
     inkscape:window-y="-9"
     inkscape:window-maximized="1"
     showguides="false"
     fit-margin-top="0"
     fit-margin-left="0"
     fit-margin-right="0"
     fit-margin-bottom="0" />
  <metadata
     id="metadata5">
    <rdf:RDF>
      <cc:Work
         rdf:about="">
        <dc:format>image/svg+xml</dc:format>
        <dc:type
           rdf:resource="http://purl.org/dc/dcmitype/StillImage" />
        <dc:title />
      </cc:Work>
    </rdf:RDF>
  </metadata>
  <g
     inkscape:label="Laag 1"
     inkscape:groupmode="layer"
     id="layer1"
     transform="translate(-112.06993,-58.41991)">
    <path
       style="fill:#cfd0d0;fill-opacity:1;stroke:#000000;stroke-width:0.26458332px;stroke-linecap:butt;stroke-linejoin:miter;stroke-opacity:1"
       d="m 112.06994,78.340772 c 8.50447,-10.394344 39.72279,-28.255559 55.75149,-15.497024 0.63975,0.547171 -0.48274,2.842199 -0.31736,4.54226 0.0854,0.877655 1.03985,1.420719 0.90657,2.059895 -0.14878,0.713512 -0.94469,0.657623 -1.37953,0.863692 -0.7094,0.336185 0.0679,1.699974 -0.68686,2.59206 -1.0468,1.237227 -2.44951,1.253856 -3.63894,2.198642 -3.30729,2.267858 -2.53593,1.13966 -3.49332,2.27359 -0.74162,0.878364 -0.10585,2.00002 -0.69684,2.640101 -0.72353,0.783631 -2.55985,1.350593 -3.08866,2.579016 -0.48716,1.131652 0.18801,2.785201 -0.66245,4.013625 -0.85045,1.22842 -2.06167,1.261829 -3.06769,1.933768 -0.67419,1.13553 -0.40383,2.19991 -1.04518,3.233758 -0.94494,0.566966 -2.55276,0.598271 -3.01807,1.601653 -0.46933,1.01203 -1.8404,2.717374 -2.36235,2.83482 -1.22842,-0.09449 -25.83028,-10.688309 -29.79904,-12.200214 -0.47246,0.661459 -3.40178,-5.669642 -3.40178,-5.669642 z"
       id="path828"
       inkscape:connector-curvature="0"
       sodipodi:nodetypes="ccsssscssscccscccc" />
    <path
       style="fill:#ffffff;fill-opacity:1;stroke:#000000;stroke-width:0.201;stroke-linecap:butt;stroke-linejoin:miter;stroke-opacity:1;stroke-miterlimit:8.18823528;stroke-dasharray:none"
       d="m 140.91786,69.954536 c -2.44083,0.02719 -4.29091,2.090319 -4.54359,2.071339 -0.76343,-0.05734 -1.71441,-2.523602 -1.20271,-3.808591 2.81922,-1.025081 4.80355,0.422077 5.7463,1.737252 z"
       id="path830"
       inkscape:connector-curvature="0"
       sodipodi:nodetypes="cscc" />
    <path
       style="fill:#ffffff;fill-opacity:1;stroke:#000000;stroke-width:0.201;stroke-linecap:butt;stroke-linejoin:miter;stroke-opacity:1;stroke-miterlimit:8.18823528;stroke-dasharray:none"
       d="m 140.58352,70.545015 c 3.17488,0.0033 5.29616,2.134913 8.24461,3.77976 1.1371,0.750781 1.42177,1.973749 1.15755,2.598587 -1.65382,-0.04543 -1.17014,1.191044 -2.8112,2.338726 -0.3883,0.08294 -0.78708,0.150169 -1.29929,0.04725 -2.50982,-1.425856 -5.73467,-2.590121 -6.8272,-4.252232 -0.30918,-0.937066 -0.19262,-1.874132 -0.0709,-2.811198 0.40162,-0.720728 0.80338,-1.441286 1.60643,-1.700893 z"
       id="path832"
       inkscape:connector-curvature="0"
       sodipodi:nodetypes="cccccccc" />
    <path
       style="fill:#ffffff;fill-opacity:1;stroke:#000000;stroke-width:0.201;stroke-linecap:butt;stroke-linejoin:miter;stroke-opacity:1;stroke-miterlimit:8.18823528;stroke-dasharray:none"
       d="m 126.28485,77.371264 c 0.79627,-0.879389 4.25275,-1.58143 6.38106,-2.372016 3.50964,0.734009 6.40968,3.007798 8.75308,4.643808 1.04886,1.404484 0.72174,2.67137 -0.90204,3.80859 -4.72979,-2.023628 -8.01146,-3.725453 -14.2321,-6.080382 z"
       id="path834"
       inkscape:connector-curvature="0"
       sodipodi:nodetypes="ccccc" />
    <path
       style="fill:#ffffff;fill-opacity:1;stroke:#000000;stroke-width:0.201;stroke-linecap:butt;stroke-linejoin:miter;stroke-opacity:1;stroke-miterlimit:8.18823528;stroke-dasharray:none"
       d="m 127.65461,75.634013 c 2.13134,-0.660052 3.1811,-0.91451 4.67721,-1.336347 -0.42507,-1.301353 0.61713,-3.167041 -1.87088,-3.674957 -1.30718,-0.04136 -2.72232,1.319039 -3.30746,2.639285 0.16704,0.799563 0.33409,1.65216 0.50113,2.372019 z"
       id="path836"
       inkscape:connector-curvature="0"
       sodipodi:nodetypes="ccccc" />
    <path
       style="fill:#ffffff;fill-opacity:1;stroke:#000000;stroke-width:0.201;stroke-linecap:round;stroke-linejoin:round;stroke-miterlimit:8.18823528;stroke-dasharray:none;stroke-opacity:1"
       d="m 119.26902,82.415977 c 1.05392,-0.597634 1.32925,-0.923379 1.5034,-2.037929 0.51827,0.34209 0.98287,0.612625 1.23612,0.601356 0,0 0.26727,-0.49116 0.26727,-1.202715 0.81413,-0.638242 1.34162,-1.359478 2.93996,-1.77066 l 6.38106,2.372019 c 0.39822,0.790288 0.92605,1.402513 0.66818,2.438834 0,0 -0.70767,-0.170063 -1.20272,-3e-6 l -0.0668,1.570206 -0.43432,-0.200451 c 0.0374,0.704541 -0.124,1.260051 0.23386,2.204974 l -1.1693,0.501129 z"
       id="path838"
       inkscape:connector-curvature="0"
       sodipodi:nodetypes="ccccccccccccc" />
    <path
       style="fill:#ffffff;fill-opacity:1;stroke:#000000;stroke-width:0.201;stroke-linecap:butt;stroke-linejoin:miter;stroke-opacity:1;stroke-miterlimit:8.18823528;stroke-dasharray:none"
       d="m 143.22935,63.552453 c 1.05551,-1.840463 5.34828,-1.657633 11.43378,-0.354351 1.1393,0.532745 0.8432,2.213807 0.77958,3.708892 -2.77331,-1.151166 -4.84506,-1.648009 -6.04762,-1.653647 -2.32041,-0.05078 -4.08438,0.142764 -6.16574,-1.700894 z"
       id="path840"
       inkscape:connector-curvature="0"
       sodipodi:nodetypes="ccccc" />
    <path
       style="fill:#ffffff;fill-opacity:1;stroke:#000000;stroke-width:0.201;stroke-linecap:butt;stroke-linejoin:miter;stroke-opacity:1;stroke-miterlimit:8.18823528;stroke-dasharray:none"
       d="m 156.41127,69.552827 c -0.5692,0.805754 -0.23047,0.885886 -0.0945,1.393785 -3.60231,-0.0669 -9.54993,-2.444211 -9.85101,-4.795573 1.24273,-1.165286 10.37675,0.748355 11.1503,3.071059 -0.63486,-0.123016 -0.78986,-0.02604 -1.20479,0.330729 z"
       id="path842"
       inkscape:connector-curvature="0"
       sodipodi:nodetypes="ccccc" />
    <path
       style="fill:#ffffff;fill-opacity:1;stroke:#000000;stroke-width:0.201;stroke-linecap:butt;stroke-linejoin:miter;stroke-opacity:1;stroke-miterlimit:8.18823528;stroke-dasharray:none"
       d="m 118.49553,82.758369 c 3.73521,1.323414 6.88437,2.881248 10.32348,4.323104 -0.3791,0.109678 -0.74684,0.225038 -0.75595,0.519715 v 0.425223 c -0.55152,0.142639 -1.07064,0.188087 -1.55916,0.141742 -0.21644,-0.063 -0.41368,-0.125993 -0.87406,-0.188989 l -8.81157,-3.543525 c 0.82304,-0.361124 1.35795,-0.93835 1.67726,-1.67727 z"
       id="path844"
       inkscape:connector-curvature="0"
       sodipodi:nodetypes="cccccccc" />
    <path
       style="fill:#ffffff;fill-opacity:1;stroke:#000000;stroke-width:0.201;stroke-linecap:round;stroke-linejoin:round;stroke-miterlimit:8.18823528;stroke-dasharray:none;stroke-opacity:1;paint-order:markers fill stroke"
       d="m 145.94605,83.774181 c -0.66988,0.960689 -0.31001,1.921378 -0.14174,2.882067 1.19345,0.387939 1.89781,-0.03929 2.74033,-0.236234 0.14162,-0.648884 0.41463,-1.27149 1.18118,-1.795388 -0.0461,-0.591169 -0.61817,-0.919335 -1.41741,-1.133927 -0.78745,-0.314744 -1.57491,-0.156601 -2.36236,0.283482 z"
       id="path846"
       inkscape:connector-curvature="0"
       sodipodi:nodetypes="cccccc" />
    <path
       style="fill:#ffffff;fill-opacity:1;stroke:#000000;stroke-width:0.201;stroke-linecap:butt;stroke-linejoin:miter;stroke-opacity:1;stroke-miterlimit:8.18823528;stroke-dasharray:none"
       d="m 141.36887,89.84941 c -0.17552,0.0472 0.11375,0.559193 0.21716,0.885331 0.0462,0.372558 -0.35232,0.470222 -0.53454,0.701583 0.34445,0.749391 2.04429,0.989825 2.38872,0.868625 0.1686,-0.37054 -0.0818,-0.671242 -0.15034,-1.002261 0.16515,-0.462287 0.36012,-0.835073 0.70159,-0.7684 0.90203,-0.06682 0.59555,0.10681 0.90203,-0.06682 0.14669,-0.691971 0.44449,-1.564914 -0.0835,-2.004521 -0.37615,-0.154129 -0.64285,-0.32194 -1.35305,-0.434314 -0.50669,0.144741 -0.77295,-0.104115 -1.36976,1.03567 0.47331,1.11262 -0.29883,0.546177 -0.71829,0.785104 z"
       id="path850"
       inkscape:connector-curvature="0"
       sodipodi:nodetypes="ccccccccccc" />
    <path
       style="fill:#ffffff;fill-opacity:1;stroke:#000000;stroke-width:0.201;stroke-linecap:butt;stroke-linejoin:miter;stroke-opacity:1;stroke-miterlimit:8.18823528;stroke-dasharray:none"
       d="m 151.43611,78.902266 c -0.46211,0.242328 -0.76279,1.107548 -0.72936,1.697718 0.0334,0.59017 0.40075,0.904656 0.86299,0.662018 0.46224,-0.242639 1.01912,-1.042411 0.98575,-1.63207 -0.0334,-0.589658 -0.65726,-0.969994 -1.11938,-0.727666 z"
       id="path854"
       inkscape:connector-curvature="0"
       inkscape:path-effect="#path-effect856"
       inkscape:original-d="m 151.27455,78.279735 c -0.30041,0.864908 -0.60109,1.730127 -0.90203,2.595657 0.36792,0.31445 0.73525,0.628937 1.10248,0.943876 0.55701,-0.799881 1.11389,-1.599655 1.67044,-2.399017 -0.6231,-0.380322 -1.247,-0.760656 -1.87089,-1.140516 z" />
    <path
       style="fill:#ffffff;fill-opacity:1;stroke:#000000;stroke-width:0.201;stroke-linecap:butt;stroke-linejoin:miter;stroke-opacity:1;stroke-miterlimit:8.18823528;stroke-dasharray:none"
       d="m 155.03316,75.544773 c 0.71847,0.155869 1.72073,-0.445486 2.02133,-0.901916 0.3006,-0.45643 -0.10043,-0.76834 -0.81864,-0.924261 -0.71822,-0.155921 -1.7538,-0.155921 -2.05458,0.300723 -0.30078,0.456643 0.13342,1.369585 0.85189,1.525454 z"
       id="path858"
       inkscape:connector-curvature="0"
       inkscape:path-effect="#path-effect860"
       inkscape:original-d="m 154.74905,76.302186 c 1.00253,-0.60162 2.00479,-1.202978 3.00679,-1.804069 -0.40052,-0.311983 -0.80155,-0.623893 -1.20272,-0.935442 -1.03549,-2.65e-4 -2.07107,-2.65e-4 -3.107,0 0.43468,0.913138 0.86889,1.826075 1.30293,2.739511 z" />
    <path
       style="fill:#ffffff;fill-opacity:1;stroke:#000000;stroke-width:0.201;stroke-linecap:butt;stroke-linejoin:miter;stroke-opacity:1;stroke-miterlimit:8.18823528;stroke-dasharray:none"
       d="m 159.67703,73.061358 c 0.25068,0.233981 0.88544,0.100347 0.95521,-0.197405 0.0698,-0.297752 -0.43756,-0.77125 -0.75491,-0.704586 -0.31736,0.06666 -0.45099,0.66801 -0.2003,0.901991 z"
       id="path862"
       inkscape:connector-curvature="0"
       inkscape:path-effect="#path-effect864"
       inkscape:original-d="m 159.29264,73.429039 c 0.63503,-0.1339 1.26979,-0.267533 1.90429,-0.400905 -0.48949,-0.467759 -1.00199,-0.935706 -1.50339,-1.403164 -0.13337,0.601104 -0.26701,1.202449 -0.4009,1.804069 z" />
    <path
       style="fill:#ffffff;fill-opacity:1;stroke:#000000;stroke-width:0.201;stroke-linecap:butt;stroke-linejoin:miter;stroke-opacity:1;stroke-miterlimit:8.18823528;stroke-dasharray:none"
       d="m 162.57238,69.436552 c 0.42889,0.02773 0.89661,-0.428857 0.9189,-0.81282 0.0223,-0.383963 -0.40114,-0.695955 -0.82978,-0.723892 -0.42863,-0.02794 -0.8629,0.228171 -0.8852,0.612626 -0.0223,0.384455 0.36718,0.896355 0.79608,0.924086 z"
       id="path866"
       inkscape:connector-curvature="0"
       inkscape:path-effect="#path-effect868"
       inkscape:original-d="m 162.53328,69.921127 c 0.46798,-0.456851 0.93571,-0.913437 1.40317,-1.369756 -0.42267,-0.311901 -0.84609,-0.623895 -1.26954,-0.935445 -0.43409,0.255897 -0.86836,0.512003 -1.30293,0.768401 0.39031,0.51237 0.7798,1.024268 1.1693,1.5368 z" />
    <path
       style="fill:#ffffff;fill-opacity:1;stroke:#000000;stroke-width:0.201;stroke-linecap:butt;stroke-linejoin:miter;stroke-opacity:1;stroke-miterlimit:8.18823528;stroke-dasharray:none"
       d="m 163.5077,66.268308 c 0.006,-0.27854 0.0167,-0.835353 -0.32273,-1.263862 -0.33943,-0.42851 -1.03021,-0.729334 -1.29198,-0.517804 -0.26177,0.211531 -0.0948,0.935253 0.24508,1.364137 0.33984,0.428884 0.85197,0.562483 1.10801,0.629276 0.25604,0.06679 0.25605,0.06679 0.26162,-0.211747 z"
       id="path870"
       inkscape:connector-curvature="0"
       inkscape:path-effect="#path-effect872"
       inkscape:original-d="m 163.50213,66.546848 c 0.0114,-0.557075 0.0225,-1.113888 0.0334,-1.670433 -0.68985,-0.300797 -1.38063,-0.601623 -2.07134,-0.902036 0.16734,0.723722 0.33435,1.447445 0.50113,2.171565 0.51267,0.133405 1.0248,0.267007 1.5368,0.400904 z" />
    <path
       style="fill:#ffffff;fill-opacity:1;stroke:#000000;stroke-width:0.201;stroke-linecap:butt;stroke-linejoin:miter;stroke-opacity:1;stroke-miterlimit:8.18823528;stroke-dasharray:none"
       d="m 142.82245,61.825037 c -0.70161,0.490041 1.10245,0.467768 2.70609,-0.03347 1.60365,-0.501238 3.0068,-1.481214 2.10476,-1.470022 -0.90203,0.01119 -4.10925,1.013449 -4.81085,1.503491 z"
       id="path878"
       inkscape:connector-curvature="0"
       inkscape:path-effect="#path-effect880"
       inkscape:original-d="m 140.3165,62.337355 c 1.80434,-0.02254 3.6084,-0.04481 5.41221,-0.06682 1.40344,-0.980257 2.80659,-1.960235 4.2095,-2.939964 -3.20699,1.002003 -6.41421,2.004257 -9.62171,3.006784 z"
       sodipodi:nodetypes="cccc" />
    <path
       style="fill:#ffffff;fill-opacity:1;stroke:#000000;stroke-width:0.201;stroke-linecap:butt;stroke-linejoin:miter;stroke-opacity:1;stroke-miterlimit:8.18823528;stroke-dasharray:none"
       d="m 134.4591,64.074455 c 0.44547,0.42332 2.04908,0.378775 3.3074,-0.03332 1.25833,-0.412092 2.17165,-1.191758 1.72647,-1.614799 -0.44518,-0.423042 -2.24982,-0.489881 -3.50827,-0.07793 -1.25846,0.411952 -1.97108,1.302726 -1.5256,1.726045 z"
       id="path882"
       inkscape:connector-curvature="0"
       inkscape:path-effect="#path-effect884"
       inkscape:original-d="m 133.30067,64.542328 c 1.60389,-0.04481 3.2075,-0.08935 4.81086,-0.133636 0.91328,-0.779669 1.8266,-1.559338 2.73951,-2.338607 -1.80324,-0.06706 -3.60788,-0.1339 -5.41221,-0.200454 -0.71255,0.89076 -1.42517,1.781533 -2.13816,2.672697 z" />
  </g>
</svg>
