<?xml version="1.0" encoding="UTF-8" standalone="no"?>
<!-- Created with Inkscape (http://www.inkscape.org/) -->

<svg
   xmlns:dc="http://purl.org/dc/elements/1.1/"
   xmlns:cc="http://creativecommons.org/ns#"
   xmlns:rdf="http://www.w3.org/1999/02/22-rdf-syntax-ns#"
   xmlns:svg="http://www.w3.org/2000/svg"
   xmlns="http://www.w3.org/2000/svg"
   xmlns:sodipodi="http://sodipodi.sourceforge.net/DTD/sodipodi-0.dtd"
   xmlns:inkscape="http://www.inkscape.org/namespaces/inkscape"
   width="203.13626mm"
   height="230.99185mm"
   viewBox="0 0 203.13626 230.99185"
   version="1.1"
   id="svg2009"
   inkscape:version="0.92.2 (5c3e80d, 2017-08-06)"
   sodipodi:docname="geel.svg">
  <defs
     id="defs2003">
    <clipPath
       id="clipPath1206"
       clipPathUnits="userSpaceOnUse">
      <path
         inkscape:connector-curvature="0"
         id="path1204"
         d="m 36,330.236 h 87.249 v 99.212 H 36 Z" />
    </clipPath>
    <clipPath
       id="clipPath1298"
       clipPathUnits="userSpaceOnUse">
      <path
         inkscape:connector-curvature="0"
         id="path1296"
         d="m 143.35,330.236 h 82.121 v 99.212 H 143.35 Z" />
    </clipPath>
    <clipPath
       id="clipPath1342"
       clipPathUnits="userSpaceOnUse">
      <path
         inkscape:connector-curvature="0"
         id="path1340"
         d="m 253.134,330.236 h 131.61 v 99.212 h -131.61 z" />
    </clipPath>
  </defs>
  <sodipodi:namedview
     id="base"
     pagecolor="#ffffff"
     bordercolor="#666666"
     borderopacity="1.0"
     inkscape:pageopacity="0.0"
     inkscape:pageshadow="2"
     inkscape:zoom="0.49497475"
     inkscape:cx="251.75667"
     inkscape:cy="302.27058"
     inkscape:document-units="mm"
     inkscape:current-layer="layer1"
     showgrid="false"
     fit-margin-top="0"
     fit-margin-left="0"
     fit-margin-right="0"
     fit-margin-bottom="0"
     inkscape:window-width="1920"
     inkscape:window-height="1001"
     inkscape:window-x="-9"
     inkscape:window-y="-9"
     inkscape:window-maximized="1" />
  <metadata
     id="metadata2006">
    <rdf:RDF>
      <cc:Work
         rdf:about="">
        <dc:format>image/svg+xml</dc:format>
        <dc:type
           rdf:resource="http://purl.org/dc/dcmitype/StillImage" />
        <dc:title></dc:title>
      </cc:Work>
    </rdf:RDF>
  </metadata>
  <g
     inkscape:label="Laag 1"
     inkscape:groupmode="layer"
     id="layer1"
     transform="translate(-6.5330582,-7.3572664)">
    <g
       id="g1336"
       transform="matrix(2.3306615,0,0,-2.3306615,-583.81943,1008.466)">
      <g
         clip-path="url(#clipPath1342)"
         id="g1338">
        <g
           transform="translate(299.7231,355.6012)"
           id="g1344">
          <path
             inkscape:connector-curvature="0"
             id="path1346"
             style="fill:#f9b200;fill-opacity:1;fill-rule:evenodd;stroke:none"
             d="M 0,0 C -0.575,-0.069 -0.892,0.808 -1.408,1.061 -1.825,1.269 -2.392,0.897 -2.809,0.864 -3.137,1.801 -2.548,2.91 -2.437,3.622 -2.629,4.007 -2.761,4.727 -3,5.203 -3.015,5.136 -3.024,5.067 -3.038,4.999 L -3.252,5.551 C -3.15,5.472 -3.077,5.344 -3,5.203 c 0.29,1.27 0.159,2.695 0.307,4.044 0.121,1.144 0.733,1.261 0.868,2.137 0.153,0.973 -0.266,1.409 0.062,2.254 0.175,0.456 0.663,0.86 0.892,1.241 0.329,-0.781 0.329,-2.006 0.631,-2.686 C -0.023,11.716 0.234,11.989 0.431,11.44 0.581,10.992 0.626,10.023 0.589,9.575 0.497,8.406 0.245,8.165 0.406,6.661 0.522,5.544 1.224,4.399 0.75,3.902 0.914,3.546 0.973,3.102 1.113,2.73 1.111,2.77 1.029,2.421 1.043,2.433 1.979,1.789 0.344,0.039 0,0 m 35.445,-39.242 c -1.373,0.379 -1.739,1.03 -2.008,2.352 -0.195,0.967 0.406,1.496 -0.171,2.292 -0.367,0.508 -1.381,0.506 -1.95,0.633 -0.568,0.126 -0.863,0.783 -1.204,1.261 -0.308,0.428 0.12,1.344 0,2.122 -0.168,1.093 -0.851,2.086 -1.204,2.572 -1.041,1.433 -1.693,1.227 -2.01,1.53 0,0 -0.002,0.001 -0.002,0.003 -0.949,1.919 -2.392,4.339 -3.437,5.825 -0.567,-0.092 -0.567,-0.181 -0.728,-0.172 -0.567,0.232 -0.778,0.456 -0.874,1.165 -0.304,0.107 -0.175,0.032 -0.352,0.168 -0.503,-0.016 -0.768,-0.065 -1.064,-0.168 0.169,-0.777 0.287,-0.805 0.352,-1.829 h -0.544 c -0.024,-0.389 -0.024,-0.474 -0.161,-0.67 0.28,-0.54 1.218,-0.888 1.769,-1.164 v -0.165 h -1.343 c -0.543,0.245 -1.05,0.474 -1.5,0.676 -0.17,0.696 -0.23,1.372 0.362,1.822 -0.353,0.501 -0.199,0.225 -0.712,0.165 0.04,1.076 0.72,1.745 1.585,2.001 -0.096,0.36 -0.194,0.332 0,0.665 -0.096,0.524 -0.144,0.488 -0.344,0.828 -0.642,-0.087 -0.651,-0.032 -0.889,-0.5 h -0.175 c 0.013,0.429 0.013,0.624 0.175,0.828 0.344,0.702 3.107,1.614 3.905,2.179 1.931,1.36 2.052,3.662 2.667,6.323 v 2.335 c 0.234,0.984 0.432,3.25 -0.183,3.994 v 0.164 h -0.352 c -0.242,-0.9 -0.643,-2.057 -0.881,-3.001 -0.457,-1.673 0.056,-3.955 -0.896,-5.161 -0.057,-0.051 -0.121,-0.107 -0.178,-0.164 -0.384,1.089 -0.177,2.954 -0.177,4.332 0,2.345 -0.134,4.899 -0.19,6.993 -0.025,1.613 0.311,3.783 -0.513,4.664 -0.192,0.136 -0.047,0.056 -0.361,0.172 -0.183,-0.136 -0.04,-0.069 -0.352,-0.172 -0.96,-3.647 -0.536,-8.671 -0.536,-12.99 0,-1.894 0.264,-4.464 -0.72,-5.492 v -0.336 H 19.905 V 0.5 c 0,2.178 0.256,4.927 -0.177,6.821 -0.432,1.906 -0.011,4.648 -0.339,6.188 -0.601,0.06 -0.623,0.336 -1.077,-0.352 -1.466,-5.929 -0.947,-14.579 -0.899,-21.163 -0.663,1 -0.79,2.571 -0.567,4.303 0,2.454 -0.142,4.458 -0.142,6.905 0,0.979 0.381,2.638 -0.177,3.122 -0.105,0.125 0,0.04 -0.178,0 -1.457,-0.528 -0.527,-1.949 -0.888,-3.499 -0.52,-2.217 0.042,-5.9 -0.359,-7.661 -0.352,-1.57 0.392,-3.526 -0.352,-4.66 -0.057,-0.168 -0.121,-0.332 -0.178,-0.501 -2.659,0.141 -1.833,7.691 -1.954,10.665 -0.057,0.044 -0.118,0.095 -0.183,0.16 h -0.889 c -0.401,-2.859 -1.304,-9.984 0.36,-12.325 0.752,-1.078 1.995,-0.289 3.027,-0.833 h 0.352 c 0.032,-2.246 -0.151,-5.372 -0.183,-8.158 -0.36,-0.072 -0.336,-0.045 -0.53,-0.164 h -0.36 c 0.161,0.388 0.073,0.272 0.36,0.492 -0.287,1.173 -1.17,0.857 -1.249,2.33 -0.616,-0.265 -0.423,-0.821 -0.888,-1.165 -0.994,-0.725 -1.233,-0.1 -1.954,-1.165 h -0.175 c 0.377,0.889 -0.128,1.369 -0.537,2.33 -0.248,0.68 1.016,1.841 0.352,3.007 -0.113,0.283 -0.033,0.16 -0.174,0.332 -0.098,-0.433 -0.17,-0.741 -0.178,-1.338 -0.048,0.053 -0.121,0.108 -0.178,0.16 -0.446,-0.24 -0.199,0.049 -0.36,-0.492 -0.119,0.168 -0.231,0.66 -0.353,0.836 v 0.33 c -0.518,-0.174 0,-1.779 -0.886,-2.163 v -0.336 c -0.146,0.2 -0.146,0.277 -0.186,0.672 -0.425,-0.223 -0.408,-0.348 -0.527,-0.84 -0.052,-0.009 -0.081,-0.013 -0.12,-0.02 0.054,0.255 0.113,0.508 0.177,0.757 0.214,0.904 -0.08,1.529 0.033,2.153 0.294,1.649 1.039,3.579 1.174,5.289 0.081,1.016 -0.624,2.045 -0.567,3.037 0.073,1.641 0.792,2.374 0.392,3.079 -0.304,0.5 -0.776,0.98 -1.546,1.725 -0.607,0.58 -2.257,0.596 -2.634,1.109 -1.145,1.537 -0.231,3.374 -0.191,4.983 0.041,1.157 0.231,2.454 0.36,4.1 0.102,1.173 -0.242,1.917 -0.319,3.038 -0.081,1.113 0.11,2.606 -0.442,3.491 -0.336,0.532 -2.313,-0.104 -2.897,0.295 -0.742,0.502 -0.005,1.878 -0.838,2.019 -1.13,0.191 -2.293,0.176 -3.404,0.248 -1.306,0.088 -1.164,0.36 -2.123,1.213 -0.336,0.308 0.742,0.632 0.479,1.113 -0.361,0.677 -0.589,1.483 -0.767,2.347 -0.438,2.2 -0.509,2.497 -1.654,4.267 -0.925,-1.718 -0.201,-2.45 -1.025,-4.002 -0.477,-0.896 -0.689,-0.566 -1.431,-0.675 -1.037,-0.147 0.236,0.158 -0.978,0.215 -0.691,0.04 -0.742,0.062 -1.336,0.062 -1.374,0.005 -2.454,0.18 -3.07,1.657 -0.543,1.298 -0.529,2.99 -1.022,4.411 -0.342,0.992 -0.134,2.031 -0.709,2.622 -1.086,1.106 6.851,2.34 5.531,2.856 -0.703,0.275 0.316,1.695 -0.287,2.039 -0.742,0.422 -1.363,0.96 -1.744,1.756 -0.624,1.321 0.125,1.923 0.059,2.871 -0.036,0.422 -1.598,1.306 -1.664,1.662 -0.172,0.859 0.102,1.555 -1.226,2.112 -0.347,0.146 -0.758,0.288 -1.236,0.416 0.198,0.752 0.5,1.496 0.844,2.246 0.333,0.75 -0.22,1.273 0.104,2.046 0.382,0.912 1.616,2.078 1.752,3.044 0.338,2.5 -2.569,6.183 -2.803,8.716 -0.182,1.872 2.334,2.594 2.264,4.452 -0.011,0.376 -0.022,0.759 -0.022,1.133 0,2.221 1.097,4.579 0.172,6.439 -0.35,0.691 -1.597,0.97 -2.421,1.817 -0.834,0.845 -2.611,5.102 -3.185,5.619 -3.555,3.211 -3.168,11.442 -8.143,12.418 h -10.32 -37.507 -403.712 V -44.031 h 404.747 36.472 79.938 c -0.673,0.476 -2.824,4.191 -4.989,4.789" />
        </g>
        <g
           transform="translate(292.4453,408.7192)"
           id="g1348">
          <path
             inkscape:connector-curvature="0"
             id="path1350"
             style="fill:#f9b200;fill-opacity:1;fill-rule:evenodd;stroke:none"
             d="M 0,0 C 0.161,-0.087 0.376,-0.163 0.511,-0.263 0.553,-0.296 0.578,-0.341 0.612,-0.378 0.895,-0.651 1.277,-0.812 1.63,-0.995 1.808,-1.087 2,-1.168 2.186,-1.25 2.377,-1.333 2.575,-1.405 2.725,-1.523 2.188,-1.438 1.605,-1.245 0.995,-1.164 0.725,-1.129 0.42,-1.081 0.18,-1.128 0.147,-1.225 0.268,-1.253 0.322,-1.278 0.829,-1.512 1.455,-1.66 1.892,-1.931 1.656,-1.941 1.173,-1.743 1.097,-1.978 1.064,-2.14 1.557,-2.401 1.78,-2.546 1.718,-2.625 1.656,-2.652 1.63,-2.774 1.602,-2.895 1.729,-3.099 1.808,-3.152 c 0.079,-0.054 0.138,-0.099 0.144,-0.114 0,-0.005 -0.049,-0.051 -0.06,-0.066 -0.059,-0.075 -0.056,-0.16 0,-0.227 C 2.008,-3.695 2.242,-3.79 2.377,-3.863 2.208,-4.236 2.572,-4.419 2.82,-4.524 2.815,-4.778 2.998,-4.84 3.199,-4.884 3.183,-4.954 3.11,-4.969 3.075,-5.028 2.9,-5.36 3.331,-5.375 3.342,-5.689 3.353,-5.805 3.527,-5.802 3.596,-5.879 3.449,-6.298 3.92,-6.384 4.25,-6.446 4.129,-6.923 4.586,-6.898 4.922,-6.949 4.851,-7.039 4.758,-7.132 4.783,-7.253 4.825,-7.489 5.18,-7.535 5.432,-7.555 5.42,-7.851 5.688,-7.86 5.889,-7.942 5.88,-8.302 6.013,-8.601 6.411,-8.586 c 0.067,-0.083 0.056,-0.191 0.14,-0.247 0.08,-0.051 0.178,-0.028 0.277,-0.057 0.113,-0.032 0.129,-0.21 0.245,-0.283 0.11,-0.069 0.206,-0.042 0.349,-0.066 0.029,-0.129 0.137,-0.269 0.3,-0.2 C 7.846,-9.482 7.677,-9.611 7.753,-9.637 7.713,-9.723 7.51,-9.786 7.479,-9.798 7.025,-9.927 5.376,-9.969 5.311,-9.969 4.913,-9.971 4.379,-9.801 4.22,-10.082 c 0.084,-0.045 0.219,-0.035 0.323,-0.056 -0.042,-0.019 0.024,0.009 -0.166,-0.01 -0.197,-0.02 -0.251,-0.282 -0.157,-0.389 0.132,-0.097 0.239,-0.214 0.495,-0.19 -0.115,-0.122 -0.312,-0.158 -0.417,-0.292 0.003,-0.079 0,-0.133 0.046,-0.2 0.048,-0.066 0.247,-0.183 0.408,-0.205 0.113,-0.019 0.205,0.09 0.307,0.021 0,-0.044 -0.075,-10e-4 -0.059,-0.06 0.014,-0.061 0.355,-0.167 0.522,-0.107 0.128,-0.1 0.316,0.038 0.488,0 0.039,-0.006 0.048,-0.036 0.079,-0.055 0.115,-0.071 0.282,-0.012 0.424,-0.01 0.112,0.002 0.224,-0.054 0.331,-0.057 0.113,0 0.234,0.049 0.35,0.067 0.308,0.046 0.542,0.141 0.835,0.18 0.043,0.01 0.029,-0.037 0.065,-0.039 0.183,0.061 0.366,0.084 0.57,0.068 0,-0.027 0.016,-0.026 -0.022,-0.058 -0.035,-0.031 0.086,-0.069 0.172,-0.036 0.084,0.029 0.186,0.069 0.267,0.026 0.026,-0.067 -0.119,-0.087 -0.105,-0.141 0.156,0.022 0.289,0.043 0.459,0.055 0.639,0.053 1.355,0.021 1.992,-0.008 0.145,-0.006 0.291,0.006 0.424,-0.037 0.006,-0.028 -0.053,-0.045 -0.045,-0.124 0.011,-0.079 0.277,-0.153 0.493,-0.152 0.053,-0.162 0.294,-0.138 0.491,-0.16 0.019,-0.024 0.005,-0.079 0.019,-0.105 0.139,-0.126 0.416,-0.114 0.664,-0.133 -0.003,-0.051 -0.102,-0.056 -0.094,-0.178 0.005,-0.268 0.497,-0.249 0.736,-0.304 0.137,-0.031 0.258,-0.118 0.387,-0.057 0.135,-0.147 0.493,-0.196 0.739,-0.142 0.054,0.012 0.101,0.052 0.154,0.047 0.048,-0.005 0.075,-0.052 0.128,-0.075 0.116,-0.049 0.307,-0.061 0.439,-0.029 0.125,-0.2 0.644,-0.216 0.785,-0.018 0.07,-0.062 0.137,-0.174 0.541,-0.284 0.163,-0.021 0.324,0.02 0.463,0.066 0.127,-0.145 0.335,-0.239 0.576,-0.218 0.041,0.004 0.154,0.024 0.275,0.094 0.054,0 0.088,-0.08 0.142,-0.122 0.225,-0.175 0.877,-0.418 0.916,0.028 0.095,-0.056 0.517,-0.414 0.638,-0.512 0.11,-0.087 0.212,-0.231 0.406,-0.216 0.107,0.071 0.075,0.222 0.056,0.368 -0.022,0.188 -0.065,0.411 -0.028,0.606 0.378,-0.028 1.281,-0.961 1.458,-1.07 0.102,0.054 0.107,0.319 -0.067,0.635 -0.134,0.243 -0.565,0.724 -0.578,0.786 0.188,-0.052 1.844,-0.601 1.914,-0.52 0.062,0.137 -0.04,0.175 -0.18,0.265 -0.142,0.088 -0.96,0.54 -1.156,0.559 0.002,0.06 0.081,0.08 0.134,0.083 0.065,0.005 0.156,-0.028 0.245,-0.037 0.565,-0.06 1.21,-0.166 1.713,0 -0.138,0.08 -0.356,0.029 -0.567,0.037 0.33,0.132 0.607,0.315 0.795,0.586 v 0.031 c -0.033,0.062 -0.336,-0.06 -0.35,-0.067 -0.137,-0.07 -0.397,-0.183 -0.419,-0.19 -0.018,-0.008 -0.139,-0.055 -0.189,-0.066 -0.054,-0.013 -0.249,-0.047 -0.289,-0.056 -1.423,-0.227 -1.936,0.333 -2.34,0.567 -0.765,0.479 -3.486,1.226 -3.76,1.316 -0.093,0.032 -0.188,0.056 -0.282,0.086 -0.186,0.058 -1.928,0.415 -2.011,0.445 -0.236,0.08 -0.261,0.345 -0.481,0.672 -0.218,0.325 -0.717,0.47 -0.973,0.548 -0.13,0.039 -0.269,0.07 -0.401,0.113 -1.145,0.362 -2.911,3.022 -2.978,3.098 -0.07,0.074 -0.328,0.479 -0.409,0.586 -0.032,0.042 -0.395,0.45 -0.548,0.625 -0.118,0.129 -0.25,0.245 -0.371,0.37 -0.244,0.25 -1.397,1.293 -1.524,1.41 -0.513,0.48 -0.97,1.004 -1.382,1.561 C 5.319,-0.296 4.944,0.305 4.583,0.918 4.403,1.222 4.255,1.552 4.022,1.836 3.973,1.822 3.96,1.775 3.96,1.732 3.954,1.636 4.041,1.457 4.081,1.326 4.298,0.602 4.597,0.054 4.96,-0.483 5.029,-0.585 5.107,-0.695 5.189,-0.794 5.271,-0.895 5.414,-1.108 5.511,-1.211 5.429,-1.175 5.365,-1.108 5.302,-1.05 5.234,-0.991 5.178,-0.929 5.11,-0.872 4.726,-0.512 4.355,-0.133 4.002,0.257 3.532,0.781 3.077,1.317 2.612,1.847 2.578,1.876 2.538,1.899 2.508,1.933 2.371,2.078 2.261,2.262 2.053,2.339 1.979,2.239 2.064,2.105 2.102,2.036 2.431,1.443 2.795,0.904 3.21,0.398 3.413,0.142 3.638,-0.087 3.855,-0.331 4.07,-0.577 4.335,-0.772 4.527,-1.04 3.522,-0.403 2.615,0.332 1.636,0.996 1.529,1.081 1.151,1.335 1.03,1.43 0.914,1.524 0.742,1.605 0.551,1.571 0.513,1.512 0.89,1.093 0.973,1.013 0.995,0.996 3.691,-1.222 3.691,-1.25 3.629,-1.253 2.572,-0.758 2.081,-0.53 1.591,-0.3 1.091,-0.093 0.556,0.103 0.296,0.176 0.03,0.245 -0.256,0.293 -0.508,0.343 -0.051,0.027 0,0" />
        </g>
      </g>
    </g>
  </g>
</svg>
