<?xml version="1.0" encoding="UTF-8" standalone="no"?>
<!-- Created with Inkscape (http://www.inkscape.org/) -->

<svg
   xmlns:dc="http://purl.org/dc/elements/1.1/"
   xmlns:cc="http://creativecommons.org/ns#"
   xmlns:rdf="http://www.w3.org/1999/02/22-rdf-syntax-ns#"
   xmlns:svg="http://www.w3.org/2000/svg"
   xmlns="http://www.w3.org/2000/svg"
   xmlns:sodipodi="http://sodipodi.sourceforge.net/DTD/sodipodi-0.dtd"
   xmlns:inkscape="http://www.inkscape.org/namespaces/inkscape"
   width="203.13626mm"
   height="230.99185mm"
   viewBox="0 0 203.13626 230.99185"
   version="1.1"
   id="svg2009"
   inkscape:version="0.92.2 (5c3e80d, 2017-08-06)"
   sodipodi:docname="lgroen.svg">
  <defs
     id="defs2003">
    <clipPath
       id="clipPath1206"
       clipPathUnits="userSpaceOnUse">
      <path
         inkscape:connector-curvature="0"
         id="path1204"
         d="m 36,330.236 h 87.249 v 99.212 H 36 Z" />
    </clipPath>
    <clipPath
       id="clipPath1298"
       clipPathUnits="userSpaceOnUse">
      <path
         inkscape:connector-curvature="0"
         id="path1296"
         d="m 143.35,330.236 h 82.121 v 99.212 H 143.35 Z" />
    </clipPath>
    <clipPath
       id="clipPath1342"
       clipPathUnits="userSpaceOnUse">
      <path
         inkscape:connector-curvature="0"
         id="path1340"
         d="m 253.134,330.236 h 131.61 v 99.212 h -131.61 z" />
    </clipPath>
    <clipPath
       id="clipPath1394"
       clipPathUnits="userSpaceOnUse">
      <path
         inkscape:connector-curvature="0"
         id="path1392"
         d="M 361.139,330.236 H 492.75 v 99.212 H 361.139 Z" />
    </clipPath>
    <clipPath
       id="clipPath1446"
       clipPathUnits="userSpaceOnUse">
      <path
         inkscape:connector-curvature="0"
         id="path1444"
         d="m 477.071,330.236 h 131.61 v 99.212 h -131.61 z" />
    </clipPath>
  </defs>
  <sodipodi:namedview
     id="base"
     pagecolor="#ffffff"
     bordercolor="#666666"
     borderopacity="1.0"
     inkscape:pageopacity="0.0"
     inkscape:pageshadow="2"
     inkscape:zoom="0.49497475"
     inkscape:cx="251.75667"
     inkscape:cy="302.27058"
     inkscape:document-units="mm"
     inkscape:current-layer="layer1"
     showgrid="false"
     fit-margin-top="0"
     fit-margin-left="0"
     fit-margin-right="0"
     fit-margin-bottom="0"
     inkscape:window-width="1920"
     inkscape:window-height="1001"
     inkscape:window-x="-9"
     inkscape:window-y="-9"
     inkscape:window-maximized="1" />
  <metadata
     id="metadata2006">
    <rdf:RDF>
      <cc:Work
         rdf:about="">
        <dc:format>image/svg+xml</dc:format>
        <dc:type
           rdf:resource="http://purl.org/dc/dcmitype/StillImage" />
        <dc:title></dc:title>
      </cc:Work>
    </rdf:RDF>
  </metadata>
  <g
     inkscape:label="Laag 1"
     inkscape:groupmode="layer"
     id="layer1"
     transform="translate(-6.5330582,-7.3572664)">
    <g
       id="g1440"
       transform="matrix(2.313954,0,0,-2.313954,-1098.15,1001.8256)">
      <g
         clip-path="url(#clipPath1446)"
         id="g1442">
        <g
           transform="translate(529.2502,331.1111)"
           id="g1448">
          <path
             inkscape:connector-curvature="0"
             id="path1450"
             style="fill:#a4c400;fill-opacity:1;fill-rule:nonzero;stroke:none"
             d="m 0,0 c -1.266,-0.053 -2.506,-0.214 -3.747,-0.378 -0.022,0.246 -0.048,0.495 -0.07,0.739 -0.184,2.112 -0.377,4.293 -0.789,6.357 0.019,0.72 0.043,1.504 0.062,2.08 0.212,0.156 0.396,0.295 0.552,0.418 0.915,-1.181 1.576,-2.15 1.649,-2.633 C -2.26,6.05 -2.371,5.876 -2.631,5.476 -3.264,4.491 -2.696,3.871 -2.696,3.871 c 0,0 -0.195,-0.632 -0.181,-0.984 0.032,-0.773 0.504,-0.879 0.504,-0.879 0,0 -0.216,-0.552 0.318,-1.006 0.535,-0.45 1.188,-0.255 1.925,0.28 0.741,0.533 1.28,1.646 1.28,1.646 0,0 0.738,-1.316 0.862,-1.891 C 2.071,0.758 2.343,0.334 2.736,0.008 1.823,0.022 0.907,0.038 0,0 m -21.206,113.73 c 0.003,10e-4 0.009,0.003 0.009,0.004 l -0.006,-0.051 -0.178,-1.825 -0.084,-0.89 -0.026,0.039 c 0.008,-0.014 0.016,-0.03 0.026,-0.043 l -0.023,-0.233 -0.046,-0.461 -0.116,-1.268 -0.14,-1.497 -0.184,-1.903 c -0.18,2.499 -0.374,5.216 -0.528,7.378 0.437,0.31 0.87,0.573 1.296,0.75 m 2.029,0.552 c 0.004,-0.078 0.007,-0.156 0.012,-0.228 l 0.011,-0.144 c 0.014,-0.203 0.02,-0.437 0.02,-0.701 l -0.014,-0.68 -0.048,-1.82 -0.046,-1.843 -0.019,-0.628 c -0.145,0.17 -0.297,0.351 -0.436,0.509 l -0.057,0.059 c -0.11,0.127 -0.226,0.262 -0.339,0.391 l 0.077,0.893 0.097,1.166 0.251,2.898 c 0.215,0.05 0.393,0.093 0.491,0.128 M -8.7,107.443 c 0.048,1.008 0.126,2.068 0.186,2.881 l 0.169,2.18 0.054,0.675 -0.003,-0.065 -0.023,-1.434 -0.041,-2.235 -0.043,-2.536 c -0.102,0.121 -0.204,0.242 -0.305,0.363 z m 5.117,-0.817 c 0.373,0.071 0.704,0.133 0.854,0.178 0.005,-0.073 0.011,-0.144 0.016,-0.21 l 0.011,-0.132 c 0.014,-0.186 0.021,-0.404 0.02,-0.647 l -0.014,-0.629 -0.054,-1.678 -0.051,-1.699 -0.025,-0.724 c -1.406,1.277 -2.721,2.613 -3.927,3.941 l 0.003,0.349 c 0.601,0.388 1.195,0.716 1.777,0.92 0.106,0.094 0.79,0.221 1.39,0.331 m 6.147,-9.714 c -1.597,1.023 -3.124,2.191 -4.565,3.438 l 0.085,3.235 0.031,1.042 0.015,0.69 1.662,-2.599 c 1.081,-1.769 1.848,-3.34 2.421,-4.951 0.104,-0.288 0.221,-0.571 0.351,-0.855 M 16.295,92.837 16.3,92.601 c 0,0 -0.129,-0.161 -0.536,-0.718 -0.406,-0.556 -3.856,-3.477 -4.288,-3.94 C 11.049,87.478 10.275,86.412 9.591,85.902 8.905,85.392 8.069,84.975 7.234,84.813 6.397,84.65 4.589,83.667 4.589,83.667 c 0,0 -0.376,0.699 -0.517,0.891 -0.076,0.103 -0.675,0.59 -1.656,0.561 -1.885,-0.057 -2.004,-1.497 -2.068,-1.452 -0.063,0.047 -1.56,0.59 -1.755,0.753 -0.023,0.02 -0.082,0.054 -0.169,0.097 l 0.415,0.252 c 0.74,0.421 1.322,0.649 1.88,0.737 L 0.644,85.496 0.541,85.482 0.492,85.477 c -0.651,-0.065 -1.311,0.023 -1.95,0.109 l -0.064,0.008 c -0.272,0.035 -0.558,0.069 -0.851,0.093 0.014,0.611 0.027,1.18 0.037,1.638 l 0.067,2.675 0.093,3.639 0.074,2.838 c 0.222,0.378 0.438,0.784 0.65,1.265 l 0.105,0.285 c 0.056,0.156 0.129,0.345 0.202,0.528 1.495,-1.211 3.03,-2.326 4.582,-3.282 0.016,-0.049 0.03,-0.098 0.024,-0.131 0.007,0.039 0,0.077 0.003,0.115 3.313,-2.042 6.682,-3.354 9.823,-3.257 1.069,0.033 2.069,0.338 3.008,0.837 M -5.207,39.12 c -0.029,-0.117 -0.06,-0.248 -0.089,-0.368 -0.129,0.098 -0.259,0.206 -0.393,0.294 -0.555,0.366 -1.169,0.726 -1.819,0.987 l 0.023,0.737 0.019,0.731 0.043,0.757 0.04,0.314 0.095,0.37 0.051,0.172 c 0.059,0.221 0.077,0.533 0.051,0.808 -0.031,0.286 -0.113,0.497 -0.249,0.632 -0.085,0.082 -0.177,0.122 -0.268,0.147 0.031,0.048 0.062,0.106 0.091,0.154 l 0.041,0.003 c 0.11,0.012 0.212,0.024 0.301,0.27 0.044,0.118 0.078,0.257 0.106,0.402 0.043,0.065 0.088,0.138 0.131,0.2 l -0.105,-0.141 -0.019,-0.026 c 0.03,0.164 0.049,0.339 0.051,0.514 0.014,0.424 -0.054,0.746 -0.123,1.083 l -0.022,0.112 c -0.048,0.239 -0.084,0.453 -0.099,0.692 l -0.02,0.445 c -0.023,0.907 -0.022,1.961 0.003,3.314 l 0.059,2.53 0.071,3.116 c 0.175,-0.484 0.339,-0.983 0.481,-1.512 -0.179,0.671 -0.331,1.372 -0.468,2.083 l 0.069,2.943 0.047,1.623 0.021,1.037 c 0.003,0.264 0.011,0.559 0.017,0.863 0.59,-0.368 1.187,-0.618 1.734,-0.84 l 0.075,-0.034 c 0.398,-0.163 0.805,-0.341 1.207,-0.543 L -4.061,62.755 -4.245,57.707 -4.337,55.049 -4.396,53.314 -4.471,51.367 C -4.498,50.748 -4.53,50.291 -4.569,49.935 L -4.584,49.797 C -4.641,49.341 -4.676,48.866 -4.687,48.385 -4.7,47.902 -4.69,47.451 -4.66,47.206 l 0.017,-0.084 c -0.003,-0.269 0.012,-0.481 0.029,-0.672 l 0.016,-0.166 c 0.017,-0.219 0.026,-0.484 0.024,-0.777 l -0.021,-0.748 -0.07,-1.992 -0.073,-2.024 C -4.905,40.215 -5.064,39.675 -5.207,39.12 M -4.521,9.537 -4.507,9.913 C -4.431,9.802 -4.358,9.69 -4.272,9.582 -4.261,9.567 -4.25,9.555 -4.239,9.54 -4.329,9.5 -4.425,9.451 -4.522,9.403 c 0,0.048 0.001,0.102 0.001,0.134 m -0.286,-10.043 0.012,0.525 c 0.062,-0.167 0.119,-0.335 0.181,-0.504 -0.065,-0.008 -0.13,-0.013 -0.193,-0.021 m -3.489,2.09 c -0.006,0.005 -0.009,0.009 -0.011,0.013 l 0.008,0.454 c 0.014,1.115 0.048,2.281 0.084,3.406 l 0.018,0.66 c 0.31,0.236 0.652,0.489 1.008,0.75 0.348,-1.236 0.743,-2.43 1.172,-3.588 L -6.039,2.749 -6.117,0.706 -6.168,-0.668 c -0.116,-0.011 -0.235,-0.017 -0.351,-0.028 -0.602,0.745 -1.193,1.515 -1.777,2.28 m -15.159,-1.838 0.046,0.929 c 0.387,0.184 0.797,0.354 1.231,0.513 l -0.04,-1.31 c -0.059,-0.083 -0.112,-0.172 -0.168,-0.258 -0.357,-0.048 -0.721,-0.105 -1.083,-0.168 z m 5.016,111.045 0.023,1.132 0.017,0.748 0.988,-1.85 -0.019,-0.646 -0.105,-3.868 -0.008,-0.337 c -0.026,-0.007 -0.056,-0.011 -0.083,-0.028 -0.095,0.169 -0.191,0.342 -0.285,0.498 -0.189,0.318 -0.4,0.587 -0.607,0.863 z m 4.101,1.402 c 0.022,-0.173 0.041,-0.347 0.057,-0.532 -0.547,0.734 -1.112,1.426 -1.713,1.96 l 0.003,0.116 c 0.382,-0.372 0.781,-0.682 1.187,-0.958 0.146,-0.186 0.307,-0.386 0.466,-0.586 M -4.126,85.717 c -0.172,0.185 -0.687,1.158 -1.073,1.831 -0.116,0.201 -0.374,0.543 -0.681,0.925 0.172,0.472 0.336,0.946 0.514,1.406 0.803,2.073 1.563,3.709 2.346,5.073 l -0.04,-1.235 -0.142,-4.398 -0.07,-2.336 -0.039,-1.288 c -0.153,-0.012 -0.309,-0.026 -0.462,-0.057 -0.055,-0.01 -0.112,-0.026 -0.166,-0.039 -0.093,0.05 -0.164,0.092 -0.187,0.118 m -2.633,-2.925 0.003,0.346 v 0.028 l 0.192,-0.077 0.129,-0.042 c -0.07,-0.113 -0.143,-0.229 -0.212,-0.34 z m 0.924,-4.767 c -0.007,0.045 -0.009,0.088 -0.018,0.132 0.046,-0.092 0.094,-0.183 0.142,-0.273 -0.04,0.049 -0.082,0.093 -0.124,0.141 m -1.142,-10.465 0.011,0.397 0.02,0.733 0.04,0.728 0.037,0.304 0.084,0.355 0.048,0.167 c 0.051,0.216 0.071,0.512 0.046,0.778 -0.026,0.277 -0.099,0.477 -0.218,0.605 -0.145,0.156 -0.305,0.167 -0.461,0.175 l -0.22,0.007 -0.071,-10e-4 c -0.005,0.044 -0.016,0.087 -0.023,0.132 l 0.136,0.002 0.125,0.007 0.189,0.014 0.277,0.032 0.042,0.009 c 0.065,0.012 0.125,0.027 0.184,0.101 0.045,-0.198 0.091,-0.4 0.138,-0.596 0.467,-1.964 0.939,-3.995 1.133,-6.116 l -0.259,0.373 c -0.41,0.609 -0.826,1.226 -1.258,1.794 m -0.983,-22.827 -0.023,0.004 -0.221,0.007 -0.803,-0.007 -0.299,-0.013 -0.158,0.013 c -0.181,0.02 -0.389,0.042 -0.556,-0.174 -0.046,-0.063 -0.086,-0.14 -0.119,-0.229 -0.065,-0.169 -0.128,-0.447 -0.127,-0.73 0,-0.272 0.062,-0.46 0.122,-0.646 l 0.044,-0.133 c 0.029,-0.095 0.034,-0.217 0.051,-0.326 -0.011,-0.01 -0.022,-0.02 -0.033,-0.031 l -0.1,-0.092 c -0.477,-0.44 -0.986,-0.914 -1.494,-1.443 0.022,0.164 0.042,0.325 0.053,0.498 l 0.022,0.606 c 0.009,1.107 -0.14,2.297 -0.253,3.092 -0.097,0.687 -0.21,1.273 -0.348,1.802 -0.129,0.5 -0.288,0.992 -0.455,1.476 l 0.008,0.124 0.068,0.784 0.045,0.323 0.086,0.377 0.047,0.175 c 0.054,0.232 0.08,0.544 0.072,0.838 -0.005,0.293 -0.057,0.522 -0.148,0.666 -0.113,0.178 -0.243,0.199 -0.388,0.222 l -0.161,0.025 -0.636,0.039 -0.162,0.008 -0.113,0.017 c -0.105,0.029 -0.221,0.052 -0.329,-0.045 -0.183,0.325 -0.373,0.639 -0.562,0.952 0.064,0.169 0.102,0.441 0.048,0.849 l -0.051,0.312 c -0.246,1.562 -1.633,5.23 -2.182,6.437 l 0.009,0.284 c 0.302,0.261 0.605,0.516 0.907,0.765 0.834,0.688 1.692,1.403 2.484,2.271 l -0.147,-2.342 -0.136,-2.248 -0.087,-1.475 -0.116,-1.65 c -0.04,-0.511 -0.088,-0.906 -0.15,-1.205 l -0.028,-0.113 c -0.093,-0.377 -0.147,-0.778 -0.167,-1.184 -0.015,-0.411 0.006,-0.801 0.057,-1.012 l 0.081,-0.221 c 0.091,-0.17 0.21,-0.198 0.291,-0.204 l 1.037,-0.133 0.102,-0.007 0.156,-0.009 h 0.232 l 0.036,10e-4 c 0.08,0.011 0.153,0.015 0.229,0.27 0.077,0.266 0.131,0.626 0.153,0.981 0.022,0.443 -0.014,0.777 -0.051,1.132 l -0.014,0.114 c -0.026,0.251 -0.046,0.471 -0.048,0.725 l 0.002,0.46 c 0.02,1.234 0.076,2.556 0.119,3.445 l 0.131,2.626 0.03,0.605 c 0.232,1.139 0.515,2.338 0.871,3.641 0.073,0.264 0.153,0.52 0.229,0.784 0.016,-0.086 0.02,-0.176 0.037,-0.261 0.307,-1.527 0.784,-2.831 1.306,-4.052 l -0.04,-1.08 -0.014,-0.491 -0.037,-0.848 -0.089,-2.071 -0.172,-4.117 -0.084,-2.172 -0.051,-1.416 -0.081,-1.586 c -0.029,-0.497 -0.08,-0.878 -0.154,-1.168 l -0.028,-0.11 c -0.112,-0.369 -0.171,-0.757 -0.173,-1.148 -0.005,-0.393 0.043,-0.765 0.12,-0.968 l 0.092,-0.166 0.032,-0.043 c 0.135,-0.158 0.3,-0.18 0.407,-0.183 l 1.436,-0.084 0.14,-0.002 h 0.218 l 0.204,0.007 c -0.034,-0.045 -0.071,-0.091 -0.11,-0.134 -0.037,0.004 -0.077,0.012 -0.116,0.015 m 1.994,-9.059 c -0.047,-0.073 -0.089,-0.135 -0.138,-0.215 -0.317,-0.532 -0.772,-1.341 -1.082,-2.223 l -0.156,-0.493 c -0.065,-0.225 -0.113,-0.446 -0.149,-0.658 0.412,0.391 0.819,0.809 1.223,1.222 -0.045,-0.51 -0.089,-1.022 -0.099,-1.546 v -0.048 c -0.279,-0.069 -0.596,-0.138 -0.814,-0.116 -0.149,0.013 -0.231,0.062 -0.254,0.148 l 0.06,-0.192 0.138,-0.329 0.118,-0.23 0.215,-0.363 0.334,-0.49 0.277,-0.367 c 0.014,-0.347 0.022,-0.691 0.006,-0.953 -0.011,-0.195 -0.037,-0.307 -0.07,-0.373 -0.078,0.018 -0.162,0.034 -0.242,0.051 -0.041,0.114 -0.07,0.22 -0.116,0.337 l -0.42,1.002 -0.248,0.535 -0.182,0.346 -0.116,0.194 -0.05,0.066 0.019,0.964 c 0.089,-0.034 0.148,-0.046 0.159,-0.013 0.003,0.005 0.003,0.014 0,0.028 -0.011,0.042 -0.07,0.118 -0.153,0.206 l 0.008,0.412 0.026,0.928 0.044,1.58 0.021,1.074 c 0.003,0.127 0.003,0.262 0.006,0.4 0.544,-0.309 1.104,-0.537 1.67,-0.715 -0.011,-0.058 -0.025,-0.11 -0.035,-0.169 M -8.15,8.117 c 0.009,1.06 0.059,2.576 0.088,3.332 0.019,-0.198 0.017,-0.402 0.037,-0.598 C -7.89,9.748 -7.666,8.707 -7.41,7.69 -7.677,7.515 -7.93,7.345 -8.167,7.183 Z M -23.325,2.452 c 0.045,0.998 0.118,2.429 0.158,3.238 0.232,-0.958 0.48,-1.896 0.752,-2.808 -0.313,-0.16 -0.617,-0.341 -0.916,-0.553 z m 3.849,97.638 -0.02,-0.665 c -0.016,-0.016 -0.031,-0.032 -0.048,-0.048 -0.107,0.068 -0.221,0.153 -0.323,0.204 -0.11,0.055 -0.222,0.097 -0.332,0.14 0.251,0.617 0.505,1.177 0.757,1.708 z m 1.93,5.716 c -0.005,0.008 -0.011,0.015 -0.013,0.023 0.002,0.01 0.008,0.027 0.013,0.036 z m -0.229,-10.482 -0.048,-1.317 -0.019,-0.582 c -0.072,-0.015 -0.145,-0.015 -0.218,-0.032 -0.014,-0.003 -0.026,-0.008 -0.043,-0.011 0.024,0.392 0.051,0.773 0.076,1.088 l 0.105,1.309 0.054,0.694 c 0.002,-0.012 0.005,-0.026 0.008,-0.036 l 0.029,-0.104 c 0.036,-0.145 0.056,-0.317 0.062,-0.512 z m 6.308,-2.308 c -0.167,-0.222 -0.312,-0.477 -0.312,-0.554 0,-0.138 -0.064,-0.557 0,-0.695 0.065,-0.138 0.108,-0.138 0.108,-0.138 0,0 0.022,-0.034 0.062,-0.073 l -0.325,-3.246 -0.189,-1.942 -0.119,-1.274 -0.15,-1.42 c -0.053,-0.444 -0.106,-0.785 -0.171,-1.043 l -0.026,-0.099 c -0.094,-0.325 -0.153,-0.668 -0.181,-1.02 -0.022,-0.261 -0.017,-0.489 0,-0.676 -0.681,-0.765 -1.336,-1.607 -1.95,-2.539 -0.277,-0.395 -0.953,-1.477 -1.311,-2.263 -0.049,0.4 -0.1,0.79 -0.149,1.169 l -0.018,0.153 c -0.084,0.622 -0.162,1.257 -0.237,1.895 -0.003,0.559 0,1.182 0.013,1.92 l 0.015,0.74 c 0.356,0.611 0.68,1.252 0.966,1.862 0.613,1.307 1.074,2.811 1.478,4.137 l 0.04,0.131 c 0.378,1.22 0.763,2.481 1.237,3.616 l 0.075,0.183 0.044,0.095 0.054,0.121 c -0.432,-0.959 -0.963,-1.866 -1.722,-2.935 l -0.991,-1.336 c -0.367,-0.489 -0.735,-0.991 -1.096,-1.508 l 0.056,2.625 0.035,1.319 0.002,0.068 c 0.229,0.167 0.455,0.335 0.682,0.505 l 1.42,1.031 c 1.045,0.714 1.877,1.113 2.671,1.29 z m 2.805,-3.13 -0.022,-0.565 -0.027,-0.858 -0.027,-0.885 -0.011,-0.345 -0.023,-0.943 -0.033,-1.22 -0.035,-1.114 c -0.143,-0.055 -0.282,-0.103 -0.429,-0.185 -0.503,-0.251 -0.977,-0.593 -1.341,-0.878 0.024,0.149 0.046,0.311 0.07,0.457 0.113,0.625 0.197,1.303 0.254,2.069 l 0.013,0.306 c 0.013,0.462 0.038,1.24 0.126,1.317 -0.069,-0.061 -0.128,-0.152 -0.175,-0.276 l -0.08,-0.29 -0.076,-0.526 -0.043,-0.328 c -0.019,-0.122 -0.051,-0.237 -0.073,-0.358 0.025,0.318 0.048,0.648 0.079,1.009 l 0.196,2.264 0.259,3.051 0.014,0.132 c 0.096,-0.07 0.184,-0.133 0.24,-0.184 0.139,-0.135 0.664,-0.822 1.147,-1.604 z m 1.931,-4.66 0.014,0.784 0.002,0.193 c 0.021,0.056 0.043,0.112 0.062,0.167 0.366,-0.602 0.693,-1.113 0.854,-1.325 0.026,-0.035 0.07,-0.083 0.105,-0.124 -0.197,-0.126 -0.388,-0.266 -0.577,-0.438 l -0.183,-0.178 -0.132,-0.163 -0.072,-0.09 c -0.028,-0.034 -0.059,-0.069 -0.087,-0.104 z m -9.433,-30.24 c 0.028,0.076 0.046,0.161 0.073,0.238 -0.027,-0.075 -0.059,-0.141 -0.089,-0.215 -0.043,0.064 -0.086,0.13 -0.129,0.195 l -0.229,0.339 c -0.202,0.295 -0.404,0.605 -0.598,0.925 0.006,0.237 0.011,0.458 0.016,0.655 l 0.04,1.303 c 0.354,-0.931 0.82,-2.44 1.199,-3.685 0.038,-0.122 0.073,-0.234 0.107,-0.348 -0.128,0.198 -0.257,0.397 -0.39,0.593 m 1.489,-8.696 c -0.242,-0.096 -0.489,-0.173 -0.732,-0.237 l -0.248,-0.068 c -0.439,-0.123 -0.883,-0.258 -1.331,-0.408 0.057,0.192 0.104,0.371 0.16,0.566 0.306,1.028 0.641,2.054 0.964,3.041 0.097,0.292 0.189,0.599 0.286,0.895 0.285,-1.065 0.579,-2.122 0.943,-3.228 z m 1.415,-7.273 0.075,1.206 0.107,1.66 0.068,1.118 c 0.008,0.136 0.017,0.282 0.025,0.43 0.46,-0.831 0.907,-1.688 1.223,-2.587 -0.51,-0.536 -1.019,-1.137 -1.498,-1.827 m 2.898,0.135 0.045,0.104 c 0.068,-0.101 0.135,-0.197 0.2,-0.29 l -0.027,-0.677 -0.029,-0.696 -0.043,-0.996 -0.051,-1.086 -0.017,-0.376 -0.04,-1.173 -0.016,-0.453 c -0.022,-0.043 -0.043,-0.085 -0.065,-0.126 -0.455,0.063 -0.84,0.079 -1.015,0.083 h -0.07 c -0.566,0.01 -1.134,-0.044 -1.701,-0.132 1.062,1.681 1.959,3.771 2.829,5.818 m -7.741,47.146 -0.129,-3.459 -0.003,-0.111 c -0.035,-0.095 -0.08,-0.176 -0.116,-0.273 -0.119,-0.342 -0.229,-0.714 -0.337,-1.137 l -0.144,-0.635 c -0.053,0.156 -0.101,0.312 -0.152,0.467 l 0.014,0.188 0.096,1.352 0.062,0.912 0.218,3.016 0.065,0.875 0.044,0.623 0.057,0.642 0.015,0.164 c 0.141,0.066 0.277,0.13 0.415,0.206 l -0.037,-1.087 z m 5.669,-6.036 0.774,-0.109 c -0.008,-0.037 -0.014,-0.078 -0.019,-0.117 l -0.404,0.008 -0.142,-10e-4 -0.106,0.013 c -0.116,0.026 -0.247,0.054 -0.36,-0.159 l -0.087,-0.227 c -0.046,-0.167 -0.097,-0.442 -0.108,-0.723 -0.008,-0.275 0.025,-0.465 0.057,-0.652 l 0.022,-0.133 c 0.029,-0.186 0.042,-0.403 0.04,-0.644 l -0.028,-0.616 -0.102,-1.621 -0.099,-1.659 -0.11,-1.69 -0.074,-1.145 -0.02,-0.321 -0.068,-1.162 -0.03,-0.47 c -0.986,-1.374 -1.807,-3.045 -2.604,-4.683 -0.345,-0.709 -0.7,-1.422 -1.07,-2.119 l 0.014,0.431 0.059,1.859 c 0.13,-0.172 0.272,-0.374 0.377,-0.562 l 0.005,-0.021 0.095,-0.256 0.021,-0.045 c 0.003,-0.004 0.005,-0.012 0.005,-0.018 v 0.007 l 0.036,-0.069 c -0.03,0.051 -0.033,0.177 -0.008,0.369 0.043,0.326 0.145,0.797 0.237,1.168 l 0.043,0.191 0.08,0.353 0.081,0.467 c 0.32,2.046 0.305,4.224 0.243,6.079 -0.03,0.982 -0.113,1.95 -0.214,2.884 0.124,0.198 0.319,0.583 0.528,0.999 0.265,0.527 0.537,1.068 0.723,1.344 0.67,1.1 1.416,2.116 2.213,3.05 m 3.572,3.021 -0.081,-2.831 C -8.975,80.46 -9,80.475 -9.031,80.483 l -0.531,0.105 -0.3,0.033 h -0.198 l -0.124,-0.015 -0.153,-0.047 -0.085,-0.043 c 0.036,0.021 0.09,-0.023 0.162,-0.135 0.127,-0.183 0.281,-0.528 0.401,-0.808 l 0.057,-0.124 0.121,-0.275 0.17,-0.301 c 0.118,-0.208 0.253,-0.386 0.383,-0.57 -0.067,-0.156 -0.135,-0.322 -0.203,-0.484 -0.118,0.26 -0.234,0.526 -0.371,0.767 l -0.191,0.32 -0.486,0.676 c -0.182,0.256 -0.342,0.474 -0.342,0.478 -0.167,-0.295 -0.123,-0.88 -0.088,-1.352 l 0.022,-0.343 c 0.021,-0.641 0.08,-1.282 0.172,-1.899 0.075,-0.498 0.183,-0.968 0.293,-1.438 -0.191,-0.659 -0.368,-1.343 -0.501,-2.082 l -0.083,-0.509 -0.046,-0.419 -0.024,-0.217 c -0.025,-0.236 -0.054,-0.5 -0.09,-0.749 -0.118,-0.077 -0.238,-0.147 -0.357,-0.234 0.032,0.825 0.057,1.658 0.08,2.468 0,0.072 0.006,0.146 0.006,0.217 l 0.078,1.491 0.057,1.05 0.04,0.722 0.054,0.76 0.037,0.312 0.073,0.364 0.041,0.175 c 0.046,0.218 0.069,0.529 0.061,0.808 -0.004,0.253 -0.048,0.436 -0.113,0.571 0.014,0.129 0.022,0.269 0.036,0.396 0.034,0.027 0.073,0.082 0.11,0.198 0.076,0.229 0.135,0.535 0.164,0.843 0.032,0.339 0.017,0.603 -0.002,0.871 0.372,0.328 0.889,0.753 1.435,1.106 0.141,0.098 0.272,0.156 0.41,0.232 z m -8.187,-30.215 -0.008,0.043 c -0.034,0.178 -0.068,0.385 -0.082,0.629 l -0.011,0.398 c -0.005,0.415 -0.005,0.838 0,1.25 0.144,-0.276 0.28,-0.563 0.375,-0.897 0.057,-0.192 0.099,-0.365 0.151,-0.554 -0.136,-0.299 -0.28,-0.585 -0.425,-0.869 m 0.735,-1.345 -0.149,-0.073 c -0.201,-0.103 -0.401,-0.224 -0.6,-0.353 0.065,0.217 0.11,0.471 0.119,0.734 0.005,0.098 -0.006,0.179 -0.011,0.268 0.121,0.477 0.257,0.936 0.395,1.403 0.175,-0.627 0.345,-1.25 0.504,-1.85 -0.089,-0.043 -0.175,-0.088 -0.258,-0.129 m 1.569,-6.361 -0.134,-1.751 -0.089,-1.099 -0.029,-0.384 -0.153,-0.111 c -0.341,-0.216 -0.704,-0.328 -1.054,-0.442 l -0.251,-0.08 c -0.356,-0.119 -0.713,-0.241 -1.069,-0.377 l 0.011,0.372 0.029,1.04 c 0.009,0.412 0.022,0.901 0.038,1.386 0.011,0.039 0.019,0.076 0.03,0.117 0.662,0.475 1.292,0.839 1.91,1.105 0.252,0.108 0.514,0.266 0.778,0.445 z m 3.006,-13.743 c -0.724,-0.869 -1.457,-1.757 -2.141,-2.744 0.022,0.441 0.047,0.903 0.076,1.416 l 0.132,2.115 c 0.641,0.159 1.292,0.274 1.956,0.322 0.08,0.014 0.43,0.03 0.89,0.01 z m -9.497,63.783 c 0.003,0.021 0.003,0.041 0.005,0.061 0.025,0.011 0.052,0.023 0.076,0.034 -0.027,-0.031 -0.053,-0.062 -0.081,-0.095 m 2.877,-16.22 c -0.032,0.108 -0.067,0.216 -0.1,0.324 0.033,0.022 0.068,0.051 0.097,0.071 l 0.022,0.015 z m -1.261,-27.788 0.102,-0.19 c 0.115,-0.143 0.251,-0.164 0.344,-0.17 l 0.797,-0.06 c -0.017,-0.055 -0.033,-0.112 -0.049,-0.166 l -0.216,-10e-4 -0.188,-0.006 -0.135,0.011 c -0.153,0.022 -0.331,0.045 -0.471,-0.163 l -0.105,-0.222 c -0.054,-0.156 -0.11,-0.426 -0.113,-0.696 -0.003,-0.266 0.048,-0.45 0.096,-0.626 l 0.036,-0.131 c 0.007,-0.031 0.007,-0.074 0.013,-0.107 -0.097,-0.16 -0.191,-0.32 -0.289,-0.483 -0.015,-0.024 -0.031,-0.049 -0.048,-0.073 l 0.008,0.133 0.043,0.495 0.025,0.234 c 0.026,0.286 0.04,0.678 0.04,1.029 0.011,0.195 0.022,0.396 0.027,0.601 0.013,0.569 -0.002,0.988 -0.022,1.433 l -0.005,0.145 c -0.011,0.255 -0.024,0.563 -0.024,0.918 l 0.006,0.588 c 0.007,0.672 0.018,1.359 0.032,2.021 0.145,0.307 0.293,0.597 0.441,0.893 l -0.037,-0.922 -0.082,-1.432 c -0.029,-0.445 -0.074,-0.787 -0.139,-1.049 l -0.027,-0.096 c -0.097,-0.332 -0.148,-0.681 -0.156,-1.031 -0.006,-0.357 0.031,-0.693 0.096,-0.877 m -2.359,-39.358 c 0.03,-0.062 0.056,-0.119 0.084,-0.175 0.014,-0.159 0.026,-0.322 0.026,-0.515 l -0.01,-0.63 -0.008,-0.217 c -0.051,0.193 -0.102,0.385 -0.159,0.574 0.035,0.342 0.057,0.66 0.067,0.963 m 2.348,82.249 -0.004,-0.149 c -0.101,-0.463 -0.194,-0.925 -0.284,-1.388 -0.468,-0.232 -0.939,-0.537 -1.394,-0.944 0.018,0.343 0.015,0.644 0,0.937 0.587,0.431 1.161,0.919 1.682,1.544 m 2.619,-19.065 -0.03,0.003 c -0.015,0.046 -0.035,0.086 -0.051,0.133 l 0.087,0.007 h 0.005 c -0.003,-0.047 -0.008,-0.096 -0.011,-0.143 m -1.724,-7.047 -0.054,-1.025 -0.013,-0.247 -0.043,-1.026 -0.04,-0.906 c -0.135,0.768 -0.299,1.84 -0.321,2.275 -0.08,1.193 -0.119,2.421 -0.145,3.641 l 0.026,1.078 c 0.152,-0.953 0.316,-1.899 0.542,-2.791 0.023,-0.102 0.056,-0.21 0.083,-0.314 z m -1.522,-35.408 0.056,2.254 c 0.054,0.236 0.124,0.462 0.173,0.702 l -0.137,-2.818 -0.005,-0.167 c -0.031,0.011 -0.057,0.018 -0.087,0.029 m 4.382,-2.309 -0.064,-0.905 c -0.027,0.006 -0.054,0.01 -0.08,0.015 -0.163,0.187 -0.33,0.364 -0.497,0.542 l 0.084,0.036 0.388,0.222 0.172,0.119 z m 5.347,-1.359 -0.008,-0.223 c -0.21,-0.003 -0.428,-0.014 -0.647,-0.023 0.262,0.667 0.505,1.332 0.731,1.984 z m -9.055,32.556 0.062,2.519 c 0.182,-0.406 0.36,-0.808 0.538,-1.212 l -0.008,-0.142 -0.024,-0.493 c -0.191,-0.365 -0.38,-0.736 -0.579,-1.084 z m 2.652,-31.111 c -0.099,0.099 -0.204,0.181 -0.306,0.274 0.029,0.019 0.054,0.035 0.083,0.055 0.132,0.09 0.259,0.174 0.386,0.257 -0.054,-0.211 -0.108,-0.409 -0.163,-0.586 m -4.314,33.907 c -0.278,0.018 -0.52,0.004 -0.743,-0.05 -0.225,-0.055 -0.448,-0.14 -0.674,-0.241 l 0.213,6.069 c 0.533,-1.043 1.053,-2.084 1.553,-3.122 -0.018,-0.027 -0.037,-0.065 -0.056,-0.119 l -0.057,-0.222 c -0.029,-0.159 -0.066,-0.431 -0.074,-0.707 -0.014,-0.267 0.002,-0.452 0.018,-0.636 l 0.013,-0.132 c 0.014,-0.181 0.017,-0.397 0.014,-0.629 l -0.011,-0.238 c -0.062,0.007 -0.139,0.023 -0.196,0.027 M -22.463,41.265 V 41.25 c -0.079,0.056 -0.158,0.108 -0.238,0.161 0.091,0.068 0.184,0.14 0.275,0.208 -0.011,-0.121 -0.032,-0.233 -0.037,-0.354 M -21.4,29.213 c -0.258,-0.086 -0.439,-0.161 -0.498,-0.215 l 0.046,0.792 0.005,0.105 c 0.153,-0.212 0.302,-0.407 0.45,-0.579 z m -0.913,44.942 c 0.226,-1.213 0.429,-2.454 0.565,-3.72 -0.217,0.407 -0.433,0.821 -0.653,1.219 z m -1.287,-37.168 0.007,0.634 0.017,0.474 c 0.194,-0.132 0.39,-0.249 0.59,-0.354 -0.205,-0.251 -0.41,-0.499 -0.614,-0.754 m 2.103,-11.05 c -0.115,-0.202 -0.229,-0.407 -0.342,-0.61 -0.056,0.416 -0.126,0.824 -0.2,1.233 l 0.011,0.193 c 0.178,-0.167 0.359,-0.349 0.54,-0.535 z m -1.308,8.126 c -0.014,-0.521 -0.028,-0.975 -0.039,-1.311 -0.131,-0.025 -0.261,-0.044 -0.363,-0.032 -0.132,0.015 -0.208,0.067 -0.229,0.16 l 0.057,-0.208 0.124,-0.354 0.105,-0.251 0.196,-0.395 0.056,-0.098 -0.029,-0.535 -0.042,-0.635 -0.009,-0.121 -0.183,0.527 -0.226,0.584 -0.164,0.371 -0.108,0.213 -0.047,0.072 0.019,1.046 c 0.082,-0.036 0.138,-0.051 0.144,-0.015 0.004,0.005 0.004,0.016 0,0.031 -0.006,0.03 -0.054,0.094 -0.093,0.148 0.141,0.403 0.181,0.222 0.149,-0.011 0.232,0.26 0.453,0.542 0.682,0.814 m -1.04,-12.158 h -0.008 c -0.006,0.919 0.002,1.803 0.013,2.463 l 0.009,0.464 c 0.063,-0.603 0.139,-1.19 0.22,-1.758 -0.076,-0.404 -0.158,-0.813 -0.234,-1.169 m 3.49,53.311 -0.145,-1.911 -0.095,-1.229 -0.116,-1.394 c -0.037,-0.441 -0.074,-0.765 -0.118,-1.02 l -0.015,-0.093 c -0.044,-0.214 -0.062,-0.445 -0.085,-0.673 -0.237,0.459 -0.479,0.905 -0.718,1.354 -0.039,1.405 -0.03,2.82 0,4.2 0.035,1.66 0.048,3.367 -0.039,5.054 0.28,-0.194 0.559,-0.355 0.836,-0.506 0.244,-0.26 0.487,-0.527 0.73,-0.8 l -0.065,-0.807 c -0.037,0.144 -0.08,0.28 -0.116,0.427 0.04,-0.178 0.07,-0.368 0.108,-0.548 z m -0.802,-12.749 -0.089,-1.622 -0.095,-1.652 -0.051,-0.909 c -0.517,-0.826 -1.053,-1.717 -1.573,-2.696 l 0.248,7.035 c 0.11,0.047 0.211,0.098 0.327,0.145 l 1.275,0.458 z m -0.959,-17.137 -0.07,-1.164 c -0.407,-0.777 -0.822,-1.554 -1.258,-2.306 l 0.105,2.99 0.034,0.172 0.047,0.185 c 0.057,0.242 0.072,0.582 0.049,0.879 -0.014,0.147 -0.039,0.271 -0.074,0.381 l 0.038,1.118 c 0.005,0.02 0.011,0.042 0.016,0.065 0.031,0.073 0.06,0.148 0.087,0.224 -0.022,-0.232 0,-0.414 0.069,-0.479 0.09,-0.087 0.246,0.017 0.401,0.44 l 0.082,0.235 c 0.145,0.541 0.444,1.526 0.765,2.527 l -0.092,-1.624 -0.122,-2.205 z m 3.553,30.305 0.093,-0.172 c 0.098,-0.123 0.218,-0.128 0.3,-0.127 l 0.497,0.009 c 0.031,-0.039 0.057,-0.076 0.087,-0.115 l -0.208,-0.002 -0.176,-0.004 -0.119,0.011 c -0.138,0.016 -0.291,0.039 -0.418,-0.147 l -0.094,-0.2 c -0.046,-0.144 -0.1,-0.384 -0.103,-0.628 -0.003,-0.236 0.044,-0.401 0.087,-0.562 l 0.029,-0.121 c 0.041,-0.156 0.062,-0.343 0.07,-0.553 l -0.005,-0.202 c -0.021,0.049 -0.04,0.101 -0.063,0.151 -0.226,0.535 -0.452,1.084 -0.672,1.643 l 0.062,2.451 c 0.175,-0.233 0.35,-0.468 0.517,-0.718 -0.181,0.272 -0.345,0.572 -0.512,0.867 l 0.003,0.181 c 0.19,-0.264 0.376,-0.519 0.563,-0.764 -0.006,-0.066 -0.028,-0.129 -0.028,-0.195 -0.004,-0.332 0.03,-0.64 0.09,-0.803 m -1.24,12.817 c -0.01,-0.177 -0.021,-0.348 -0.032,-0.488 l -0.014,-0.132 c -0.04,-0.44 -0.067,-0.89 -0.074,-1.346 -0.011,-0.454 0.003,-0.876 0.023,-1.098 l 0.04,-0.226 c 0.042,-0.163 0.095,-0.166 0.13,-0.155 l 0.146,0.031 -0.014,-0.174 -0.042,-0.011 -0.054,0.007 c -0.06,0.018 -0.133,0.034 -0.192,-0.249 l -0.048,-0.3 c -0.011,-0.115 -0.025,-0.271 -0.039,-0.445 -0.414,1.006 -0.869,1.939 -1.4,2.727 -0.067,0.103 -0.154,0.193 -0.226,0.291 -0.059,0.112 -0.121,0.22 -0.18,0.33 l 0.019,0.186 0.08,0.454 0.043,0.218 c 0.027,0.136 0.047,0.3 0.059,0.473 l 0.008,-0.003 c 0.322,-0.097 0.613,-0.149 0.89,-0.164 0.296,-0.014 0.587,0.02 0.877,0.074 m 0.63,-29.343 -0.04,-0.897 c -0.164,-0.309 -0.32,-0.62 -0.477,-0.929 0.008,0.362 0.016,0.702 0.022,0.999 l 0.045,1.815 c 0.198,0.649 0.392,1.229 0.585,1.777 z m 4.086,-18.228 -0.105,-1.431 -0.175,-2.233 -0.136,-1.837 c -0.582,-0.785 -1.359,-1.884 -2.301,-3.332 l 0.035,1.168 0.073,2.571 c 0.291,-0.171 0.579,-0.368 0.859,-0.605 -0.291,0.246 -0.574,0.535 -0.851,0.836 l 0.015,0.613 0.098,3.017 c 0.431,0.32 0.854,0.607 1.269,0.82 0.39,0.201 0.789,0.5 1.216,0.909 l 0.045,0.048 z m 3.928,-31.28 -0.046,-0.966 -0.056,-1.127 -0.017,-0.326 -0.045,-1.172 -0.028,-0.655 c -1.153,1.272 -2.36,2.334 -3.646,2.965 l 0.139,2.875 0.087,1.642 0.014,0.249 c 0.353,0.542 0.702,1.214 0.702,1.214 0,0 0.168,-1 2.737,-1.657 0.068,-0.017 0.137,-0.024 0.204,-0.04 0.009,-0.239 0.043,-0.478 0.057,-0.717 l -0.065,-1.577 z m 1.848,60.484 0.037,-0.131 c 0.019,-0.074 0.025,-0.173 0.039,-0.258 -0.198,0.098 -0.402,0.18 -0.634,0.238 l -0.024,0.004 c 0.189,0.632 0.376,1.261 0.551,1.898 -0.04,-0.026 -0.082,-0.067 -0.122,-0.098 -0.098,0.012 -0.2,0.002 -0.308,-0.023 0.116,0.16 0.223,0.322 0.323,0.484 0.076,-0.204 0.149,-0.41 0.226,-0.611 l -0.003,-0.004 -0.077,-0.18 c -0.057,-0.157 -0.116,-0.427 -0.116,-0.698 0,-0.263 0.054,-0.442 0.108,-0.621 m -9.263,-70.199 c -0.006,0.053 -0.02,0.09 -0.024,0.146 l -0.019,0.437 c -0.006,0.257 -0.008,0.518 -0.011,0.777 0.223,0.082 0.316,0.211 0.316,0.211 0,0 0.206,-0.222 0.521,-0.47 L -17.85,0.009 -17.857,-0.1 c -0.24,-0.006 -0.483,-0.013 -0.717,-0.014 m 5.632,-0.142 c -0.108,0.022 -0.224,0.023 -0.331,0.041 -0.054,0.161 -0.119,0.312 -0.175,0.472 0.248,-0.195 0.489,-0.379 0.726,-0.556 -0.074,0.015 -0.145,0.028 -0.22,0.043 m 13.216,11.222 -0.423,1.109 -0.277,0.633 0.305,-0.12 c 0.302,-0.12 0.457,0.007 0.457,0.007 L 0.212,12.107 c -0.124,-0.49 0.062,-1.141 0.062,-1.141 m -6.346,17.744 0.143,0.191 0.141,0.222 c 0.207,-0.249 0.408,-0.471 0.608,-0.665 l -0.005,-0.095 c -0.151,-0.041 -0.266,-0.08 -0.364,-0.115 -0.247,0.067 -0.504,0.132 -0.775,0.194 l 0.056,0.048 z m -11.505,85.88 c 0.008,-0.016 0.011,-0.032 0.018,-0.048 -0.165,0.043 -0.331,0.071 -0.496,0.082 l -0.104,0.004 c -0.043,0.004 -0.093,0.007 -0.138,0.011 0.022,0.249 0.03,0.57 0.027,0.85 0,0.081 -0.008,0.137 -0.011,0.206 l 0.138,0.165 c 0.018,0.025 0.029,0.049 0.048,0.074 0.286,-0.743 0.518,-1.344 0.518,-1.344 m 3.409,-5.606 0.013,-0.795 c 0.022,-1.888 0.054,-3.83 0.464,-5.633 l -0.088,0.259 -0.096,0.264 c -0.155,0.466 -0.28,0.991 -0.404,1.503 l -0.085,0.36 c -0.391,1.599 -0.795,3.234 -1.337,4.701 -0.008,0.082 -0.022,0.164 -0.031,0.246 0.031,-0.023 0.065,-0.052 0.094,-0.075 0.477,-0.373 0.972,-0.623 1.47,-0.83 m -4.161,-5.283 c 0.094,-0.174 0.193,-0.34 0.294,-0.503 l -0.051,-0.558 -0.073,-0.833 -0.079,-0.848 -0.051,-0.556 -0.003,-0.034 c -0.132,-0.075 -0.258,-0.166 -0.384,-0.256 l 0.064,2.967 c 0.097,0.195 0.191,0.401 0.283,0.621 m 12.61,-92.394 -0.005,-0.198 c -0.162,0.489 -0.337,0.963 -0.53,1.426 0.261,0.041 0.416,0.07 0.495,0.085 l 0.017,-0.121 c 0.023,-0.175 0.037,-0.381 0.04,-0.607 z M -3.728,72.041 -3.801,70.043 -3.846,68.8 -3.865,68.316 -3.911,66.935 -3.97,65.296 -4.038,63.442 c -0.237,0.288 -0.483,0.602 -0.751,0.976 l -0.642,0.932 c -0.099,1.573 -0.069,3.173 -0.029,4.723 0.043,1.725 0.083,3.51 -0.065,5.255 0.359,-0.159 0.715,-0.296 1.049,-0.423 l 0.077,-0.029 c 0.251,-0.098 0.507,-0.201 0.762,-0.306 l -0.022,-0.556 z m 2.366,26.693 -0.158,-0.271 -0.144,-0.27 c -0.127,-0.214 -0.268,-0.415 -0.407,-0.609 l 0.031,1.231 0.011,0.466 c 0.221,-0.186 0.444,-0.365 0.667,-0.547 m -9.014,6.138 0.054,-0.193 c 0.056,-0.138 0.143,-0.163 0.2,-0.169 l 0.743,-0.129 0.073,-0.007 0.113,-0.008 0.164,-0.004 0.027,0.001 c 0.057,0.007 0.111,0.011 0.172,0.223 0.065,0.216 0.114,0.518 0.141,0.82 0.008,0.093 0.005,0.169 0.008,0.253 0.083,-0.089 0.17,-0.179 0.254,-0.269 l -0.009,-0.399 -0.005,-0.4 c 0,0 -0.003,-10e-4 -0.003,-0.003 l -0.045,-0.06 c -0.09,-0.127 -0.107,-0.275 -0.082,-0.361 0.017,-0.069 0.054,-0.103 0.102,-0.094 0.006,0.001 0.017,0.01 0.02,0.012 l -0.022,-1.46 -0.021,-1.502 -0.042,-1.72 c -0.015,-0.536 -0.045,-0.956 -0.091,-1.28 l -0.019,-0.127 c -0.072,-0.412 -0.107,-0.838 -0.107,-1.262 0.002,-0.423 0.035,-0.813 0.093,-1.014 l 0.084,-0.203 c 0.094,-0.142 0.203,-0.134 0.278,-0.112 l 0.966,0.19 0.101,0.023 0.145,0.043 0.212,0.07 0.033,0.015 c 0.076,0.032 0.145,0.067 0.202,0.349 0.062,0.294 0.1,0.677 0.103,1.049 0.004,0.46 -0.041,0.789 -0.095,1.136 l -0.014,0.112 c -0.032,0.218 -0.061,0.455 -0.074,0.73 l -0.02,0.47 c -0.022,0.971 -0.031,2.101 -0.026,3.554 l 0.002,0.518 c 1.236,-1.242 2.545,-2.479 3.901,-3.661 L -2.893,99.025 -2.91,98.562 -2.944,97.356 -2.973,96.419 c -1.167,-1.5 -2.352,-3.069 -3.238,-5.186 -0.173,-0.404 -0.319,-0.83 -0.458,-1.257 0.008,0.535 0.019,1.017 0.023,1.285 l 0.014,0.862 0.011,0.625 0.031,0.641 0.026,0.264 0.07,0.315 0.037,0.147 c 0.043,0.192 0.06,0.451 0.033,0.683 -0.024,0.235 -0.092,0.408 -0.197,0.509 -0.129,0.124 -0.269,0.121 -0.404,0.116 l -0.192,-0.006 -0.675,-0.069 -0.175,-0.02 -0.122,-0.001 c -0.113,0.004 -0.241,0.008 -0.35,-0.09 L -8.616,95.145 -8.709,94.944 C -8.754,94.802 -8.802,94.565 -8.8,94.33 c 0.003,-0.23 0.051,-0.385 0.1,-0.534 l 0.033,-0.109 c 0.045,-0.153 0.071,-0.33 0.082,-0.531 0.009,-0.158 0.009,-0.333 -0.005,-0.512 l -0.024,-0.916 c -0.542,0.636 -1.161,1.352 -1.301,1.476 0,0.002 -0.003,0.002 -0.006,0.003 l 0.116,1.331 0.127,1.406 0.005,0.048 c 0.003,-0.003 0.003,-0.007 0.006,-0.009 0.262,-0.354 0.531,-0.722 0.652,-0.796 0.068,-0.042 0.131,-0.011 0.167,0.075 0.046,0.108 0.032,0.272 -0.033,0.416 l -0.048,0.087 c -0.119,0.233 -0.404,0.6 -0.684,0.941 l 0.013,0.168 0.272,3.082 0.081,0.878 0.057,0.653 0.073,0.653 0.04,0.273 0.077,0.311 0.039,0.154 c 0.048,0.186 0.077,0.455 0.077,0.695 0.003,0.245 -0.032,0.432 -0.099,0.549 -0.083,0.147 -0.186,0.159 -0.299,0.174 l -0.123,0.018 -0.491,0.013 h -0.13 l -0.088,0.015 c -0.102,0.024 -0.218,0.05 -0.324,-0.133 l -0.08,-0.196 c -0.046,-0.144 -0.099,-0.378 -0.116,-0.625 -0.016,-0.235 0.006,-0.402 0.026,-0.56 l 0.017,-0.12 c 0.019,-0.159 0.025,-0.346 0.016,-0.556 l -0.042,-0.528 -0.138,-1.41 -0.141,-1.426 -0.048,-0.486 -0.015,-0.17 c -0.675,0.652 -1.367,1.247 -2.097,1.724 -0.175,0.197 -2.582,1.363 -2.806,1.204 -0.008,-0.011 -0.014,-0.016 -0.014,-0.027 -0.002,-0.05 0.54,-0.347 1.164,-0.692 0.749,-0.41 1.597,-0.878 1.71,-1.029 0.671,-0.478 1.331,-1.094 1.981,-1.768 l -0.022,-0.216 -0.082,-0.815 -0.045,-0.448 -0.094,-1.003 -0.119,-1.204 -0.07,-0.729 -0.113,-0.015 -0.079,-0.011 c -0.977,-0.115 -1.968,0.041 -2.927,0.194 l -0.103,0.018 c -0.471,0.074 -0.972,0.148 -1.483,0.188 l 0.011,0.477 0.02,0.832 0.017,0.601 0.03,0.614 0.026,0.257 0.063,0.301 0.033,0.143 c 0.04,0.184 0.053,0.436 0.034,0.657 -0.019,0.225 -0.073,0.396 -0.159,0.493 -0.11,0.121 -0.228,0.118 -0.361,0.117 l -0.143,-0.006 -0.574,-0.062 -0.148,-0.014 -0.091,-0.002 0.052,0.107 0.667,0.144 0.084,0.021 0.121,0.034 0.183,0.067 0.027,0.014 c 0.065,0.028 0.124,0.054 0.175,0.301 0.054,0.258 0.088,0.589 0.097,0.912 0.005,0.403 -0.032,0.688 -0.071,0.99 l -0.012,0.097 -0.006,0.067 0.094,0.2 -0.102,-0.037 c -0.003,0.002 -0.005,0.002 -0.008,0.003 l -0.032,0.377 0.128,-0.046 c 0,0 0.071,-0.005 0.074,-0.009 -0.029,0.005 -0.065,0.068 -0.105,0.192 -0.038,0.127 -0.073,0.301 -0.108,0.483 -0.014,1.045 -0.005,2.139 0.006,2.891 l 0.037,2.354 0.016,1.075 c 0.566,-1.258 1.018,-2.455 1.377,-3.669 0.167,-0.549 0.365,-1.092 0.613,-1.648 l 0.105,-0.201 c 0.164,-0.303 0.437,-0.806 0.413,-0.994 0.019,0.147 0.022,0.292 0.005,0.439 0.054,-0.194 0.102,-0.386 0.17,-0.588 l 0.24,-0.663 0.142,-0.355 0.106,-0.229 0.069,-0.128 0.101,-0.154 0.062,-0.072 c -0.028,0.029 -0.039,0.115 -0.036,0.257 0.008,0.237 0.062,0.595 0.105,0.879 l 0.024,0.154 0.038,0.26 0.03,0.346 c 0.113,1.519 -0.073,3.03 -0.268,4.309 -0.139,0.92 -0.357,1.775 -0.579,2.589 0.076,-0.027 0.155,-0.056 0.229,-0.081 0.782,-0.271 1.59,-0.554 2.353,-1.103 -1.028,0.742 -1.943,2.017 -2.831,3.252 -0.162,0.222 -0.322,0.445 -0.483,0.666 -0.057,0.222 -0.105,0.448 -0.156,0.674 1.113,-1.383 2.51,-3.058 4.121,-4.849 -0.024,-0.167 -0.051,-0.311 -0.077,-0.435 l -0.023,-0.097 c -0.078,-0.317 -0.132,-0.649 -0.153,-0.99 -0.024,-0.342 -0.019,-0.667 0.01,-0.845 m -10.108,-0.241 0.307,3.583 0.439,-1.169 c 0.138,-0.368 0.275,-0.738 0.415,-1.106 l -0.003,-0.093 -0.017,-0.505 -0.028,-1.306 -0.028,-1.012 c -0.473,-0.733 -0.953,-1.484 -1.408,-2.297 l 0.005,0.083 z m 39.96,-122.319 c -0.717,0.696 -2.096,1.592 -2.992,2.206 -1.057,0.722 -1.829,0.859 -2.673,1.896 -0.554,0.679 -1.171,1.39 -1.612,2.155 -0.779,1.345 0.026,2.825 -0.109,4.479 -0.193,2.334 -1.244,4.777 -3.194,6.176 -0.557,0.4 -1.373,0.591 -2.235,0.686 C 6.715,0.038 6.734,0.198 6.695,0.38 6.615,0.791 6.779,1.161 6.243,1.694 5.709,2.23 5.545,2.598 5.053,2.598 H 4.355 c 0,0 0.04,0.494 -0.371,0.945 C 3.685,3.873 3.631,4.495 3.765,5.409 4.323,5.111 4.875,4.782 5.411,4.392 L 5.478,4.345 c 0,0 0.115,-0.087 0.124,-0.097 L 5.675,4.195 5.81,4.091 c -0.625,0.497 -1.252,1.13 -1.932,1.928 0.036,0.175 0.059,0.332 0.106,0.525 0.371,1.559 1.149,5.011 1.603,6.245 0.452,1.23 1.108,2.626 1.15,3.531 0.042,0.903 0.944,1.438 1.108,2.629 0.165,1.19 0.741,1.438 1.603,1.972 0.862,0.534 3.399,2.241 3.769,3.105 0.371,0.862 0.876,1.414 1.569,1.744 0.701,0.327 1.604,0.164 1.892,0.121 0.288,-0.04 0.716,0.199 0.905,0.7 0.32,0.853 0.121,1.684 0.121,1.684 0.328,0.451 0.371,1.519 0.291,1.89 -0.084,0.368 -0.329,0.516 -0.819,0.804 -0.582,0.341 -1.237,0.675 -1.605,0.675 -0.373,0 -1.07,1.067 -2.343,1.231 -1.274,0.164 -2.998,0.206 -3.863,-0.04 -0.862,-0.247 -1.471,-0.846 -1.471,-0.846 0,0 -0.746,0.229 -1.608,0.435 -0.865,0.205 -1.153,-0.493 -1.029,-1.026 0.124,-0.536 0.534,-0.822 0.534,-0.822 0,0 -0.986,-0.043 -2.382,-0.741 -1.007,-0.503 -1.674,-1.002 -2.445,-1.35 -0.658,0.649 -1.349,1.271 -2.082,1.746 -0.843,0.554 -1.799,1.105 -2.804,1.406 l 0.062,2.074 c 0.138,0.499 0.272,1 0.382,1.515 1.132,-0.27 2.274,-0.611 3.335,-1.358 -0.948,0.666 -1.826,1.609 -2.677,2.526 -0.037,0.043 -0.081,0.085 -0.119,0.128 1.221,1.037 2.317,1.759 3.383,2.221 0.434,0.181 0.873,0.458 1.345,0.835 l 0.178,0.175 C 2.235,40.025 2.682,40.48 2.795,40.356 2.707,40.454 2.612,40.51 2.504,40.522 2.437,40.528 2.362,40.52 2.281,40.491 2.162,40.448 2.044,40.371 1.928,40.296 L 1.718,40.169 C 1.343,39.972 0.945,39.866 0.557,39.764 L 0.28,39.688 c -1.062,-0.3 -2.15,-0.63 -3.202,-1.193 0.158,1.207 0.298,2.421 0.422,3.625 l 0.321,2.902 c 0.277,2.258 0.582,3.934 0.989,5.44 L -1.283,50.127 -1.334,49.953 -1.362,49.852 C -1.87,48.138 -2.521,46.532 -3.151,44.979 L -3.216,44.82 c -0.108,-0.266 -0.218,-0.548 -0.328,-0.825 l 0.02,0.788 0.038,0.93 0.025,0.386 0.051,0.456 0.024,0.213 c 0.032,0.257 0.046,0.607 0.043,0.926 0.014,0.186 0.025,0.382 0.032,0.576 0.016,0.525 -0.003,0.91 -0.024,1.323 l -0.005,0.134 c -0.011,0.234 -0.025,0.516 -0.025,0.844 l 0.003,0.541 c 0.019,1.452 0.062,3.013 0.092,4.055 l 0.091,3.109 0.122,4.125 0.107,-0.08 0.084,-0.063 c -0.065,0.05 -0.127,0.112 -0.191,0.166 v 10e-4 l 0.124,4.081 0.059,1.869 0.035,1.271 0.126,4.034 c 0.006,-0.006 0.011,-0.011 0.017,-0.017 l 0.067,-0.078 c 0.674,-0.74 1.369,-1.507 1.991,-2.424 l 0.028,-0.039 0.107,-0.16 0.071,-0.113 c -0.517,0.81 -0.99,1.788 -1.54,3.166 l -0.676,1.768 0.006,0.163 0.037,0.9 0.022,0.37 0.046,0.439 0.024,0.206 c 0.027,0.267 0.043,0.63 0.04,0.956 -0.002,0.333 -0.03,0.581 -0.075,0.732 -0.057,0.18 -0.127,0.185 -0.202,0.189 L -2.831,79.74 -3.157,79.686 -3.241,79.667 -3.3,79.674 c -0.07,0.016 -0.145,0.031 -0.212,-0.229 l -0.051,-0.279 c -0.031,-0.199 -0.06,-0.528 -0.068,-0.86 v -0.034 c -0.517,1.221 -1.091,2.372 -1.818,3.275 -0.186,0.233 -0.393,0.451 -0.627,0.671 l -0.017,0.013 c 0.068,0.236 0.135,0.462 0.199,0.68 0.127,-0.022 0.256,-0.052 0.372,-0.058 0.531,-0.02 1.043,0.122 1.546,0.328 0.068,-0.066 0.119,-0.116 0.127,-0.131 0.018,-0.024 0.175,-0.175 0.404,-0.382 -0.003,-0.042 -0.005,-0.095 -0.011,-0.132 l -0.014,-0.12 c -0.048,-0.406 -0.074,-0.824 -0.085,-1.242 -0.008,-0.419 0.003,-0.808 0.026,-1.014 l 0.043,-0.209 c 0.047,-0.149 0.109,-0.151 0.149,-0.141 l 0.528,0.091 0.054,0.017 0.077,0.025 0.118,0.049 0.02,0.009 c 0.04,0.027 0.078,0.05 0.116,0.326 0.04,0.288 0.07,0.664 0.078,1.029 0.006,0.131 0.003,0.237 0,0.351 0.471,-0.393 0.942,-0.758 1.219,-0.903 0.709,-0.372 1.328,-1.646 1.566,-1.948 0.237,-0.301 0.813,-3.686 0.813,-3.686 0,0 -0.514,-0.277 -0.598,-0.927 C 0.568,73.595 0.953,72.575 1.083,71.972 1.209,71.369 2.389,68.518 2.518,68.31 2.648,68.1 2.303,67.753 2.284,67.544 2.26,67.337 2.626,67.058 3.075,66.825 c 0.45,-0.232 1.073,-0.092 1.264,0 0.194,0.093 0.366,0.441 0.366,0.512 0,0.069 -0.302,0 -0.452,0 -0.149,0 -0.17,0.253 -0.17,0.253 0,0 0.086,0.348 0.148,0.58 0.065,0.232 -0.127,0.718 -0.277,0.927 -0.151,0.21 -0.644,2.133 -0.709,2.456 -0.062,0.326 0.13,0.558 0.302,0.626 0.172,0.07 0.449,-0.068 0.536,-0.068 0.086,0 0.814,0.277 0.814,0.277 0,0 1.993,0.163 2.4,0.117 0.409,-0.047 0.794,0.115 0.988,-0.117 0.191,-0.232 0.792,-1.135 0.922,-1.228 0.125,-0.093 1.456,-1.622 1.625,-1.832 0.173,-0.208 0.26,-0.647 0.559,-0.71 0.301,-0.056 0.902,0.177 1.009,0.224 0.105,0.046 0.537,-0.092 0.642,0 0.107,0.093 -0.127,0.465 -0.127,0.465 0,0 0.169,0.07 0.256,0.114 0.086,0.047 0.277,-0.044 0.363,-0.114 0.087,-0.07 0.044,-0.302 0.13,-0.512 0.086,-0.206 0.384,-0.206 0.492,-0.114 0.109,0.092 0.044,0.88 0,0.996 -0.043,0.115 -0.942,0.649 -1.094,0.695 -0.147,0.046 -0.856,-0.395 -0.899,-0.279 -0.043,0.117 -1.007,1.623 -1.241,1.902 -0.237,0.279 -1.737,1.9 -1.824,1.994 -0.086,0.092 -0.043,0.162 -0.278,0.416 -0.237,0.255 -0.772,0.186 -0.987,0.232 -0.214,0.046 -0.685,0.186 -1.135,0.278 -0.45,0.094 -1.007,0.094 -1.072,0.14 -0.064,0.047 -0.107,0.416 0.216,1.947 0.321,1.53 -0.043,3.43 0,3.662 0.04,0.233 0.169,0.14 0.364,0.394 0.191,0.255 2.871,1.529 3.835,2.155 0.964,0.626 2.359,2.063 2.594,2.296 0.234,0.232 1.458,1.992 1.8,2.434 0.344,0.439 2.894,4.497 2.956,4.658 0.036,0.084 -0.023,0.482 -0.096,0.859 7.469,5.352 10.611,23.676 10.611,23.676 h -1.955 c 0,0 -3.369,-18.001 -9.058,-22.861 -0.267,0.065 -0.7,0.112 -0.851,0.112 -0.213,0 -0.213,-0.256 -0.364,-0.232 -0.15,0.023 -0.299,-0.163 -0.299,-0.163 -0.065,-0.324 0.105,-0.114 0.17,-0.301 0.051,-0.146 0.157,-0.096 0.282,-0.146 -0.57,-0.302 -1.158,-0.478 -1.769,-0.477 C 10.219,93.078 6.51,94.476 3.1,96.57 2.944,96.975 2.812,97.42 2.688,97.857 l -0.1,0.336 c -0.46,1.587 -0.951,3.206 -1.621,4.635 0.07,-0.047 0.143,-0.102 0.212,-0.147 0.895,-0.577 1.845,-0.852 2.769,-1.119 0.862,-0.252 1.757,-0.51 2.6,-1.014 -1.134,0.683 -2.15,1.86 -3.131,2.995 -1.179,1.369 -2.396,2.784 -3.827,3.336 -0.353,0.139 -0.717,0.218 -1.077,0.24 l -0.118,0.004 c -0.046,0.004 -0.1,0.007 -0.152,0.009 0.022,0.229 0.033,0.524 0.03,0.787 0,0.074 -0.005,0.126 -0.011,0.19 l 0.148,0.15 c 0.194,0.217 0.364,0.427 0.516,0.644 0.984,1.417 1.605,3.362 2.202,5.239 l 0.523,1.609 c 0.2,0.578 0.379,0.935 0.565,1.382 H 1.995 C 1.691,116.709 1.382,116.452 1.074,116.054 L 1.015,115.98 c -0.597,-0.769 -1.277,-1.639 -1.84,-2.704 -0.331,-0.63 -0.675,-1.351 -0.98,-2.145 0,0.72 0.011,1.488 0.022,2.009 l 0.032,1.608 0.041,2.148 c 0,0 0.003,0.159 0.037,0.237 h -0.681 c -0.036,-0.097 -0.04,-0.293 -0.04,-0.293 l -0.076,-2.627 -0.039,-1.385 -0.02,-0.891 -0.033,-1.012 c -0.013,-0.32 -0.029,-0.567 -0.051,-0.754 l -0.011,-0.075 c -0.032,-0.247 -0.051,-0.499 -0.054,-0.747 -0.004,-0.249 0.005,-0.477 0.027,-0.595 l 0.035,-0.117 c 0.039,-0.085 0.084,-0.079 0.116,-0.068 l 0.016,0.006 -0.011,-0.085 v -0.003 c -0.048,-0.009 -0.099,-0.048 -0.147,-0.24 l -0.046,-0.25 c -0.019,-0.152 -0.038,-0.395 -0.047,-0.645 -0.007,-0.011 -0.015,-0.028 -0.026,-0.03 l 0.026,0.006 c -0.002,-0.03 -0.004,-0.057 -0.004,-0.088 -0.003,-0.128 0,-0.233 0.004,-0.331 -0.376,0.113 -1.925,-0.038 -2.116,-0.173 -0.642,-0.183 -1.275,-0.491 -1.897,-0.867 l 0.02,3.655 0.024,3.574 0.013,1.657 0.005,1.118 c 0,0.422 0.003,0.773 0.006,1.26 h -2.564 c -0.048,-0.532 -0.105,-1.259 -0.105,-1.259 l -0.318,-3.572 -0.167,-1.9 -0.102,-1.211 -0.033,-0.362 c -3.056,3.876 -4.87,6.943 -4.87,6.943 l -0.226,-0.006 c -0.277,0.407 -0.571,0.781 -0.873,1.133 0.003,0.124 0,0.118 0.003,0.248 l -3.089,-0.014 c -0.003,-0.271 -0.099,-0.609 -0.081,-0.738 l 0.03,-0.125 c 0.034,-0.09 0.077,-0.084 0.105,-0.07 l 0.016,0.005 -0.008,-0.094 v -0.004 c -0.045,-0.008 -0.095,-0.049 -0.135,-0.26 l -0.043,-0.272 c -0.016,-0.163 -0.034,-0.427 -0.043,-0.698 -0.008,-0.009 -0.016,-0.028 -0.024,-0.029 l 0.024,0.005 c -0.002,-0.034 -0.005,-0.065 -0.005,-0.098 0,-0.14 0,-0.255 0.005,-0.361 -0.092,0.033 -0.256,0.047 -0.46,0.044 l 0.059,0.678 0.097,1.12 0.059,0.656 c 0,0 0.011,0.106 0.025,0.241 h -1.477 c 0,-0.023 -0.003,-0.038 -0.003,-0.038 l -0.153,-1.622 -0.119,-1.292 c -0.466,-0.164 -0.924,-0.416 -1.379,-0.715 -0.14,1.99 -0.207,2.898 -0.207,3.038 l -0.191,0.629 H -493.25 V -19.684 H 21.542 c -0.393,0.775 -1.484,1.428 -2.066,1.996" />
        </g>
      </g>
    </g>
  </g>
</svg>
