<?xml version="1.0" encoding="UTF-8" standalone="no"?>
<!-- Created with Inkscape (http://www.inkscape.org/) -->

<svg
   xmlns:dc="http://purl.org/dc/elements/1.1/"
   xmlns:cc="http://creativecommons.org/ns#"
   xmlns:rdf="http://www.w3.org/1999/02/22-rdf-syntax-ns#"
   xmlns:svg="http://www.w3.org/2000/svg"
   xmlns="http://www.w3.org/2000/svg"
   xmlns:sodipodi="http://sodipodi.sourceforge.net/DTD/sodipodi-0.dtd"
   xmlns:inkscape="http://www.inkscape.org/namespaces/inkscape"
   width="203.13626mm"
   height="230.99185mm"
   viewBox="0 0 203.13626 230.99185"
   version="1.1"
   id="svg2009"
   inkscape:version="0.92.2 (5c3e80d, 2017-08-06)"
   sodipodi:docname="oranje.svg">
  <defs
     id="defs2003">
    <clipPath
       id="clipPath1206"
       clipPathUnits="userSpaceOnUse">
      <path
         inkscape:connector-curvature="0"
         id="path1204"
         d="m 36,330.236 h 87.249 v 99.212 H 36 Z" />
    </clipPath>
    <clipPath
       id="clipPath1298"
       clipPathUnits="userSpaceOnUse">
      <path
         inkscape:connector-curvature="0"
         id="path1296"
         d="m 143.35,330.236 h 82.121 v 99.212 H 143.35 Z" />
    </clipPath>
  </defs>
  <sodipodi:namedview
     id="base"
     pagecolor="#ffffff"
     bordercolor="#666666"
     borderopacity="1.0"
     inkscape:pageopacity="0.0"
     inkscape:pageshadow="2"
     inkscape:zoom="0.49497475"
     inkscape:cx="251.75667"
     inkscape:cy="302.27058"
     inkscape:document-units="mm"
     inkscape:current-layer="layer1"
     showgrid="false"
     fit-margin-top="0"
     fit-margin-left="0"
     fit-margin-right="0"
     fit-margin-bottom="0"
     inkscape:window-width="1920"
     inkscape:window-height="1001"
     inkscape:window-x="-9"
     inkscape:window-y="-9"
     inkscape:window-maximized="1" />
  <metadata
     id="metadata2006">
    <rdf:RDF>
      <cc:Work
         rdf:about="">
        <dc:format>image/svg+xml</dc:format>
        <dc:type
           rdf:resource="http://purl.org/dc/dcmitype/StillImage" />
        <dc:title></dc:title>
      </cc:Work>
    </rdf:RDF>
  </metadata>
  <g
     inkscape:label="Laag 1"
     inkscape:groupmode="layer"
     id="layer1"
     transform="translate(-6.5330582,-7.3572664)">
    <g
       id="g1292"
       transform="matrix(2.313954,0,0,-2.313954,-324.69039,1001.8256)">
      <g
         clip-path="url(#clipPath1298)"
         id="g1294">
        <g
           transform="translate(191.4225,331.9873)"
           id="g1300">
          <path
             inkscape:connector-curvature="0"
             id="path1302"
             style="fill:#eb690b;fill-opacity:1;fill-rule:nonzero;stroke:none"
             d="m 0,0 c -0.17,-0.271 -0.132,-0.746 -0.11,-0.947 -0.862,-0.016 -1.633,-0.017 -2.36,0.046 -0.434,0.535 -1.308,1.301 -1.308,1.301 0.048,0.225 -0.401,0.807 -0.531,1.115 -0.13,0.314 0.102,0.811 0.181,1.449 0.08,0.645 -0.119,1.567 -0.101,2.309 0.014,0.73 0.485,4.043 0.545,4.533 0.062,0.481 0.503,0.886 0.773,1.472 0.269,0.581 0.099,0.954 0.134,1.355 0.041,0.409 0.197,2.555 0.256,3.212 0.054,0.659 0.611,2.563 0.611,2.563 0,0 0.059,-1.551 0.082,-2.062 0.023,-0.509 0.271,-2.727 0.342,-3.448 0.064,-0.718 0.201,-1.573 0.376,-2.178 0.175,-0.606 0.449,-4.184 0.458,-4.676 0,-0.489 0.038,-3.001 0.038,-3.418 C -0.607,2.198 0.116,1.572 0.167,1.062 0.207,0.554 0.167,0.256 0,0 m -5.109,19.099 c -0.027,-1.429 -0.24,-3.86 -0.324,-5.062 -0.072,-1.208 0,-2.7 0.068,-3.116 0.067,-0.409 0.016,-1.304 0,-2.475 C -5.379,7.286 -5.987,5.458 -6.07,4.74 -6.143,4.014 -6.31,3.509 -6.304,2.891 -6.297,2.269 -5.834,1.829 -5.812,1.604 -5.787,1.367 -5.699,0.882 -5.761,0.517 -5.793,0.316 -5.92,0.172 -6.047,0.024 c -1.548,0.63 -2.375,1.327 -2.811,1.867 -0.899,2.419 -1.438,5.047 -1.557,6.762 -0.032,0.441 0.254,2.66 0.223,3.103 -0.082,1.178 -0.166,2.358 -0.246,3.504 -0.022,0.291 -0.302,1.093 -0.322,1.378 -0.07,0.977 0.119,1.408 0.051,2.299 -0.104,1.351 -0.201,2.576 -0.291,3.605 l 0.17,-0.059 c 0,0 1.118,-0.084 2.028,-0.156 0.905,-0.057 2.15,0.377 2.362,0.397 0.21,0.02 0.504,0.032 0.887,-0.373 0.385,-0.414 0.574,-0.381 0.574,-0.381 0,0 -0.095,-1.456 -0.13,-2.871 m -11.834,39.666 c -0.053,1.172 0.065,2.127 0.264,2.988 0.008,-0.013 0.016,-0.026 0.025,-0.041 0.067,-0.504 0.067,-1.029 0.158,-1.527 0.161,-0.904 0.492,-1.736 0.611,-2.649 0.084,-0.681 0.203,-1.345 0.52,-1.924 0.143,-0.259 0.324,-0.461 0.514,-0.647 0.333,-0.425 0.72,-0.808 0.986,-1.297 0.334,-0.615 0.787,-1.288 1.056,-1.997 0.04,-0.296 0.08,-0.587 0.189,-0.832 0.113,-0.272 0.083,-0.588 -0.011,-0.913 -0.014,0.019 -0.044,0.018 -0.051,-0.012 -0.14,-0.49 -0.339,-0.937 -0.573,-1.36 -0.373,-0.386 -0.715,-0.809 -1.032,-1.26 -0.567,2.869 -2.525,8.522 -2.656,11.471 m 0.207,24.188 c 0.028,-0.031 0.057,-0.065 0.111,-0.099 0.104,-0.064 0.208,-0.125 0.312,-0.176 0.078,-0.384 0.134,-0.773 0.178,-1.163 -0.038,-0.027 -0.075,-0.054 -0.113,-0.078 -0.175,-0.105 -0.367,-0.154 -0.555,-0.174 l -0.062,0.427 z m 0.028,0.27 c 0.065,0.01 0.128,0.014 0.19,0.028 0.022,10e-4 0.044,10e-4 0.065,10e-4 0.027,-0.1 0.054,-0.201 0.078,-0.302 -0.059,0.027 -0.121,0.055 -0.175,0.086 -0.075,0.042 -0.132,0.057 -0.172,0.058 z m 1.179,0.052 c 0.39,-0.119 0.786,-0.159 1.198,-0.117 -0.121,-0.088 -0.247,-0.169 -0.387,-0.231 -0.472,-0.208 -1.013,-0.208 -1.501,-0.039 -0.045,0.124 -0.094,0.245 -0.142,0.365 0.272,0.003 0.552,0.007 0.832,0.022 m -0.579,-0.687 c 0.237,-0.098 0.479,-0.167 0.73,-0.205 -0.168,-0.217 -0.313,-0.429 -0.482,-0.615 -0.073,0.279 -0.156,0.552 -0.248,0.82 m 0.027,-1.64 c 0.099,-1.118 0.162,-2.245 0.503,-3.309 0.693,-2.177 1.571,-4.194 0.701,-6.47 l -1.207,5.091 -0.673,4.668 c 0.224,-0.023 0.456,-0.023 0.676,0.02 m 2.763,2.075 c 0.469,0.063 0.908,0.223 1.335,0.478 0.057,0.032 0.119,0.074 0.184,0.117 0.027,-0.299 0.053,-0.598 0.1,-0.893 -0.013,0 -0.025,-0.02 -0.013,-0.036 0.008,-0.009 0.015,-0.02 0.023,-0.031 0.041,-0.252 0.105,-0.496 0.189,-0.738 -0.145,0.435 -0.28,0.879 -0.463,1.278 -0.011,0.023 -0.04,0.004 -0.029,-0.02 0.226,-0.595 0.309,-1.316 0.562,-1.884 0.291,-0.659 0.808,-1.211 0.939,-1.951 0.106,-0.594 0.071,-1.196 0.197,-1.791 0.043,-0.206 0.122,-0.4 0.216,-0.586 0.197,-0.632 0.649,-1.219 0.776,-1.846 -0.008,-0.007 -0.019,-0.018 -0.022,-0.031 -0.286,-1.118 -0.657,-2.192 -0.597,-3.379 0.034,-0.669 0.031,-1.28 -0.155,-1.923 -0.144,-0.51 -0.218,-1.002 -0.147,-1.548 0.077,-0.606 0.201,-1.2 0.291,-1.805 0.139,-0.947 -0.138,-1.601 -0.402,-2.453 -0.062,-0.198 -0.084,-0.423 -0.107,-0.64 -0.119,-0.281 -0.219,-0.574 -0.27,-0.901 -0.009,-0.044 -0.011,-0.089 -0.011,-0.132 -0.078,-0.159 -0.17,-0.311 -0.269,-0.462 -0.046,-0.051 -0.089,-0.105 -0.137,-0.156 -0.674,-0.731 -1.449,-1.513 -1.963,-2.461 -0.375,-0.446 -0.682,-0.86 -0.808,-1.533 -0.122,-0.644 0.104,-1.349 0.26,-1.983 -0.04,0.029 -0.083,0.057 -0.124,0.087 -0.387,0.287 -0.633,0.722 -0.794,1.224 -0.102,0.458 -0.17,0.92 -0.283,1.372 -0.076,0.567 -0.121,1.134 -0.207,1.618 -0.118,0.681 -0.333,1.299 -0.604,1.881 -0.031,0.26 -0.091,0.521 -0.139,0.763 -0.062,0.325 -0.129,0.644 -0.189,0.963 -0.011,0.073 -0.016,0.144 -0.027,0.217 0.335,0.829 0.7,1.649 1.016,2.598 0.487,1.473 0.492,2.623 0.409,3.353 0.329,0.623 0.622,1.265 0.784,1.986 0.452,2.043 -0.38,4.081 -1.088,5.868 -0.424,1.065 -0.593,2.137 -0.789,3.282 -0.011,0.047 -0.019,0.094 -0.03,0.143 0.386,0.173 0.684,0.507 0.759,1.077 0.011,0.069 -0.067,0.151 -0.158,0.209 0.08,-0.003 0.164,-0.007 0.244,-0.004 0.463,0.004 1.18,0.2 1.541,0.673 m 2.645,-2.744 c -0.169,0.286 -0.356,0.558 -0.52,0.856 -0.084,0.151 -0.135,0.335 -0.2,0.505 0.203,-0.477 0.478,-0.909 0.72,-1.361 m 0.582,-2.253 c -0.005,-0.015 -0.008,-0.033 -0.014,-0.05 -0.024,0.164 -0.045,0.335 -0.056,0.518 0,0.023 0,0.046 -0.003,0.07 0.021,-0.177 0.046,-0.355 0.073,-0.538 m -1.226,5.96 c 0.495,-0.387 1.134,-0.519 1.758,-0.454 0.006,-0.012 0.011,-0.022 0.014,-0.035 -0.003,0.001 -0.011,0 -0.016,0.001 -0.089,0.006 -0.291,-0.221 -0.326,-0.326 -0.203,-0.002 -0.404,0.018 -0.601,0.072 -0.083,0.021 -0.301,-0.251 -0.232,-0.275 0.232,-0.086 0.464,-0.139 0.693,-0.162 0.052,-0.049 0.109,-0.092 0.149,-0.11 0.172,-0.077 0.368,-0.145 0.581,-0.195 -0.092,-0.628 -0.615,-1.356 -0.768,-1.876 -0.075,-0.252 -0.093,-0.516 -0.051,-0.765 -0.194,0.389 -0.438,0.749 -0.706,1.083 -0.591,0.746 -0.82,1.721 -0.918,2.716 0.138,0.091 0.283,0.2 0.423,0.326 m 2.371,-1.545 c 0.085,-0.011 0.169,-0.015 0.255,-0.016 -0.083,-0.094 -0.156,-0.206 -0.105,-0.215 0.735,-0.12 1.594,-0.278 2.311,0.04 0.057,0.025 0.11,0.054 0.167,0.086 -0.037,-1.645 0.175,-3.313 0.088,-4.962 -0.051,-0.166 -0.119,-0.323 -0.196,-0.479 -0.048,-0.073 -0.092,-0.143 -0.121,-0.216 -0.008,-0.013 -0.014,-0.027 -0.022,-0.042 -0.102,-0.176 -0.218,-0.355 -0.35,-0.55 -0.526,-0.779 -1.088,-1.441 -1.564,-2.236 -0.019,-0.016 -0.039,-0.031 -0.059,-0.05 0.071,0.307 0.122,0.616 0.104,0.961 -0.016,0.374 -0.095,0.75 -0.302,1.04 -0.344,0.485 -1.014,1.511 -0.886,2.209 0.084,0.464 0.294,0.785 0.186,1.288 -0.026,0.135 -0.091,0.251 -0.15,0.365 -0.3,0.563 0.064,1.416 0.299,1.894 0.12,0.248 0.277,0.565 0.345,0.883 m 1.613,17.409 c 0.001,0.008 0.004,0.019 0.004,0.025 0.068,0.023 0.135,0.046 0.206,0.073 0.08,-0.137 0.177,-0.257 0.282,-0.359 -0.051,0.008 -0.105,0.023 -0.158,0.033 -0.098,0.093 -0.311,0.2 -0.37,0.173 -0.005,-0.003 -0.011,-0.004 -0.016,-0.007 0.016,0.02 0.035,0.04 0.052,0.062 m 1.114,-0.874 c 0.068,0.04 0.149,0.065 0.21,0.114 0.103,-0.035 0.208,-0.062 0.31,-0.088 -0.094,-0.165 -0.207,-0.306 -0.342,-0.421 -0.076,0.034 -0.153,0.06 -0.229,0.099 -0.027,0.019 -0.056,0.035 -0.084,0.048 -0.001,0.001 -0.001,0.003 -0.004,0.004 0.054,0.072 0.088,0.166 0.139,0.244 m 0.93,-0.051 c 0.118,-0.011 0.25,-0.014 0.387,-0.01 -0.178,-0.208 -0.358,-0.412 -0.549,-0.591 -0.03,0.012 -0.059,0.03 -0.087,0.041 -0.062,0.022 -0.116,0.052 -0.175,0.075 0.157,0.164 0.291,0.324 0.424,0.485 m 0.89,0.05 c -0.247,-0.274 -0.524,-0.515 -0.839,-0.684 0.183,0.196 0.353,0.416 0.522,0.634 0.108,0.011 0.212,0.027 0.317,0.05 m 0.457,-16.911 c 0.012,0 0.026,0.001 0.04,0.001 0.077,-0.111 0.164,-0.203 0.249,-0.292 0.025,-0.044 0.05,-0.087 0.076,-0.129 -0.132,-0.253 -0.245,-0.52 -0.368,-0.788 -0.121,-0.262 -0.234,-0.521 -0.401,-0.744 -0.101,-0.132 -0.237,-0.189 -0.37,-0.248 0.436,0.394 0.735,0.991 0.932,1.616 0.021,0.063 -0.065,0.107 -0.089,0.048 -0.17,-0.38 -0.342,-0.736 -0.579,-1.06 -0.216,-0.289 -0.456,-0.541 -0.665,-0.837 -0.014,-0.022 0.003,-0.05 0.025,-0.039 0.015,0.008 0.029,0.02 0.045,0.028 -0.282,-0.356 -0.316,-0.703 -0.389,-1.201 -0.034,-0.255 -0.19,-0.502 -0.379,-0.746 0.113,1.567 -0.178,3.166 -0.251,4.759 0.079,-0.027 0.157,-0.051 0.228,-0.07 0.325,-0.081 0.63,-0.097 0.93,-0.055 0.311,-0.18 0.712,-0.242 0.966,-0.243 m -0.24,16.003 c 0.071,0.054 0.145,0.109 0.215,0.167 -0.011,-0.027 -0.011,-0.049 0.011,-0.058 0.008,-0.004 0.018,-0.007 0.029,-0.012 -0.043,-0.043 -0.08,-0.088 -0.094,-0.123 -0.099,-0.047 -0.2,-0.087 -0.302,-0.123 0.048,0.049 0.094,0.098 0.141,0.149 M -7.796,74.394 c 0.297,0.397 0.576,0.811 0.848,1.239 -0.119,-0.309 -0.26,-0.604 -0.475,-0.87 -0.116,-0.139 -0.245,-0.257 -0.373,-0.369 M 1.953,75.66 C 1.928,75.654 1.902,75.648 1.874,75.641 1.842,75.657 1.806,75.673 1.772,75.688 1.834,75.678 1.893,75.666 1.953,75.66 m -5.409,5.814 c 0.504,-0.611 1.374,-0.836 2.032,-0.876 0.433,-0.027 1.795,-0.01 2.382,0.503 0.415,-0.747 1.393,-1.306 2.111,-1.116 0.096,0.023 -0.063,0.191 -0.08,0.205 -0.07,0.062 -0.146,0.11 -0.228,0.144 0.062,-0.007 0.118,-0.012 0.177,-0.012 0.065,-0.002 0.283,0.23 0.21,0.251 -0.218,0.07 -0.433,0.17 -0.644,0.293 0.206,-0.004 0.401,0.025 0.545,0.111 0.073,-0.037 0.142,-0.071 0.204,-0.098 0.067,-0.03 0.135,-0.058 0.205,-0.085 0.625,-0.657 1.43,-1.132 1.939,-1.115 0.059,0.003 0.314,0.217 0.223,0.272 -0.237,0.144 -0.466,0.299 -0.689,0.464 0.046,-0.007 0.09,-0.017 0.132,-0.021 0.272,-0.027 0.595,0.024 0.883,0.162 0.143,-0.01 0.285,-0.011 0.429,-10e-4 0.138,-0.2 0.314,-0.367 0.492,-0.491 C 6.725,79.406 6.504,78.778 6.168,78.195 6.132,78.135 6.095,78.077 6.059,78.019 5.818,78.007 5.578,78.003 5.332,78.015 5.179,78.024 5.561,77.717 5.642,77.702 5.699,77.69 5.761,77.681 5.823,77.672 5.773,77.607 5.728,77.544 5.685,77.48 5.48,77.404 5.25,77.366 5.007,77.352 4.608,77.39 4.236,77.548 3.97,77.918 3.902,78.012 3.456,78.202 3.547,78.054 3.649,77.898 3.77,77.754 3.911,77.623 3.682,77.743 3.456,77.906 3.227,78.125 3.154,78.198 2.676,78.358 2.871,78.148 3.078,77.926 3.32,77.706 3.582,77.513 3.527,77.51 3.476,77.509 3.425,77.505 3.298,77.607 3.105,77.69 3.038,77.65 2.93,77.587 2.825,77.529 2.721,77.479 2.577,77.48 2.435,77.49 2.286,77.514 2.13,77.538 2.221,77.424 2.348,77.319 2.267,77.293 2.19,77.27 2.111,77.254 2.006,77.301 1.817,77.352 1.928,77.237 1.931,77.233 1.933,77.229 1.939,77.226 1.422,77.166 0.942,77.37 0.536,78.043 c -0.062,0.104 -0.53,0.33 -0.442,0.146 0.482,-1.028 1.514,-1.623 2.452,-1.445 0.05,-0.031 0.102,-0.061 0.158,-0.089 -0.305,-0.018 -0.601,-0.043 -0.9,-0.046 -0.113,0.047 -0.272,0.093 -0.25,0.006 -0.208,0.01 -0.418,0.037 -0.633,0.099 -0.294,0.085 -0.014,-0.218 0.11,-0.267 0.198,-0.079 0.421,-0.156 0.655,-0.22 C 1.349,76.235 1.018,76.298 0.695,76.468 0.59,76.555 0.441,76.62 0.376,76.637 0.368,76.64 0.364,76.641 0.359,76.644 0.243,76.675 0.192,76.659 0.178,76.617 0.175,76.618 0.175,76.621 0.172,76.622 0.127,76.578 0.08,76.535 0.034,76.491 c -0.107,-0.084 0.049,-0.223 0.211,-0.33 -0.434,0.133 -0.832,0.394 -1.209,0.835 -0.047,0.055 -0.407,0.207 -0.327,0.08 0.65,-0.993 1.814,-1.587 2.856,-1.365 C 1.568,75.7 1.571,75.689 1.58,75.676 1.597,75.646 1.622,75.618 1.642,75.59 1.411,75.543 1.173,75.508 0.938,75.491 c -0.808,0.135 -1.599,0.433 -2.39,0.649 -0.302,0.083 -0.21,-0.16 -0.017,-0.292 0.289,-0.194 0.585,-0.343 0.884,-0.451 0.195,-0.262 0.517,-0.454 0.859,-0.559 0.014,-0.033 0.046,-0.076 0.105,-0.121 0.157,-0.114 0.313,-0.199 0.472,-0.261 -0.014,0.003 -0.026,0.004 -0.04,0.008 -0.308,0.106 0.003,-0.218 0.113,-0.275 0.487,-0.253 1.023,-0.347 1.551,-0.315 0.21,0.012 0.546,0.077 0.749,0.251 C 3.238,74.111 3.258,74.096 3.278,74.083 3.205,74.044 3.137,74.005 3.069,73.96 2.777,73.772 2.504,73.574 2.221,73.399 1.777,73.24 1.176,73.077 0.819,73.327 0.732,73.387 0.412,73.454 0.616,73.276 0.811,73.111 1.012,73.006 1.22,72.941 0.199,72.673 -0.854,72.903 -1.89,72.898 c 0.525,0.046 1.042,0.063 1.515,0.085 0.014,10e-4 0.014,0.024 0,0.024 -1.739,0.028 -3.897,0.17 -5.343,-1.209 -0.64,-0.61 -1.024,-1.604 -1.338,-2.486 -0.262,-0.731 -0.426,-1.48 -0.805,-2.144 -0.248,-0.427 -0.539,-0.804 -0.765,-1.24 -0.003,0.33 -0.017,0.658 -0.038,0.98 -0.048,0.622 -0.248,1.253 -0.35,1.88 -0.011,0.203 -0.011,0.409 -0.003,0.622 0.003,0.026 0.006,0.05 0.011,0.073 0.089,0.153 0.162,0.31 0.215,0.474 0.089,0.09 0.145,0.23 0.148,0.421 0.003,0.042 0,0.085 0,0.128 0.164,0.834 0.149,1.732 0.534,2.475 0.26,0.499 0.703,0.924 1.064,1.311 0.385,0.413 0.597,0.98 0.789,1.545 0.003,0.004 0.003,0.007 0.005,0.011 0.046,0.002 0.091,0.031 0.113,0.101 0.052,0.154 0.091,0.307 0.129,0.462 0.24,0.454 0.536,0.807 0.844,1.261 0.306,0.459 0.183,1.139 0.503,1.578 0.277,0.379 0.622,0.456 0.853,0.932 0.198,0.408 0.235,0.86 0.353,1.292 m 1.805,16.307 c 0.006,-0.005 0.013,-0.009 0.018,-0.014 -0.147,-0.002 -0.296,0.005 -0.416,0.014 0.131,-0.002 0.263,-0.004 0.398,0 m 0.013,0.4 c 0.13,0.068 0.254,0.135 0.367,0.202 0.016,0.011 0.034,0.022 0.056,0.036 -0.025,-0.046 -0.027,-0.085 0,-0.11 0.073,-0.072 0.164,-0.129 0.264,-0.172 -0.233,-0.001 -0.468,0.005 -0.7,0.024 0.006,0.007 0.007,0.015 0.013,0.02 m 1.274,-0.269 c 0.028,0.003 0.076,0.043 0.116,0.089 0.019,-0.034 0.043,-0.065 0.073,-0.088 0.003,-0.004 0.005,-0.006 0.011,-0.012 -0.017,-0.006 -0.03,-0.012 -0.044,-0.02 -0.072,0.007 -0.148,0.014 -0.224,0.02 0.025,0.006 0.047,0.008 0.068,0.011 m 1.435,0.847 c 0.198,0.034 0.396,0.078 0.593,0.14 -0.322,-0.13 -0.681,-0.186 -0.969,-0.183 0.167,0.013 0.302,0.031 0.376,0.043 m 0.91,-0.583 C 2.004,98.136 2.028,98.095 2.057,98.059 1.936,98.044 1.82,98.044 1.704,98.052 c 0.095,0.039 0.189,0.08 0.277,0.124 m 0.3,-17.721 C 1.987,80.532 1.74,80.641 1.5,80.876 1.75,80.695 2.02,80.552 2.281,80.455 m 0.124,18.794 c 0.037,0.025 0.07,0.049 0.105,0.076 C 2.416,99.191 2.311,99.086 2.195,99 c 0.077,0.076 0.148,0.159 0.21,0.249 M 9.003,79.818 C 8.468,79.83 7.896,79.969 7.412,80.26 7.344,80.3 7.277,80.344 7.209,80.392 c 0.014,0.125 0.025,0.247 0.033,0.373 0.048,0.023 0.099,0.043 0.145,0.07 0.005,0.002 0.014,0.01 0.022,0.017 0.418,-0.225 0.887,-0.342 1.3,-0.353 0.108,-0.002 0.299,0.011 0.509,0.049 0.178,-0.198 0.37,-0.365 0.57,-0.502 C 9.785,80.044 9.777,80.044 9.771,80.044 9.65,80.121 9.512,80.175 9.469,80.083 9.461,80.071 9.458,80.059 9.452,80.047 9.218,80.071 8.995,80.149 8.793,80.318 8.753,80.349 8.556,80.444 8.454,80.456 8.449,80.46 8.44,80.464 8.435,80.47 8.362,80.521 8.098,80.576 8.268,80.427 8.356,80.35 8.451,80.275 8.548,80.2 8.769,79.953 9.019,79.798 9.288,79.716 9.37,79.67 9.452,79.627 9.537,79.585 9.641,79.448 9.808,79.322 9.989,79.217 9.455,78.721 8.871,78.315 8.246,78.012 8.136,78.093 8.007,78.17 7.955,78.167 7.463,78.155 6.974,78.094 6.482,78.051 c 0.105,0.2 0.204,0.402 0.297,0.612 0.169,0.402 0.282,0.817 0.358,1.241 0.53,-0.272 1.099,-0.384 1.676,-0.338 0.069,0.006 0.238,0.251 0.19,0.252 m 1.269,-0.746 c 0.153,-0.07 0.304,-0.124 0.423,-0.162 -0.27,-0.141 -0.553,-0.269 -0.838,-0.36 0.146,0.162 0.282,0.339 0.415,0.522 M 6.867,76.845 C 7.05,76.924 7.239,76.989 7.431,77.049 7.488,77.021 7.547,76.996 7.606,76.97 7.42,76.897 7.234,76.822 7.048,76.746 6.988,76.775 6.926,76.808 6.867,76.845 M 6.404,74.601 c 0.089,0.031 0.175,0.065 0.259,0.104 0.083,-0.049 0.15,-0.085 0.189,-0.101 0.085,-0.039 0.182,-0.074 0.282,-0.108 -0.199,0.027 -0.393,0.041 -0.59,0.066 -0.045,0.012 -0.091,0.025 -0.14,0.039 M -9.822,69.956 c -0.127,-0.679 -0.232,-1.323 -0.189,-2.004 -0.056,0.295 -0.099,0.595 -0.099,0.914 -0.003,0.41 0.161,0.788 0.305,1.173 -0.003,-0.028 -0.011,-0.055 -0.017,-0.083 m 0.102,-4.477 c -0.008,-0.364 -0.068,-0.723 -0.218,-1.065 -0.027,-0.059 -0.054,-0.118 -0.081,-0.177 0.118,0.416 0.24,0.813 0.299,1.242 m 21.099,13.382 h 0.014 c 0.209,-0.235 0.455,-0.445 0.715,-0.627 0,-0.002 -0.003,-0.006 0,-0.01 0.033,-0.197 0.108,-0.372 0.208,-0.528 -0.024,0.004 -0.049,0.008 -0.073,0.015 -0.013,0.002 -0.053,0.016 -0.092,0.02 -0.094,0.037 -0.178,0.052 -0.137,-0.011 0.014,-0.022 0.029,-0.044 0.046,-0.066 -0.084,-0.342 -0.207,-0.183 -0.421,-0.3 -0.08,-0.043 0.214,-0.229 0.276,-0.221 0.069,0.008 0.128,0.003 0.182,-0.006 -0.065,-0.162 -0.125,-0.335 -0.175,-0.515 -0.145,-0.521 -0.15,-1.021 -0.199,-1.503 C 11.497,74.569 11.33,73.994 11.051,73.486 10.678,72.818 10.178,72.277 9.774,71.633 9.69,71.605 9.604,71.578 9.523,71.55 9.375,71.5 9.224,71.45 9.073,71.406 7.556,71.227 6.049,71.468 4.617,70.737 3.875,70.359 3.216,69.79 2.563,69.227 2.263,68.966 1.964,68.698 1.718,68.373 c -0.899,-0.587 -1.74,-1.28 -2.283,-2.318 -0.446,-0.853 -0.607,-1.886 -0.941,-2.799 -0.373,-1.03 -1.099,-1.907 -1.645,-2.805 -1.223,-1.998 -2.387,-4.045 -3.755,-5.905 -0.342,-0.465 -0.697,-0.945 -1.079,-1.386 -0.09,-0.096 -0.178,-0.194 -0.265,-0.294 -0.247,-0.261 -0.503,-0.506 -0.775,-0.711 -0.356,-0.234 -0.732,-0.407 -1.096,-0.668 -0.046,-0.032 -0.084,-0.065 -0.122,-0.098 0.003,0.015 0,0.027 -0.002,0.04 0.002,0.003 0.005,0.004 0.005,0.007 0.1,-0.011 0.17,0.134 0.097,0.243 -0.167,0.246 -0.298,0.43 -0.396,0.729 -0.069,0.213 -0.091,0.453 -0.161,0.663 -0.148,0.418 -0.351,0.755 -0.579,1.092 -0.213,0.588 -0.402,1.187 -0.62,1.772 -0.26,0.692 -0.248,1.375 -0.086,2.032 0.024,0.05 0.049,0.101 0.075,0.147 0.203,0.351 0.424,0.666 0.653,0.969 0.46,0.524 0.907,1.057 1.276,1.646 0.247,0.363 0.473,0.754 0.662,1.17 0.087,0.164 0.156,0.342 0.21,0.526 0.109,0.305 0.189,0.619 0.237,0.94 0.604,0.888 1.201,1.766 1.698,2.718 0.474,0.69 0.715,1.544 0.933,2.418 0.062,0.247 0.141,0.477 0.228,0.691 0.002,0.003 0.004,0.005 0.006,0.007 0.214,0.33 0.399,0.674 0.571,1.029 0.249,0.328 0.537,0.612 0.858,0.869 0.473,0.138 0.899,0.407 1.376,0.551 0.47,0.14 0.925,0.344 1.392,0.509 0.677,0.045 1.36,0.008 2.02,0.019 0.94,0.015 1.664,0.322 2.427,0.77 0.282,0.061 0.579,0.153 0.834,0.29 0.049,-0.004 0.1,-0.006 0.151,-0.004 0.078,-0.047 0.167,-0.084 0.246,-0.077 0.425,0.03 0.882,0.152 1.244,0.417 0.274,-0.028 0.819,-0.051 0.921,0.333 0.04,0.151 -0.254,0.295 -0.402,0.329 0.017,0.037 0.029,0.076 0.043,0.117 0.133,0.015 0.266,0.04 0.391,0.086 0.202,-0.096 0.423,-0.183 0.646,-0.241 0.845,-0.312 1.732,-0.411 2.619,-0.401 0.198,0.002 -0.282,0.379 -0.386,0.393 -0.526,0.067 -1.055,0.109 -1.583,0.194 -0.051,0.036 -0.102,0.067 -0.144,0.087 0.443,-0.13 0.967,-0.176 1.342,0.03 0.105,0.058 -0.262,0.277 -0.313,0.281 -0.342,0.022 -0.681,0.017 -1.023,0.056 -0.077,0.009 -0.153,0.022 -0.232,0.039 0.13,0.078 0.259,0.169 0.378,0.272 0.007,0.006 0.01,0.013 0.012,0.02 0.127,0.024 0.246,0.054 0.353,0.09 C 7.759,75.244 7.78,75.233 7.802,75.222 7.915,75.167 8.028,75.125 8.141,75.093 8.952,74.527 10,74.487 10.84,74.974 10.964,75.046 10.474,75.366 10.35,75.331 9.932,75.214 9.502,75.094 9.073,75.087 9.068,75.117 9.046,75.152 9.025,75.179 8.926,75.293 8.763,75.4 8.626,75.413 8.457,75.428 8.29,75.444 8.125,75.466 c 0.055,0.047 0.092,0.102 0.121,0.161 0.092,-0.017 0.186,-0.033 0.283,-0.044 0.584,-0.058 1.578,0.036 1.898,0.737 0.062,0.13 -0.32,0.285 -0.393,0.259 -0.704,-0.251 -1.396,-0.63 -2.097,-0.554 -0.046,0.017 -0.084,0.027 -0.105,0.029 -0.025,0.003 -0.052,0 -0.076,0 -0.022,0.006 -0.042,0.01 -0.064,0.014 0.04,0.015 0.081,0.025 0.121,0.04 0.862,-0.047 1.791,0.368 1.885,1.235 0.005,0.031 -0.011,0.061 -0.029,0.092 C 9.641,77.486 9.588,77.54 9.577,77.548 9.472,77.643 9.321,77.739 9.186,77.729 9.09,77.724 8.995,77.716 8.898,77.711 c 0.213,0.144 0.412,0.299 0.599,0.47 0.659,-0.021 1.283,0.293 1.882,0.68 m 0.91,-0.116 c 0.102,-0.037 0.204,-0.068 0.31,-0.093 0.069,-0.096 0.142,-0.186 0.221,-0.272 -0.014,0.001 -0.028,-0.004 -0.042,-0.022 -0.015,-0.021 -0.029,-0.045 -0.042,-0.067 -0.272,0.112 -0.534,0.271 -0.786,0.486 0.107,-0.013 0.223,-0.023 0.339,-0.032 m 0.66,-1.619 c -0.073,0.027 -0.143,0.062 -0.211,0.107 0.02,-0.007 0.039,-0.013 0.057,-0.017 0.048,-0.032 0.099,-0.062 0.154,-0.09 m -0.081,1.147 c 0.008,0.015 0.011,0.033 0.008,0.048 0.035,-0.041 0.073,-0.084 0.111,-0.12 -0.043,0.013 -0.087,0.028 -0.133,0.043 0.006,0.009 0.011,0.02 0.014,0.029 m 0.105,13.126 c 0,-0.01 -0.003,-0.017 -0.006,-0.025 -0.014,-0.006 -0.023,-0.012 -0.034,-0.017 0.014,0.012 0.026,0.027 0.04,0.042 m 1.435,-14.677 c 0.094,-0.043 0.195,-0.083 0.294,-0.12 -0.439,-0.21 -0.881,-0.369 -1.379,-0.264 -0.24,0.052 0.135,-0.273 0.215,-0.299 0.313,-0.098 0.674,-0.146 1.019,-0.103 0.015,-0.01 0.029,-0.019 0.043,-0.023 0.474,-0.206 0.967,-0.469 1.47,-0.691 -0.086,-0.042 0.011,-0.158 0.143,-0.269 0.008,-0.022 0.013,-0.043 0.024,-0.064 0.025,-0.053 0.051,-0.099 0.081,-0.144 -0.31,-0.335 -0.636,-0.647 -1.013,-0.895 -0.501,-0.333 -1.026,-0.607 -1.57,-0.847 -0.211,-0.057 -0.42,-0.113 -0.633,-0.171 -0.55,-0.151 -1.088,-0.387 -1.618,-0.651 -0.162,-0.051 -0.323,-0.102 -0.486,-0.152 0.195,0.321 0.378,0.657 0.561,1.001 0.36,0.677 0.555,1.29 0.58,2.097 0.023,0.752 0.099,1.377 0.279,1.994 0.024,0.015 0.049,0.033 0.075,0.063 0.547,-0.451 1.285,-0.658 1.915,-0.462 m 0.197,1.445 c 0.003,-0.005 0.01,-0.008 0.018,-0.013 -0.005,0 -0.008,0 -0.015,-0.002 -0.016,0.008 -0.033,0.016 -0.049,0.025 0.016,-0.003 0.03,-0.007 0.046,-0.01 m 0.875,-1.78 c 0.013,-0.003 0.024,-0.006 0.035,-0.007 0.021,-0.009 0.041,-0.017 0.063,-0.025 0.204,-0.124 0.419,-0.228 0.635,-0.305 0.151,-0.126 0.312,-0.241 0.479,-0.339 -0.266,0.042 -0.533,0.11 -0.803,0.226 -0.314,0.133 -0.207,-0.078 -0.043,-0.211 -0.29,0.106 -0.581,0.21 -0.872,0.315 0.186,0.074 0.361,0.186 0.506,0.346 m 3.96,-3.229 c 0.11,0.051 -0.163,0.238 -0.343,0.335 0.239,-0.011 0.477,-0.005 0.708,0.016 0.046,-0.04 0.093,-0.077 0.141,-0.113 0.193,-0.295 0.438,-0.539 0.727,-0.715 0.269,-0.167 0.833,-0.474 1.187,-0.351 0.038,-0.014 0.076,-0.029 0.11,-0.042 0.486,-0.181 0.983,-0.252 1.485,-0.185 0.131,-0.002 0.264,-0.002 0.39,0.011 0.184,-0.098 0.377,-0.178 0.569,-0.23 -0.472,-0.279 -0.935,-0.545 -1.447,-0.735 -0.509,-0.186 -0.986,-0.303 -1.446,-0.547 -0.193,-0.067 -0.377,-0.148 -0.546,-0.255 -0.218,0.015 -0.435,0.048 -0.639,0.097 -0.361,0.147 -0.726,0.295 -1.102,0.433 -0.299,0.156 -0.593,0.336 -0.893,0.534 -0.548,0.358 -1.07,0.779 -1.624,1.119 -0.269,0.165 -0.542,0.154 -0.82,0.131 -0.048,0.004 -0.093,0.007 -0.142,0.011 0.433,0.313 0.806,0.705 1.139,1.144 0.679,-0.58 1.738,-1.03 2.546,-0.658 m -2.085,0.813 c 0.328,-0.202 0.7,-0.333 1.091,-0.405 -0.453,0.017 -0.89,0.07 -1.306,0.335 0.072,0.023 0.145,0.046 0.215,0.07 m 3.496,-0.281 c 0.271,-0.131 0.565,-0.22 0.848,-0.249 0.086,-0.033 0.177,-0.061 0.27,-0.077 10e-4,-0.002 0.004,-0.002 0.007,-0.003 -0.404,-0.106 -0.797,-0.14 -1.174,-0.069 -0.118,0.089 -0.234,0.193 -0.347,0.309 0.136,0.027 0.269,0.056 0.396,0.089 m 0.471,3.68 h -0.003 c 0,10e-4 -0.002,0.003 -0.002,0.004 0.002,-10e-4 0.002,-0.003 0.005,-0.004 m 0.617,-1.022 c 0,-0.03 0.027,-0.076 0.064,-0.123 -0.027,0.008 -0.053,0.014 -0.081,0.024 -0.018,0.023 -0.048,0.049 -0.08,0.072 0.032,0.009 0.065,0.016 0.097,0.027 m 0.347,-3.371 c 0.07,-0.087 0.212,-0.194 0.294,-0.241 -0.297,0.003 -0.593,0.038 -0.879,0.116 0.197,0.016 0.393,0.059 0.585,0.125 m 0.223,0.348 c 0.235,-0.042 0.469,-0.053 0.69,-0.015 -0.008,-0.042 0.034,-0.104 0.153,-0.187 0,-0.002 0.003,-0.003 0.005,-0.004 -0.266,-0.038 -0.535,-0.047 -0.81,-0.035 0.033,0.017 0.067,0.029 0.1,0.049 0.048,0.027 -0.033,0.116 -0.138,0.192 m 0.501,3.555 c 0.141,0 0.281,0.012 0.415,0.035 0.135,-0.107 0.313,-0.197 0.39,-0.152 0.113,0.06 0.224,0.122 0.338,0.181 0.223,-0.075 0.455,-0.136 0.687,-0.171 -0.454,-0.272 -0.935,-0.405 -1.325,-0.138 -0.071,0.048 -0.593,0.23 -0.362,-0.026 0.124,-0.135 0.251,-0.242 0.38,-0.324 -0.006,-0.002 -0.013,-0.002 -0.018,-0.003 -0.022,-0.007 -0.042,-0.015 -0.06,-0.023 -0.078,-0.007 -0.157,-0.012 -0.234,-0.018 -0.102,0.061 -0.226,0.103 -0.273,0.091 -0.099,-0.03 -0.204,-0.06 -0.309,-0.084 -0.181,0.018 -0.361,0.053 -0.545,0.117 -0.023,0.007 -0.042,0.011 -0.059,0.015 0.345,0.124 0.674,0.288 0.975,0.5 m 0.805,-3.67 c -0.021,-0.005 -0.045,-0.011 -0.066,-0.016 -0.076,0.032 -0.154,0.067 -0.232,0.108 -0.044,0.024 -0.087,0.039 -0.129,0.05 0.226,0.041 0.444,0.12 0.644,0.241 0.198,-0.029 0.398,-0.041 0.594,-0.042 0.005,-0.003 0.011,-0.005 0.014,-0.007 -0.189,-0.105 -0.379,-0.19 -0.577,-0.257 -0.158,0.063 -0.426,0.089 -0.248,-0.077 m 1.43,-0.871 c 0.017,0.03 0.033,0.059 0.047,0.089 0.094,-0.006 0.188,-0.007 0.28,-0.002 0.285,-0.024 0.568,0.006 0.845,0.095 0.097,-0.104 0.235,-0.171 0.353,-0.214 0.24,-0.091 0.492,-0.167 0.749,-0.217 -0.164,-0.136 -0.328,-0.272 -0.491,-0.408 -0.345,-0.01 -0.684,0.044 -1.044,0.214 -0.353,0.163 -0.262,-0.137 -0.014,-0.273 0.194,-0.108 0.407,-0.209 0.633,-0.294 -0.175,-0.141 -0.35,-0.281 -0.525,-0.419 0,0.058 -0.048,0.115 -0.094,0.076 -0.151,-0.126 -0.296,-0.245 -0.445,-0.358 -0.374,0.067 -0.735,0.241 -1.074,0.438 -0.032,0.023 -0.068,0.037 -0.1,0.046 0.235,0.195 0.428,0.439 0.597,0.713 0.195,0.013 0.387,0.064 0.564,0.173 0.105,0.062 -0.089,0.227 -0.281,0.341 m 1.991,0.548 c 0.294,-0.147 0.614,-0.242 0.932,-0.271 -0.033,-0.028 -0.067,-0.055 -0.103,-0.082 -0.436,0.016 -0.862,0.068 -1.292,0.144 0.003,0.003 0.008,0.004 0.011,0.007 0.048,0.026 0.021,0.084 -0.044,0.147 0.165,0.005 0.332,0.023 0.496,0.055 m 1.64,0.809 c 0.164,0.01 0.329,0.029 0.488,0.065 0.172,-0.032 0.345,-0.042 0.514,-0.024 -0.014,-0.015 -0.027,-0.029 -0.04,-0.042 -0.284,-0.137 -0.555,-0.295 -0.822,-0.469 -0.096,0.054 -0.188,0.091 -0.223,0.085 -0.221,-0.028 -0.466,-0.087 -0.714,-0.126 0.277,0.136 0.544,0.309 0.797,0.511 m -4.904,-3.864 c -0.7,-0.165 -1.452,0.039 -2.169,0.07 -0.04,0.013 -0.082,0.027 -0.125,0.04 0.32,0.125 0.636,0.257 0.953,0.35 0.551,0.16 1.099,0.353 1.585,0.706 0.023,-0.026 0.054,-0.057 0.101,-0.09 0.288,-0.206 0.586,-0.376 0.896,-0.513 -0.379,-0.255 -0.777,-0.453 -1.241,-0.563 M 14.47,71.97 c -0.067,-0.003 -0.132,-0.008 -0.2,-0.013 0.068,0.024 0.136,0.044 0.203,0.068 C 14.465,72.009 14.462,71.988 14.47,71.97 M -10.779,52.155 c -10e-4,0.042 -0.004,0.083 -0.007,0.128 0.024,-0.08 0.048,-0.156 0.075,-0.23 -0.003,-0.019 -0.003,-0.038 0.002,-0.058 0.014,-0.058 0.025,-0.113 0.031,-0.169 -0.033,0.111 -0.065,0.22 -0.101,0.329 m -7.585,57.792 c -0.014,-0.007 -0.025,-0.012 -0.036,-0.018 0.014,0.012 0.027,0.027 0.04,0.042 0,-0.01 -0.003,-0.016 -0.004,-0.024 m -2.187,4.299 c 0.091,0.022 0.182,0.046 0.271,0.078 -0.118,-0.071 -0.242,-0.121 -0.375,-0.153 0.036,0.024 0.071,0.048 0.104,0.075 m 10.419,-7.434 c 0.095,0.023 0.183,0.047 0.274,0.079 -0.117,-0.071 -0.244,-0.122 -0.374,-0.153 0.035,0.024 0.068,0.048 0.1,0.074 M 10.78,95.674 c 0.093,0.022 0.184,0.046 0.273,0.078 -0.118,-0.071 -0.242,-0.121 -0.375,-0.153 0.035,0.024 0.071,0.048 0.102,0.075 M 21.201,88.24 c 0.094,0.022 0.183,0.047 0.274,0.079 -0.118,-0.071 -0.245,-0.122 -0.374,-0.154 0.035,0.025 0.067,0.049 0.1,0.075 m 2.798,-6.962 c 0.002,0.008 0.005,0.019 0.005,0.025 0.068,0.023 0.135,0.046 0.206,0.073 0.08,-0.137 0.176,-0.257 0.282,-0.36 -0.052,0.009 -0.106,0.023 -0.16,0.034 -0.096,0.093 -0.309,0.199 -0.368,0.173 -0.005,-0.003 -0.011,-0.005 -0.016,-0.007 0.016,0.02 0.034,0.04 0.051,0.062 M 13.482,-2.895 C 10.374,-1.829 6.186,-1.08 3.749,-0.964 3.628,-0.959 3.523,-0.957 3.405,-0.953 3.354,-0.859 3.038,-0.275 2.941,-0.141 2.834,0 2.41,0.321 2.41,0.321 c 0,0 0.02,0.14 -0.135,0.432 C 2.128,1.042 1.696,1.608 1.571,1.884 1.444,2.165 1.435,3.228 1.39,3.657 1.349,4.094 1.113,4.383 0.998,5.37 0.885,6.372 0.743,8.859 0.738,9.324 c 0,0.466 -0.035,1.167 0.158,1.472 0.181,0.313 0.288,0.818 0.265,1.175 -0.022,0.349 -0.054,1.32 -0.095,2.05 -0.054,0.709 -0.108,3.067 -0.116,3.377 0,0.304 0.014,0.718 0.143,1.207 0.122,0.486 0.391,1.512 0.617,2.173 0.232,0.658 0.432,1.749 0.432,2.118 -0.009,0.369 -0.014,0.894 0.22,1.308 0.229,0.401 0.39,1.275 0.727,1.78 0.325,0.502 0.616,1.705 0.725,2.278 0.094,0.558 -0.542,1.774 -0.722,2.123 -0.165,0.348 -0.467,0.91 -0.467,0.91 0.278,0.156 0.141,0.766 0.141,0.766 0.108,0.096 0.781,1.139 0.781,1.139 0.229,0.154 0.417,0.679 0.417,0.679 0,0 0.356,0.289 0.41,0.456 0.062,0.169 0.589,0.916 0.829,1.125 0.242,0.215 0.533,0.502 0.975,1.153 0.439,0.649 1.632,2.053 2.3,3.315 0.679,1.256 2.432,4.17 2.868,5.198 0.44,1.043 1.161,2.387 1.237,2.577 0.073,0.189 0.115,0.074 0.339,0.268 0.223,0.197 0.234,0.357 0.234,0.357 0,0 0.148,0.015 0.299,0.124 0.151,0.106 0.167,0.248 0.167,0.248 0,0 0.1,0.076 0.275,0.169 0.172,0.085 0.288,0.065 0.539,0.108 0.255,0.038 1.329,0.018 1.803,0.1 0.486,0.075 2.298,0.269 2.625,0.346 0.328,0.076 0.529,0.05 0.788,-0.089 0.258,-0.133 0.574,-0.337 0.97,-0.268 0.401,0.059 0.692,0.226 0.692,0.226 0.102,-0.12 0.673,-0.301 0.845,-0.031 0.167,0.26 -0.067,0.477 -0.067,0.477 0,0 -0.227,0.437 -0.351,0.534 -0.131,0.101 -0.486,0.569 -0.599,0.709 -0.116,0.144 -0.515,0.094 -0.515,0.094 0,0 -0.652,0.31 -0.964,0.49 -0.321,0.182 -1.39,0.784 -1.683,0.991 -0.294,0.202 -0.871,0.66 -1.006,0.815 -0.133,0.156 -0.231,0.458 -0.732,0.613 -0.495,0.149 -0.862,0.014 -0.862,0.014 -0.075,0.06 -0.932,0.78 -0.932,0.78 0.009,0.172 -0.179,0.638 -0.179,0.638 -0.127,-0.008 -0.324,-0.02 -0.324,-0.02 0,0 -0.207,0.467 -0.43,0.661 -0.232,0.2 -0.935,0.404 -1.017,0.391 -0.088,-0.015 -0.037,-0.185 -0.037,-0.185 -0.118,-0.02 -0.194,-0.114 -0.073,-0.408 0.11,-0.3 0.491,-0.589 0.585,-0.729 0.087,-0.151 0.11,-0.501 0.11,-0.501 -0.266,-0.237 -0.91,-1.053 -0.91,-1.053 0,0 -0.181,0.164 -0.534,0.091 l -0.282,-0.226 c 0,0 -0.237,0 -0.371,-0.046 L 11.042,53.3 c 0,0 -0.178,0.03 -0.358,-0.068 l 0.105,-0.086 -0.249,-0.062 0.122,-0.082 -0.184,-0.031 0.116,-0.061 c 0,0 -0.15,-0.094 -0.376,-0.056 l 0.014,-0.074 -0.224,0.064 0.043,-0.118 c 0,0 -0.229,0.059 -0.377,-0.065 L 9.805,52.642 9.615,52.537 9.701,52.49 c 0,0 -0.237,-0.082 -0.382,-0.141 L 9.401,52.263 9.2,52.214 9.251,52.141 9.087,52.112 9.447,51.996 8.912,52.008 8.933,51.876 8.769,51.848 8.822,51.754 c 0,0 -0.226,-0.041 -0.446,-0.131 L 8.46,51.542 8.268,51.509 8.319,51.455 8.246,51.39 c 0,0 0.423,-0.059 0.525,-0.168 0,0 -0.531,0.085 -0.646,0.064 L 8.333,51.185 8.118,51.149 8.169,51.033 8.042,51.02 8.039,50.896 7.845,50.884 7.98,50.728 7.807,50.74 7.847,50.633 7.726,50.612 c 0,0 0.194,-0.132 0.381,-0.113 0,0 -0.181,-0.052 -0.404,-0.017 L 7.898,50.361 H 7.66 L 7.78,50.287 7.657,50.278 7.794,50.206 c 0,0 -0.21,-0.017 -0.32,-0.107 L 7.547,50.027 7.387,49.98 7.508,49.905 7.315,49.871 c 0,0 0.232,-0.121 0.406,-0.128 -0.115,10e-4 -0.422,-0.009 -0.603,0.034 L 7.274,49.627 7.027,49.61 7.161,49.532 6.917,49.51 c 0,0 0.43,-0.132 0.543,-0.09 0,0 -0.175,-0.085 -0.486,-0.035 0,0 0.198,-0.131 0.344,-0.106 0,0 -0.222,-0.072 -0.448,-0.036 L 6.932,49.151 6.793,49.093 6.951,49.04 6.644,48.993 6.768,48.893 6.55,48.902 c 0,0 0.252,-0.097 0.305,-0.173 0,0 -0.257,-0.078 -0.338,-0.016 L 6.598,48.651 6.364,48.624 6.493,48.57 6.231,48.514 6.38,48.414 c 0,0 -0.089,0.009 -0.211,-0.035 L 6.242,48.333 6.081,48.289 6.4,48.181 c 0,0 -0.319,-0.012 -0.41,-0.104 L 6.169,48.005 5.968,47.958 6.1,47.838 c 0,0 -0.157,-0.027 -0.372,-0.097 L 5.827,47.653 5.62,47.626 5.739,47.556 5.462,47.535 5.561,47.35 H 5.303 l 0.054,-0.093 c 0,0 -0.121,-0.039 -0.203,-0.16 L 5.499,47.085 5.141,46.927 5.363,46.884 5.01,46.83 5.063,46.758 4.891,46.75 4.985,46.607 4.804,46.618 4.872,46.513 4.697,46.424 4.767,46.373 4.629,46.296 c 0,0 0.119,-0.163 0.324,-0.128 0,0 -0.205,-0.152 -0.412,-0.044 l 0.076,-0.11 -0.279,-0.005 0.059,-0.074 -0.26,0.023 0.059,-0.092 -0.143,-0.059 0.135,-0.035 -0.207,-0.016 0.17,-0.097 c 0,0 -0.133,0.003 -0.246,-0.094 L 4.18,45.489 3.837,45.431 3.967,45.36 3.747,45.275 c 0,0 0.352,-0.079 0.365,-0.149 0,0 -0.414,0.048 -0.565,-0.051 l 0.2,-0.07 -0.294,-0.01 0.142,-0.078 -0.193,-0.034 0.107,-0.115 c 0,0 -0.234,-0.019 -0.307,-0.07 L 3.53,44.634 3.145,44.555 3.323,44.505 c 0,0 -0.258,0.008 -0.339,-0.039 l 0.121,-0.08 -0.189,-0.014 0.057,-0.107 -0.178,-0.071 0.189,-0.09 c 0,0 -0.308,-0.045 -0.407,-0.139 L 2.863,43.973 2.602,43.868 2.777,43.825 2.51,43.758 2.656,43.661 c 0,0 -0.373,0.037 -0.483,-0.078 l 0.184,-0.052 -0.283,-0.07 0.153,-0.054 -0.308,-0.064 0.147,-0.1 c 0,0 -0.189,-0.005 -0.385,-0.14 L 1.99,43.06 1.64,42.982 1.777,42.94 c 0,0 -0.18,-0.042 -0.304,-0.085 l 0.169,-0.113 c 0,0 -0.144,-0.025 -0.331,-0.056 L 1.424,42.61 c 0,0 -0.161,-0.024 -0.328,-0.071 L 1.238,42.461 0.969,42.403 1.08,42.301 c 0,0 -0.111,-0.123 -0.362,-0.062 0,0 0.087,-0.089 0.195,-0.134 0.081,-0.002 0.14,-0.009 0.14,-0.009 -0.046,-0.008 -0.097,0 -0.14,0.009 -0.145,0.022 -0.41,0.035 -0.616,-0.017 L 0.495,41.967 H 0.252 L 0.374,41.906 0.108,41.823 0.274,41.75 c 0,0 -0.522,0.012 -0.624,-0.098 l 0.167,-0.118 -0.249,-0.018 0.16,-0.091 c 0,0 -0.211,-0.129 -0.383,-0.107 l 0.172,-0.13 -0.311,0.073 0.04,-0.119 -0.192,0.015 0.014,-0.079 c 0,0 -0.232,0.059 -0.367,-0.022 l 0.203,-0.14 c 0,0 -0.226,0.043 -0.41,-0.008 l 0.116,-0.159 -0.248,0.054 0.113,-0.132 c 0,0 -0.167,0.046 -0.283,0.006 l 0.079,-0.089 -0.218,0.044 0.04,-0.128 -0.248,0.059 0.041,-0.13 -0.154,0.028 c 0,0 0.084,-0.202 0.211,-0.194 0,0 -0.104,-0.038 -0.364,0.092 l 0.031,-0.128 -0.306,0.122 0.043,-0.115 -0.194,-0.004 0.044,-0.095 c 0,0 -0.342,0.096 -0.472,0.082 0,0 0.248,-0.177 0.302,-0.25 l -0.216,0.024 0.154,-0.137 -0.316,0.089 0.031,-0.17 -0.211,0.097 c 0,0 0.149,-0.221 0.332,-0.296 0,0 -0.463,0.043 -0.749,0.315 0,0 0.069,-0.248 0.371,-0.372 0,0 -0.458,0.046 -0.662,0.24 0,0 0.164,-0.321 0.124,-0.488 l -0.127,0.155 0.049,-0.284 -0.221,0.239 0.054,-0.269 c 0,0 -0.208,0.181 -0.353,0.155 l 0.076,-0.161 -0.273,0.075 0.022,-0.118 c 0,0 -0.138,0.037 -0.283,0.016 l 0.065,-0.265 -0.353,0.199 0.138,-0.298 -0.33,0.241 0.065,-0.204 -0.24,0.122 c 0,0 0.152,-0.253 0.101,-0.541 l -0.195,0.246 0.04,-0.237 -0.133,0.165 0.029,-0.182 c 0,0 -0.294,0.218 -0.377,0.225 l 0.069,-0.165 -0.236,0.135 0.051,-0.186 -0.118,0.073 0.023,-0.151 -0.161,-0.04 c 0,0 0.03,-0.078 0.07,-0.407 l -0.234,0.232 0.053,-0.302 -0.155,0.156 c 0,0 0.069,-0.132 0.069,-0.295 0,0 -0.242,0.298 -0.349,0.279 l 0.023,-0.232 -0.193,0.13 0.032,-0.192 -0.15,0.114 c 0,0 0.15,-0.107 0.175,-0.454 0,0 -0.147,0.172 -0.262,0.198 l 0.065,-0.318 -0.24,0.118 0.033,-0.175 -0.209,0.177 c 0,0 -0.017,-0.209 -0.169,-0.326 -0.145,-0.116 -0.927,-0.789 -1.342,-0.941 -0.422,-0.158 -1.747,-0.924 -2.93,-1.131 -0.371,-0.065 -0.845,-0.167 -1.349,-0.287 -0.251,1.131 -0.751,2.639 -0.802,2.992 0.014,0.551 0.019,1.103 0.019,1.647 0,0.161 0.006,0.317 0.018,0.474 0.259,0.797 0.542,1.582 0.734,2.411 0.182,0.795 0.384,1.585 0.675,2.321 0.232,0.278 0.396,0.616 0.585,0.945 0.182,0.312 0.39,0.595 0.603,0.87 0.248,0.253 0.497,0.498 0.746,0.731 0.544,0.514 1.099,1.011 1.65,1.506 0.437,0.339 0.868,0.681 1.274,1.054 0.548,0.308 0.997,0.928 1.427,1.53 0.286,0.307 0.569,0.622 0.841,0.953 0.304,0.366 0.589,0.749 0.868,1.141 0.568,0.72 1.082,1.498 1.478,2.367 0.816,1.449 1.551,2.979 2.3,4.488 0.272,0.372 0.503,0.783 0.713,1.211 0.055,0.044 0.095,0.105 0.116,0.188 0.008,0.034 0.016,0.067 0.025,0.101 0.005,0.014 0.011,0.026 0.019,0.041 0.139,0.229 0.277,0.459 0.419,0.682 0.588,0.92 1.081,1.946 1.598,2.949 0.566,0.845 1.19,1.685 1.885,2.407 0.407,0.326 0.837,0.623 1.221,0.998 0.02,0.021 0.029,0.047 0.029,0.071 0.008,-0.003 0.019,-0.006 0.03,-0.001 0.64,0.154 1.206,0.569 1.863,0.639 0.608,0.065 1.22,0.072 1.825,0.169 1.258,0.203 2.538,0.922 3.65,1.679 0.097,0.047 0.196,0.097 0.294,0.141 0.046,0.02 0.088,0.039 0.134,0.058 0.119,0.038 0.234,0.078 0.353,0.117 0.8,0.097 1.597,0.326 2.396,0.15 0.413,-0.091 0.803,-0.248 1.186,-0.424 0.611,-0.301 1.218,-0.629 1.823,-0.935 0.203,-0.109 0.407,-0.208 0.622,-0.302 1.309,-0.619 2.659,-1.466 4.067,-1.639 0.092,-0.01 0.106,0.157 0.022,0.19 -0.232,0.095 -0.466,0.183 -0.701,0.271 0.943,-0.159 1.875,-0.063 2.678,0.622 0.404,0.206 0.797,0.454 1.182,0.729 0.35,-0.082 0.757,-0.12 1.013,0.085 0.128,0.1 -0.23,0.315 -0.386,0.382 0.237,0.184 0.472,0.374 0.709,0.565 0.418,-0.037 0.831,0.037 1.184,0.309 0.108,0.082 -0.164,0.281 -0.353,0.365 0.107,0.085 0.211,0.167 0.316,0.249 0.094,0.013 0.186,0.035 0.275,0.063 0.056,0.016 0.024,0.08 -0.014,0.132 0.213,0.159 0.429,0.311 0.649,0.455 0.237,0.085 0.466,0.221 0.673,0.406 0.214,0.118 0.434,0.227 0.658,0.323 0.294,0.122 0.201,0.652 -0.091,0.603 0.274,0.178 0.521,0.428 0.74,0.746 0.806,0.096 1.564,0.45 1.888,1.312 0.011,0.027 0.003,0.058 -0.019,0.087 0.379,0.147 0.678,0.489 0.737,1.084 0.014,0.132 -0.33,0.36 -0.412,0.272 -0.489,-0.534 -0.913,-1.358 -1.67,-0.952 -0.198,0.107 -0.401,0.053 -0.139,-0.149 0.21,-0.158 0.466,-0.267 0.727,-0.313 -0.247,-0.21 -0.495,-0.404 -0.767,-0.565 -0.008,0.013 -0.019,0.024 -0.03,0.035 -0.009,0.074 -0.014,0.145 -0.017,0.221 -0.004,0.103 -0.32,0.26 -0.325,0.148 -0.003,-0.068 -0.011,-0.132 -0.02,-0.198 -0.02,-0.003 -0.042,-0.011 -0.053,-0.028 -0.126,-0.177 -0.258,-0.343 -0.393,-0.496 0.022,0.074 0.04,0.148 0.056,0.226 0.011,0.054 -0.04,0.121 -0.11,0.179 0.04,0.045 0.081,0.089 0.118,0.138 0.148,0.068 0.291,0.157 0.421,0.27 0.108,0.092 -0.203,0.295 -0.387,0.349 0.034,0.044 0.071,0.086 0.11,0.133 0.054,0.072 -0.33,0.355 -0.415,0.271 -0.098,-0.102 -0.2,-0.193 -0.305,-0.28 -0.04,0.046 -0.099,0.094 -0.161,0.135 0.019,0.144 0.022,0.304 0.003,0.484 -0.012,0.097 -0.218,0.26 -0.37,0.301 0.105,0.253 0.186,0.526 0.229,0.82 0.025,0.152 -0.419,0.398 -0.461,0.269 -0.147,-0.463 -0.362,-0.877 -0.627,-1.219 -0.065,0.018 -0.116,0.023 -0.142,0.012 -0.175,-0.074 -0.378,-0.189 -0.596,-0.315 -0.026,-0.001 -0.048,-0.008 -0.062,-0.025 -0.005,-0.006 -0.014,-0.014 -0.019,-0.022 -0.029,-0.017 -0.066,-0.036 -0.099,-0.056 -0.024,-0.006 -0.049,-0.011 -0.073,-0.015 -0.17,-0.023 -0.329,-0.014 -0.482,0.015 0,0.009 0.003,0.02 0.003,0.029 0.164,0.227 0.305,0.478 0.412,0.746 0.054,0.13 -0.383,0.394 -0.46,0.271 -0.071,-0.112 -0.152,-0.226 -0.24,-0.339 -0.008,0.004 -0.017,0.008 -0.025,0.013 0.073,0.085 0.143,0.179 0.208,0.283 0.057,0.093 -0.327,0.331 -0.404,0.264 -0.251,-0.211 -0.496,-0.396 -0.746,-0.545 -0.025,0.013 -0.044,0.025 -0.067,0.037 -0.095,0.072 -0.221,0.127 -0.262,0.086 0,-0.002 0,-0.004 -0.003,-0.004 -0.01,-0.002 -0.024,-0.006 -0.029,-0.009 -0.407,-0.255 -0.803,-0.395 -1.198,-0.434 0.139,0.097 0.274,0.198 0.404,0.317 0.07,0.064 -0.046,0.191 -0.192,0.283 h 0.003 c 0.551,-0.093 1.107,0.079 1.641,0.304 0.416,-0.04 0.831,0.066 1.154,0.427 0.095,0.102 -0.402,0.34 -0.484,0.318 -0.133,-0.038 -0.262,-0.08 -0.388,-0.118 -0.084,0.043 -0.16,0.065 -0.211,0.049 -0.161,-0.058 -0.322,-0.115 -0.486,-0.17 -0.071,0.033 -0.133,0.047 -0.165,0.029 -0.022,-0.013 -0.044,-0.025 -0.064,-0.036 -0.127,0.017 -0.257,0.053 -0.39,0.119 -0.316,0.156 -0.225,-0.113 -0.012,-0.244 0.018,-0.013 0.04,-0.024 0.065,-0.036 -0.005,-0.003 -0.011,-0.005 -0.016,-0.007 -0.057,-0.015 -0.116,-0.032 -0.175,-0.047 -0.251,-0.059 -0.529,-0.058 -0.779,-0.135 -0.046,0.018 -0.083,0.026 -0.105,0.021 -0.351,-0.077 -0.681,-0.147 -1.01,-0.178 0,0.003 -0.002,0.007 -0.005,0.008 0.11,0.019 0.218,0.042 0.328,0.077 0.087,0.028 -0.274,0.301 -0.363,0.293 -0.386,-0.031 -0.759,0.002 -1.135,0.062 -0.05,0.038 -0.107,0.073 -0.166,0.097 0.064,0.032 0.127,0.073 0.186,0.123 0.314,-0.147 0.827,-0.298 1.257,-0.243 0.038,-0.035 0.084,-0.062 0.1,-0.07 0.175,-0.098 0.417,-0.18 0.606,-0.101 0.051,0.022 -0.036,0.108 -0.045,0.117 -0.059,0.056 -0.13,0.092 -0.203,0.109 -0.056,0.013 -0.116,0.017 -0.169,0.022 0.124,0.055 0.234,0.136 0.318,0.256 0.075,0.108 -0.205,0.285 -0.401,0.368 0.043,0.017 0.085,0.039 0.128,0.063 0.401,0.013 0.787,0.126 1.102,0.363 0.321,-0.187 0.667,-0.319 0.997,-0.369 0.07,-0.012 0.169,0.011 0.105,0.119 -0.087,0.153 -0.26,0.236 -0.402,0.289 -0.256,0.097 -0.495,0.192 -0.732,0.316 -0.027,0.018 -0.056,0.034 -0.084,0.048 -0.054,0.028 -0.105,0.058 -0.159,0.092 0.184,0.064 0.353,0.15 0.504,0.27 0.14,-0.048 0.282,-0.089 0.423,-0.121 0.582,-0.135 1.834,-0.092 2.122,0.685 0.054,0.147 -0.327,0.291 -0.404,0.266 -0.426,-0.127 -0.889,-0.342 -1.347,-0.453 0.13,0.082 0.251,0.187 0.361,0.323 0.057,0.07 -0.302,0.31 -0.382,0.251 -0.149,-0.104 -0.293,-0.189 -0.44,-0.259 -0.15,0.139 -0.438,0.271 -0.517,0.208 -0.136,-0.109 -0.28,-0.206 -0.419,-0.291 -0.067,0.055 -0.132,0.112 -0.194,0.183 -0.022,0.024 -0.122,0.077 -0.204,0.11 0.19,0.085 0.368,0.2 0.46,0.377 0.051,0.103 -0.227,0.24 -0.327,0.256 0.156,0.035 0.311,0.084 0.447,0.157 0.113,0.06 -0.311,0.329 -0.396,0.321 0,0 -0.008,-0.001 -0.012,-0.001 0.029,0.075 0.057,0.154 0.072,0.236 0.03,0.119 -0.306,0.322 -0.377,0.249 -0.175,-0.183 -0.347,-0.381 -0.525,-0.566 -0.029,-0.001 -0.057,-0.001 -0.087,-0.003 0.033,0.044 0.068,0.087 0.101,0.13 0.133,0.186 -0.105,0.062 -0.162,-0.006 -0.038,-0.044 -0.081,-0.084 -0.121,-0.125 -0.157,0.004 -0.313,0.016 -0.466,0.047 0.35,0.144 0.678,0.346 0.947,0.637 0.076,0.082 0.098,0.201 -0.023,0.103 -0.195,-0.155 -0.455,-0.241 -0.728,-0.289 0.178,0.244 0.329,0.517 0.437,0.82 0.056,0.085 0.11,0.177 0.153,0.277 0.04,0.094 -0.003,0.09 -0.059,0.056 0.011,0.053 0.027,0.108 0.035,0.163 0.01,0.067 -0.242,-0.114 -0.264,-0.198 -0.027,-0.096 -0.06,-0.188 -0.094,-0.281 -0.11,-0.099 -0.237,-0.171 -0.378,-0.223 0.028,0.067 0.051,0.136 0.07,0.205 0.416,0.272 0.661,0.704 0.467,1.329 -0.017,0.064 -0.21,-0.13 -0.213,-0.195 0,-0.22 -0.033,-0.465 -0.14,-0.632 0.062,0.399 0.062,0.807 -0.011,1.192 0.044,0.195 0.035,0.409 -0.043,0.632 -0.025,0.067 -0.184,-0.13 -0.189,-0.173 -0.113,-0.623 -0.218,-1.01 -0.778,-1.055 -0.014,-0.002 -0.027,-0.002 -0.04,-0.002 0.057,0.049 0.116,0.101 0.175,0.157 0.439,0.421 0.63,1 0.546,1.617 0.031,0.181 0.043,0.363 0.04,0.545 0.093,0.124 0.16,0.264 0.192,0.424 0.029,0.165 -0.261,-0.124 -0.291,-0.194 -0.099,-0.233 -0.312,-0.362 -0.557,-0.427 -0.022,0.005 -0.041,0.007 -0.062,0.01 -0.022,0.003 -0.065,-0.015 -0.113,-0.045 -0.144,-0.022 -0.288,-0.026 -0.426,-0.022 0.274,0.173 0.52,0.41 0.684,0.725 0.076,0.073 0.149,0.15 0.216,0.237 0.131,0.161 0.018,0.166 -0.087,0.079 0.031,0.131 -0.291,-0.141 -0.325,-0.227 -0.381,-0.177 -0.825,-0.148 -1.207,-0.045 -0.002,0 -0.002,0.001 -0.005,0.001 0.433,0.151 0.87,0.468 1.141,0.917 0.017,0.013 0.035,0.024 0.052,0.038 0.04,0.032 0.237,0.315 0.075,0.233 -0.449,-0.229 -1.045,-0.2 -1.519,-0.132 -0.08,0.013 -0.164,0.027 -0.247,0.041 0.223,0.193 0.425,0.419 0.597,0.683 0.087,0.133 0.037,0.143 -0.034,0.112 0.04,0.14 -0.214,-0.07 -0.249,-0.12 -0.217,-0.31 -0.7,-0.33 -1.056,-0.265 0.299,0.234 0.561,0.565 0.666,0.971 0.04,0.16 -0.277,-0.124 -0.313,-0.208 -0.142,-0.354 -0.436,-0.568 -0.754,-0.615 -0.015,0.009 -0.035,0.024 -0.054,0.036 0.197,0.166 0.364,0.383 0.466,0.653 0.057,0.15 -0.266,-0.116 -0.299,-0.172 -0.128,-0.221 -0.288,-0.29 -0.461,-0.294 -0.012,0.006 -0.026,0.01 -0.04,0.014 0.278,0.242 0.478,0.525 0.435,0.817 -0.014,0.089 -0.175,-0.085 -0.189,-0.107 -0.2,-0.282 -0.444,-0.492 -0.717,-0.642 -0.097,0.021 -0.19,0.033 -0.283,0.03 0.175,0.194 0.288,0.434 0.305,0.717 0.011,0.11 -0.269,-0.158 -0.291,-0.22 -0.226,-0.595 -1.012,-0.652 -1.605,-0.583 -0.014,0.019 -0.037,0.024 -0.088,0.009 -0.073,0.011 -0.146,0.023 -0.211,0.035 0.038,0.073 0.051,0.143 -0.011,0.157 -0.069,0.017 -0.148,-0.029 -0.221,-0.087 -0.057,0.039 -0.11,0.077 -0.172,0.104 0.271,0.117 0.533,0.269 0.784,0.457 0.072,0.053 0.28,0.352 0.075,0.23 -0.363,-0.217 -0.761,-0.38 -1.168,-0.45 0.306,0.127 0.608,0.272 0.904,0.436 0.065,0.038 0.348,0.381 0.156,0.302 -0.136,-0.058 -0.274,-0.114 -0.412,-0.171 0.169,0.113 0.332,0.246 0.482,0.404 0.181,0.19 0.102,0.307 -0.086,0.125 -0.58,-0.568 -1.605,-0.68 -2.318,-0.56 -0.033,0.005 -0.068,0.013 -0.102,0.02 0.198,0.16 0.379,0.333 0.535,0.496 0.151,0.159 0.089,0.25 -0.071,0.105 -0.255,-0.236 -0.509,-0.407 -0.769,-0.529 -0.051,0.014 -0.102,0.025 -0.156,0.044 0.179,0.098 0.354,0.209 0.521,0.335 0.076,0.056 0.217,0.319 0.039,0.197 -0.254,-0.171 -0.528,-0.307 -0.811,-0.414 -0.04,0.026 -0.081,0.052 -0.118,0.083 -0.065,0.048 -0.116,0.107 -0.167,0.168 0.013,0.031 0.026,0.062 0.037,0.093 0.189,0.14 0.364,0.289 0.517,0.444 0.127,0.132 0.152,0.337 -0.04,0.166 -0.105,-0.092 -0.215,-0.174 -0.331,-0.248 -0.014,-0.003 -0.03,-0.009 -0.048,-0.019 0.012,0.056 0.026,0.108 0.037,0.165 0.003,0.013 -0.008,0.013 -0.025,0.01 0.06,0.08 0.116,0.162 0.164,0.252 0.109,0.191 -0.201,-0.028 -0.241,-0.089 -0.03,-0.043 -0.062,-0.083 -0.098,-0.124 0.011,0.027 0.019,0.051 0.028,0.079 0.07,0.111 0.135,0.228 0.183,0.359 0.008,0.03 0.003,0.04 -0.011,0.04 0.105,0.132 0,0.13 -0.09,0.048 -0.015,-0.014 -0.031,-0.023 -0.051,-0.038 -0.008,0.093 -0.026,0.191 -0.059,0.295 -0.018,0.06 -0.212,-0.132 -0.212,-0.194 0,-0.098 -0.009,-0.198 -0.025,-0.294 -0.007,-0.006 -0.015,-0.013 -0.024,-0.019 -0.019,-0.01 -0.037,-0.017 -0.056,-0.026 0.022,0.302 0.008,0.607 -0.046,0.896 0.04,0.197 0.035,0.41 -0.046,0.632 -0.021,0.067 -0.18,-0.129 -0.185,-0.171 -0.111,-0.625 -0.218,-1.011 -0.782,-1.055 -0.012,-0.001 -0.026,-0.001 -0.04,-0.002 0.059,0.047 0.119,0.099 0.178,0.156 0.436,0.419 0.63,0.999 0.543,1.616 0.03,0.183 0.047,0.365 0.044,0.545 0.091,0.124 0.159,0.266 0.188,0.425 0.036,0.162 -0.261,-0.123 -0.291,-0.193 -0.097,-0.234 -0.312,-0.364 -0.557,-0.428 -0.018,0.004 -0.04,0.006 -0.06,0.01 -0.023,0.003 -0.064,-0.016 -0.113,-0.045 -0.142,-0.022 -0.288,-0.026 -0.424,-0.023 0.274,0.173 0.52,0.412 0.684,0.726 0.074,0.072 0.144,0.149 0.215,0.237 0.129,0.161 0.016,0.165 -0.087,0.078 0.03,0.132 -0.291,-0.139 -0.326,-0.228 -0.379,-0.176 -0.824,-0.147 -1.209,-0.044 l -0.003,0.001 c 0.432,0.151 0.87,0.469 1.142,0.917 0.017,0.014 0.036,0.024 0.048,0.038 0.045,0.035 0.24,0.316 0.076,0.233 -0.449,-0.229 -1.045,-0.198 -1.515,-0.131 -0.047,0.007 -0.09,0.014 -0.133,0.02 0.021,0.058 0.04,0.117 0.051,0.177 0.159,0.157 0.302,0.332 0.429,0.526 0.086,0.132 0.04,0.144 -0.033,0.112 0.04,0.141 -0.212,-0.07 -0.248,-0.118 C 10.167,96.774 10.037,96.699 9.89,96.653 9.782,96.715 9.666,96.747 9.615,96.71 9.571,96.677 9.528,96.642 9.488,96.605 c -0.1,10e-4 -0.2,0.012 -0.291,0.029 0.302,0.233 0.566,0.566 0.668,0.97 C 9.905,97.764 9.588,97.48 9.553,97.396 9.412,97.042 9.116,96.829 8.799,96.781 8.782,96.792 8.763,96.804 8.745,96.817 8.941,96.984 9.108,97.201 9.211,97.469 9.27,97.62 8.946,97.355 8.912,97.299 8.782,97.077 8.624,97.01 8.451,97.005 8.44,97.01 8.427,97.015 8.413,97.019 8.689,97.26 8.887,97.543 8.844,97.838 8.831,97.924 8.672,97.752 8.655,97.728 8.457,97.446 8.211,97.236 7.943,97.088 7.845,97.107 7.748,97.122 7.657,97.116 7.832,97.313 7.945,97.55 7.963,97.834 7.971,97.944 7.694,97.675 7.669,97.614 7.443,97.018 6.66,96.961 6.065,97.03 c -0.01,0.02 -0.041,0.026 -0.089,0.011 -0.073,0.011 -0.143,0.021 -0.209,0.033 0.037,0.073 0.053,0.145 -0.011,0.158 -0.071,0.016 -0.149,-0.028 -0.221,-0.089 -0.057,0.041 -0.113,0.078 -0.172,0.105 0.271,0.117 0.532,0.27 0.783,0.457 0.073,0.055 0.282,0.354 0.076,0.23 -0.364,-0.217 -0.763,-0.378 -1.167,-0.448 0.305,0.125 0.605,0.272 0.902,0.435 0.067,0.036 0.35,0.382 0.156,0.301 -0.137,-0.056 -0.272,-0.114 -0.414,-0.168 0.172,0.113 0.336,0.244 0.484,0.401 0.181,0.189 0.102,0.308 -0.083,0.125 -0.582,-0.568 -1.607,-0.68 -2.322,-0.559 -0.031,0.005 -0.067,0.013 -0.102,0.019 0.199,0.162 0.382,0.333 0.537,0.497 0.153,0.159 0.085,0.249 -0.071,0.104 C 3.886,98.406 3.633,98.235 3.371,98.114 3.32,98.129 3.267,98.14 3.218,98.159 c 0.178,0.097 0.353,0.207 0.523,0.335 0.074,0.055 0.212,0.318 0.035,0.196 -0.25,-0.172 -0.526,-0.308 -0.809,-0.413 -0.042,0.024 -0.082,0.05 -0.121,0.082 -0.074,0.06 -0.139,0.132 -0.201,0.208 0.218,0.154 0.418,0.32 0.59,0.498 0.125,0.13 0.15,0.336 -0.041,0.164 -0.205,-0.18 -0.436,-0.323 -0.682,-0.439 0.187,0.171 0.353,0.368 0.48,0.599 C 3.1,99.581 2.79,99.36 2.75,99.3 2.688,99.21 2.612,99.125 2.529,99.049 2.665,99.213 2.784,99.4 2.863,99.614 2.874,99.643 2.865,99.655 2.852,99.655 2.956,99.787 2.849,99.784 2.766,99.703 2.701,99.644 2.631,99.593 2.558,99.544 2.54,99.568 2.445,99.498 2.391,99.451 1.904,99.205 1.28,99.151 0.8,99.189 c -0.277,0.023 -0.557,0.168 -0.83,0.25 0.121,0.185 0.189,0.376 0.162,0.564 -0.016,0.101 -0.202,-0.114 -0.222,-0.145 -0.071,-0.133 -0.155,-0.252 -0.241,-0.365 -0.022,0 -0.047,0.004 -0.067,0.001 -0.096,-0.005 -0.251,-0.169 -0.263,-0.285 -0.005,-0.028 -0.002,-0.055 0,-0.081 -0.257,-0.241 -0.548,-0.419 -0.856,-0.548 -0.005,0.051 -0.015,0.105 -0.04,0.158 -0.059,0.137 -0.317,-0.126 -0.452,-0.326 -0.243,-0.062 -0.494,-0.103 -0.743,-0.123 -0.009,0.002 -0.02,0.003 -0.031,0.006 0,0.017 -0.005,0.025 -0.029,0.017 -0.008,-0.003 -0.016,-0.007 -0.022,-0.008 -0.023,0.004 -0.048,0.008 -0.073,0.012 0.618,0.181 1.212,0.606 1.663,1.063 0.162,0.165 0.091,0.264 -0.073,0.109 -0.426,-0.396 -0.884,-0.613 -1.365,-0.717 0.051,0.105 0.099,0.212 0.142,0.317 0.121,0.299 -0.489,-0.182 -0.541,-0.259 -0.033,-0.046 -0.067,-0.086 -0.103,-0.128 -0.113,-0.006 -0.223,-0.011 -0.339,-0.009 0.181,0.229 0.324,0.489 0.415,0.786 0.043,0.14 -0.234,-0.095 -0.263,-0.152 -0.119,-0.238 -0.268,-0.447 -0.438,-0.625 -0.023,0.003 -0.045,0.003 -0.07,0.006 -0.077,0.005 -0.314,-0.223 -0.311,-0.314 -0.138,-0.085 -0.283,-0.147 -0.435,-0.189 0.327,0.31 0.604,0.674 0.855,1.053 0.134,0.105 0.244,0.232 0.306,0.398 0.011,0.027 -0.005,0.052 -0.021,0.078 0.038,0.067 0.086,0.13 0.12,0.199 0.133,0.271 -0.131,0.123 -0.333,-0.048 -0.072,0.028 -0.139,0.045 -0.17,0.036 -0.074,-0.023 -0.158,-0.057 -0.24,-0.085 0.071,0.12 0.152,0.229 0.217,0.353 0.063,0.132 -0.155,-0.031 -0.181,-0.085 -0.062,-0.116 -0.149,-0.219 -0.218,-0.333 -0.305,-0.11 -0.612,-0.227 -0.924,-0.303 0.129,0.083 0.25,0.188 0.36,0.324 0.057,0.07 -0.3,0.309 -0.382,0.25 -0.147,-0.104 -0.293,-0.188 -0.438,-0.258 -0.152,0.138 -0.44,0.27 -0.517,0.207 -0.138,-0.109 -0.28,-0.206 -0.421,-0.291 -0.067,0.055 -0.132,0.112 -0.194,0.183 -0.021,0.024 -0.122,0.077 -0.204,0.111 0.191,0.084 0.368,0.199 0.46,0.377 0.051,0.102 -0.226,0.239 -0.325,0.255 0.156,0.036 0.309,0.084 0.447,0.157 0.113,0.06 -0.314,0.33 -0.396,0.322 -0.003,0 -0.008,-0.002 -0.014,-0.002 0.029,0.076 0.057,0.154 0.073,0.236 0.029,0.12 -0.307,0.322 -0.378,0.249 -0.175,-0.183 -0.347,-0.381 -0.525,-0.566 -0.029,-0.001 -0.057,-0.001 -0.086,-0.002 0.032,0.043 0.068,0.086 0.1,0.129 0.135,0.186 -0.105,0.062 -0.162,-0.005 -0.037,-0.045 -0.081,-0.085 -0.121,-0.126 -0.04,0.002 -0.084,0.011 -0.124,0.012 0.03,0.088 0.068,0.173 0.092,0.262 0.185,0.114 0.36,0.245 0.515,0.41 0.074,0.083 0.096,0.201 -0.025,0.103 -0.195,-0.155 -0.455,-0.241 -0.727,-0.288 0.178,0.243 0.328,0.517 0.436,0.82 0.056,0.085 0.11,0.176 0.153,0.276 0.041,0.094 -0.003,0.09 -0.059,0.056 0.011,0.053 0.027,0.108 0.035,0.163 0.011,0.068 -0.242,-0.114 -0.264,-0.198 -0.026,-0.095 -0.06,-0.188 -0.094,-0.281 -0.11,-0.098 -0.237,-0.171 -0.377,-0.222 0.027,0.066 0.052,0.136 0.069,0.204 0.416,0.272 0.661,0.705 0.467,1.329 -0.016,0.064 -0.21,-0.13 -0.213,-0.195 0,-0.219 -0.032,-0.464 -0.14,-0.631 0.062,0.398 0.062,0.806 -0.01,1.191 0.043,0.196 0.034,0.41 -0.044,0.632 -0.024,0.067 -0.182,-0.129 -0.188,-0.172 -0.113,-0.624 -0.219,-1.01 -0.779,-1.056 -0.014,-0.002 -0.026,-0.002 -0.04,-0.002 0.057,0.049 0.116,0.101 0.175,0.157 0.439,0.421 0.63,1 0.546,1.617 0.031,0.182 0.044,0.364 0.042,0.545 0.091,0.124 0.158,0.264 0.19,0.424 0.03,0.165 -0.261,-0.123 -0.291,-0.193 -0.099,-0.233 -0.312,-0.363 -0.557,-0.427 -0.022,0.004 -0.04,0.006 -0.062,0.009 -0.021,0.003 -0.065,-0.015 -0.113,-0.044 -0.142,-0.023 -0.288,-0.027 -0.425,-0.023 0.274,0.173 0.52,0.41 0.684,0.726 0.074,0.072 0.148,0.149 0.215,0.237 0.133,0.16 0.019,0.165 -0.087,0.078 0.031,0.132 -0.291,-0.14 -0.325,-0.227 -0.379,-0.177 -0.825,-0.148 -1.207,-0.045 -0.002,0 -0.002,0.001 -0.005,0.001 0.434,0.151 0.87,0.469 1.142,0.917 0.016,0.014 0.035,0.024 0.051,0.038 0.041,0.032 0.237,0.315 0.075,0.233 -0.449,-0.229 -1.045,-0.2 -1.518,-0.132 -0.081,0.013 -0.165,0.027 -0.248,0.042 0.223,0.192 0.425,0.418 0.597,0.682 0.087,0.134 0.039,0.143 -0.034,0.112 0.04,0.14 -0.213,-0.07 -0.249,-0.12 -0.217,-0.31 -0.699,-0.33 -1.054,-0.265 0.299,0.234 0.559,0.565 0.664,0.971 0.04,0.16 -0.277,-0.124 -0.311,-0.208 -0.144,-0.354 -0.438,-0.568 -0.755,-0.615 -0.016,0.009 -0.036,0.024 -0.053,0.036 0.195,0.166 0.362,0.383 0.466,0.653 0.056,0.15 -0.268,-0.115 -0.3,-0.172 -0.129,-0.221 -0.288,-0.289 -0.46,-0.293 -0.014,0.005 -0.028,0.009 -0.042,0.013 0.279,0.242 0.478,0.525 0.435,0.817 -0.014,0.089 -0.175,-0.084 -0.189,-0.107 -0.199,-0.282 -0.444,-0.492 -0.716,-0.641 -0.098,0.02 -0.191,0.032 -0.282,0.029 0.175,0.194 0.288,0.434 0.303,0.717 0.011,0.11 -0.269,-0.158 -0.291,-0.22 -0.226,-0.595 -1.012,-0.652 -1.605,-0.583 -0.013,0.019 -0.037,0.024 -0.088,0.01 -0.073,0.01 -0.147,0.022 -0.21,0.035 0.037,0.072 0.051,0.142 -0.011,0.156 -0.07,0.017 -0.149,-0.029 -0.221,-0.086 -0.056,0.039 -0.111,0.076 -0.172,0.103 0.272,0.117 0.532,0.27 0.783,0.457 0.073,0.054 0.28,0.353 0.076,0.23 -0.364,-0.217 -0.762,-0.38 -1.169,-0.45 0.307,0.127 0.608,0.272 0.904,0.437 0.065,0.037 0.348,0.381 0.156,0.301 -0.136,-0.058 -0.274,-0.114 -0.411,-0.171 0.17,0.113 0.331,0.247 0.482,0.404 0.18,0.19 0.102,0.307 -0.086,0.125 -0.579,-0.568 -1.605,-0.68 -2.319,-0.56 -0.032,0.006 -0.068,0.014 -0.102,0.02 0.198,0.161 0.379,0.333 0.536,0.496 0.15,0.159 0.088,0.25 -0.07,0.105 -0.257,-0.236 -0.509,-0.407 -0.771,-0.529 -0.051,0.015 -0.102,0.025 -0.156,0.044 0.181,0.099 0.356,0.209 0.523,0.336 0.074,0.055 0.215,0.319 0.037,0.196 -0.252,-0.171 -0.528,-0.307 -0.811,-0.413 -0.04,0.025 -0.08,0.051 -0.118,0.082 -0.065,0.048 -0.116,0.108 -0.167,0.168 0.013,0.031 0.027,0.062 0.038,0.093 0.188,0.14 0.363,0.29 0.517,0.445 0.126,0.131 0.151,0.336 -0.041,0.165 -0.105,-0.091 -0.215,-0.174 -0.331,-0.248 -0.014,-0.002 -0.029,-0.009 -0.048,-0.018 0.014,0.055 0.026,0.107 0.037,0.164 0.003,0.013 -0.008,0.013 -0.023,0.011 0.059,0.079 0.115,0.161 0.164,0.251 0.107,0.192 -0.203,-0.028 -0.243,-0.089 -0.029,-0.043 -0.062,-0.083 -0.096,-0.123 0.011,0.026 0.017,0.051 0.026,0.078 0.07,0.111 0.135,0.229 0.183,0.359 0.008,0.03 0.003,0.041 -0.011,0.041 0.105,0.132 0,0.129 -0.088,0.047 -0.017,-0.014 -0.033,-0.023 -0.051,-0.038 -0.008,0.093 -0.028,0.191 -0.059,0.295 -0.02,0.061 -0.214,-0.132 -0.214,-0.194 0,-0.098 -0.007,-0.198 -0.024,-0.293 -0.008,-0.007 -0.016,-0.014 -0.025,-0.019 -0.017,-0.011 -0.037,-0.018 -0.056,-0.027 0.022,0.303 0.008,0.607 -0.046,0.897 0.04,0.196 0.035,0.409 -0.045,0.631 -0.022,0.067 -0.181,-0.129 -0.186,-0.171 -0.11,-0.625 -0.218,-1.011 -0.781,-1.054 -0.013,-0.002 -0.027,-0.002 -0.041,-0.003 0.059,0.047 0.119,0.1 0.178,0.156 0.437,0.419 0.63,0.999 0.545,1.616 0.028,0.183 0.045,0.365 0.042,0.545 0.091,0.124 0.159,0.266 0.189,0.425 0.035,0.163 -0.262,-0.123 -0.291,-0.193 -0.096,-0.234 -0.313,-0.363 -0.557,-0.428 -0.019,0.004 -0.041,0.007 -0.059,0.011 -0.025,0.002 -0.065,-0.017 -0.113,-0.046 -0.144,-0.022 -0.288,-0.026 -0.426,-0.023 0.274,0.174 0.52,0.412 0.684,0.726 0.075,0.073 0.144,0.149 0.215,0.237 0.129,0.161 0.016,0.165 -0.086,0.078 0.029,0.132 -0.291,-0.139 -0.327,-0.228 -0.379,-0.176 -0.823,-0.146 -1.209,-0.044 l -0.001,10e-4 c 0.43,0.151 0.868,0.469 1.141,0.917 0.016,0.014 0.035,0.024 0.049,0.038 0.042,0.035 0.24,0.316 0.076,0.233 -0.451,-0.229 -1.046,-0.198 -1.517,-0.131 -0.046,0.007 -0.09,0.014 -0.133,0.021 0.023,0.057 0.04,0.117 0.051,0.176 0.16,0.157 0.302,0.333 0.429,0.526 0.086,0.132 0.04,0.145 -0.033,0.112 0.042,0.142 -0.212,-0.07 -0.247,-0.118 -0.089,-0.126 -0.217,-0.201 -0.366,-0.247 -0.108,0.062 -0.224,0.095 -0.275,0.057 -0.043,-0.033 -0.087,-0.067 -0.127,-0.105 -0.099,10e-4 -0.198,0.012 -0.291,0.029 0.302,0.233 0.566,0.566 0.669,0.97 0.04,0.16 -0.278,-0.124 -0.313,-0.207 -0.141,-0.355 -0.436,-0.567 -0.754,-0.616 -0.017,0.011 -0.035,0.023 -0.054,0.037 0.197,0.167 0.364,0.383 0.466,0.651 0.059,0.151 -0.263,-0.114 -0.299,-0.169 -0.13,-0.223 -0.288,-0.29 -0.461,-0.295 -0.011,0.005 -0.023,0.011 -0.037,0.015 0.24,0.21 0.41,0.451 0.425,0.704 h -0.185 c -0.2,-0.279 -0.443,-0.489 -0.711,-0.636 -0.097,0.019 -0.195,0.034 -0.286,0.029 0.15,0.168 0.243,0.374 0.28,0.607 h -0.175 c -0.043,-0.046 -0.083,-0.089 -0.091,-0.109 -0.226,-0.597 -1.011,-0.653 -1.605,-0.585 -0.011,0.021 -0.042,0.026 -0.09,0.011 -0.073,0.011 -0.142,0.022 -0.209,0.034 0.037,0.072 0.053,0.144 -0.011,0.157 -0.071,0.016 -0.148,-0.028 -0.221,-0.089 -0.057,0.041 -0.113,0.079 -0.172,0.105 0.271,0.118 0.533,0.27 0.783,0.457 0.005,0.003 0.014,0.013 0.019,0.019 h -0.372 c -0.239,-0.105 -0.487,-0.194 -0.738,-0.237 0.167,0.068 0.33,0.156 0.494,0.237 h -21.066 -1.284 -1.263 -52.39 -385.32 V -20.507 c 0,0 521.504,-0.175 521.156,0 -12.639,6.35 -5.916,12.585 -20.567,17.612" />
        </g>
      </g>
    </g>
  </g>
</svg>
