<?xml version="1.0" encoding="UTF-8" standalone="no"?>
<!-- Created with Inkscape (http://www.inkscape.org/) -->

<svg
   xmlns:dc="http://purl.org/dc/elements/1.1/"
   xmlns:cc="http://creativecommons.org/ns#"
   xmlns:rdf="http://www.w3.org/1999/02/22-rdf-syntax-ns#"
   xmlns:svg="http://www.w3.org/2000/svg"
   xmlns="http://www.w3.org/2000/svg"
   xmlns:sodipodi="http://sodipodi.sourceforge.net/DTD/sodipodi-0.dtd"
   xmlns:inkscape="http://www.inkscape.org/namespaces/inkscape"
   width="203.13626mm"
   height="230.99185mm"
   viewBox="0 0 203.13626 230.99185"
   version="1.1"
   id="svg2009"
   inkscape:version="0.92.2 (5c3e80d, 2017-08-06)"
   sodipodi:docname="rood.svg">
  <defs
     id="defs2003">
    <clipPath
       id="clipPath1206"
       clipPathUnits="userSpaceOnUse">
      <path
         inkscape:connector-curvature="0"
         id="path1204"
         d="m 36,330.236 h 87.249 v 99.212 H 36 Z" />
    </clipPath>
  </defs>
  <sodipodi:namedview
     id="base"
     pagecolor="#ffffff"
     bordercolor="#666666"
     borderopacity="1.0"
     inkscape:pageopacity="0.0"
     inkscape:pageshadow="2"
     inkscape:zoom="0.49497475"
     inkscape:cx="251.75667"
     inkscape:cy="302.27058"
     inkscape:document-units="mm"
     inkscape:current-layer="layer1"
     showgrid="false"
     fit-margin-top="0"
     fit-margin-left="0"
     fit-margin-right="0"
     fit-margin-bottom="0"
     inkscape:window-width="1920"
     inkscape:window-height="1001"
     inkscape:window-x="-9"
     inkscape:window-y="-9"
     inkscape:window-maximized="1" />
  <metadata
     id="metadata2006">
    <rdf:RDF>
      <cc:Work
         rdf:about="">
        <dc:format>image/svg+xml</dc:format>
        <dc:type
           rdf:resource="http://purl.org/dc/dcmitype/StillImage" />
        <dc:title></dc:title>
      </cc:Work>
    </rdf:RDF>
  </metadata>
  <g
     inkscape:label="Laag 1"
     inkscape:groupmode="layer"
     id="layer1"
     transform="translate(-6.5330582,-7.3572664)">
    <g
       id="g1200"
       transform="matrix(2.3282652,0,0,-2.3282652,-77.284489,1007.2261)">
      <g
         clip-path="url(#clipPath1206)"
         id="g1202">
        <g
           transform="translate(82.3777,347.602)"
           id="g1208">
          <path
             inkscape:connector-curvature="0"
             id="path1210"
             style="fill:#b80718;fill-opacity:1;fill-rule:nonzero;stroke:none"
             d="m 0,0 0.057,-0.067 c 0,0.325 -0.101,0.549 -0.101,0.549 L 0.057,0.448 0.046,0.638 0.113,0.537 C 0.123,0.795 0.145,1.118 0.145,1.118 0.156,1.029 0.245,0.962 0.245,0.962 0.202,1.086 0.258,1.444 0.258,1.444 0.224,1.365 0.312,1.265 0.312,1.265 0.312,1.399 0.426,1.399 0.468,1.6 0.515,1.801 0.536,2.08 0.536,2.08 L 0.626,1.991 V 2.237 L 0.683,2.159 C 0.714,2.393 0.76,2.63 0.76,2.998 c 0,0.368 -0.077,0.56 -0.077,0.56 L 0.771,3.569 0.683,3.691 0.782,3.67 C 0.728,4.004 0.479,4.363 0.479,4.363 H 0.583 C 0.536,4.531 0.479,4.643 0.479,4.643 L 0.558,4.62 c 0,0.201 -0.11,0.403 -0.11,0.403 0,0 0.088,-0.078 0.246,-0.336 C 0.85,4.429 0.873,4.161 1.108,3.938 L 1.119,4.061 1.198,3.848 1.23,3.983 c 0,0 0.113,-0.269 0.324,-0.47 l 0.01,0.178 c 0,0 0.068,-0.279 0.26,-0.48 l 0.011,0.155 0.124,-0.29 0.01,0.19 c 0,0 0.121,-0.357 0.345,-0.535 L 2.347,2.818 2.438,2.674 2.474,2.752 c 0,0 0.21,-0.313 0.324,-0.469 L 2.82,2.472 c 0,0 0.11,-0.088 0.121,-0.392 C 2.951,1.778 2.919,1.387 3.019,1.164 l 0.056,0.134 c 0,0 -0.011,-0.157 -0.045,-0.313 l 0.124,0.09 c 0,0 -0.124,-0.381 -0.124,-0.572 L 3.121,0.594 3.041,0.347 3.132,0.382 c 0,0 -0.024,-0.27 -0.011,-0.571 l 0.054,0.078 -0.054,-0.247 0.09,0.102 c 0,0 -0.036,-0.315 -0.046,-0.626 -0.011,-0.315 0.01,-0.662 0.01,-1.041 0,-0.381 0.025,-0.85 0.025,-1.164 0,0 0.011,-0.413 -0.079,-0.66 C 3.03,-3.992 2.886,-4.159 2.852,-4.327 2.843,-4.362 2.841,-4.405 2.841,-4.45 2.747,-4.466 2.65,-4.479 2.577,-4.503 2.342,-4.576 2.135,-4.674 1.929,-4.769 1.569,-4.701 1.23,-4.768 1.108,-4.664 0.952,-4.529 0.974,-4.607 0.861,-4.495 0.725,-4.359 0.615,-3.948 0.536,-3.69 0.459,-3.434 0.415,-2.963 0.326,-2.751 0.235,-2.538 0.167,-2.393 0.167,-2.393 l 0.068,0.045 -0.122,0.056 0.1,-0.012 c -0.113,0.392 -0.192,0.997 -0.235,1.5 -0.046,0.503 -0.011,0.67 -0.011,0.67 l 0.054,-0.067 z m 6.611,-1.174 c 0.043,0.246 0.021,0.28 0.021,0.28 L 6.699,-0.905 C 6.71,-0.793 6.688,-0.658 6.688,-0.658 L 6.756,-0.761 C 6.789,-0.492 6.8,-0.078 6.81,0.213 6.821,0.503 6.699,0.75 6.699,0.75 L 6.8,0.716 6.767,0.907 6.857,0.862 c 0,0.292 -0.112,0.482 -0.112,0.482 L 6.821,1.321 C 6.789,1.589 6.9,1.712 6.9,1.712 v -0.19 c 0,0 0.056,-0.011 0.258,0.201 C 7.361,1.936 7.784,2.07 7.784,2.07 L 7.774,1.924 8.066,2.125 8.086,2.037 C 8.343,2.08 8.545,2.294 8.545,2.294 L 8.513,2.159 8.68,2.26 8.655,2.182 C 8.879,2.283 9.093,2.541 9.093,2.541 L 9.114,2.361 C 9.295,2.472 9.395,2.809 9.395,2.809 9.395,2.774 9.519,2.685 9.53,2.55 l 0.057,0.09 c 0,0 0.033,-0.156 -0.014,-0.213 l 0.101,0.045 c 0,0 -0.033,-0.212 -0.033,-0.402 L 9.719,2.116 9.652,1.947 9.719,1.981 c 0,0 -0.045,-0.303 0,-0.504 l 0.089,0.135 c 0,0 -0.043,-0.325 -0.1,-0.494 L 9.819,1.241 9.674,0.974 9.776,1.029 c 0,0 -0.025,-0.268 -0.167,-0.357 0,0 0.131,0 0.188,0.067 0,0 -0.145,-0.113 -0.134,-0.369 0,0 0.077,0.089 0.145,0.145 0,0 -0.1,-0.179 -0.089,-0.469 l 0.078,0.133 c 0,0 -0.032,-0.302 -0.021,-0.558 l 0.122,0.078 -0.111,-0.247 0.131,0.045 c 0,0 -0.065,-0.246 -0.232,-0.246 0,0 0.147,-0.09 0.268,-0.023 0,0 -0.121,-0.257 -0.11,-0.535 0,0 0.042,0.11 0.178,0.199 0,0 -0.047,-0.233 -0.178,-0.278 0,0 0.066,-0.068 0.188,-0.033 0,0 -0.157,-0.114 -0.122,-0.425 l 0.112,0.144 -0.079,-0.258 0.113,0.023 c 0,0 -0.091,-0.369 -0.056,-0.638 l 0.099,0.091 c 0,0 -0.077,-0.28 -0.077,-0.369 h 0.077 l -0.043,-0.213 0.133,0.078 c 0,0 -0.044,-0.369 0.024,-0.659 l 0.089,0.122 c 0,0 -0.036,-0.301 -0.27,-0.435 0.022,0.125 -0.016,0.256 -0.179,0.323 -0.323,0.135 -0.28,0.034 -0.504,0.068 -0.21,0.031 -0.49,0.011 -0.815,0.167 -0.326,0.157 -0.703,0.324 -0.895,0.391 -0.19,0.068 -0.391,0.112 -0.626,0.158 -0.235,0.045 -0.391,0.324 -0.492,0.536 -0.102,0.213 -0.102,0.392 -0.102,0.537 0,0.146 0.146,0.359 0.192,0.604 m 3.621,-2.992 c -0.094,0.004 -0.187,0.015 -0.281,0.023 0.038,0.054 0.068,0.117 0.081,0.185 0,0 0.135,-0.022 0.291,0.066 0,0 0.003,-0.17 -0.091,-0.274 m 0.181,0.108 c 0,0 -0.033,-0.056 -0.062,-0.118 -0.028,0 -0.057,0.006 -0.085,0.007 0.045,0.012 0.111,0.038 0.147,0.111 m -22.572,57.36 h 0.026 c 0.068,-0.273 0.214,-0.577 -0.054,-0.731 z m 1.392,0.005 -0.342,-1.392 c 0.131,-0.147 0.026,-0.372 -0.116,-0.484 l -0.835,-3.397 c -0.031,0.935 -0.088,2.207 -0.121,3.024 0.456,0.989 0.902,1.99 1.314,2.998 z m 0.304,-1.745 c -0.277,0.091 -0.136,-0.332 -0.167,-0.397 -0.096,-0.202 -0.215,0.03 -0.167,-0.194 0.022,-0.102 -0.153,-0.215 -0.25,-0.199 -0.033,-0.236 0.153,-0.208 0.083,-0.487 -0.178,-0.046 -0.162,0.139 -0.167,0.292 -0.26,-0.224 -0.043,0.179 -0.173,0.492 0.467,-0.247 0.459,0.641 0.674,0.985 0.125,-0.088 0.119,-0.317 0.167,-0.492 m 0.017,3.556 c 0.13,-0.272 0.135,-0.689 0.229,-1.002 -0.223,0.124 -0.269,0.469 -0.302,0.817 0.025,0.062 0.05,0.123 0.073,0.185 m 0.656,-2.671 h -0.424 c 0.032,0.263 0.448,0.462 0.424,0 m 0.361,2.815 0.197,-3.037 c -0.019,-0.02 -0.031,-0.049 -0.053,-0.072 -0.009,-0.108 0.034,-0.16 0.059,-0.236 0,-0.044 0.003,-0.095 0.008,-0.157 -0.351,-0.053 -0.154,0.339 -0.154,0.591 0,0.228 -0.159,0.475 0.084,0.685 -0.192,0.266 -0.243,0.703 -0.257,1.177 -0.054,0.132 -0.18,0.182 -0.337,0.194 -0.054,0.526 0.248,0.631 0.453,0.855 m 0.146,-3.892 c 0.014,0.061 0.035,0.107 0.065,0.151 0.006,-0.446 0.014,-1.106 0.027,-1.825 -0.089,0.503 -0.208,1.155 -0.092,1.674 m 0.116,-2.883 c -0.008,0.074 -0.019,0.152 -0.027,0.23 -0.006,0.073 0.005,0.131 0.019,0.168 0.003,-0.132 0.003,-0.266 0.008,-0.398 m -0.863,0.429 c 0.133,-0.239 0.32,-0.406 0.249,-0.886 -0.226,0.291 -0.19,0.164 -0.249,-0.1 -0.167,0.137 -0.108,0.835 0,0.986 m -1.098,0.684 c 0.081,-0.005 0.064,-0.124 0.082,-0.198 0.11,-0.274 0.176,0.307 0.419,0.198 -0.11,-0.352 0.268,-0.317 0.34,-0.491 0.124,-0.313 -0.018,-0.51 0.003,-0.981 -0.253,-0.061 -0.235,-0.451 -0.418,-0.591 -0.1,-0.247 -0.038,-0.677 -0.335,-0.688 -0.134,0.421 0.11,0.971 0.164,1.472 0.314,-0.041 0.381,0.212 0.503,0.395 0.011,0.308 -0.218,0.336 -0.424,0.387 -0.272,-0.237 -0.308,-0.748 -0.586,-0.976 -0.124,0.019 -0.029,0.29 -0.167,0.29 0.11,0.421 0.577,0.438 0.419,1.183 m 2.134,-4.564 c 0.113,-0.13 0.334,-2.526 0.672,-4.343 0.169,-0.904 0.826,-3.426 0.707,-5.084 -0.27,-3.647 -1.26,-9.239 -2.545,-10.254 0,0 -1.634,-2.122 -1.26,-4.36 0.373,-2.233 -0.515,-14.064 -0.515,-14.064 l -0.358,8.558 0.403,9.924 0.456,11.533 -1.156,4.182 v 1.803 l 0.511,1.941 c 0,0 0.003,0.139 0.014,0.339 0.224,0.107 0.512,0.29 0.874,0.561 -0.142,0 -0.294,-0.009 -0.433,-0.005 -0.023,0.328 0.391,0.209 0.646,0.167 0.292,0.235 0.629,0.517 1.021,0.87 0.299,0.268 0.561,0.543 0.811,0.815 0.039,-1.352 0.087,-2.509 0.152,-2.583 m 3.414,10.726 h 0.587 c -0.185,-0.624 -0.361,-1.251 -0.524,-1.874 l -0.113,0.8 z m 0.08,2.1 c 0.011,-0.04 0.022,-0.074 0.036,-0.101 -0.006,-0.094 -0.003,-0.185 0.023,-0.277 0.02,0 0.038,0.003 0.049,0.003 -0.003,-0.036 -0.013,-0.071 -0.038,-0.117 0.035,-0.155 0.267,-0.085 0.17,-0.391 -0.153,0.025 -0.186,0.193 -0.263,0.31 z m 1.509,-5.21 c 0.183,-0.177 0.026,-0.273 0.161,-0.439 -0.107,-0.086 -0.218,-0.174 -0.326,-0.266 -0.092,0.108 -0.019,0.185 -0.07,0.286 -0.292,-0.12 -0.119,-0.333 -0.192,-0.496 -0.183,-0.201 -0.332,-0.17 -0.442,0.093 0.277,0.341 0.552,0.41 0.869,0.822 m -0.243,3.11 h 0.156 l 0.299,0.456 c 0.105,0.058 0.176,-0.116 0.271,-0.13 0.286,0.273 0.312,0.376 0.637,0.406 -0.058,-0.267 -0.228,-0.507 -0.389,-0.654 -0.125,-0.109 -0.27,-0.039 -0.418,-0.116 -0.116,-0.054 -0.056,-0.153 -0.089,-0.181 -0.082,-0.08 -0.686,-0.407 -0.945,-0.54 0.047,0.276 0.248,0.521 0.478,0.759 m 0.107,-1.41 c -0.21,-0.126 -0.391,-0.085 -0.555,0.109 0.501,0.395 0.564,0.801 1.006,0.927 0.183,-0.416 -0.442,-0.663 -0.451,-1.036 m 0.449,-3.036 c -0.229,-0.198 -0.168,-0.453 -0.395,-0.656 -0.657,0.251 0.047,1.13 0.395,0.656 m -0.54,-4.161 c 0.224,-0.247 -0.254,-0.351 -0.37,-0.529 -0.122,0.227 0.192,0.362 0.37,0.529 m 1.484,-0.043 c 0.127,0.059 0.087,0.158 0.04,0.255 0.297,0.101 0.343,0.228 0.656,0.533 0.308,0.139 0.677,-0.022 0.855,0.355 0.157,-0.343 -0.366,-0.543 -0.648,-0.865 -0.145,-0.165 -0.239,-0.387 -0.368,-0.524 -0.006,-0.242 -0.144,-0.46 -0.168,-0.7 C -2.655,46.042 -2.929,45.987 -3.185,46.069 -3.7,45.687 -4,45.494 -4.549,45.416 -4.758,45.241 -4.928,45.05 -4.982,44.839 c -0.011,0 -0.023,0.006 -0.034,0.006 -0.025,0.307 -0.042,0.599 -0.049,0.848 0.236,0.182 0.459,0.29 0.644,0.167 0.455,0.326 0.821,0.673 1.024,1.052 0.105,-0.325 0.329,0.157 0.464,0.043 0.151,-0.029 0.264,-0.282 0.385,-0.481 0.284,0.139 -0.135,0.425 -0.186,0.638 m 2.016,4.456 c -0.068,-0.403 -0.547,-0.342 -0.788,-0.638 -0.081,0.555 0.456,0.435 0.788,0.638 m 0.545,0.558 c 0.072,-0.199 -0.305,-0.296 -0.416,-0.451 0.024,0.193 0.21,0.49 0.416,0.451 m -0.154,-1.711 c -0.197,-0.274 -0.299,0.042 -0.483,-0.162 -0.149,0.255 0.248,0.281 0.351,0.394 0.054,0.063 -0.047,0.186 -0.027,0.204 0.054,0.067 0.402,0 0.264,0.217 0.262,-0.022 -0.086,-0.47 -0.105,-0.653 m 0.31,-4.602 c 0,0.193 0.346,-0.236 0.34,-0.405 -0.183,-0.119 -0.266,-0.256 -0.127,-0.439 -0.134,-0.132 -0.19,0.242 -0.294,0.327 0.227,0.127 0.257,0.301 0.081,0.517 m 0.581,5.893 c 0.487,0.397 0.793,0.729 0.934,1.205 0.054,0.19 -0.006,0.345 0.083,0.519 0.146,0.304 0.491,0.437 0.65,0.868 0.303,-0.458 0.542,0.09 0.723,0.247 0.237,-0.313 0.033,-0.54 -0.232,-0.751 L 2.903,53.491 C 2.56,53.09 2.619,52.613 2.418,52.188 2.088,52.012 2.085,51.767 1.802,51.581 1.745,51.501 1.85,51.394 1.761,51.319 1.561,51.135 1.368,50.992 1.214,51.099 0.814,50.617 0.539,50.925 0.18,50.713 c -0.018,0.452 0.418,0.476 0.384,0.993 m 1.17,4.563 c 0.005,-0.401 -0.21,-0.756 -0.626,-1.073 -0.151,0.433 0.24,0.756 0.626,1.073 M 2.8,54.646 C 2.933,54.395 2.438,54.198 2.314,54.48 2.495,54.646 2.597,54.322 2.8,54.646 M 2.769,56.992 C 2.69,57.383 2.945,57.409 3.265,57.618 3.173,57.305 3.103,56.991 2.727,56.73 c -0.062,0.106 -0.121,0.207 -0.186,0.305 0.098,0.12 0.163,0.042 0.228,-0.043 m 1.427,24.37 c 0.199,0.436 0.561,0.394 0.92,0.348 0.402,-0.632 0.199,-1.256 0.81,-1.895 0.204,0.511 0.541,0.614 1.103,0.061 -0.345,-0.531 -0.869,-0.5 -1.32,-0.712 -0.27,0.38 -0.553,0.608 -0.947,0.776 0.518,0.64 -1.519,1.349 -1.452,2.006 0.348,-0.35 0.521,-0.176 0.886,-0.584 m -0.033,2.279 0.065,0.036 c 0.038,0.021 0.081,0.027 0.138,0.025 0.131,-0.196 -0.198,-0.373 0.016,-0.568 0.397,-0.01 -0.098,0.773 0.507,0.552 C 4.765,83.313 5.065,82.93 4.746,82.562 4.449,82.469 4.363,83.026 4.214,82.86 4.446,82.764 4.145,82.268 3.995,82.486 c 0.046,0.157 -0.201,0.32 -0.247,0.475 0.35,0.019 0.221,0.511 0.415,0.68 M 6.109,81.586 C 5.99,81.938 5.709,82.78 6.308,82.802 6.257,82.492 6.111,82.183 6.274,81.867 6.818,81.186 6.858,82.01 7.202,81.934 7.058,81.563 7.347,81.18 7.234,80.812 6.506,81.57 6.929,80.226 6.489,80.454 6.359,80.801 6.481,81.14 6.402,81.486 5.895,81.5 6.456,81.011 6.133,80.742 5.974,80.844 5.995,80.703 6.017,80.562 5.634,80.976 5.722,81.443 6.109,81.586 m 1.611,2.68 c 0.12,-0.748 0.091,-1.437 -0.534,-1.765 0.286,0.206 -0.19,0.44 -0.133,0.657 0.756,-0.173 0.184,1.055 0.667,1.108 m 0.346,-4.137 c 0,-0.147 0.02,-0.22 0.053,-0.26 C 8.067,79.816 8.016,79.767 7.97,79.711 7.86,79.581 7.758,79.444 7.644,79.316 7.571,79.63 7.72,80.188 8.066,80.129 m 0.518,0.105 c 0,0.002 -0.009,-0.197 0.02,-0.205 0.06,-0.02 0.1,0.064 0.147,0.147 0.108,-0.209 0.054,-0.419 0.029,-0.627 -0.094,0.012 -0.184,0 -0.27,-0.016 0.04,0.155 -0.076,0.449 -0.232,0.229 0.105,0.306 0.137,0.352 0.306,0.472 m -0.096,1.48 c 0.615,-0.307 0.284,-1.122 -0.15,-0.84 0.277,0.27 -0.046,0.564 0.15,0.84 M 9.449,57.961 9.547,57.881 C 9.425,57.587 9.19,57.63 8.969,57.629 c 0.156,0.097 0.315,0.212 0.48,0.332 M 9.16,72.05 C 9.134,72.049 9.106,72.034 9.08,72.049 9.055,72.088 9.045,72.13 9.045,72.173 9.091,72.135 9.134,72.093 9.16,72.05 m 0.195,8.083 C 9.406,80.114 9.471,80.068 9.541,80.02 9.46,79.904 9.314,79.815 9.207,79.835 c -0.076,0.22 0.067,0.213 0.148,0.298 m 0.348,-1.134 c 0.033,0.024 0.062,0.047 0.091,0.071 0.068,0.011 0.144,0.004 0.22,-0.017 C 10.005,78.926 9.895,78.82 9.886,78.695 9.81,78.413 9.846,77.852 9.414,77.856 c 0.159,0.232 0.108,0.51 0.343,0.728 0.113,0.114 -0.114,0.293 -0.054,0.415 m 0.755,-1.428 c 0.071,-0.245 0.221,-0.653 0.145,-0.897 -0.031,-0.096 -0.221,-0.123 -0.263,-0.215 -0.038,-0.085 -0.035,-0.41 -0.346,-0.392 -0.051,0.029 -0.084,0.062 -0.099,0.108 0.261,0.371 0.301,0.904 0.529,1.375 0.012,0.008 0.023,0.014 0.034,0.021 m 0.306,-0.113 c 0.119,-0.12 0.239,-0.242 0.353,-0.367 0,-0.041 -0.011,-0.077 -0.011,-0.123 -0.223,-0.086 -0.507,0.232 -0.342,0.49 m 0.283,2.028 c 0.023,0.07 0.046,0.136 0.068,0.197 0.059,0.005 0.117,-0.013 0.172,-0.073 -0.002,-0.004 -0.002,-0.012 -0.002,-0.015 -0.104,-0.077 -0.206,-0.166 -0.303,-0.236 0.024,0.043 0.048,0.085 0.065,0.127 m 0.531,-1.344 c -0.024,-0.095 -0.054,-0.174 -0.092,-0.251 -0.073,0.062 -0.142,0.12 -0.226,0.186 -0.046,0.116 -0.057,0.232 -0.043,0.344 0.13,-0.038 0.256,-0.086 0.361,-0.279 m 0.216,-2.174 c 0.105,-0.105 0.208,-0.213 0.297,-0.32 -0.194,-0.163 -0.41,-0.284 -0.559,-0.369 -0.151,-0.101 -0.17,-0.236 -0.065,-0.389 -0.177,-0.172 -0.304,0.011 -0.482,-0.168 0.142,0.221 0.264,0.789 0.628,0.738 -0.002,0.183 0.086,0.35 0.181,0.508 m 0.318,3.396 c 0.011,0 0.014,-0.005 0.017,-0.005 -0.003,-0.062 -0.017,-0.122 -0.028,-0.181 0.011,-0.014 0.022,-0.026 0.03,-0.035 -0.008,-0.113 0.006,-0.238 0.19,-0.285 -0.184,-0.077 -0.33,0.109 -0.509,0.035 -0.074,0.193 0.343,0.285 0.3,0.471 m 0.419,-0.924 c -0.06,0.062 -0.133,0.093 -0.207,0.078 -0.063,0.093 0.018,0.15 0.107,0.204 0.043,-0.09 0.08,-0.188 0.1,-0.282 m 0.132,-0.629 c -0.076,-0.11 -0.154,-0.195 -0.308,-0.167 0.009,0.205 0.116,0.39 0.224,0.572 0.022,-0.134 0.046,-0.267 0.084,-0.405 m 0.329,-2.373 c 0.089,-0.201 0.079,-0.406 0.011,-0.58 -0.056,0.098 -0.11,0.185 -0.152,0.271 -0.04,0.072 -0.083,0.14 -0.123,0.213 0.083,0.064 0.173,0.115 0.264,0.096 m 0.205,-5.005 c -0.051,-0.187 -0.108,-0.353 -0.259,-0.423 -0.033,0.127 -0.036,0.25 -0.164,0.393 0.229,0.135 0.159,0.38 0.394,0.325 -0.006,-0.109 -0.051,-0.214 -0.103,-0.31 0.041,-0.015 0.083,0 0.132,0.015 m 0.124,9.684 c 0.033,0.02 0.065,0.046 0.095,0.07 0.064,0.03 0.132,0.054 0.216,0.033 -0.087,-0.04 -0.176,-0.106 -0.265,-0.18 -0.024,-0.13 0.002,-0.268 -0.064,-0.383 -0.041,0.127 -0.079,0.247 -0.112,0.374 0.044,0.031 0.084,0.062 0.13,0.086 m 0.399,-0.35 c 0.096,0.056 0.161,0.114 0.206,0.18 0.137,-0.192 0.232,-0.383 0.281,-0.569 -0.152,-0.273 -0.351,-0.459 -0.586,-0.261 0.218,-0.024 0.161,0.412 0.099,0.65 m 1.018,20.066 c -0.243,-0.281 -0.591,0.151 -0.925,0.093 0.229,0.259 0.7,-0.023 0.925,-0.093 M 14.465,77.862 c 0.022,-0.008 0.047,-0.03 0.062,-0.048 -0.005,-0.005 -0.015,-0.005 -0.021,-0.014 -0.019,0.023 -0.024,0.042 -0.041,0.062 m 0.812,-0.941 c 0.025,-0.076 0.049,-0.155 0.087,-0.234 0.089,-0.033 0.185,-0.021 0.286,0.002 0.132,-0.084 0.27,-0.189 0.42,-0.336 0.279,0.243 -0.345,0.507 -0.253,0.757 0.386,0.013 0.98,-0.769 0.607,-1.047 0.047,-0.035 0.09,-0.06 0.127,-0.08 -0.105,-0.115 -0.227,-0.228 -0.374,-0.335 0.179,-0.192 0.391,-0.009 0.595,0.22 0.054,-0.045 0.031,-0.106 -0.102,-0.279 0.116,0.081 0.26,0.065 0.405,0.003 -0.071,-0.111 -0.154,-0.228 -0.275,-0.34 -0.102,-0.093 -0.155,-0.019 -0.241,-0.085 -0.107,-0.08 -0.067,-0.181 -0.153,-0.235 -0.289,-0.183 -0.742,-0.067 -0.991,-0.463 -0.345,0.257 -0.617,0.88 -0.548,1.25 -0.162,0.195 -0.388,-0.049 -0.553,0.116 -0.156,0.634 0.035,1.191 0.408,1.715 0.094,-0.172 0.184,-0.365 0.343,-0.512 0.073,-0.042 0.139,-0.078 0.212,-0.117 m 1.393,23.117 c -0.124,-0.147 -0.368,-0.162 -0.586,-0.199 -0.07,0.373 0.397,0.123 0.586,0.199 m 0.716,-21.629 c -0.034,-0.019 -0.065,-0.036 -0.101,-0.05 -0.029,-0.157 0.07,-0.198 0.106,-0.306 -0.478,0.433 -1.067,0.399 -1.152,0.638 0.226,0.109 0.787,0 1.147,-0.282 m 0.218,19.568 c -0.097,-0.013 -0.149,0.022 -0.17,0.098 -0.17,-0.062 -0.022,-0.497 -0.334,-0.392 0.066,0.151 0.388,0.827 0.504,0.294 m -0.003,1.372 c 0.205,-0.072 0.318,-0.953 -0.087,-0.876 0.146,0.16 0.068,0.569 0.087,0.876 m 0.502,0.594 c 0.096,-0.11 0.299,-0.11 0.507,-0.094 -0.239,-0.151 -0.009,-0.365 -0.25,-0.591 -0.068,-0.278 0.116,-0.258 0.08,-0.489 -0.313,0.153 -0.604,0.338 -0.587,0.88 0.074,0.107 0.306,0.03 0.25,0.294 m 1.517,0.006 c 0.091,-0.465 0.175,-0.883 0.002,-1.568 -0.416,-0.105 -0.453,-0.649 -0.842,-0.789 0.11,0.304 0.084,0.702 -0.251,0.489 0.03,1.012 0.176,1.881 1.091,1.868 m 0.337,-1.177 c 0.32,-0.016 0.294,-0.445 0.424,-0.687 -0.169,-0.133 -0.189,-0.434 -0.252,-0.686 -0.081,0.005 -0.067,0.121 -0.084,0.194 -0.185,-0.435 -0.007,-0.901 0.003,-1.271 -0.294,-0.022 -0.267,0.341 -0.42,0.487 0.008,0.17 0.269,0.807 -0.087,0.783 -0.213,-0.185 0.079,-0.342 -0.083,-0.587 -0.152,-0.026 -0.176,0.093 -0.084,0.095 -0.017,0.18 -0.284,0.064 -0.335,0.195 0.105,0.268 0.372,0.352 0.329,0.786 0.198,-0.058 0.224,-0.319 0.424,-0.391 0.51,0.128 0.315,0.673 0.165,1.082 m 0.037,-16.745 c 0.019,0.04 0.044,0.081 0.104,0.121 0.031,-0.015 0.051,-0.032 0.082,-0.041 -0.056,-0.043 -0.118,-0.069 -0.186,-0.08 m 0.041,-0.322 c -0.005,0.016 -0.011,0.027 -0.016,0.045 0.008,-0.011 0.019,-0.013 0.029,-0.027 -0.003,-0.006 -0.008,-0.009 -0.013,-0.018 m -0.319,12.357 c -0.309,0.475 0.051,1.156 -0.255,1.666 -0.014,0.245 0.128,0.308 0.167,0.487 0.218,-0.044 0.102,-0.485 0.085,-0.878 -0.002,-0.127 0.088,-0.163 0.088,-0.197 0.002,-0.146 -0.104,-0.185 -0.085,-0.295 0.025,-0.183 0.346,-0.531 0,-0.489 0.057,-0.294 0.181,0.092 0.335,0 0.033,-0.253 -0.114,-0.325 -0.335,-0.294 M 19.368,77.55 c 0.031,0.087 0.057,0.173 0.084,0.264 0.046,-0.018 0.083,-0.036 0.125,-0.059 C 19.56,77.643 19.47,77.609 19.368,77.55 m -0.753,0.705 c 0.046,0.061 0.101,0.119 0.147,0.185 0.054,-0.001 0.105,-0.012 0.156,-0.012 0.294,-0.424 -0.173,-0.065 -0.303,-0.173 m -0.083,17.863 c -0.087,0.562 0.348,0.51 0.337,0.981 0.127,-0.219 -0.016,-0.955 -0.337,-0.981 m 0.116,-14.66 c 0.068,0.015 0.132,0.039 0.185,0.07 -0.045,0.056 -0.077,0.114 -0.107,0.167 0.048,0.185 0.062,0.372 0.03,0.566 0.073,-0.008 0.14,-0.039 0.205,-0.084 -0.057,-0.069 -0.176,-0.114 -0.081,-0.281 0.041,-0.06 0.295,-0.079 0.295,-0.098 0.007,-0.246 -0.082,-0.449 -0.328,-0.836 -0.19,0.201 -0.288,0.103 -0.416,0.105 0.085,0.127 0.163,0.256 0.217,0.391 m -0.537,16.519 c 0.478,-0.062 0.054,-0.252 0.084,-0.585 -0.186,0.013 -0.039,0.414 -0.084,0.585 m -0.669,-1.863 c 0.04,0.077 0.086,0.159 0.083,0.294 0.354,-0.38 0.159,0.464 0.5,0.392 -0.132,-0.304 0.075,-0.992 -0.333,-0.983 0.184,0.205 0.036,0.373 -0.25,0.297 m -0.005,1.765 c 0.201,0.039 0.181,-0.18 0.42,-0.093 0.03,-0.397 0,-0.718 -0.25,-0.788 0.011,-0.243 0.158,-0.302 0,-0.49 -0.125,0.085 -0.125,0.315 -0.17,0.487 0.07,0.087 0.235,0.06 0.253,0.199 0.047,0.381 -0.485,0.384 -0.253,0.685 M 17.228,77.552 c 0.124,-0.073 0.206,-0.094 0.098,-0.299 0.051,-0.012 0.097,-0.019 0.145,-0.016 -0.076,-0.133 -0.186,-0.265 -0.362,-0.377 -0.045,-0.098 -0.094,-0.194 -0.142,-0.286 -0.448,0.398 -0.602,0.789 -0.761,1.181 0.297,-0.112 0.555,-0.116 0.755,0.075 0.04,-0.078 0.085,-0.132 0.133,-0.175 -0.122,-0.056 -0.22,-0.096 -0.235,-0.214 0.113,-0.002 0.238,0.038 0.369,0.111 m 1.82,-0.028 c -0.271,-0.305 -0.793,-0.48 -1.161,-0.826 -0.008,-0.009 -0.017,-0.02 -0.028,-0.029 0,0.005 0.003,0.009 0.003,0.012 -0.309,0.236 -0.42,-0.119 -0.569,-0.361 -0.075,0.052 -0.145,0.102 -0.204,0.151 0.008,0.017 0.013,0.037 0.026,0.049 0.095,0.127 0.273,0.185 0.392,0.324 0.165,0.182 0.312,0.764 0.397,0.318 0.002,0.007 0.002,0.008 0.007,0.023 0.024,-0.047 0.07,-0.093 0.172,-0.137 -0.034,0.237 -0.02,0.474 0.003,0.707 0.181,0.14 0.354,0.304 0.514,0.484 -0.014,-0.019 -0.025,-0.043 -0.025,-0.078 0.227,-0.081 0.442,-0.151 0.672,-0.246 -0.032,-0.127 -0.078,-0.258 -0.199,-0.391 m -1.135,-2.118 c -0.085,0.025 -0.17,0.051 -0.25,0.062 -0.087,0.101 -0.149,0.186 -0.181,0.264 0.159,0.131 0.315,0.223 0.459,0.217 0.088,-0.006 0.318,0.085 0.445,-0.091 -0.178,-0.098 -0.337,-0.261 -0.473,-0.452 m -0.436,-0.961 c -0.411,-0.098 -0.329,-0.637 -0.742,-0.716 -0.079,0.326 -0.122,0.644 -0.413,1.022 0.26,0.053 0.586,0.433 0.909,0.753 0.214,-0.151 0.384,-0.392 0.389,-0.633 -0.062,-0.145 -0.112,-0.292 -0.143,-0.426 M 17.31,67.464 c -0.046,-0.014 -0.09,-0.032 -0.133,-0.039 0.022,0.038 0.036,0.084 0.028,0.127 0.077,-0.011 0.102,-0.043 0.105,-0.088 m 0.507,-8.216 c -0.51,0.241 -0.162,0.182 0.135,0.221 0.14,-0.078 0.323,0.155 0.49,0.275 0.09,-0.128 0.017,-0.224 0.117,-0.356 -0.184,-0.272 -0.364,-0.77 -0.632,-1.079 -0.297,0.144 -0.591,0.282 -0.847,0.305 0.252,0.243 0.178,0.495 0.27,0.74 0.192,-0.143 0.407,-0.348 0.467,-0.106 m -0.38,9.664 c 0.026,-0.012 0.045,-0.028 0.067,-0.047 -0.027,-0.006 -0.055,-0.006 -0.076,-0.008 0,0.017 0.006,0.035 0.009,0.055 m 0.185,1.695 c 0.05,0.179 0.127,0.385 0.146,0.566 0.014,0.15 -0.237,0.437 0.082,0.518 0.399,-0.379 0.293,-0.98 0.131,-1.492 -0.164,0.018 -0.334,0.068 -0.513,0.155 0,0.002 0.003,0.007 0.003,0.014 0.003,0.024 -0.026,0.205 -0.026,0.205 0.023,0.048 0.159,-0.039 0.177,0.034 m 0.689,-4.756 c -0.062,-0.107 -0.144,-0.209 -0.229,-0.307 -0.025,0.169 -0.09,0.309 -0.033,0.419 0.07,-0.161 0.15,-0.213 0.262,-0.112 m 0.051,1.068 c 0.264,-0.214 -0.164,-0.22 -0.167,-0.279 0,-0.046 0.043,-0.128 0.105,-0.216 C 18.195,66.355 18.094,66.3 17.989,66.26 l -0.011,0.013 c 0.003,0.13 0.054,0.251 0.028,0.385 0,0.024 0.005,0.053 0.005,0.075 0.108,0.05 0.21,0.12 0.307,0.217 0.014,-0.016 0.025,-0.017 0.044,-0.031 m 1.119,-9.741 c -0.042,-0.156 -0.065,-0.313 -0.018,-0.454 -0.216,0.076 -0.449,0.082 -0.729,-0.25 0.046,-0.282 0.535,-0.113 0.308,0.139 0.464,-0.078 0.006,-0.53 -0.272,-0.677 -0.289,0.12 -0.433,0.059 -0.583,0.323 -0.119,0.188 0.051,0.131 0.037,0.258 -0.026,0.211 -0.113,0.18 -0.045,0.412 0.02,0.095 0.02,0.226 0.056,0.383 -0.172,0.275 -0.342,0.432 -0.311,0.62 0.111,-0.105 0.227,-0.237 0.343,-0.288 0.008,-0.002 0.011,-0.002 0.011,-0.007 0.022,-0.049 0.037,-0.096 0.043,-0.139 0.025,0.031 0.05,0.066 0.073,0.1 0.362,-0.147 0.734,-0.247 1.087,-0.42 m -0.359,1.758 c 0.036,-0.031 0.071,-0.063 0.107,-0.097 -0.15,-0.152 -0.255,-0.294 -0.223,-0.56 0.211,-0.025 0.343,0.176 0.586,0.054 0.022,-0.034 0.039,-0.071 0.048,-0.107 0.003,-0.013 0.003,-0.026 0.006,-0.044 -0.086,-0.084 -0.213,-0.048 -0.283,-0.189 0.226,-0.152 0.178,-0.291 0.226,-0.433 -0.012,-0.05 -0.026,-0.097 -0.043,-0.144 -0.132,0.074 -0.272,0.148 -0.404,0.202 0.051,0.198 0.319,0.097 0.164,0.278 -0.188,-0.057 -0.413,-0.008 -0.649,0.077 0.19,0.313 0.345,0.633 0.465,0.963 m -0.175,1.111 c 0.022,0.006 0.049,0.006 0.067,0.014 0.268,0.081 0.3,0.354 0.578,0.077 -0.011,-0.175 -0.235,-0.163 -0.363,-0.189 -0.099,0.003 -0.19,0.014 -0.282,0.091 z m 1.276,-3.945 c -0.131,0.259 -0.306,0.229 -0.428,0.554 0.065,0.082 0.102,0.167 0.127,0.257 0.177,-0.129 0.361,-0.262 0.525,-0.361 0.138,-0.075 0.276,-0.125 0.413,-0.178 0.006,-0.025 0.022,-0.054 0.028,-0.079 0,-0.014 -0.141,-0.09 -0.133,-0.103 0.04,-0.09 0.198,-0.04 0.267,-0.124 0.124,-0.151 0.062,-0.235 0.116,-0.358 0.138,-0.329 0.297,-0.499 0.101,-0.821 0.091,-0.049 0.199,0.042 0.266,-0.126 -0.337,0.06 -0.237,-0.399 -0.305,-0.471 -0.094,-0.108 -0.153,-0.017 -0.242,-0.085 -0.084,-0.06 -0.259,-0.445 -0.416,-0.112 0.159,0.143 0.119,0.312 0.307,0.141 -0.007,0.349 0.122,0.542 0.011,0.801 -0.048,0.108 -0.121,-0.061 -0.178,-0.034 -0.145,0.072 -0.046,0.347 -0.159,0.432 -0.08,0.082 -0.354,-0.416 -0.51,0.042 -0.099,-0.092 -0.272,-0.167 -0.218,-0.287 -0.178,-0.042 -0.332,0.06 -0.47,0.298 0.221,0.083 0.108,0.243 0.284,0.342 0.07,-0.176 0.153,-0.23 0.266,-0.124 0.076,0.097 -0.072,0.134 -0.153,0.096 -0.029,0.297 0.388,0.331 0.501,0.3 m 0,1.469 c 0.125,-0.243 0.284,-0.495 0.422,-0.734 -0.227,0.113 -0.462,0.24 -0.697,0.371 -0.005,0.12 -0.011,0.24 -0.011,0.356 0.103,0.04 0.181,-0.054 0.286,0.007 m 0.049,9.579 c 0.081,-0.065 0.163,-0.127 0.24,-0.197 -0.043,-0.073 -0.091,-0.147 -0.14,-0.223 -0.102,-0.09 -0.203,-0.175 -0.302,-0.245 -0.043,0.059 -0.076,0.123 -0.091,0.179 0.128,0.064 0.17,0.402 0.293,0.486 m 0.621,-7.796 c 0.281,-0.144 0.536,-0.222 0.637,0.166 -0.119,0.104 -0.186,0.042 -0.291,0.104 0.119,0.582 0.561,0.203 0.925,0.07 -0.183,-0.164 -0.726,-0.562 -0.619,-0.732 0.119,0.043 0.161,-0.043 0.179,-0.17 -0.168,-0.066 -0.357,-0.113 -0.539,-0.221 -0.152,0.04 -0.13,0.263 -0.227,0.381 -0.119,0.139 -0.186,0.061 -0.268,0.123 -0.011,0.01 -0.02,0.023 -0.029,0.041 0.078,0.067 0.162,0.145 0.232,0.238 m 0.941,4.833 c 0.192,0.281 0.368,0.547 0.591,0.713 0.032,0.012 0.063,0.012 0.097,0.02 -0.037,-0.248 -0.088,-0.422 -0.342,-0.34 0.11,-0.305 0.324,0.117 0.424,-0.227 -0.049,-0.088 -0.216,-0.11 -0.261,-0.205 -0.063,-0.137 0.077,-0.139 0.071,-0.287 -0.002,-0.099 -0.156,-0.27 -0.237,-0.416 0.103,-0.202 0.257,-0.063 0.378,-0.148 0.134,-0.146 -0.229,-0.52 -0.016,-0.46 -0.094,-0.143 -0.187,-0.242 -0.254,-0.37 -0.18,0.424 0.052,0.835 -0.523,1.268 0.01,0.161 0.035,0.312 0.072,0.452 m 0.942,-5.834 c -0.008,-0.027 -0.019,-0.06 -0.037,-0.091 -0.036,-0.021 -0.07,-0.036 -0.104,-0.048 -0.244,0.245 -0.473,0.491 -0.215,0.722 0.119,-0.123 0.24,-0.245 0.308,-0.365 -0.039,-0.063 0.008,-0.137 0.048,-0.218 m 0.47,3.131 c -0.039,-0.022 -0.059,-0.061 -0.07,-0.109 -0.111,0.162 -0.167,0.322 -0.318,0.485 0.145,-0.026 0.275,-0.158 0.388,-0.376 m 0.323,0.02 c 0.111,-0.108 0.227,-0.226 0.357,-0.358 -0.008,-0.075 -0.011,-0.155 -0.011,-0.235 -0.159,-0.086 -0.326,-0.19 -0.478,-0.213 0.025,0.119 0.087,0.215 0.203,0.269 -0.116,0.062 -0.2,0.125 -0.272,0.193 0.069,0.114 0.134,0.228 0.201,0.344 m -1.648,-3.35 c 0.003,0.025 0.011,0.054 0.014,0.078 0.012,-0.007 0.024,-0.024 0.035,-0.032 -0.017,-0.018 -0.032,-0.029 -0.049,-0.046 m -1.783,0.689 c 0,0.003 0,0.008 0.002,0.014 0.009,0 0.014,-0.006 0.018,-0.007 z M 21.2,56.631 c -0.086,0.02 -0.178,0.066 -0.272,0.097 -0.014,0.01 -0.017,0.023 -0.026,0.035 0.252,0.147 -0.053,0.141 -0.071,0.282 -0.005,0.058 0.205,0.163 0.037,0.259 -0.135,0.243 -0.739,0.556 -0.269,0.453 -0.2,0.314 -0.456,0.555 -0.486,0.849 0.027,-0.021 0.065,-0.049 0.105,-0.079 0.041,0.11 0.087,0.187 0.138,0.265 0.2,-0.085 0.385,-0.226 0.566,-0.433 0.057,-0.188 -0.031,-0.35 0.144,-0.559 0.17,0.096 0.315,0.076 0.504,0.294 0.065,-0.039 0.136,-0.06 0.202,-0.081 -0.32,-0.396 -0.224,-0.948 -0.572,-1.382 m 0.665,-2.14 c 0.11,-0.157 -0.213,-0.224 -0.286,-0.344 -0.054,0.188 -0.006,0.361 -0.028,0.541 0.274,0.189 0.093,-0.274 0.314,-0.197 m -0.519,-0.764 c -0.218,-0.15 -0.362,0.161 -0.602,-0.143 -0.134,0.21 -0.307,0.223 -0.442,0.428 -0.037,0.236 0.303,-0.232 0.424,-0.218 0.283,0.239 0.569,0.485 0.768,0.173 -0.118,-0.067 -0.07,-0.166 -0.148,-0.24 m -3.003,-0.51 c -0.088,-0.198 -0.043,-0.46 -0.105,-0.645 -0.014,-0.048 -0.113,-0.061 -0.133,-0.106 -0.116,-0.412 -0.226,-0.833 -0.467,-1.174 -0.073,-0.615 -0.232,-1.27 -0.801,-1.437 -0.142,0.479 -0.597,0.305 -0.561,0.789 -0.213,0.108 -0.467,-0.044 -0.626,0.394 0.194,-0.03 0.467,-0.158 0.731,-0.082 0.289,0.079 0.424,0.313 0.68,0.654 -0.094,0.18 -0.258,-0.15 -0.377,-0.182 -0.448,0.296 -1.005,-0.066 -1.484,0.039 -0.22,0.289 0.261,0.057 -0.05,0.409 0.395,0.343 0.529,0.738 0.916,1.081 -0.2,0.086 -0.438,-0.091 -0.605,0.191 -0.202,-0.311 0.113,-0.143 0.229,-0.382 -0.38,-0.361 -0.71,-0.631 -0.719,-0.92 -0.255,-0.047 -0.447,0.305 -0.665,0.474 0.06,0.054 0.127,0.108 0.192,0.158 -0.025,0.255 -0.048,0.419 -0.011,0.672 0.014,0.067 -0.032,0.139 -0.025,0.205 0.011,0.075 0.229,0.247 0.238,0.419 0.003,0.073 -0.078,0.205 -0.071,0.279 0.02,0.145 0.243,0.227 0.017,0.467 0.081,0.065 0.022,0.187 0.04,0.258 0.017,0.068 0.138,0.166 0.149,0.235 0.024,0.137 -0.232,0.436 0.13,0.445 -0.073,0.142 -0.175,0.096 -0.249,0.252 0.389,0.12 0.035,0.092 0.128,0.442 0.067,0.044 0.107,-0.05 0.158,-0.099 -0.113,0.139 0.165,0.53 0.014,0.464 0.207,0.267 0.165,0.588 0.156,0.901 0.368,-0.454 0.38,-0.924 0.869,-1.123 0.278,0.246 -0.413,0.512 -0.081,0.756 0.28,-0.122 0.311,-0.665 0.424,-1.141 -0.178,-0.26 -0.496,-0.389 -0.6,-0.687 0.379,-0.148 0.478,0.261 0.648,0.517 0.071,-0.219 0.167,-0.399 0.329,-0.509 -0.043,-0.032 -0.086,-0.067 -0.131,-0.116 -0.084,-0.186 -0.116,-0.379 -0.147,-0.577 -0.269,-0.233 -0.07,0.12 -0.134,0.228 -0.092,0.177 -0.214,-0.035 -0.175,-0.027 -0.116,-0.026 -0.886,-0.1 -0.503,-0.633 0.087,-0.174 0.254,0.15 0.373,0.192 0.156,-0.192 -0.203,-0.27 -0.127,-0.443 0.275,-0.054 0.615,0.45 0.674,0.664 0.087,0.045 0.084,-0.051 0.047,-0.078 0.089,-0.189 0.224,-0.06 0.34,-0.048 0.065,-0.101 0.148,-0.186 0.25,-0.259 -0.131,-0.071 -0.235,-0.016 -0.358,-0.078 -0.271,-0.379 -0.302,-0.409 -0.634,-0.734 0.21,-0.318 0.194,-0.047 0.42,0.112 -0.032,-0.129 0.147,-0.298 -0.065,-0.386 0.257,-0.095 0.637,0.643 0.821,0.096 0.226,0.131 0.07,0.343 0.076,0.518 0.132,0.065 0.181,0.157 0.134,0.263 0.052,0.048 0.07,0.096 0.079,0.143 0.096,0.087 0.181,0.164 0.245,0.224 0.154,-0.164 0.306,-0.479 0.542,-0.402 -0.117,0.197 -0.253,0.385 -0.388,0.57 0.056,0.081 0.124,0.171 0.195,0.303 0.088,-0.175 0.196,-0.198 0.334,-0.069 -0.032,-0.496 -0.073,-0.967 -0.286,-1.477 M 14.62,73.031 c -0.108,0.205 0.128,0.327 0.304,0.471 0.106,-0.2 -0.132,-0.327 -0.304,-0.471 m 1.098,-14.59 c 0.062,0.13 0.14,0.13 0.229,0.072 0.024,-0.015 0.046,-0.034 0.067,-0.053 0.052,-0.042 0.103,-0.107 0.16,-0.173 -0.044,-0.058 -0.068,-0.116 -0.079,-0.181 -0.121,0.108 -0.257,0.21 -0.377,0.335 m 0.496,-0.738 c -0.178,0.113 -0.383,0.352 -0.548,0.578 0.189,-0.147 0.373,-0.355 0.548,-0.578 m 0.311,-0.012 C 16.483,57.642 16.43,57.63 16.37,57.642 c -0.008,0.06 -0.021,0.119 -0.043,0.168 0.057,-0.006 0.119,-0.041 0.198,-0.119 m -0.719,14.493 c 0.246,0.396 0.394,0.263 0.742,0.716 0.127,-0.162 0.275,-0.205 0.382,-0.484 -0.243,-0.382 -0.804,-0.48 -1.124,-0.232 m 1.042,-5.128 c -0.144,-0.007 -0.11,0.116 -0.016,0.287 0.067,-0.072 0.181,-0.061 0.265,-0.001 0.012,-0.062 0.023,-0.137 0.029,-0.203 -0.057,-0.079 -0.097,-0.154 -0.097,-0.222 -0.043,0.002 -0.102,0.036 -0.181,0.139 m 0.008,-0.284 c 0.009,-0.015 0.009,-0.038 0.014,-0.055 -0.078,-0.062 -0.157,-0.123 -0.232,-0.186 0.007,0.247 -0.087,0.5 0.218,0.241 M 16.826,56.74 c -0.021,-0.019 -0.046,-0.014 -0.072,-0.006 -0.041,0.133 -0.09,0.27 -0.214,0.396 -0.012,0.048 0.008,0.098 0.044,0.145 0.108,-0.156 0.256,-0.362 0.242,-0.535 m -0.054,1.16 c 0,0.043 -0.008,0.082 -0.021,0.116 0.183,0.185 0.539,0.22 0.893,0.076 -0.1,-0.046 -0.207,-0.076 -0.329,-0.049 -0.159,-0.131 -0.275,-0.286 -0.394,-0.401 0.013,0.046 0.024,0.085 0.009,0.131 -0.003,0.014 -0.09,0.074 -0.158,0.127 m -1.475,15.792 c 0.248,0.262 0.431,0.062 0.596,-0.19 -0.327,-0.109 -0.449,-0.783 -1.023,-1.061 -0.078,0.465 0.688,0.748 0.427,1.251 M 13.513,57.895 c -0.213,0.11 -0.146,0.626 0.184,0.831 0.094,-0.308 0.037,-0.586 -0.184,-0.831 m 0.189,13.39 c 0.003,-0.008 0.006,-0.016 0.01,-0.021 -0.177,-0.091 -0.286,-0.218 -0.355,-0.354 0.043,0.139 0.182,0.274 0.345,0.375 m -0.008,3.142 c 0.243,-0.314 0.105,-0.558 -0.122,-0.775 -0.124,0.182 -0.229,0.356 -0.21,0.51 0.108,0.086 0.219,0.181 0.332,0.265 m -0.155,4.172 c -0.031,-0.023 -0.062,-0.051 -0.091,-0.077 0.017,0.062 0.029,0.124 0.04,0.182 0.187,-0.195 0.583,-0.249 0.217,-0.537 -0.133,0.281 0.118,0.241 -0.166,0.432 M 13.367,54.388 c -0.064,0.099 -0.123,0.2 -0.183,0.305 0.429,0.398 0.208,0.936 0.221,1.421 0.253,0.147 0.445,-0.092 0.728,0.248 -0.124,0.324 -0.252,-0.306 -0.294,0.335 0.17,-0.011 0.314,-0.203 0.489,-0.172 0.154,0.221 -0.184,0.213 -0.224,0.379 0.168,0.101 0.324,0.129 0.483,0.168 0.135,-0.362 0.14,-0.698 -0.094,-0.984 0.286,-0.258 -0.159,-0.366 0.073,-0.611 -0.362,-0.347 -0.795,-0.973 -1.199,-1.089 m -0.958,-2.807 c -0.229,0.179 0.178,0.226 -0.054,0.412 0.343,0 0.465,0.586 0.836,0.56 -0.12,-0.355 -0.423,-0.672 -0.782,-0.972 m 0.119,-0.697 c -0.21,-0.159 -0.249,-0.7 -0.499,-0.628 -0.16,0.029 0.029,0.271 0.062,0.388 0.086,0.312 0.273,0.78 0.715,0.919 0,-0.101 0.002,-0.201 0.092,-0.155 0.123,-0.22 -0.189,-0.362 -0.37,-0.524 m -0.818,4.647 c 0.152,0.106 0.218,-0.3 0.337,-0.402 -0.188,-0.163 0.031,-0.405 -0.258,-0.549 -0.076,0.129 -0.152,0.253 -0.227,0.38 0.405,-0.229 0.137,0.331 0.148,0.571 m 1.249,-0.794 c -0.026,0.079 -0.066,0.053 -0.108,0.026 -0.031,0.047 -0.059,0.104 -0.091,0.15 0.156,0.124 0.113,0.286 0.348,0.397 -0.014,-0.195 -0.014,-0.4 -0.149,-0.573 m -0.34,15.24 h -0.034 c 0,0.004 0,0.01 -0.003,0.013 0.014,-0.003 0.025,-0.009 0.037,-0.013 m -0.021,3.336 c -0.081,-0.022 -0.154,-0.063 -0.215,-0.142 -0.222,0.114 -0.285,0.226 -0.325,0.338 0.219,0.112 0.456,0.189 0.603,0.201 0.118,-0.112 -0.108,-0.235 -0.105,-0.317 0.001,-0.018 0.023,-0.049 0.042,-0.08 M 12.393,52.584 c 0.044,-0.118 -0.125,-0.198 -0.216,-0.288 0.082,0.083 0.017,0.384 0.082,0.515 0.023,0.054 0.188,0.1 0.199,0.162 0.002,0.032 -0.154,0.205 -0.137,0.229 0.063,0.088 0.12,-0.119 0.153,-0.1 0.145,0.084 0.419,0.641 0.55,0.22 -0.086,-0.083 -0.175,-0.163 -0.242,-0.083 -0.036,-0.3 -0.079,-0.686 -0.435,-0.58 -0.065,-0.075 0.008,-0.106 0.046,-0.075 m 0.005,22.379 c 0.031,0.045 0.065,0.096 0.102,0.149 0.125,-0.179 0.228,-0.354 0.325,-0.533 -0.167,-0.178 -0.405,-0.285 -0.64,-0.241 -0.172,-0.186 -0.337,-0.279 -0.489,-0.33 -0.176,0.152 -0.357,0.262 -0.53,0.353 0.307,0.432 0.92,0.776 1.232,0.602 m -0.059,1.874 c 0.025,0.023 0.048,0.042 0.076,0.061 0.124,-0.18 0.164,-0.344 0.153,-0.499 -0.077,0.139 -0.148,0.287 -0.229,0.438 m 0.138,-0.757 c -0.03,-0.05 -0.06,-0.096 -0.094,-0.143 -0.112,0.186 -0.228,0.366 -0.325,0.522 0.213,-0.04 0.322,-0.205 0.419,-0.379 m -1.77,-18.989 c -0.033,-0.026 -0.062,-0.049 -0.095,-0.075 -0.018,0.019 -0.043,0.037 -0.065,0.06 0.047,0.047 0.095,0.09 0.141,0.132 0,-0.042 0.011,-0.078 0.019,-0.117 m -0.181,0.756 c -0.043,-0.035 -0.09,-0.063 -0.144,-0.098 0.045,0.194 0.165,0.337 0.338,0.367 -0.06,-0.1 -0.123,-0.197 -0.194,-0.269 m -0.051,-2.523 c 0.008,-0.391 -0.33,0.087 -0.467,-0.04 -0.041,0.098 0.08,0.161 0.151,0.236 0.121,0.024 0.186,-0.289 0.316,-0.196 m -0.456,0.761 c 0.083,0.053 0.108,0.108 0.083,0.181 0.122,0.095 0.167,-0.074 0.269,-0.124 0.112,-0.05 0.289,0.011 0.379,-0.147 -0.238,0.061 -0.518,-0.14 -0.731,0.09 m 0.81,20.204 c -0.034,0.245 0.244,0.419 0.456,0.614 0.026,-0.039 0.051,-0.071 0.077,-0.105 -0.099,-0.225 -0.253,-0.418 -0.533,-0.509 m 0.576,0.014 c 0.206,-0.462 -0.448,-0.752 -0.471,-1.166 -0.246,0.246 -0.751,0.382 -0.789,0.83 0.167,0.096 0.338,0.202 0.449,-0.096 0.289,0.286 0.558,0.401 0.811,0.432 M 9.703,60.474 C 9.508,60.399 9.25,60.086 9.136,60.341 c 0.046,0.035 0.089,0.073 0.133,0.108 0.029,0.032 0.059,0.056 0.08,0.07 L 9.36,60.511 c 0.054,0.031 0.111,0.047 0.17,0.066 0.017,0.001 0.03,0.004 0.046,0.007 0.005,0.004 0.03,0.016 0.059,0.029 0.062,0.022 0.127,0.038 0.184,0.073 0.043,-0.023 0.084,-0.048 0.13,-0.074 0.011,-0.028 0.018,-0.042 0.023,-0.041 0.006,0 0.008,0.006 0.014,0.007 0.036,-0.027 0.073,-0.059 0.105,-0.09 C 10.037,60.458 9.997,60.438 9.949,60.415 9.87,60.519 9.779,60.584 9.705,60.499 9.703,60.493 9.703,60.481 9.703,60.474 m 0.359,-3.818 c 0.048,-0.019 0.097,-0.038 0.145,-0.057 -0.253,-0.248 -0.578,-0.411 -0.763,-0.527 -0.044,0.074 0.046,0.12 0.083,0.182 0.275,0.193 0.386,0.277 0.535,0.402 M 8.078,79.606 C 8.197,79.67 8.287,79.572 8.383,79.503 8.292,79.479 8.208,79.452 8.126,79.413 8.108,79.486 8.095,79.556 8.078,79.606 M 8.162,57.294 C 8.143,57.269 8.111,57.246 8.075,57.223 8.066,57.257 8.066,57.289 8.067,57.323 8.1,57.312 8.132,57.305 8.162,57.294 M 7.081,78.632 c -0.006,0.04 -0.014,0.081 -0.025,0.12 0.034,-0.03 0.053,-0.037 0.078,-0.057 z m 0.87,-21.274 c 0,-0.083 0,-0.166 -0.115,-0.222 C 7.831,57.228 7.828,57.319 7.763,57.418 7.534,57.155 7.868,56.71 8.01,57.172 8.106,56.738 7.571,56.85 7.331,56.512 c -0.071,0.073 0.035,0.417 0.152,0.233 0.102,0.194 -0.031,0.391 -0.093,0.486 0.138,0.193 0.362,0.515 0.54,0.688 0.026,-0.186 0.014,-0.372 0,-0.557 0.006,0 0.014,-0.003 0.021,-0.004 M 7.358,78.967 c 0.011,0.065 0.035,0.119 0.094,0.149 0.008,-0.004 0.011,-0.01 0.02,-0.012 z m 0.267,-0.07 c 0.079,0.01 0.156,0.023 0.224,-0.05 0.237,-0.356 -0.151,-0.77 -0.491,-0.886 -0.138,0.135 -0.2,0.278 -0.232,0.412 0.178,0.173 0.499,0.315 0.499,0.524 m 4.288,-26.816 c -0.033,-0.108 -0.294,-0.387 -0.28,-0.34 -0.039,-0.138 -0.039,-0.205 -0.06,-0.387 -0.008,-0.031 0.029,-0.193 0.024,-0.208 -0.073,-0.138 -0.13,-0.167 0.005,-0.335 -0.362,-0.192 -0.374,-0.458 -0.569,-0.685 0.094,-0.032 0.192,-0.015 0.292,0.01 0.011,-0.359 -0.246,-0.662 -0.273,-1.015 -0.2,-0.259 -0.432,-0.15 -0.458,-0.371 0.12,-0.19 0.307,0.027 0.479,0.167 0.447,-0.89 -0.679,-1.053 -1.079,-1.782 -0.175,-0.096 0.243,-0.317 -0.059,-0.383 -0.151,0.021 -0.264,0.278 -0.386,0.479 0.065,0.054 0.132,0.104 0.199,0.159 -0.167,0.27 -0.385,0.237 -0.561,0.445 -0.141,0.143 0.06,0.216 -0.005,0.337 -0.111,0.388 -0.305,0.251 -0.451,0.431 -0.2,0.313 0.1,0.079 0.195,0.156 C 8.831,48.832 8.805,49.09 8.704,49.144 8.658,49.164 8.51,49.018 8.462,49.062 8.364,49.137 8.338,49.375 8.236,49.443 8.143,49.495 8.035,49.402 7.944,49.429 c -0.076,0.033 -0.133,0.141 -0.2,0.18 -0.413,0.234 -0.618,0.091 -1.003,0.544 -0.173,0.212 0.056,0.34 -0.031,0.541 -0.102,0.198 -0.243,0.152 -0.359,0.273 -0.247,0.789 0.265,1.414 0.39,2.123 -0.045,0.096 -0.096,0.126 -0.158,0.1 -0.043,0.212 0.249,0.348 0.152,0.572 0.097,0.047 0.165,-0.148 0.242,-0.255 0.138,0.316 -0.224,0.491 -0.256,0.924 0.184,0.122 0.308,0.019 0.108,0.312 0.334,0.326 0.321,0.326 0.607,0.607 0.141,0.217 -0.273,0.174 -0.157,0.436 0.219,0.174 0.436,0.353 0.657,0.531 0.073,0.32 0.353,0.6 0.369,0.936 0.339,-0.091 0.678,-0.2 1.012,-0.316 C 9.238,56.903 9.163,56.872 9.102,56.807 8.993,56.71 9.026,56.573 8.926,56.446 8.839,56.324 8.491,55.969 8.448,55.945 8.242,55.803 8.078,56.056 7.962,55.776 8.146,55.593 8.361,55.621 8.607,55.844 8.756,55.833 8.872,55.588 9.046,55.749 9.02,55.531 9.004,55.316 8.95,55.103 8.729,55.03 8.856,55.428 8.788,55.542 8.542,55.782 8.55,55.369 8.281,55.242 8.415,55.006 8.627,55.25 8.751,54.947 8.459,55.033 8.097,54.666 7.781,54.612 7.89,54.306 8.041,54.322 8.202,54.391 8.324,54.306 7.97,54.016 7.941,54.179 7.885,54.053 7.916,53.915 7.995,53.77 c 0.42,0.056 0.702,0.659 1.114,0.9 0.025,0.014 0.106,0.109 0.129,0.108 0.02,-0.008 0.085,-0.162 0.093,-0.155 0.048,0.024 0.129,0.256 0.108,0.31 0.099,0.035 0.193,0.014 0.264,-0.117 0.062,0.266 0.447,0.421 0.599,0.14 C 10.145,54.678 9.689,54.739 9.736,54.275 9.258,53.867 8.591,53.8 8.534,53.185 8.856,53.276 9.25,53.909 9.657,53.755 9.751,53.444 9.15,53.283 9.578,52.899 9.332,52.753 9.227,52.579 9.096,52.404 9.382,52.391 9.759,52.95 10.003,52.68 9.62,51.993 8.975,51.212 8.208,51.116 7.976,50.899 8.264,50.772 8.332,50.424 c 0.017,-0.1 -0.138,-0.349 0.159,-0.437 0.09,-0.026 0.149,0.095 0.24,0.085 0.083,-0.009 0.451,-0.092 0.448,-0.092 0.187,0.134 -0.054,0.467 0.189,0.494 0,-0.356 0.006,-0.712 -0.161,-1.033 0.172,-0.127 0.374,-0.066 0.598,0.141 0.051,0.52 0.189,1.031 -0.091,1.619 0.717,0.456 0.874,1.274 1.551,1.484 0.105,0.135 -0.014,0.319 0.238,0.419 -0.076,-0.081 0.003,-0.494 0.023,-0.207 0.17,0.089 0.238,-0.426 0.424,-0.221 0.103,-0.128 -0.093,-0.21 -0.104,-0.312 -0.012,-0.091 0.096,-0.199 0.067,-0.283 m -1.774,-5.505 c -0.218,0.242 0.201,0.355 0.141,0.57 0.17,0.236 0.243,-0.182 0.402,-0.016 -0.099,-0.264 -0.315,-0.498 -0.543,-0.554 M 9.921,41.541 c -0.083,-0.185 0.098,-0.423 -0.145,-0.57 -0.073,0.044 -0.141,0.09 -0.224,0.047 -0.217,0.437 0,1.089 0.47,1.168 0.105,-0.241 0.069,-0.457 -0.101,-0.645 m -0.683,4.08 C 9.225,45.513 9.295,45.39 9.247,45.288 9.258,45.309 9.045,45.03 8.961,44.945 8.918,44.898 8.839,44.984 8.788,44.916 8.477,44.492 7.798,44.111 7.342,43.748 7.22,43.927 7.304,44.067 7.248,44.237 6.625,44.032 5.874,43.032 5.272,42.97 c -0.246,0.194 0.084,0.6 -0.254,0.592 0.138,0.207 0.384,0.266 0.634,0.736 0.05,0.094 0.079,0.319 0.127,0.442 0.13,0.346 0.368,0.387 0.122,0.773 0.17,0.124 0.132,0.289 0.237,0.425 -0.059,0.101 -0.124,0.201 -0.181,0.301 0.337,0.093 0.306,0.486 0.453,0.71 0.046,0.066 0.162,0.083 0.198,0.159 0.099,0.179 0.105,0.426 0.21,0.619 0.068,0.132 0.251,0.248 0.351,0.401 0.102,0.163 0.162,0.405 0.26,0.545 0.334,-0.333 0.76,-0.646 0.9,-1.189 C 8.157,47.363 8.194,47.201 8.202,47.045 7.981,46.858 7.84,46.955 7.854,46.647 7.9,46.5 8.284,46.811 8.183,46.912 8.415,46.707 8.726,46.978 8.961,46.752 9.182,46.504 8.807,46.379 8.923,46.155 8.513,45.968 8.329,45.538 8.097,45.258 7.798,44.898 7.449,44.725 7.22,44.441 c 0.357,-0.463 0.861,0.94 1.387,0.781 0.116,-0.195 0.006,-0.136 -0.088,-0.185 0.295,-0.165 0.15,0.242 0.572,0.347 0.11,0.154 0.136,0.333 0.08,0.519 0.048,0.038 0.184,-0.082 0.203,-0.17 C 9.379,45.706 9.247,45.649 9.238,45.621 M 4.725,43.887 c -0.187,-0.114 0.321,-0.376 -0.011,-0.46 -0.079,0.123 -0.152,0.25 -0.229,0.375 0.156,0.171 0.337,0.338 0.366,0.531 0.157,0.06 0.081,-0.564 -0.126,-0.446 M 4.211,47.54 c -0.11,0.202 0.127,0.329 0.3,0.469 0.226,0.854 1.064,1.067 1.528,1.691 C 6.192,49.536 5.995,49.5 5.934,49.384 5.827,49.192 5.696,48.705 5.504,48.472 5.229,48.146 4.737,48.036 4.454,47.623 4.292,47.926 4.382,47.603 4.211,47.54 m 0.238,9.233 c 0.098,-0.472 -0.527,-0.605 -0.872,-0.817 0.206,0.383 0.57,0.596 0.872,0.817 M 4.562,56.752 C 4.53,56.979 4.958,57.112 5.108,57.305 5.159,57.072 4.771,56.726 4.562,56.752 M 4.889,54.081 C 4.624,54.008 4.786,54.377 4.487,54.089 4.25,54.322 4.525,54.441 4.349,54.658 4.63,54.754 4.958,55.13 5.207,55.01 5.283,54.665 5.015,54.384 4.889,54.081 M 4.255,47.461 C 4.21,47.263 3.925,47.25 3.774,46.96 3.585,47.29 4.06,47.563 4.255,47.461 m 0.259,3.488 C 4.21,50.77 4.112,50.54 3.907,50.339 c -0.289,0.16 0.018,0.514 -0.167,0.433 0.08,0.373 0.598,0.423 0.774,0.177 m -0.726,2.69 c 0.194,-0.025 0.459,-0.298 0.207,-0.508 -0.121,0.176 -0.229,0.356 -0.207,0.508 m 0.156,-1.57 c 0.09,-0.043 0.198,0.044 0.27,-0.127 0.092,-0.008 0.259,0.178 0.464,0.043 0.108,-0.141 -0.202,-0.141 -0.242,-0.082 0,-0.336 -0.599,-0.834 -0.837,-0.563 0.051,0.257 0.167,0.501 0.345,0.729 M 4.802,49.487 C 4.692,49.33 4.315,49.23 4.386,49.036 4.139,49.032 4.479,49.528 4.055,49.103 3.874,49.09 4.083,49.191 4.139,49.29 4.261,49.495 4.414,49.855 4.841,50.084 4.845,49.883 4.519,49.746 4.802,49.487 m 0.049,1.057 C 4.449,50.48 4.338,49.955 4.066,49.903 3.874,50.3 4.686,50.772 4.958,50.853 5.011,50.737 4.779,50.671 4.851,50.544 m -0.647,6.48 c -0.186,0.3 -0.076,0.533 0.01,0.772 0.246,-0.012 0.492,-0.023 0.735,-0.039 0.062,0.09 0.134,0.17 0.237,0.239 0.078,-0.053 0.14,-0.101 0.21,-0.15 C 4.981,57.587 4.565,57.359 4.204,57.024 m 1.853,0.485 C 5.877,57.341 5.704,57.211 5.593,57.475 5.42,57.408 5.515,57.086 5.351,57.385 c 0.242,0.093 0.526,0.45 0.706,0.124 m 0.076,0.855 C 6.008,58.255 5.877,58.166 5.75,58.079 c -0.036,0.027 -0.068,0.068 -0.102,0.094 0.255,0.147 0.45,0.484 0.757,0.491 -0.086,-0.11 -0.173,-0.218 -0.272,-0.3 M 5.655,56.056 c 0.081,0.185 0.359,0.317 0.483,0.498 C 6.379,56.241 5.906,56.072 6.127,55.757 5.995,55.65 5.863,55.543 5.733,55.44 5.41,55.682 5.714,55.695 5.75,55.903 5.756,55.936 5.648,56.026 5.655,56.056 M 5.798,46.338 C 5.558,46.208 5.533,46.552 5.461,46.744 5.583,46.792 5.66,46.552 5.818,46.8 6.014,46.606 5.736,46.505 5.798,46.338 M 5.79,47.009 C 5.937,46.96 6.116,47.136 6.232,46.912 6.147,46.846 6.062,46.773 5.971,46.705 5.909,46.804 5.852,46.908 5.79,47.009 m 0.538,2.693 C 6.511,49.903 6.659,49.876 6.77,49.613 6.54,49.331 6.551,49.415 6.243,49.188 6.095,49.6 6.781,49.427 6.328,49.702 m 0.237,8.102 C 6.572,57.816 6.583,57.835 6.6,57.853 6.634,57.835 6.67,57.812 6.696,57.796 6.645,57.787 6.6,57.787 6.565,57.804 M 6.481,55.82 C 6.6,55.96 6.684,55.909 6.789,55.956 6.848,55.543 6.77,55.157 6.384,54.836 5.993,55.25 6.654,55.449 6.481,55.82 M 3.361,45.048 c -0.073,0.137 -0.175,0.093 -0.246,0.248 0.161,0.142 0.824,0.746 1.158,0.828 C 4.411,45.628 3.658,45.23 3.361,45.048 M 2.628,48.4 C 2.713,48.472 2.8,48.545 2.889,48.611 2.865,48.441 2.973,48.26 3.135,48.361 3.243,48.206 2.922,48.14 2.852,48.021 2.776,48.151 2.704,48.272 2.628,48.4 M 2.112,41.092 C 2.085,41.145 2.053,41.194 2.021,41.249 2.245,41.333 2.129,41.49 2.304,41.59 2.347,41.444 2.137,41.355 2.356,41.176 2.263,41.068 2.198,41.158 2.112,41.092 m -0.653,5.345 c 0.2,0.385 0.203,0.806 0.694,1.127 C 2.43,47.285 1.832,47.185 2.161,46.895 1.85,46.81 1.796,46.452 1.459,46.437 M 0.906,40.345 c 0.3,0.141 0.368,0.199 0.592,0.477 0.275,-0.276 -0.465,-0.879 -0.592,-0.477 m 0.232,9.904 c 0.117,-0.227 -0.189,-0.363 -0.367,-0.522 -0.122,0.22 0.186,0.36 0.367,0.522 M 0.81,45.577 C 0.669,45.427 0.55,45.381 0.434,45.381 0.399,45.501 0.479,45.597 0.428,45.721 0.55,45.64 0.703,45.772 0.81,45.577 M 1.116,44.238 C 1.017,44.179 0.847,44.148 0.739,44.051 0.652,43.971 0.669,43.798 0.569,43.686 0.361,43.442 0.204,43.623 0.221,43.288 c -0.215,-0.17 -0.384,0.015 -0.616,-0.271 -0.072,-0.078 0.028,-0.186 0.07,-0.282 -0.11,-0.09 -0.218,-0.175 -0.326,-0.268 -0.062,0.283 -0.229,0.584 0.006,0.807 0.073,0.068 -0.028,0.18 -0.068,0.276 0.323,0.047 0.224,0.23 0.416,0.448 0.088,-0.401 0.354,0.313 0.442,-0.092 0.263,0.591 0.844,0.501 1.115,0.904 0.199,-0.244 -0.39,-0.318 -0.144,-0.572 m -2.285,-1.06 c -0.033,-0.054 -0.03,-0.242 -0.045,-0.257 -0.025,-0.032 -0.17,-0.024 -0.241,-0.085 -0.138,-0.12 -0.127,-0.429 -0.28,-0.342 -0.011,0.318 0.148,0.286 -0.144,0.558 0.252,0.223 0.003,0.498 0.37,0.529 -0.036,0.366 0.329,0.645 0.383,0.989 0.211,0.232 0.319,-0.139 0.532,0.093 0.043,-0.078 -0.048,-0.125 -0.09,-0.186 0.014,-0.182 0.036,-0.34 -0.034,-0.595 -0.065,-0.216 -0.27,-0.361 -0.451,-0.704 m -0.936,0.262 c -0.227,0.226 0.194,0.313 0.302,0.468 0.145,-0.169 -0.162,-0.58 -0.302,-0.468 m -0.527,-0.424 c 0.17,0.127 0.337,0.209 0.484,0.169 0.212,-0.219 -0.4,-0.392 -0.484,-0.169 m 0.459,1.84 c -0.205,-0.359 -0.556,-0.689 -0.958,-1.004 -0.132,0.126 0.011,0.169 0.04,0.259 0.096,0.277 0.506,0.85 1.048,1.186 -0.1,-0.156 0.311,-0.422 0.027,-0.543 -0.054,0.141 -0.138,0.083 -0.2,0.176 -0.068,-0.072 0.011,-0.104 0.043,-0.074 m -1.643,-3.933 c 0.122,-0.191 0.315,0.074 0.462,0.035 0.04,-0.301 -0.317,-0.106 -0.459,-0.369 -0.036,0.367 -0.09,0.696 -0.162,0.959 0.129,0.093 0.232,0.345 0.321,0.411 0.215,0.162 0.421,0.123 0.566,0.346 -0.037,-0.261 0.122,-0.13 0.271,-0.12 -0.149,-0.371 -0.559,-0.797 -0.999,-1.262 m -0.394,1.144 c 0.083,0.06 0.17,0.106 0.241,0.091 0,-0.177 0.007,-0.331 -0.065,-0.435 -0.046,0.143 -0.108,0.259 -0.176,0.344 m -0.504,2.652 c 0.332,0.186 0.575,-0.231 0.927,0.067 -0.193,-0.27 -0.561,-0.781 -0.762,-0.839 -0.244,0.297 -0.277,0.55 -0.165,0.772 m 0.12,-1.962 c 0.062,0.061 0.122,0.123 0.17,0.162 0.23,0.175 0.517,0.079 0.574,0.355 0.134,-0.366 -0.608,-0.545 -0.209,-0.966 -0.073,-0.087 -0.14,-0.133 -0.202,-0.162 -0.132,0.167 -0.246,0.375 -0.333,0.611 m -0.258,0.88 c -0.014,0.077 -0.028,0.155 -0.04,0.232 0.026,-0.042 0.054,-0.088 0.08,-0.133 -0.017,-0.033 -0.026,-0.066 -0.04,-0.099 m 25.237,52.685 c 0.454,0.074 0.279,-0.592 0.506,-0.785 -0.068,-0.286 -0.212,0.125 -0.419,0 0.017,0.315 -0.151,0.413 -0.087,0.785 m 0.851,-2.55 c -0.057,-0.088 -0.105,-0.174 0,-0.2 -0.122,-0.255 -0.325,0.207 -0.34,0.393 0.126,-0.049 0.21,-0.142 0.34,-0.193 m 0.699,-1.874 c -0.341,0.074 -0.681,0.147 -1.021,0.216 0.368,0.341 0.792,0.097 1.021,-0.216 m 0.578,-11.036 c -0.047,-0.157 -0.02,-0.396 0.096,-0.579 -0.181,0.179 -0.376,0.3 -0.458,0.565 0.008,0.007 0.011,0.012 0.013,0.03 -0.005,0 -0.013,0.003 -0.016,0.007 -0.017,0.043 -0.025,0.089 -0.028,0.143 -0.134,0.012 -0.253,0.116 -0.369,0.261 -0.09,0.211 -0.043,0.413 0.162,0.342 -0.122,-0.42 0.289,-0.587 0.6,-0.769 m 0.244,1.588 c -0.11,-0.435 0.065,-0.875 -0.077,-1.31 -0.575,0.195 -0.119,0.438 -0.136,0.661 -0.008,0.113 -0.207,0.136 -0.181,0.286 0,0.008 0.281,0.469 0.394,0.363 M 23,84.32 c 0.071,-0.223 -0.065,-0.439 -0.218,-0.649 -0.456,0.178 0.032,0.792 0.218,0.649 m 0.06,-4.337 c -0.082,0.011 -0.159,0.026 -0.241,0.031 -0.023,0.041 -0.051,0.079 -0.074,0.112 0.08,-0.066 0.185,-0.112 0.315,-0.118 z m 0.147,-1.437 c -0.059,-0.192 -0.11,-0.392 -0.161,-0.597 -0.051,0.237 0.116,0.328 -0.068,0.749 0.082,0.004 0.158,-0.057 0.229,-0.152 m 0.009,10.548 c 0.319,-0.373 0.599,-0.507 0.659,-0.678 -0.173,-0.019 -0.54,0.118 -0.674,0.324 0.04,0.023 0.088,0.036 0.147,0.035 -0.034,0.189 -0.102,0.091 -0.183,0.031 -0.032,0.089 -0.027,0.186 0.051,0.288 m 0.985,-8.37 c 0.062,-0.532 -0.207,-1.054 0.102,-1.599 -0.68,0.191 -1.054,1.063 -0.68,1.524 0.702,-0.899 -0.127,0.479 0.578,0.075 M 23.918,89.1 c 0.059,-0.078 0.062,-0.2 0.059,-0.306 -0.073,0.12 -0.094,0.23 -0.059,0.306 m 0.189,-0.42 c 0.108,-0.054 0.102,-0.091 0.059,-0.12 -0.033,0.029 -0.065,0.061 -0.095,0.092 0.014,0.009 0.022,0.009 0.036,0.028 m 0.283,2.067 c 0.097,-0.088 0.213,-0.181 0.334,-0.271 -0.065,0.013 -0.135,0.031 -0.199,0.067 -0.062,0.037 -0.106,0.09 -0.146,0.156 0.005,0.01 0.005,0.029 0.011,0.048 m 0.923,-6.12 c -0.133,-0.332 -0.821,-0.11 -0.705,0.305 0.213,-0.034 0.495,-0.27 0.705,-0.305 m -0.065,5.267 c -0.079,0.067 -0.162,0.125 -0.162,0.277 0.094,-0.089 0.156,-0.186 0.162,-0.277 m 0.156,0.554 c -0.059,-0.038 -0.121,-0.079 -0.188,-0.097 -0.014,0.01 -0.022,0.013 -0.036,0.025 0.076,0.023 0.147,0.047 0.224,0.072 M 24.147,77.991 C 24.152,78 24.161,78 24.161,78.01 c -0.181,0.133 -0.357,0.271 -0.445,0.403 -0.006,0.012 -0.014,0.027 -0.025,0.039 -0.035,0.076 -0.051,0.154 -0.014,0.225 0.165,0.036 0.516,-0.354 0.567,-0.667 -0.029,-0.01 -0.06,-0.017 -0.097,-0.019 m 0.092,-0.871 c -0.364,0.199 -0.723,0.394 -1.101,0.628 0.08,0.16 0.173,0.315 0.281,0.456 0.11,-0.204 0.229,-0.426 0.342,-0.56 -0.048,0.151 -0.035,0.198 0.006,0.214 0.151,-0.215 0.303,-0.46 0.472,-0.738 m -1.592,1.022 c -0.556,0.306 -0.61,0.61 -1.006,0.685 0.077,-0.096 0.229,-0.193 0.181,-0.286 -0.212,0.108 -0.277,-0.206 -0.586,0.204 0.348,0.395 0.131,0.805 0.021,1.216 0.224,-0.063 0.461,-0.169 0.583,0.076 -0.132,0.103 -0.281,0.29 -0.065,0.189 0.441,-0.441 -0.013,-0.531 -0.043,-0.654 -0.105,-0.432 0.515,-0.422 0.594,-0.486 0.243,-0.172 0.488,-0.789 0.321,-0.944 m -1.408,2.662 c 0.229,-0.153 0.453,-0.266 0.628,-0.242 l 0.281,-0.352 c -0.144,-0.023 -0.314,0.038 -0.556,0.304 -0.081,-0.177 -0.203,-0.249 -0.344,-0.247 0.009,0.077 0.02,0.141 0.036,0.198 -0.022,0.041 -0.045,0.08 -0.073,0.113 0.06,0.014 0.084,0.06 0.028,0.226 m 0.512,10.316 c -0.002,-0.255 -0.056,-0.514 -0.081,-0.767 -0.086,0.06 -0.159,0.089 -0.227,0.108 -0.014,0.378 -0.137,0.779 -0.269,1.152 0.139,0.142 0.329,0.189 0.521,-0.043 0.054,-0.15 0.056,-0.293 0.056,-0.437 -0.002,-10e-4 -0.002,-0.009 -0.005,-0.009 0.003,-0.003 0.003,-0.003 0.005,-0.004 m 4.046,-2.538 c 0.023,-0.18 0.105,-0.359 0.017,-0.401 -0.017,0.12 -0.031,0.254 -0.023,0.402 z m 0.515,-4.353 c 0.244,-0.116 0.634,-0.684 0.771,-0.488 -0.366,0.294 -0.348,0.567 -0.547,0.854 0.643,0.289 0.598,1.163 1.308,1.001 0.037,-0.818 -0.419,-1.614 -0.399,-2.426 0.07,-0.07 0.135,-0.132 0.065,-0.191 -0.495,0.612 -0.608,0.098 -0.999,0.4 -0.478,0.297 -0.44,0.575 -0.199,0.85 m 0.162,3.369 c 0.034,-0.036 0.07,-0.079 0.113,-0.112 l 0.892,-0.213 C 27.358,87.095 27.139,86.988 27,86.835 c -0.167,-0.177 -0.2,-0.814 -0.632,-0.454 -0.076,0.153 0.267,0.397 0.219,0.652 -0.006,0.034 -0.243,0.163 -0.241,0.193 0.022,0.173 0.079,0.28 0.128,0.372 m 0.35,1.302 c 0.42,-0.479 0.443,-0.948 0.737,-1.425 -0.009,-0.07 -0.038,-0.132 -0.076,-0.184 -0.027,0.075 -0.054,0.167 -0.094,0.221 -0.113,0.156 -0.147,0.14 -0.254,0.39 -0.078,0.181 -0.303,0.394 -0.423,0.591 -0.044,0.073 -0.036,0.155 -0.053,0.228 0.028,0.097 0.076,0.171 0.163,0.179 m 1.657,-1.075 c 0.331,-0.01 0.184,-0.23 0.597,-0.482 -0.009,-0.311 -0.138,-0.623 0.312,-0.948 -0.083,-0.351 -0.321,-0.235 -0.45,-0.458 -0.956,0.964 -0.499,1.888 -1.126,2.839 0.621,-0.324 0.475,-0.631 0.667,-0.951 m 1.225,-2.38 c -0.518,-0.673 -0.645,-0.876 -0.945,-1.564 -0.432,0.374 -0.215,0.378 -0.016,0.56 -0.272,0.414 0.081,0.815 0.2,1.217 0.243,-0.027 0.359,0.309 0.761,-0.213 m 1.445,0.34 c -0.125,-0.275 0.648,-0.58 0.371,-0.853 -0.476,0.306 -0.61,0.849 -1.068,0.869 0.119,0.335 0.352,0.328 0.697,-0.016 m -5.53,-10.963 c 0.013,0.051 -0.109,0.068 -0.113,0.02 0.145,0.438 0.796,-0.433 0.677,-0.806 -0.201,-0.159 -0.394,-0.32 -0.594,-0.477 -0.068,0.178 -0.168,0.163 -0.244,0.252 -0.128,0.335 0.176,0.742 0.274,1.011 m 2.188,-1.725 c 0.448,0.061 0.658,-0.469 0.969,-0.801 0.156,-0.17 0.448,-0.279 0.626,-0.737 -0.156,-0.078 -0.057,-0.21 0.011,-0.33 -0.136,-0.111 -0.265,-0.215 -0.399,-0.322 -0.088,0.345 -0.339,0.386 -0.47,0.632 -0.033,0.057 -0.13,0.163 -0.138,0.229 0,0.012 0.078,0.193 0.084,0.182 -0.079,0.107 -0.419,0.169 -0.557,0.455 0.093,0.104 0.155,0.018 0.241,0.081 -0.162,0.069 -0.275,0.433 -0.451,0.432 -0.313,0.016 0.241,0.066 0.084,0.179 m -2.462,-6.65 c 0.338,-0.138 0.858,-0.531 1.299,-0.784 0.462,-0.259 0.949,-0.467 1.303,-0.78 0.141,-0.558 -0.195,-0.549 -0.437,-1.022 0.547,-0.145 -0.027,-0.077 -0.105,-0.464 0.307,-0.197 -0.319,-0.367 0.188,-0.571 -0.24,-0.367 -0.476,-0.734 -0.487,-1.111 0.026,-0.014 0.042,-0.018 0.067,-0.032 -0.279,-0.023 -0.41,0.343 -0.664,0.525 -0.02,0.018 -0.13,-0.055 -0.178,-0.032 -0.38,0.226 -0.607,0.747 -0.901,1.192 0.124,0.132 -0.187,0.348 0.014,0.467 -0.173,0.19 -0.346,0.399 -0.521,0.613 -0.044,0.174 0.015,0.225 0.422,-0.062 0.045,0.143 -0.285,0.411 -0.357,0.292 -0.184,0.505 -0.079,1.004 -0.158,1.503 -0.369,0.501 -0.377,-0.064 -0.706,0.301 0.024,0.437 0.768,0.155 1.221,-0.035 m 3.052,-3.17 c 0.32,-0.206 0.221,0.348 -0.072,0.465 0.582,-0.305 0.378,0.132 0.683,0.551 0.555,0.006 0.79,-0.771 1.133,-1.064 -0.513,0.089 -0.249,-0.372 -0.561,-0.643 -0.044,-0.033 -0.181,0.031 -0.232,-0.087 -0.122,-0.283 0.156,-0.851 -0.206,-0.93 0.537,-0.274 -0.323,-0.656 0.308,-0.666 -0.329,-0.306 -0.971,-0.166 -0.971,-0.721 -0.252,0.039 -0.362,0.07 -0.435,-0.003 -0.072,0.147 -0.165,0.286 -0.137,0.336 0.189,0.21 0.34,0.418 0.278,0.676 -0.3,0.028 -0.157,-0.342 -0.329,-0.261 -0.212,0.355 0.099,0.294 0.304,0.471 -0.094,0.216 0.059,0.386 -0.075,0.613 -0.354,-0.211 -0.197,-0.536 -0.631,-0.736 -0.101,0.127 -0.144,0.243 -0.158,0.346 0.227,-0.066 0.398,0.04 0.56,0.163 0.232,0.275 0.032,0.564 -0.022,0.846 0.345,-0.041 0.32,1.029 0.563,0.644 m -2.721,-3.584 c 0.002,0.049 0.002,0.096 0.007,0.138 0.013,-0.021 0.027,-0.041 0.044,-0.064 -0.028,-0.023 -0.042,-0.05 -0.051,-0.074 m -0.568,3.234 c -0.064,-0.004 -0.129,0.049 -0.183,0.132 0.063,-0.035 0.124,-0.09 0.183,-0.132 m -0.176,0.507 c 0.017,0.014 0.036,0.025 0.053,0.029 0.048,-0.079 0.094,-0.149 0.134,-0.224 -0.048,0.075 -0.116,0.136 -0.187,0.195 m 0.226,-0.489 c 0.018,0.081 0.018,0.147 0,0.206 0.029,-0.067 0.042,-0.139 0.031,-0.198 -0.011,-0.008 -0.019,-0.007 -0.031,-0.008 m 0.074,-0.667 c -0.065,0.03 -0.128,0.042 -0.188,0.043 -0.022,0.048 -0.036,0.092 -0.044,0.137 0.2,0.21 0.2,-0.025 0.232,-0.18 m 0.761,-4.437 c -0.339,-0.174 -0.051,-0.479 -0.272,-0.679 0.151,-0.357 0.397,-0.138 0.556,-0.451 -0.181,-0.48 -0.343,-1.118 -0.629,-1.488 -0.159,0.222 -0.374,0.447 -0.47,0.358 -0.159,0.256 0.009,0.502 -0.253,0.758 0.534,0.371 -0.192,0.606 0.437,1.023 -0.119,0.094 -0.238,0.191 -0.356,0.286 0.143,0.313 0.37,0.515 0.501,0.831 0.115,0.281 0.138,0.666 0.16,1.041 0.032,-0.229 0.202,-0.514 0.202,-0.653 0,-0.033 -0.119,-0.075 -0.13,-0.107 -0.015,-0.055 0.119,-0.161 0.028,-0.206 0.246,-0.269 0.084,-0.461 0.226,-0.713 m -1.235,5.257 c 0.024,0.011 0.054,0.015 0.083,0.006 -0.003,-0.027 0,-0.054 0.02,-0.081 -0.06,-0.024 -0.093,0.013 -0.103,0.075 m 0.004,-0.851 c -0.277,0.2 -0.134,0.212 -0.123,0.377 V 62.7 c 0.072,-0.143 0.137,-0.284 0.191,-0.422 -0.023,-0.012 -0.04,-0.012 -0.068,-0.031 m 0.071,-12.584 c -0.167,-0.236 -0.238,0.18 -0.399,0.018 -0.032,0.328 0.521,0.337 0.399,-0.018 M 10.71,40.706 c -0.351,-0.117 -0.033,0.231 -0.274,0.463 0.337,0.12 0.15,-0.258 0.274,-0.463 m 2.118,-1.105 c -0.214,-0.266 -0.3,0.29 -0.448,0.427 0.165,-0.033 0.304,-0.253 0.448,-0.427 M 40.759,-20.22 c -0.187,0.6 -0.292,0.391 -0.767,0.737 -2.296,1.682 -5.45,2.64 -7.59,4.218 -2.335,1.73 -3.536,4.705 -4.985,6.709 0.008,0.755 -0.533,1.233 -0.53,1.987 1.197,0.158 2.477,0.508 3.723,0.8 1.119,0.251 2.882,0.067 3.316,1.596 -1.436,0.989 0.203,1.398 -1.244,1.087 -1.251,-0.264 -6.732,-2.284 -7.96,-1.977 -0.626,0.155 -1.133,0.79 -1.662,1.02 -0.541,0.242 -1.133,0.421 -1.803,0.572 -1.411,0.309 -4.066,0.495 -5.346,0.375 -0.523,-0.057 -1.124,-0.244 -1.743,-0.419 -0.024,0.245 -0.075,0.697 -0.075,0.697 l 0.032,-0.079 c 0.101,0.157 0.158,0.471 0.158,0.471 l 0.02,-0.078 0.057,0.189 0.036,-0.178 c 0.099,0.167 0.057,0.391 0.057,0.391 0.02,-0.179 0.187,-0.324 0.187,-0.324 -0.124,0.178 0.011,0.615 0.011,0.615 0.136,-0.135 0.079,-0.425 0.079,-0.425 0.167,0.38 0.068,0.614 0.068,0.614 l 0.088,-0.089 0.022,0.135 0.057,-0.135 c 0.046,0.213 0,0.325 0,0.325 l 0.124,-0.112 c 0.043,0.2 0.021,0.516 0.021,0.516 l 0.068,-0.103 0.022,0.191 0.077,-0.179 c 0.046,0.234 -0.088,0.47 -0.088,0.47 0.032,-0.169 0.269,-0.201 0.269,-0.201 -0.102,0.066 -0.156,0.39 -0.156,0.39 0.133,-0.043 0.221,-0.234 0.221,-0.234 0,0.257 -0.132,0.491 -0.132,0.491 l 0.157,-0.021 -0.135,0.201 c 0.212,-0.078 0.323,-0.258 0.323,-0.258 0,0.213 -0.245,0.539 -0.245,0.539 0.067,-0.135 0.324,-0.192 0.324,-0.192 -0.224,0.067 -0.203,0.459 -0.203,0.459 0.103,-0.123 0.181,-0.123 0.181,-0.123 -0.156,0.213 -0.134,0.436 -0.134,0.436 l 0.11,-0.045 -0.022,0.167 0.09,-0.089 c 0.023,0.301 -0.122,0.594 -0.122,0.594 0.122,0 0.188,-0.112 0.188,-0.112 0,0.101 -0.156,0.358 -0.156,0.358 0.057,-0.066 0.213,-0.079 0.213,-0.079 -0.145,0.1 -0.224,0.438 -0.156,0.359 0.067,-0.078 0.203,-0.078 0.203,-0.078 -0.09,0.066 -0.17,0.278 -0.17,0.278 0.145,-0.055 0.191,-0.112 0.191,-0.112 0,0.082 -0.063,0.194 -0.119,0.282 0.087,-0.071 0.197,-0.069 0.197,-0.069 -0.156,0.089 -0.213,0.347 -0.213,0.347 l 0.114,-0.055 -0.025,0.156 0.091,-0.09 c 0,0.257 -0.113,0.57 -0.113,0.57 0.047,-0.201 0.246,-0.19 0.246,-0.19 -0.21,0.034 -0.167,0.47 -0.167,0.47 l 0.113,-0.022 -0.068,0.134 c 0.235,-0.077 0.325,-0.292 0.325,-0.292 0,0.37 -0.292,0.583 -0.292,0.583 0.245,-0.011 0.412,-0.213 0.412,-0.213 -0.043,0.302 -0.445,0.503 -0.445,0.503 0.167,-0.112 0.549,-0.023 0.549,-0.023 -0.393,0 -0.481,0.226 -0.481,0.226 0.099,-0.091 0.289,-0.036 0.289,-0.036 -0.201,0 -0.267,0.27 -0.267,0.27 L 16.273,4.62 c 0.136,0.391 0.089,0.771 0.089,0.771 h 0.09 L 16.398,5.548 16.486,5.47 c -0.056,0.246 0.022,0.48 0.022,0.48 L 16.565,5.829 C 16.611,6.063 16.543,6.175 16.543,6.175 16.576,6.017 16.8,5.985 16.8,5.985 16.611,6.028 16.653,6.476 16.653,6.476 L 16.732,6.375 16.7,6.633 16.767,6.522 C 16.856,6.7 16.899,7.07 16.899,7.07 l 0.079,-0.091 -0.022,0.224 0.079,-0.234 c 0.02,0.211 -0.022,0.38 -0.022,0.38 l 0.11,-0.078 c 0,0.145 -0.167,0.368 -0.167,0.368 l 0.099,-0.011 -0.088,0.236 0.088,-0.09 v 0.581 l 0.079,-0.089 c 0.011,0.201 -0.068,0.402 -0.068,0.402 0.046,-0.11 0.157,-0.122 0.157,-0.122 -0.089,0.089 -0.089,0.245 -0.089,0.245 l 0.079,-0.1 c 0.034,0.191 0.167,0.582 0.188,0.838 0.025,0.259 0.036,0.583 0.036,0.583 l 0.043,-0.078 -0.009,0.156 0.065,-0.045 c 0.079,0.403 0.124,0.828 0.124,0.828 l 0.032,-0.089 0.025,0.178 0.054,-0.089 c 0.091,0.324 0.094,0.591 0.094,0.591 l 0.065,-0.085 0.019,0.314 0.065,-0.189 c 0.105,0.231 0.04,0.611 0.04,0.611 0,0 0.138,-0.053 0.286,-0.076 0.151,-0.023 0.324,0.012 0.487,0.023 0.161,0.012 0.241,0.196 0.312,0.323 0.07,0.129 0.218,0.383 0.218,0.383 0,0 0.084,0.046 0.13,0.161 0.045,0.116 -0.035,0.163 -0.035,0.163 0,0 0.068,0.034 0.08,0.103 0.012,0.069 0.104,0.232 0.15,0.475 0.045,0.241 0.161,0.427 0.185,0.588 0.022,0.163 -0.08,0.522 -0.14,0.694 -0.056,0.175 0,0.335 -0.056,0.522 -0.057,0.184 -0.3,0.346 -0.3,0.346 0,0 0.022,0.138 0.045,0.254 0.025,0.116 0.163,0.519 0.198,0.683 0.035,0.16 0.035,0.415 0.102,0.496 0.071,0.081 0.419,0.127 0.476,0.37 0.056,0.243 -0.103,0.521 -0.209,0.672 -0.105,0.149 -0.278,0.299 -0.312,0.403 -0.035,0.105 -0.162,0.254 -0.264,0.406 -0.107,0.149 -0.082,0.324 -0.187,0.601 -0.102,0.278 -0.497,0.473 -0.497,0.473 h 0.127 c -0.08,0.104 -0.394,0.232 -0.394,0.232 l 0.082,0.046 -0.198,0.081 0.116,0.024 c -0.183,0.115 -0.439,0.37 -0.718,0.659 -0.275,0.289 -0.692,0.67 -0.692,0.67 h 0.105 l -0.116,0.138 0.161,-0.023 c -0.229,0.244 -0.75,0.556 -0.75,0.556 l 0.148,0.012 -0.137,0.08 0.116,0.023 c -0.254,0.161 -0.662,0.277 -0.662,0.277 l 0.13,0.058 -0.257,0.011 0.127,0.07 c -0.207,0.058 -0.634,0.058 -0.634,0.058 0,0 -0.359,0.023 -0.532,0 l 0.022,-0.07 c 0,0 -0.183,0.151 -0.588,-0.023 l 0.047,-0.035 -0.163,-0.011 0.104,-0.035 c 0,0 -0.473,-0.068 -0.614,-0.172 l 0.105,-0.023 -0.207,-0.105 0.173,-0.011 c 0,0 -0.264,-0.162 -0.427,-0.267 l 0.092,-0.011 c 0,0 -0.405,-0.184 -0.464,-0.243 L 12.93,22.233 12.795,22.17 c 0,0 -0.267,-0.137 -0.369,-0.304 H 12.55 L 12.393,21.8 12.582,21.776 c 0,0 -0.357,-0.056 -0.481,-0.178 l 0.181,-0.011 c 0,0 -0.304,-0.111 -0.405,0.046 0,0 0.022,-0.157 0.136,-0.18 0,0 -0.27,0.066 -0.391,-0.046 l 0.145,-0.021 c 0,0 -0.256,-0.057 -0.312,-0.1 l 0.121,-0.012 c 0,0 -0.235,-0.045 -0.336,-0.089 l 0.122,-0.055 h -0.199 l 0.122,-0.046 c 0,0 -0.179,-0.057 -0.368,-0.18 l 0.111,-0.011 c 0,0 -0.491,-0.135 -0.672,-0.268 h 0.224 l -0.334,-0.078 0.088,-0.068 c 0,0 -0.345,-0.032 -0.558,-0.224 l 0.199,-0.023 c 0,0 -0.355,-0.021 -0.423,-0.133 L 9.663,20.088 9.462,20.054 9.595,19.987 c 0,0 -0.435,-0.1 -0.569,-0.312 h 0.192 l -0.203,-0.09 0.156,-0.011 c 0,0 -0.292,-0.089 -0.604,-0.313 C 8.253,19.037 8.009,19.003 7.84,18.891 7.67,18.779 7.226,18.5 7.069,18.31 6.913,18.12 6.632,17.896 6.532,17.817 l 0.1,-0.066 -0.235,-0.035 0.058,-0.066 c 0,0 -0.348,-0.157 -0.47,-0.391 C 5.861,17.024 5.526,16.722 5.402,16.587 5.28,16.453 5.167,16.375 4.957,16.364 4.743,16.352 4.598,16.297 4.598,16.297 c 0,0 0.124,-0.011 0.131,-0.101 l -0.267,0.023 0.079,-0.102 c 0,0 -0.167,0.012 -0.302,-0.033 L 4.306,16.039 H 4.139 l 0.057,-0.067 c 0,0 -0.214,-0.134 -0.473,-0.134 -0.257,0 -0.747,-0.19 -1.061,-0.291 C 2.347,15.447 1.902,15.39 1.476,15.324 1.051,15.257 -0.392,14.853 -0.939,14.742 -1.488,14.631 -1.732,14.54 -1.936,14.451 l 0.147,-0.055 -0.281,-0.012 0.032,-0.091 c 0,0 -0.334,-0.055 -0.512,-0.189 -0.179,-0.135 -0.481,-0.291 -0.648,-0.435 l 0.121,-0.011 c 0,0 -0.345,-0.101 -0.49,-0.325 h 0.066 c 0,0 -0.28,-0.258 -0.369,-0.447 -0.09,-0.19 -0.033,-0.347 -0.09,-0.638 -0.056,-0.29 -0.134,-0.459 -0.234,-0.592 l 0.1,0.021 -0.121,-0.135 h 0.11 c 0,0 -0.28,-0.324 -0.323,-0.48 0,0 0.089,0.123 0.167,0.169 0,0 -0.047,-0.203 -0.135,-0.416 l 0.135,0.09 c 0,0 -0.146,-0.279 -0.246,-0.414 -0.099,-0.133 -0.167,-0.425 -0.167,-0.425 l 0.111,0.112 -0.09,-0.279 0.09,0.057 c 0,0 -0.079,-0.224 -0.125,-0.436 l 0.114,0.043 -0.145,-0.235 0.123,0.045 c 0,0 -0.291,-0.313 -0.313,-0.626 0,0 0.065,0.056 0.168,0.122 0,0 -0.168,-0.246 -0.168,-0.524 l 0.111,0.089 -0.089,-0.301 0.111,0.088 c 0,0 -0.101,-0.435 -0.122,-0.872 l 0.1,0.101 c 0,0 -0.057,-0.302 -0.281,-0.314 0,0 0.148,-0.055 0.27,-0.011 0,0 -0.1,-0.135 -0.1,-0.336 l 0.133,0.09 c 0,0 -0.079,-0.133 -0.011,-0.458 l 0.088,0.123 -0.099,-0.212 0.135,0.032 -0.09,-0.29 0.168,0.057 c 0,0 -0.114,-0.158 -0.057,-0.594 l 0.122,0.167 c 0,0 -0.065,-0.179 0,-0.412 l 0.045,0.133 0.011,-0.279 0.114,0.11 c 0,0 -0.035,-0.356 0.099,-0.681 l 0.09,0.123 c 0,0 -0.022,-0.235 -0.09,-0.302 0,0 0.192,0.067 0.225,0.213 0,0 -0.112,-0.269 -0.056,-0.526 l 0.066,0.202 c 0,0 -0.021,-0.314 0.09,-0.437 l 0.034,0.146 0.065,-0.269 0.093,0.123 c 0,0 0,-0.368 0.11,-0.537 l 0.01,0.179 0.09,-0.179 0.056,0.146 c 0,0 0.102,-0.37 0.102,-0.593 l 0.068,0.045 c 0,0 -0.025,-0.292 -0.014,-0.493 0.014,-0.201 0.036,-0.581 0,-0.894 C -3.343,1.209 -3.379,0.985 -3.379,0.818 L -3.312,0.805 -3.366,0.694 h 0.068 c 0,0 -0.124,-0.312 -0.091,-0.648 l 0.091,0.1 c 0,0 -0.113,-0.28 -0.045,-0.626 0.067,-0.347 0.077,-0.593 0.167,-0.939 0.088,-0.347 0.202,-0.549 0.291,-0.873 0.089,-0.324 0.188,-0.706 0.281,-0.884 0.085,-0.179 0.085,-0.358 0.085,-0.571 l 0.057,0.023 -0.063,-0.224 0.099,0.034 c 0,0 -0.046,-0.413 -0.046,-0.526 0,-0.112 -0.011,-0.201 -0.132,-0.347 -0.125,-0.146 -0.209,-0.395 -0.329,-0.562 -0.124,-0.168 -0.305,-0.477 -0.339,-0.577 -0.006,-0.024 0,-0.066 0,-0.101 -1.149,0.154 -2.214,0.641 -3.364,0.636 -0.248,0 -0.491,-0.027 -0.736,-0.052 l 0.437,16.074 c 0,0 0,9.327 1.54,12.762 0,0 1.263,2.561 1.263,4.142 0,1.582 0.095,5.888 0.095,6.165 0,0.193 0.388,3.769 0.27,6.229 l 0.116,-0.003 c -0.041,0.017 -0.082,0.037 -0.119,0.058 -0.003,0.11 -0.014,0.216 -0.02,0.324 0.141,0.093 0.354,0.178 0.506,0.368 0.077,-0.257 0.213,-0.12 0.294,-0.325 -0.257,-0.239 -0.27,-0.322 -0.497,-0.437 l 0.218,-0.008 c 0.014,0.008 0.028,0.014 0.039,0.023 0.034,-0.009 0.062,-0.016 0.072,-0.031 l 0.235,-0.011 c 0.311,0.304 0.812,0.694 0.894,1.131 0.396,0.117 0.308,0.386 0.569,0.685 0.105,-0.36 0.272,0.285 0.41,0.445 0.091,0.104 0.145,0.004 0.178,0.031 0.057,0.04 0.014,0.145 0.089,0.182 0.206,0.115 0.34,-0.014 0.594,0.149 0.076,-0.151 -0.192,-0.229 -0.173,-0.37 0.159,-0.317 0.591,-0.064 0.564,-0.446 0.181,0.611 0.439,1.184 1.13,1.365 C 1.419,42.928 1.348,42.831 1.448,42.703 1.028,42.474 0.977,41.781 0.528,41.958 0.461,41.88 0.558,41.772 0.601,41.673 0.439,41.641 0.28,41.609 0.116,41.509 c 0.224,-0.285 0.496,0.135 0.725,0.245 0.139,0.069 0.213,-0.017 0.284,0.013 0.141,0.048 0.141,0.348 0.266,0.207 C 1.388,41.848 1.427,41.703 1.554,41.541 1.158,41.154 0.816,41.161 0.569,40.747 0.513,40.556 0.703,40.317 0.531,40.153 0.641,40.126 0.756,40.1 0.866,40.081 0.816,39.963 0.816,39.828 0.895,39.683 l 0.397,-0.024 c 0.036,0.061 0.076,0.116 0.11,0.181 0.203,0.098 0.394,0.098 0.572,0.012 0.716,0.567 1.452,1.125 1.882,1.743 0.181,0.253 0.01,0.58 0.41,0.784 0.035,-0.119 -0.049,-0.206 0.002,-0.33 0.545,0.277 1.454,1.08 2.131,1.158 0.057,-0.168 -0.026,-0.306 0.096,-0.489 -0.419,0.064 -1.28,-1.101 -1.727,-1.507 0.315,-0.321 0.536,0.436 0.787,0.637 0.176,0.139 0.623,0.35 0.791,0.635 0.226,0.093 0.138,-0.051 0.243,-0.248 0.161,0.241 0.362,0.727 0.631,0.734 0.003,-0.111 -0.105,-0.204 0.003,-0.336 0.251,0.105 0.025,0.306 0.13,0.444 0.094,0.055 0.167,0.16 0.264,0.211 C 7.894,43.45 7.8,43.276 7.99,43.48 8.132,43.63 8.352,43.67 8.562,43.828 8.505,43.614 8.335,43.427 8.129,43.249 7.868,43.077 7.69,43.395 7.398,43.001 7.552,42.884 7.72,42.859 7.93,43.09 8.063,42.924 7.733,42.816 7.579,42.696 7.404,42.559 7.379,42.26 7.14,42.456 7.05,42.001 6.397,41.669 5.985,41.29 6.113,40.334 4.841,40.281 4.33,39.494 c 0.3,-0.153 0.602,0.287 0.877,0.49 0.227,0.162 0.62,0.414 0.832,0.562 C 6.082,40.424 5.912,40.347 5.822,40.251 6.104,39.949 5.971,39.735 5.99,39.484 5.825,39.256 5.593,39.281 5.416,39.229 5.366,39.102 5.315,38.958 5.278,38.813 l 0.877,-0.635 c 0.153,0.089 0.297,0.195 0.425,0.306 -0.065,0.088 -0.113,0.268 -0.223,0.057 -0.035,0.211 0.402,0.477 0.48,0.176 0.785,0.786 1.158,1.719 1.158,0.981 0,-0.981 -0.656,-2.372 -0.656,-2.372 L 9.114,39.37 8.777,38.128 c 0.2,0.156 0.326,0.403 0.564,0.461 0.143,-0.205 -0.035,-0.402 -0.167,-0.365 0.334,-0.471 -0.184,-0.767 0.041,-1.212 0.224,0.177 0.111,0.418 0.102,0.646 0.264,0.122 0.728,0.721 0.799,1.105 0.153,0.122 0.308,0.247 0.461,0.367 0.252,0.325 -0.313,0.826 0.006,1.136 0.215,-0.182 0.11,-0.167 0.272,-0.454 0.227,0.217 0.251,0.485 0.453,0.707 -0.178,0.478 -0.17,0.925 -0.133,1.361 0.524,-0.397 0.619,-1.287 0.916,-1.859 -0.129,-0.572 -0.378,-1.124 -0.888,-1.618 -0.04,-0.15 0.071,-0.325 -0.011,-0.469 C 10.909,37.78 10.04,37.623 10.359,37.04 10.051,36.623 9.765,36.644 9.374,36.578 9.247,36.516 9.284,36.418 9.332,36.319 9.207,36.211 9.096,36.253 8.969,36.147 L 9.12,36.045 c 0.059,0.013 0.113,0.008 0.152,-0.112 0.391,0.51 1.07,0.751 1.642,1.327 0.343,-0.427 0.125,-0.74 0.057,-1.087 0.059,-0.054 0.24,0.042 0.314,0.139 0.059,0.088 0.309,0.78 0.094,0.985 0.153,0.078 0.234,0.469 0.37,0.522 0.023,0.009 0.054,-0.096 0.11,-0.023 0.253,0.328 0.389,0.99 0.697,0.793 0.069,0.084 -0.025,0.204 -0.093,0.15 0.162,0.422 0.467,-0.355 0.586,-0.654 -0.187,-0.296 -0.281,-0.741 -0.699,-0.79 0.034,-0.141 -0.008,-0.144 0.054,-0.411 C 12.091,36.74 12.091,36.358 11.812,36.406 11.8,36.238 11.656,36.119 11.622,35.908 11.589,35.734 11.455,35.753 11.271,35.516 11.133,35.33 11.03,35.032 10.883,34.861 10.82,34.785 10.758,34.716 10.69,34.644 l 0.222,-0.204 c 0.005,0 0.016,0.007 0.022,0.007 0.204,0.251 0.204,0.536 0.405,0.788 0.209,-0.452 0.023,0.464 0.291,0.003 -0.098,0.231 0.239,0.784 0.459,0.371 0.034,0.197 -0.104,0.425 0.147,0.576 0.151,-0.252 0.335,-0.293 0.476,-0.637 -0.173,-0.272 -0.227,-0.579 -0.368,-0.859 -0.037,-0.17 0.076,-0.37 0.033,-0.538 -0.216,0.021 -0.098,-0.162 -0.308,-0.138 0.103,-0.198 0.208,-0.377 0.337,-0.406 -0.102,0.259 0.1,0.438 0.23,0.754 0.094,0.217 0.051,0.625 0.262,0.548 0.183,-0.218 0.167,-0.39 0.248,-0.589 0.087,0.119 -0.083,0.287 0.175,0.366 0.071,0.207 -0.057,0.455 -0.122,0.694 0.119,0.489 0.336,0.957 0.509,1.431 0.347,-0.03 0.459,-0.499 0.677,-0.811 0.366,-0.511 0.793,-1.071 1.111,-1.696 l -0.197,-0.163 c 0.086,-0.175 0.197,-0.2 0.335,-0.069 0.148,-0.256 0.302,-0.508 0.453,-0.762 -0.194,-0.047 -0.086,-0.313 -0.127,-0.44 -0.015,-0.047 -0.119,-0.059 -0.134,-0.107 -0.009,-0.037 0.005,-0.331 -0.054,-0.385 -0.03,-0.026 -0.135,-0.035 -0.119,0.02 -0.084,-0.259 0.026,-0.32 -0.079,-0.515 0.543,-0.229 0.442,0.662 0.829,0.894 0.103,-0.447 0.467,-0.946 0.643,-1.402 -0.422,-0.627 -0.342,-1.36 -0.433,-2.047 0.362,-0.179 0.535,0.591 0.603,0.939 0.026,0.139 0.131,0.295 0.059,0.39 0.439,-0.186 0.267,-1.01 0.618,-1.195 0.045,0.325 0.096,0.644 -0.125,1.027 0.1,0.11 0.243,0.008 0.192,0.162 0.25,0.113 0.411,-0.305 0.629,-0.4 0.181,0.887 -0.872,1.515 -1.395,1.358 l -0.451,0.762 c 0.397,-0.011 0.761,-0.251 1.136,-0.437 0.235,0.156 -0.035,0.409 -0.097,0.491 -0.184,0.244 -0.729,0.417 -0.912,0.391 -0.119,0.205 -0.246,0.405 -0.367,0.607 -0.144,0.06 -0.306,-0.011 -0.422,0.223 0.465,0.163 0.867,-0.078 1.305,-0.072 -0.071,0.52 -0.742,0.363 -1.045,0.618 -0.167,-0.217 -0.286,-0.113 -0.441,-0.24 -0.062,0.169 -0.172,0.345 0.014,0.464 -0.088,-0.422 0.435,-0.276 0.464,0.037 -0.302,0.372 -0.636,0.558 -1.003,0.542 -0.197,0.332 -0.386,0.704 -0.61,0.864 0.094,0.107 0.156,0.017 0.243,0.08 -0.206,0.425 -0.43,0.672 -0.674,0.81 0.083,0.049 0.105,0.111 0.083,0.182 -0.145,0.289 -0.364,0.124 -0.513,0.378 0.108,0.085 0.216,0.169 0.326,0.264 0.702,-0.511 1.42,-0.931 2.125,-1.447 0.244,-0.32 0.185,-0.532 0.406,-0.686 0.322,0.672 0.804,-0.036 1.302,0.605 -0.325,0.619 -0.807,0.208 -1.243,0.116 -0.128,0.282 -0.277,0.422 -0.493,0.172 -0.237,0.639 -0.648,1.101 -1.025,0.749 -0.206,0.196 0.073,0.293 0.014,0.464 -0.449,0.307 -0.877,0.748 -1.382,0.686 -0.03,0.055 -0.062,0.105 -0.095,0.155 -0.351,-0.402 -1.424,0.635 -0.88,1.321 0.303,-0.331 0.684,-0.887 1.107,-1.367 0.059,0.514 -0.295,0.867 -0.55,1.253 -0.127,0.187 -0.162,0.378 -0.319,0.531 -0.315,0.307 -0.72,0.195 -1.071,0.492 0.062,0.233 -0.051,0.494 -0.054,0.746 -0.886,0.895 -0.459,1.978 -0.796,2.971 -0.076,0.246 -0.221,0.046 -0.316,0.198 -0.286,0.703 -0.439,1.383 -0.536,2.046 0.258,-0.057 0.283,0.058 0.504,0.299 0.086,-0.198 -0.24,-0.306 -0.192,-0.498 0.381,-0.372 0.677,0.547 1.118,0.908 0.277,-0.271 0.518,-0.669 0.634,-1.067 0.445,0.512 -0.43,1.678 -0.886,1.652 -0.121,0.468 0.17,0.858 0.092,1.316 0.222,-0.009 0.146,0.276 0.234,0.421 0.074,0.112 0.444,0.178 0.241,0.416 0.146,0.088 0.248,-0.099 0.396,-0.016 0.163,0.144 -0.065,0.369 -0.029,0.543 0.702,0.483 0.745,1.136 1.589,1.739 0.37,-0.569 0.775,-0.909 1.191,-1.181 0.08,-0.133 0.066,-0.239 0.004,-0.338 0.093,-0.129 0.249,0.134 0.357,0.064 0.52,-0.591 0.502,-1.08 1.041,-1.758 -0.023,0.181 0.043,0.349 -0.029,0.542 0.119,0.041 0.232,0.023 0.354,0.061 0.021,-0.319 -0.297,-0.563 -0.365,-0.861 0.216,-0.209 0.145,0.062 0.372,0.192 0.157,0.037 0.011,-0.115 -0.086,-0.181 0.116,-0.36 -0.119,-0.644 -0.094,-0.985 0.156,0.335 0.4,0.3 0.545,0.554 0.138,0.077 -0.024,0.234 -0.006,0.336 0.019,0.083 0.159,0.146 0.149,0.235 -0.002,0.065 -0.143,0.166 -0.13,0.232 0.009,0.081 0.156,-0.1 0.151,-0.101 0.189,0.229 -0.014,0.285 -0.072,0.615 -0.003,0.01 0.21,0.244 -0.052,0.412 0.229,0.217 0.033,0.525 0.456,0.71 -0.129,0.496 0.451,0.623 0.494,0.96 -0.087,0.045 -0.195,-0.039 -0.272,0.128 0.555,-0.065 0.153,0.85 0.703,0.785 0.071,0.087 -0.051,0.299 -0.137,0.233 0.14,0.26 0.046,0.612 0.391,0.657 0.02,0.325 -0.186,0.703 0.205,0.956 0.486,-0.56 1.053,-0.616 1.506,-1.383 0.135,0.147 0.178,0.367 0.389,0.319 0.118,-0.39 0.191,-0.309 0.431,-0.556 0.119,0.066 0.071,0.163 0.154,0.234 -0.119,0.273 -0.429,-0.102 -0.364,0.273 0.191,0.096 0.34,-0.024 0.534,0.093 0.235,-0.315 -0.027,-0.527 0.101,-0.826 0.25,-0.128 0.323,0.331 0.523,0.427 0.142,-0.096 0.091,-0.294 0.054,-0.409 -0.054,-0.151 -0.184,-0.134 -0.2,-0.158 -0.029,-0.048 0.011,-0.527 -0.151,-0.239 -0.124,-0.135 0.218,-0.121 0.119,-0.354 -0.243,0.014 -0.446,0.303 -0.745,0.751 -0.327,-0.385 0.561,-0.615 0.412,-1.017 0.133,-0.126 0.289,0.009 0.246,-0.253 -0.213,0.169 -0.655,-0.45 -0.85,-0.69 0.094,-0.123 0.216,-0.087 0.354,0.056 0.086,-0.174 -0.068,-0.294 -0.238,-0.418 0.324,-0.023 0.887,0.418 1.093,0.774 0.181,-0.106 0.475,-0.626 0.75,-1.088 -0.092,-0.274 -0.065,-0.566 -0.189,-0.835 0.303,-0.118 0.329,0.372 0.478,0.507 0.199,-0.016 0.181,-0.236 0.275,-0.459 l 1.393,0.273 c 0.076,0.103 0.138,0.226 0.078,0.359 -0.127,0 -0.279,0.055 -0.33,0.067 -0.07,0.016 -0.083,0.078 -0.156,0.096 -0.145,0.046 -0.383,-0.027 -0.49,0.173 0.107,0.375 0.158,0.764 0.292,1.137 -0.139,-0.145 -0.172,-0.314 -0.411,-0.445 0.023,-0.207 0.077,-0.416 -0.042,-0.594 -0.261,0.197 -0.512,-0.372 -0.677,-0.321 0.203,0.168 0.203,0.488 0.324,0.595 0.067,0.063 0.281,-0.167 0.24,0.084 -0.307,0.511 -0.612,0.36 -0.85,0.782 0.145,0.209 0.233,0.024 0.373,0.188 -0.248,0.372 -0.529,0.527 -0.869,0.313 0.123,-0.181 0.233,-0.361 0.097,-0.49 -0.135,0.372 -0.323,0.379 -0.515,0.376 0.145,0.253 0.51,0.281 0.637,0.401 0.019,0.02 0.183,0.366 0.17,0.366 0.261,0.045 0.628,-0.46 0.784,-0.496 0.122,-0.027 0.419,-0.302 0.4,-0.018 -0.292,0.071 -0.275,0.619 -0.502,0.839 -0.257,0.249 -0.499,0.139 -0.756,0.295 -0.183,-0.064 -0.385,-0.251 -0.532,-0.094 -0.288,0.626 -0.204,0.807 -0.306,1.326 -0.003,0.001 -0.006,0.001 -0.006,0.001 -0.127,-0.079 -0.277,-0.329 -0.348,-0.052 0.113,0.127 0.218,0.085 0.348,0.052 0,0.006 0.003,0.007 0.003,0.007 0,-10e-4 0,-10e-4 0.003,-0.008 0.034,-0.008 0.072,-0.011 0.11,-0.011 0.13,-0.004 0.343,0.065 0.465,0.031 0.127,-0.031 0.218,-0.373 0.374,-0.144 -0.072,0.131 -0.148,0.252 -0.221,0.383 -0.493,0.155 -0.926,0.699 -1.449,0.633 -0.295,0.295 -0.318,0.549 -0.394,0.811 0.594,-0.312 1.129,-0.759 1.468,-0.667 -0.109,0.486 -0.772,0.44 -1.19,0.97 0.041,0.498 0.545,-0.415 0.583,0.078 -0.116,0.095 -0.241,0.197 -0.357,0.289 0.252,0.27 0.656,-0.321 0.886,-0.585 0.178,0.379 0.487,0.206 0.628,0.456 0.213,0.381 -0.34,1.059 0.195,1.21 -0.079,0.013 -0.144,0.036 -0.203,0.07 -0.037,0.169 -0.094,0.219 -0.113,0.398 0.272,-0.125 0.54,0.319 0.501,0.63 0.065,-0.081 0.116,-0.227 0.201,-0.174 -0.136,0.219 0.15,0.259 0.237,0.421 0.111,0.196 0.189,0.439 0.326,0.644 0.049,-0.048 0.102,-0.095 0.167,-0.142 -0.385,-0.544 -0.062,-0.735 -0.32,-1.12 0.275,-0.162 0.278,-0.32 0.421,-0.479 -0.116,-0.337 -0.556,0.091 -0.4,-0.361 0.078,-0.256 0.532,-0.519 0.608,-0.769 -0.295,-0.272 -0.038,-0.56 -0.327,-0.832 0.327,-0.794 -0.205,-1.559 0.356,-2.358 0.022,0.439 0.631,0.862 -0.097,1.322 0.305,0.238 0.385,-0.22 0.753,-0.48 0,-0.012 0,-0.023 0.003,-0.034 -0.087,-0.189 -0.57,-0.097 -0.092,-0.448 0.293,0.014 0.202,0.247 0.176,0.429 0.447,0.22 0.53,0.651 0.736,1.07 0.131,-0.05 0.267,-0.005 0.377,-0.144 0.216,0.243 0.192,0.537 0.079,0.851 -0.162,0.197 -0.376,0.051 -0.512,0.37 -0.093,0.355 0.164,0.638 -0.128,1.032 0.065,0.057 0.116,0 0.179,0.031 -0.173,0.246 -0.303,0.247 -0.275,0.453 0.012,0.1 -0.025,0.1 -0.025,0.208 0.005,0.355 0.15,0.316 -0.097,0.488 0.369,0.281 0.037,0.708 0.275,1.012 0.651,-0.819 1.413,-1.662 1.857,-2.788 -0.24,-0.196 -0.155,-0.462 0.057,-0.748 0.096,-0.217 0.288,0.145 0.379,-0.146 0.023,-0.377 -0.142,-0.758 -0.167,-1.032 -0.014,-0.124 0.071,-0.275 0.051,-0.414 -0.019,-0.17 -0.212,-0.329 -0.078,-0.519 0.078,-0.116 0.225,0.299 0.457,0.376 -0.019,0.402 0.064,0.784 0.072,1.185 0.065,0.054 0.116,0.004 0.175,0.031 -0.105,0.325 -0.359,0.311 -0.317,0.535 0.323,-0.016 0.623,-0.18 0.976,-10e-4 -0.294,0.452 -0.693,0.194 -1.025,0.41 -0.022,0.493 -0.356,0.447 -0.586,0.654 0.253,0.404 0.505,0.289 0.658,0.532 -0.256,0.595 -0.706,-0.086 -1,0.205 -0.176,0.402 -0.535,0.884 -0.634,1.076 -0.057,0.097 0.015,0.172 -0.071,0.277 -0.116,0.137 -0.283,0.13 -0.359,0.28 -0.04,0.069 -0.014,0.361 -0.051,0.41 -0.148,0.158 -0.162,-0.29 -0.246,-0.085 0.11,0.22 -0.113,0.513 0.059,0.723 0.076,-0.128 0.152,-0.258 0.224,-0.383 0.138,0.131 0.246,0.108 0.339,-0.068 0.261,-0.012 0.541,0.053 0.776,-0.16 0.082,-0.489 0.071,-0.953 0.176,-1.446 0.223,0.183 0.302,0.59 -0.014,0.673 0.095,0.048 0.143,0.109 0.161,0.179 0.39,0.037 0.679,0.365 1.016,0.536 0.283,-0.252 0.563,-0.484 0.771,-0.497 -0.038,0.196 -0.01,0.377 0.157,0.563 l -0.356,0.294 c 0.453,-0.132 0.04,0.511 0.096,0.742 0.034,0.15 0.433,1.1 0.549,1.204 0.272,0.252 0.629,-0.019 0.861,0.259 0.283,-0.423 0.795,-0.652 1.014,-0.964 0.189,-0.271 0.135,-0.549 0.2,-0.85 0.059,-0.294 0.391,-0.655 0.077,-0.751 0.224,-0.24 0.357,-0.197 0.532,-0.298 0.626,-0.547 0.028,-1.059 0.626,-1.607 -0.167,-0.186 -0.196,-0.369 -0.159,-0.559 0.416,-0.259 0.513,-0.518 0.777,-0.774 -0.129,-0.142 -0.89,-0.516 -0.386,-0.923 0.567,-0.444 0.022,0.24 0.051,0.375 0.111,0.093 0.34,-0.17 0.529,-0.298 -0.189,0.376 -0.591,0.61 -0.081,0.754 -0.21,0.382 -0.12,0.75 -0.202,1.125 -0.475,0.185 0.114,-0.426 -0.159,-0.56 -0.283,0.181 -0.489,0.813 -0.138,0.666 -0.073,0.166 -0.258,0.3 -0.305,0.663 0.166,0.188 0.449,-0.047 0.356,-0.292 0.275,-0.197 -0.015,0.36 0.278,0.465 -0.296,-0.1 -0.258,0.453 -0.531,0.294 -0.056,0.25 -0.14,0.499 -0.254,0.754 0.103,0.216 0.448,-0.3 0.654,-0.394 -0.096,0.203 -0.926,1.176 -0.254,0.761 0.042,0.335 -0.507,0.348 -0.524,0.01 -0.162,0.164 0.124,0.31 -0.073,0.472 0.738,0.215 1.908,0.162 2.92,-0.456 l -0.246,0.479 c -0.617,0.379 -1.189,0.638 -1.767,0.892 0.238,0.326 0.702,-0.039 1.109,-0.219 -0.151,0.432 -1.074,0.988 -1.428,1.167 0.051,0.192 0.201,0.096 0.348,-0.012 -0.164,0.56 -0.83,0.439 -1.243,0.877 -0.394,-0.201 -0.75,-0.503 -1.203,-0.533 -0.67,0.66 -2.081,1.67 -3.029,2.337 -0.461,-0.181 -1.197,0.478 -1.696,0.415 -0.311,0.2 -0.156,0.38 -0.54,0.579 -0.205,0.331 -0.416,0.031 -0.64,0.112 -0.374,0.132 -1.049,0.758 -1.411,0.601 -0.775,0.701 -1.599,2.027 -2.504,2.316 -0.351,0.112 -0.586,-0.046 -0.858,-0.21 -0.017,0.012 -0.035,0.025 -0.054,0.037 -0.094,0.246 -0.035,0.455 -0.122,0.692 -0.388,0.086 -0.768,0.222 -1.111,0.566 -0.038,0.344 -0.163,0.708 -0.348,1.076 -0.189,-0.093 -0.359,-0.078 -0.532,-0.088 -0.388,0.214 -0.71,0.867 -1.039,1.416 -0.212,-0.017 -0.45,-0.161 -0.602,0.194 -0.054,0.238 0.413,0.713 0.565,0.684 0.029,-0.226 -0.24,-0.392 -0.214,-0.626 0.478,0.307 0.513,0.698 0.631,1.077 0.057,0.059 0.111,0.122 0.17,0.192 0.405,-0.138 0.557,-0.098 1.186,-0.632 -0.096,0.309 -0.281,0.632 -0.492,0.946 -0.105,0.059 -0.213,0.115 -0.318,0.177 0.289,0.438 0.482,0.894 0.609,1.373 0.357,-0.288 0.773,-0.978 0.972,-0.931 0.189,0.417 -0.253,0.589 -0.601,0.769 0.172,0.249 0.592,-0.239 0.94,-0.494 0.093,0.15 0.184,0.308 0.282,0.459 -0.554,0.169 -0.866,0.645 -1.134,1.065 0.503,-0.186 0.124,0.638 0.753,0.071 0.448,-0.151 -0.467,0.501 -0.655,0.675 -0.168,0.223 -0.235,0.372 -0.229,0.484 0.015,0.046 0.029,0.092 0.048,0.132 0.008,0.022 0.021,0.034 0.037,0.052 0.187,0.176 0.626,0.253 0.799,0.721 0.046,-0.044 0.076,-0.086 0.099,-0.122 -0.006,-0.081 -0.012,-0.166 -0.023,-0.247 -0.122,-0.107 -0.326,-0.184 -0.082,-0.451 -0.034,-0.163 -0.064,-0.342 -0.005,-0.522 0.13,0.116 0.092,0.275 0.141,0.41 0.195,-0.144 0.142,-0.019 0.091,0.132 0.028,0.022 0.054,0.042 0.093,0.054 -0.042,0.053 -0.065,0.1 -0.085,0.154 0.621,-0.468 1.401,-0.716 2.027,-1.251 0.029,-0.024 0.057,-0.051 0.084,-0.076 -0.059,-0.204 -0.114,-0.416 -0.183,-0.609 -0.052,-0.136 -0.277,-0.251 -0.128,-0.438 0.111,-0.073 0.119,0.155 0.151,0.234 0.048,0.111 0.211,0.309 0.238,0.417 0.027,0.13 -0.065,0.192 -0.006,0.335 0.527,-0.479 0.912,-0.951 1.557,-0.847 0.003,0 0.011,-0.003 0.014,-0.003 0.019,-0.029 0.037,-0.055 0.059,-0.089 -0.245,-0.83 -1.5,-1.778 -2.046,-2.448 -0.301,-0.373 -0.733,-0.624 -0.603,-0.947 0.52,0.467 0.903,1.131 1.389,1.582 0.114,0.099 0.253,0.093 0.375,0.19 0.291,0.248 0.481,0.753 0.874,0.824 0.246,-0.295 -0.251,-0.654 0.06,-0.745 0.305,-0.116 0.453,0.409 0.656,0.191 -0.048,-0.389 -0.186,-0.759 -0.181,-1.165 -0.133,-0.102 0.037,-0.271 -0.17,-0.365 -0.173,0.334 -0.316,-0.1 -0.399,0.017 -0.113,0.425 0.312,0.738 0.181,1.17 -0.33,0.152 -0.738,-0.51 -0.586,-0.816 0.008,-0.025 0.261,0.055 0.267,-0.126 -0.259,-0.078 -0.089,-0.247 -0.173,-0.363 -0.065,0.015 -0.416,-0.075 -0.329,-0.263 0.332,0.254 0.877,-0.019 1.017,0.252 -0.065,-0.024 -0.113,0.002 -0.156,0.103 0.184,-0.049 0.396,0.084 0.555,-0.115 -0.116,-0.131 -0.193,-0.005 -0.288,-0.012 -0.251,-0.643 -0.367,-1.648 -1.165,-1.959 -0.062,-0.22 0.304,-0.229 0.094,-0.491 -0.122,-0.031 -0.289,-0.363 -0.376,-0.186 0.093,0.092 0.263,0.17 0.22,0.286 -0.36,-0.147 -0.235,-0.394 -0.319,-0.6 -0.36,-0.238 -0.572,-0.506 -0.592,-0.813 0.826,0.289 1.237,1.285 1.836,1.822 0.08,0.075 0.143,-0.019 0.242,0.087 0.294,0.323 0.753,1.314 1.266,1.138 -0.238,-0.329 -0.159,-0.722 -0.114,-1.112 -0.363,-0.437 -0.428,-0.932 -0.509,-1.433 0.221,0.097 0.444,0.189 0.636,0.073 -0.189,-0.506 -1.052,-0.634 -1.025,-1.059 0.4,0.12 0.728,0.348 1.034,0.723 0.515,0.008 0.702,-1.414 1.101,-1.367 0.232,0.443 -0.246,0.906 -0.346,1.074 -0.089,0.147 -0.189,0.653 -0.391,0.818 -0.084,0.301 0.224,0.533 -0.033,0.874 0.445,0.464 0.033,1.102 0.529,1.561 0.694,-0.475 1.249,-1.794 1.94,-2.275 -0.077,0.181 0.3,0.269 0.354,0.06 -0.34,-0.331 -0.654,-0.437 -0.388,-0.99 0.229,0.232 0.424,0.253 0.577,0.018 0.272,-0.504 -0.331,-0.825 -0.2,-1.295 0.248,0.255 0.184,0.584 0.472,0.833 0.263,-0.537 0.578,-0.686 0.838,-1.239 -0.119,-0.252 -0.161,-0.577 -0.23,-0.754 -0.112,-0.273 -0.189,-0.559 -0.235,-0.753 -0.019,-0.088 0.035,-0.125 0.024,-0.21 -0.003,-0.041 -0.116,-0.061 -0.131,-0.103 -0.003,-0.011 0.031,-0.19 0.029,-0.206 -0.012,-0.076 -0.108,-0.273 0.067,-0.285 0.127,0.402 0.431,0.758 0.357,1.198 0.247,0.07 0.031,0.564 0.237,0.416 0.283,-0.323 0.216,-0.581 0.326,-0.868 0.145,-0.158 0.348,0.042 0.47,-0.297 0.051,-0.22 0.062,-0.812 0.41,-0.685 -0.197,0.438 0.043,0.791 -0.375,1.276 0.259,-0.016 0.311,0.435 0.388,0.66 -0.301,0.333 -0.312,0.255 -0.585,0.653 -0.219,0.05 -0.451,0.035 -0.667,0.136 -0.043,0.267 -0.394,0.354 -0.272,0.462 0.354,-0.065 0.68,-0.3 1.065,-0.154 -0.385,0.701 -0.935,0.355 -1.402,0.558 -0.475,0.768 -0.891,1.624 -0.322,2.339 0.26,-0.301 0.792,-0.794 0.979,-0.336 -0.431,0.326 -0.881,0.439 -1.338,0.609 0.052,-0.018 -0.046,0.173 -0.156,0.095 -0.075,0.133 -0.154,0.258 -0.227,0.39 0.102,0.135 0.424,-0.011 0.218,0.283 -0.164,0.065 -0.371,-0.158 -0.512,0.038 0.327,0.299 -0.459,0.484 -0.119,0.696 -0.164,0.175 -0.363,0.099 -0.518,0.374 -0.04,0.208 0.438,0.31 0.373,0.523 -0.707,-0.585 -1.107,0.752 -1.741,0.626 -0.178,0.757 -1.008,0.298 -1.403,0.896 -0.075,0.22 0.154,0.371 -0.075,0.618 -0.028,0.03 -0.06,0.055 -0.087,0.08 0.079,-0.008 0.144,0.012 0.192,0.093 -0.292,0.194 -0.569,0.36 -0.839,0.514 -0.084,0.125 -0.168,0.283 -0.014,0.403 -0.143,0.132 -0.277,0.324 -0.429,0.413 0.229,-0.113 0.458,-0.218 0.682,-0.324 0.176,-0.199 0.343,-0.453 0.509,-0.715 0.139,0.157 0.167,-0.375 0.334,-0.069 -0.041,0.388 -0.271,0.412 -0.441,0.602 0.581,-0.274 1.18,-0.577 1.831,-1.054 -0.3,0.45 0.063,0.439 0.521,-0.021 0.04,0.158 -0.249,0.325 -0.419,0.48 -0.311,0.242 -0.515,0.177 -0.761,0.211 -0.464,0.349 -0.901,0.603 -1.306,0.756 -0.008,0.033 -0.027,0.063 -0.062,0.096 -0.036,0.029 -0.208,0.079 -0.268,0.123 -0.043,0.034 -0.126,0.154 -0.196,0.215 -0.006,0.056 -0.008,0.114 -0.008,0.176 0.116,0.095 0.348,-0.17 0.534,-0.299 -0.005,0.19 -0.149,0.382 -0.362,0.58 0.145,0.364 -0.025,0.739 0.317,1.109 0.23,0.244 -0.266,0.577 0.156,0.561 0.362,0.085 0.363,-0.17 0.771,-0.492 0.322,0.547 -0.542,0.682 -0.27,1.321 0.451,-0.388 0.376,-0.76 0.553,-1.139 0.568,-0.258 -0.048,0.367 -0.069,0.468 -0.047,0.198 0.232,0.285 -0.017,0.56 0.246,0.111 0.839,-0.572 0.603,-0.762 0.598,-0.273 0.434,0.133 0.334,0.553 0.301,0.073 0.264,-0.49 0.47,-0.108 0.059,-0.375 -0.104,-0.749 0.032,-1.127 -0.117,-0.094 -0.346,0.17 -0.535,0.297 -0.227,-0.19 0.729,-1.168 0.079,-0.754 -0.034,-0.286 0.591,-0.406 0.704,-0.294 0.261,-0.262 0.383,-0.583 0.714,-0.583 -0.221,0.536 -0.385,1.07 -0.798,1.611 0.097,0.096 0.291,-0.097 0.235,-0.19 0.413,-0.182 0.032,0.423 -0.187,0.565 0.688,-0.159 1.347,-0.248 2.109,-0.619 -0.456,0.587 -1.189,0.905 -1.846,1.64 -0.362,-0.381 -0.877,-0.306 -1.39,-0.238 -0.065,0.125 -0.136,0.25 -0.3,0.377 0.556,0.325 1.198,0.378 2.038,-0.144 0.054,0.31 -0.92,0.646 -0.67,0.952 0.235,0.085 0.826,-0.935 1.247,-0.874 0.366,-0.322 -0.146,-0.622 0.318,-0.947 0.292,0.339 0.311,0.68 0.265,1.028 -0.359,0.363 -0.596,0.383 -0.893,0.584 0.121,0.245 0.359,0.139 0.583,0.074 0.453,-0.201 -0.092,-0.373 0.364,-0.566 0.165,0.395 -0.24,0.818 -0.851,1.233 0.05,0.381 0.365,-0.049 0.589,-0.2 0.26,0.525 0.515,1.053 0.597,1.577 0.134,0.095 0.127,-0.161 0.356,-0.292 0.108,0.186 -0.257,0.387 -0.016,0.565 0.636,-0.395 0.665,-1.577 0.933,-2.276 -0.116,-0.181 -0.223,-0.367 -0.332,-0.553 0.146,-0.317 0.801,-0.479 1.055,-0.306 0.243,0.395 -0.151,0.976 -0.213,1.408 -0.079,0.506 -0.027,0.885 -0.038,1.409 0.415,0.056 0.429,-1.001 0.837,-0.957 -0.278,-0.217 0.016,-0.445 -0.037,-0.657 0.274,-0.228 0.552,-0.456 0.833,-0.68 0.15,0.197 -0.168,0.529 -0.256,0.756 -0.195,0.503 -0.354,1.014 -0.508,1.511 -0.238,0.197 -0.477,0.387 -0.712,0.585 -0.235,0.227 0.323,0.1 0.1,0.466 0.424,0.248 0.9,-0.653 1.364,-0.974 0.161,0.186 -0.028,0.206 -0.124,0.376 -0.077,0.139 -0.119,0.387 -0.366,0.571 0.405,0.094 1.017,-0.458 1.592,-0.884 0.359,0.22 0.925,-0.179 1.406,-0.32 0.134,-0.348 -0.101,-0.686 0.434,-1.045 0.305,0.217 0.019,0.438 -0.307,0.667 0.116,0.072 0.264,0.065 0.466,-0.107 0.036,0.508 -0.289,0.631 -0.839,0.96 -0.275,0.163 -1.169,0.677 -1.767,0.891 0.199,0.431 0.793,-0.312 0.982,0.163 -0.845,0.804 -1.225,0.214 -2.123,1.182 -0.184,-0.186 0.097,-0.378 -0.16,-0.56 -0.561,-0.213 -1.513,0.742 -2.234,0.996 -0.122,0.16 -0.173,0.317 -0.071,0.474 -0.24,0.036 -0.366,0.137 -0.476,0.386 -0.297,0.243 -0.665,0.281 -0.945,0.493 -0.143,0.113 -0.06,0.305 -0.128,0.382 -0.059,0.071 -0.356,0.105 -0.526,0.291 -0.131,0.147 -0.232,0.461 -0.247,0.476 -0.13,0.119 -0.453,0.234 -0.651,0.393 -0.2,0.164 -0.376,0.467 -0.537,0.577 -0.038,0.026 -0.397,-0.07 -0.706,0.247 0.045,0 0.08,0.002 0.12,0 -0.054,0.038 -0.118,0.062 -0.185,0.085 -0.02,0.023 -0.033,0.039 -0.054,0.066 -0.082,0.015 -0.158,0.002 -0.223,-0.027 -0.093,0 -0.196,-0.006 -0.292,-0.032 -0.116,-0.03 -0.255,-0.104 -0.402,-0.15 -0.266,0.271 -0.227,0.53 -0.459,0.798 -0.16,0.043 -0.328,0.082 -0.489,0.12 -0.025,-0.042 -0.057,-0.071 -0.082,-0.107 -0.145,0.036 -0.32,0.038 -0.49,0.045 0.029,0.064 0.045,0.125 0.022,0.186 -0.189,0.047 -0.379,0.09 -0.565,0.128 -0.062,0.045 -0.123,0.086 -0.148,0.151 -0.014,0.038 0.029,0.162 0,0.193 -0.051,0.061 -0.204,0.038 -0.251,0.097 -0.027,0.041 0.027,0.159 0,0.194 -0.04,0.062 -0.122,0.156 -0.168,0.196 -0.018,0.014 -0.156,0.084 -0.167,0.104 -0.091,0.115 -0.094,0.341 -0.172,0.487 -0.038,0.073 -0.116,0.104 -0.168,0.197 -0.094,0.175 -0.258,0.65 -0.591,0.683 0.124,0.507 -0.202,0.487 -0.253,0.785 0.527,-0.038 0.65,-0.552 1.009,-0.781 0.277,0.144 -0.176,0.236 -0.083,0.491 -0.229,0.349 -0.667,0.591 -0.846,0.878 0.017,-0.021 0.15,0.385 -0.17,0.292 -0.037,0.677 -0.303,1.088 -0.758,1.279 0.235,0.114 -0.126,0.925 0.249,0.879 -0.046,0.517 0.149,0.745 0.081,1.275 0.397,-0.45 0.696,-1.018 0.844,-1.759 0.264,-0.116 -0.043,-0.286 0.257,-0.298 v -0.687 c 0,-0.119 0.103,-0.034 0.083,0 0.206,-0.397 0.314,-1.05 0.51,-1.467 0.098,0.183 0.014,0.997 -0.253,1.076 0.054,0.297 0.178,-0.089 0.337,0.001 0.029,0.503 -0.189,0.703 -0.427,0.884 0.306,0.677 0.096,1.365 -0.088,1.966 -0.076,0.236 -0.47,0.103 -0.424,0.488 0.121,-0.007 0.24,-0.019 0.257,0.096 -0.025,0.133 -0.214,0.083 -0.335,0.101 0.049,0.086 0.188,0.357 -0.089,0.29 0.037,0.078 0.073,0.192 0.167,0.198 0.213,0.016 0.07,-0.144 0.167,-0.197 0.413,-0.225 0.696,-0.603 1.015,-0.975 0.069,-0.084 0.145,-0.155 0.253,-0.197 -0.011,-0.401 0.335,-0.391 0.254,-0.881 0.256,-0.072 0.246,0.17 0.505,0.098 0.081,0.269 -0.176,0.115 -0.254,0.193 -0.117,0.126 0.049,0.244 0,0.298 -0.07,0.085 -0.304,-0.029 -0.335,0.096 -0.023,0.159 0.076,0.169 0.082,0.296 -0.103,0.203 -0.326,0.272 -0.507,0.39 0.059,0.427 -0.15,0.543 -0.337,0.686 0.006,0.386 0.363,0.301 0.167,0.687 0.142,0.038 0.161,-0.078 0.17,-0.193 0.261,0.014 0.331,0.25 0.439,0.444 h -3.448 c -0.4,-0.053 -0.767,-0.167 -1.118,-0.167 -0.148,0 -0.176,0.114 -0.334,0.097 -0.426,-0.042 -0.847,-0.339 -1.349,-0.1 0.01,0.073 -0.003,0.115 -0.005,0.17 h -0.333 c 0.047,-0.071 0.081,-0.154 0.087,-0.271 -0.144,-0.041 -0.156,0.074 -0.17,0.194 -0.049,-0.136 -0.322,-0.016 -0.334,-0.194 -0.065,0.085 -0.054,0.195 -0.065,0.271 h -2.163 c -0.023,-0.213 -0.128,-0.48 -0.125,-0.672 -0.217,0.069 -0.292,0.304 -0.254,0.672 H -14.79 c 0,-0.003 -0.001,-0.005 -0.002,-0.008 h -0.091 c 0,0.003 10e-4,0.005 10e-4,0.008 h -0.102 c 0,-0.003 10e-4,-0.005 0.002,-0.008 h -0.269 V 100.7 H -26.25 c 0,-0.003 0.003,-0.005 0.003,-0.008 h -0.237 c 0,0.003 0,0.005 0.001,0.008 h -1.009 c -0.002,-0.003 -0.005,-0.005 -0.009,-0.008 h -0.025 c 0.003,0.003 0.005,0.005 0.008,0.008 h -2.469 c -0.003,-0.003 -0.004,-0.005 -0.005,-0.008 h -0.093 c 0.002,0.003 0.002,0.005 0.003,0.008 h -2.056 c -0.003,-0.003 -0.003,-0.005 -0.004,-0.008 h -0.417 v 0.008 h -1.742 v -0.008 h -0.749 v 0.008 h -0.1 c 0,-0.003 0.003,-0.005 0.005,-0.008 h -0.611 v 0.008 h -0.082 c 0,-0.003 0,-0.005 0.002,-0.008 H -480.287 V -36.374 h 450.875 l 52.539,-0.121 c -1.53,2.706 -0.194,4.076 -2.924,3.836 -1.175,-0.103 -2.581,3.344 -3.434,4.144 -1.843,1.727 2.435,5.301 -2.021,6.386 -2.185,0.526 2.581,1.553 0.427,2.061 -2.666,0.643 -5.342,0.981 -7.514,2.382 0.663,1.03 -0.062,1.994 0.453,3.003 0.539,1.056 2.245,0.932 2.317,2.072 -0.408,0.738 -0.361,1.363 -1.082,1.077 -0.094,-0.038 -0.928,-0.868 -1.022,-0.908 -0.221,-0.096 -0.71,-0.351 -0.985,-0.506 -1.238,-0.725 -1.39,-1.878 -1.544,-3.318 -0.871,0.076 -1.239,-0.585 -1.179,-1.115 -3.923,1.651 -8.338,2.608 -12.202,4.228 l 0.065,2.323 c 0.605,0.11 1.22,0.177 1.856,0.17 0.716,-0.005 1.452,-0.361 2.203,-0.361 0.458,-0.006 1.167,0.184 1.745,0.275 0.577,0.082 1.371,0.102 1.887,0.225 0.558,0.134 0.96,0.547 1.489,0.524 0.232,-0.015 0.091,0.199 0.247,0.252 1.328,0.452 2.383,0.83 3.671,1.153 0.575,0.145 1.241,0.473 1.832,0.577 -0.084,-0.015 0.303,-0.165 0.45,-0.141 0.141,0.016 0.378,0.135 0.55,0.154 1.687,0.237 3.601,-0.573 5.446,-0.567 0.689,0.003 1.365,0.377 2.089,0.332 2.142,-0.121 3.523,-1.697 4.222,-2.826 0.246,-0.386 0.697,-2.015 1.048,-2.481 0.212,-0.281 0.167,0.449 0.637,0.465 0.377,0.283 0.464,0.579 0.41,0.881 -0.141,0.77 -1.201,1.587 -0.71,2.348 -0.429,0.564 -1.13,1.551 -0.836,2.084 1.044,-0.175 1.854,0.524 2.846,0.097 1.01,-0.442 1.066,-1.439 1.384,-2.426 0.67,-0.627 1.231,-1.351 1.769,-2.107 l -0.003,-10e-4 -1.005,-0.738 -0.804,-1.676 -1.007,-0.738 1.007,-0.267 1.206,1.073 0.47,0.736 0.601,0.806 0.076,0.028 c 0.969,-1.417 1.943,-2.883 3.428,-4.052 0.682,-0.542 1.648,-0.699 2.608,-1.163 1.099,-0.529 2.216,-1.254 3.822,-2.031 1.78,-0.867 4.317,-2.182 3.643,0.005" />
        </g>
      </g>
    </g>
  </g>
</svg>
