<?xml version="1.0" encoding="UTF-8" standalone="no"?>
<!-- Created with Inkscape (http://www.inkscape.org/) -->

<svg
   xmlns:dc="http://purl.org/dc/elements/1.1/"
   xmlns:cc="http://creativecommons.org/ns#"
   xmlns:rdf="http://www.w3.org/1999/02/22-rdf-syntax-ns#"
   xmlns:svg="http://www.w3.org/2000/svg"
   xmlns="http://www.w3.org/2000/svg"
   xmlns:sodipodi="http://sodipodi.sourceforge.net/DTD/sodipodi-0.dtd"
   xmlns:inkscape="http://www.inkscape.org/namespaces/inkscape"
   width="203.13626mm"
   height="230.99185mm"
   viewBox="0 0 203.13626 230.99185"
   version="1.1"
   id="svg2009"
   inkscape:version="0.92.2 (5c3e80d, 2017-08-06)"
   sodipodi:docname="zgroen.svg">
  <defs
     id="defs2003">
    <clipPath
       id="clipPath1206"
       clipPathUnits="userSpaceOnUse">
      <path
         inkscape:connector-curvature="0"
         id="path1204"
         d="m 36,330.236 h 87.249 v 99.212 H 36 Z" />
    </clipPath>
    <clipPath
       id="clipPath1298"
       clipPathUnits="userSpaceOnUse">
      <path
         inkscape:connector-curvature="0"
         id="path1296"
         d="m 143.35,330.236 h 82.121 v 99.212 H 143.35 Z" />
    </clipPath>
    <clipPath
       id="clipPath1342"
       clipPathUnits="userSpaceOnUse">
      <path
         inkscape:connector-curvature="0"
         id="path1340"
         d="m 253.134,330.236 h 131.61 v 99.212 h -131.61 z" />
    </clipPath>
    <clipPath
       id="clipPath1394"
       clipPathUnits="userSpaceOnUse">
      <path
         inkscape:connector-curvature="0"
         id="path1392"
         d="M 361.139,330.236 H 492.75 v 99.212 H 361.139 Z" />
    </clipPath>
    <clipPath
       id="clipPath1446"
       clipPathUnits="userSpaceOnUse">
      <path
         inkscape:connector-curvature="0"
         id="path1444"
         d="m 477.071,330.236 h 131.61 v 99.212 h -131.61 z" />
    </clipPath>
    <clipPath
       id="clipPath1470"
       clipPathUnits="userSpaceOnUse">
      <path
         inkscape:connector-curvature="0"
         id="path1468"
         d="m 587.055,330.236 h 131.611 v 99.212 H 587.055 Z" />
    </clipPath>
  </defs>
  <sodipodi:namedview
     id="base"
     pagecolor="#ffffff"
     bordercolor="#666666"
     borderopacity="1.0"
     inkscape:pageopacity="0.0"
     inkscape:pageshadow="2"
     inkscape:zoom="0.49497475"
     inkscape:cx="251.75667"
     inkscape:cy="302.27058"
     inkscape:document-units="mm"
     inkscape:current-layer="layer1"
     showgrid="false"
     fit-margin-top="0"
     fit-margin-left="0"
     fit-margin-right="0"
     fit-margin-bottom="0"
     inkscape:window-width="1920"
     inkscape:window-height="1001"
     inkscape:window-x="-9"
     inkscape:window-y="-9"
     inkscape:window-maximized="1"
     showguides="false" />
  <metadata
     id="metadata2006">
    <rdf:RDF>
      <cc:Work
         rdf:about="">
        <dc:format>image/svg+xml</dc:format>
        <dc:type
           rdf:resource="http://purl.org/dc/dcmitype/StillImage" />
        <dc:title></dc:title>
      </cc:Work>
    </rdf:RDF>
  </metadata>
  <g
     inkscape:label="Laag 1"
     inkscape:groupmode="layer"
     id="layer1"
     transform="translate(-6.5330582,-7.3572664)">
    <g
       id="g1464"
       transform="matrix(2.313954,0,0,-2.313954,-1351.9349,1001.8256)">
      <g
         clip-path="url(#clipPath1470)"
         id="g1466">
        <g
           transform="translate(622.9268,421.9943)"
           id="g1472">
          <path
             inkscape:connector-curvature="0"
             id="path1474"
             style="fill:#1e7c2e;fill-opacity:1;fill-rule:nonzero;stroke:none"
             d="M 0,0 C 0.115,-0.264 0.242,-0.511 0.391,-0.717 0.302,-0.477 0.158,-0.237 0,0" />
        </g>
        <g
           transform="translate(623.6282,436.2499)"
           id="g1476">
          <path
             inkscape:connector-curvature="0"
             id="path1478"
             style="fill:#1e7c2e;fill-opacity:1;fill-rule:nonzero;stroke:none"
             d="m 0,0 c -0.787,0.211 -1.55,0.409 -2.269,0.592 -0.503,1.366 -1.29,3.52 -1.524,4.245 -0.177,0.555 -0.414,1.18 -0.646,1.757 L -4.43,7.478 C -3.73,6.595 -2.799,5.389 -2.52,4.882 -1.446,2.908 -1.11,2.353 0,0 m 1.224,2.671 c 0.47,-0.969 1.064,-2.324 1.544,-3.42 -0.77,0.212 -1.542,0.421 -2.299,0.625 -0.277,0.821 -0.587,1.64 -0.791,2.346 -0.424,1.482 -1.599,4.092 -2.187,5.356 1.175,-0.657 2.59,-2.56 3.733,-4.907 M 3.055,4.159 C 4.355,2.435 4.742,1.695 5.317,-0.06 5.319,-0.064 5.321,-0.07 5.323,-0.074 5.377,-0.548 5.431,-1.027 5.482,-1.509 4.689,-1.284 3.86,-1.051 3.025,-0.82 2.597,2.182 1.387,4.411 0.7,6.724 1.326,6.084 2.516,4.873 3.055,4.159 M 4.816,4.106 C 4.915,3.321 5.016,2.51 5.118,1.673 4.584,3.079 3.976,4.43 3.364,5.506 3.863,5 4.343,4.547 4.816,4.106 M 7.833,0.98 c 0.412,-0.515 2.598,-2.37 3.422,-4.082 -0.084,-0.011 -0.168,-0.023 -0.25,-0.034 -0.757,0.242 -2.083,0.638 -3.704,1.107 C 7.237,-0.733 7.169,0.565 7.101,1.825 7.346,1.552 7.589,1.286 7.833,0.98 m 6.072,-5.165 c -0.538,0.213 -1.081,0.417 -1.633,0.614 l 1.752,0.314 c -0.041,-0.329 -0.081,-0.634 -0.119,-0.928 m 1.356,-4.33 c -0.042,0.094 -0.078,0.192 -0.12,0.286 0.084,0.072 0.167,0.141 0.251,0.209 0.166,-0.205 0.315,-0.392 0.408,-0.519 0.126,-0.175 0.226,-0.36 0.348,-0.536 -0.283,0.186 -0.58,0.372 -0.887,0.56 m -4.594,-4.882 c 0.196,0.25 0.39,0.499 0.579,0.738 0.104,-0.109 0.207,-0.217 0.318,-0.307 -0.06,0.068 -0.154,0.209 -0.262,0.378 0.3,0.382 0.591,0.748 0.871,1.098 0.182,-0.089 0.367,-0.172 0.54,-0.268 -0.145,0.112 -0.327,0.22 -0.49,0.331 0.084,0.105 0.164,0.2 0.248,0.304 0.198,-0.421 0.371,-0.839 0.472,-1.22 0.087,-0.327 0.298,-1.222 0.574,-1.728 0.057,-0.517 0.12,-1.072 0.193,-1.727 0.049,-0.42 0.088,-0.812 0.125,-1.187 -1.042,1.253 -2.173,2.567 -3.168,3.588 m -2.154,-0.975 c -0.229,0.821 -0.638,2.073 -0.63,2.437 0.086,-0.418 0.439,-1.414 0.745,-2.29 -0.039,-0.05 -0.077,-0.098 -0.115,-0.147 M 2.561,-33.666 c -1.263,-0.144 -3.037,-0.563 -4.284,-0.939 0.418,0.546 0.845,1.086 1.275,1.626 0.98,0.96 1.91,1.974 2.008,2.324 -0.027,0.001 -0.07,-0.012 -0.11,-0.023 1.171,1.372 2.373,2.767 3.51,4.181 C 4.568,-28.869 4.427,-30.58 4.379,-32.339 3.752,-32.78 3.14,-33.223 2.561,-33.666 m 1.799,-1.828 c 10e-4,-0.358 10e-4,-0.723 0,-1.091 -0.692,0.089 -1.34,0.196 -1.962,0.3 0.647,0.53 1.302,1.087 1.96,1.66 0,-0.282 0,-0.569 0.002,-0.869 m -0.023,-6.64 c -1.033,-0.116 -2.065,-0.261 -3.097,-0.433 -0.372,0.126 -0.737,0.258 -1.09,0.389 0.208,0.153 0.424,0.305 0.668,0.46 -0.546,0 -1,-0.043 -1.451,-0.163 -0.348,0.134 -0.658,0.253 -0.913,0.346 0.434,0.273 0.866,0.541 1.297,0.808 1.954,-0.033 3.727,-0.093 4.147,-0.221 -0.376,0.102 -1.389,0.538 -2.861,1.013 1.091,0.667 2.196,1.33 3.314,1.983 -0.011,-1.428 -0.025,-2.867 -0.014,-4.182 m -1.204,-2.42 c 0.308,0.44 0.609,0.872 0.903,1.296 0.107,0.028 0.21,0.054 0.317,0.081 0.012,-0.51 0.029,-0.99 0.054,-1.434 -0.427,0.03 -0.851,0.049 -1.274,0.057 m 2.856,-0.694 c -0.157,-0.18 -0.311,-0.354 -0.467,-0.534 -0.007,0.165 -0.013,0.337 -0.02,0.517 0.16,0.004 0.323,0.011 0.487,0.017 m -5.058,-2.474 c 0.249,0.364 0.496,0.725 0.756,1.098 0.889,-0.132 1.842,-0.324 2.411,-0.791 -0.241,-0.279 -0.451,-0.524 -0.633,-0.737 -0.86,0.192 -1.726,0.342 -2.534,0.43 m 3.377,-1.837 c -1.389,-1.261 -3.003,-2.713 -3.58,-3.134 0.721,0.811 1.715,1.905 2.762,3.171 0.272,-0.017 0.545,-0.026 0.818,-0.037 m 1.947,-0.011 c -2.231,-1.643 -4.863,-3.582 -4.554,-3.332 0.855,0.691 2.605,2.16 3.902,3.322 0.218,0.002 0.435,0.002 0.652,0.01 m -5.002,-4.592 c -0.197,-0.106 -0.389,-0.208 -0.58,-0.308 0.005,0.07 0.009,0.142 0.012,0.212 0.448,0.299 0.939,0.628 1.454,0.975 -0.34,-0.331 -0.63,-0.614 -0.886,-0.879 m -0.497,-1.43 C 0.645,-55.625 0.54,-55.65 0.433,-55.68 c 0.105,0.059 0.184,0.12 0.189,0.179 0.001,0.019 0.001,0.037 0.002,0.056 0.051,0.025 0.105,0.052 0.157,0.077 z m -0.23,-1.543 c 0.007,0.082 0.023,0.173 0.03,0.252 0.004,0.049 -0.052,0.1 -0.132,0.15 0.072,0.03 0.14,0.06 0.213,0.091 l -0.055,-0.475 c -0.019,-0.005 -0.037,-0.011 -0.056,-0.018 m 0.408,-4.431 c -0.452,-0.419 -0.879,-0.858 -1.411,-1.185 1.331,-0.588 1.142,-2.695 1.687,-3.806 -0.629,0.95 -1.274,2.431 -1.83,3.457 -0.09,-0.054 -0.181,-0.127 -0.27,-0.186 0.632,1.383 1.034,3.211 1.271,4.91 0.021,0.01 0.039,0.016 0.06,0.025 L 0.12,-61.154 c 0.213,-0.103 0.492,-0.245 0.814,-0.412 m 2.089,1.324 c -0.262,-0.11 -0.514,-0.231 -0.761,-0.364 -0.326,0.305 -0.627,0.599 -0.856,0.863 0.417,-0.086 0.928,-0.257 1.617,-0.499 m 3.393,-1.075 c 0.002,-0.164 0.006,-0.329 -0.005,-0.492 -0.02,0.178 -0.089,0.358 -0.174,0.54 0.06,-0.015 0.118,-0.034 0.179,-0.048 m 0.973,-9.049 c -0.045,-0.101 -0.081,-0.198 -0.161,-0.308 -0.141,-0.191 -0.32,-0.328 -0.516,-0.444 0.217,0.265 0.441,0.521 0.677,0.752 m -1.11,-7.907 c 0.315,0.495 0.619,0.975 0.934,1.439 0.27,-0.014 0.551,-0.021 0.836,-0.029 -0.619,-0.414 -1.202,-0.915 -1.77,-1.41 m 1.043,-2.663 c -0.186,-0.029 -0.371,-0.06 -0.556,-0.096 -0.267,0.069 -0.547,0.125 -0.831,0.171 0.477,0.008 0.942,-0.015 1.387,-0.075 M -4.032,1.025 -4.493,2.049 -4.463,4.544 C -4.192,4.062 -3.882,3.489 -3.5,2.707 -3.364,2.432 -2.871,1.46 -2.456,0.64 -3.021,0.782 -3.541,0.909 -4.032,1.025 M 12.205,-9.54 c 0.017,-0.007 0.03,-0.013 0.045,-0.019 -0.007,-0.011 -0.015,-0.021 -0.024,-0.032 -0.007,0.017 -0.012,0.034 -0.021,0.051 M 9.61,-9.918 C 9.127,-9.2 8.568,-8.427 7.945,-7.666 8.208,-7.768 8.47,-7.874 8.737,-7.986 9.479,-8.3 10.412,-8.72 11.308,-9.129 c 0.19,-0.27 0.381,-0.568 0.574,-0.891 -0.195,-0.246 -0.406,-0.518 -0.626,-0.8 -0.539,0.31 -1.096,0.611 -1.646,0.902 m 0.38,-0.578 c 0.153,-0.066 0.287,-0.123 0.453,-0.195 0.21,-0.091 0.449,-0.197 0.68,-0.3 -0.14,-0.178 -0.301,-0.388 -0.451,-0.582 -0.197,0.322 -0.43,0.689 -0.682,1.077 m -3.987,-6.957 c 0.07,1.197 0.083,2.409 -0.123,3.557 -0.043,0.235 -0.099,0.485 -0.164,0.74 0.143,-0.073 0.293,-0.147 0.417,-0.215 -0.133,0.093 -0.28,0.19 -0.435,0.287 -0.286,1.113 -0.736,2.322 -1.131,3.139 0.085,-0.033 0.179,-0.07 0.27,-0.107 0.525,-0.689 1.064,-1.499 1.537,-2.37 0.072,-1.63 0.095,-3.156 0.062,-4.524 -0.147,-0.177 -0.291,-0.342 -0.433,-0.507 m -8.846,-18.624 c 0.011,0.016 0.023,0.033 0.036,0.048 1.175,0.313 2.701,0.813 4.108,1.374 -0.553,-0.443 -1.074,-0.873 -1.581,-1.292 -0.794,0.045 -1.631,0.019 -2.563,-0.13 m 1.398,-3.176 c 0.678,0.502 1.355,1.014 2.032,1.534 0.173,0.016 0.35,0.031 0.502,0.046 0.857,0.086 1.347,0.174 2.096,0.337 -1.361,-0.646 -2.681,-1.34 -3.968,-2.076 -0.211,0.055 -0.438,0.107 -0.662,0.159 m -2.268,-1.968 c -0.07,0.002 -0.14,0.003 -0.21,0.005 0.002,0.039 -10e-4,0.077 -10e-4,0.117 0.182,0.137 0.367,0.274 0.55,0.41 0.157,-10e-4 0.311,-0.002 0.472,-0.004 -0.272,-0.175 -0.543,-0.348 -0.811,-0.528 m 1.07,-1.669 c -0.476,-0.316 -0.836,-0.604 -1.164,-0.931 -0.239,-0.088 -0.469,-0.186 -0.702,-0.279 0.096,0.271 0.186,0.556 0.263,0.853 0.201,0.129 0.402,0.256 0.603,0.384 0.331,-0.008 0.662,-0.017 1,-0.027 m 1.788,-0.075 c 0.005,0.004 0.011,0.008 0.018,0.014 0.015,0 0.031,-0.002 0.047,-0.002 -0.022,-0.005 -0.043,-0.008 -0.065,-0.012 m 3.36,-1.589 c -0.43,-0.003 -0.86,-0.007 -1.265,-0.031 -0.852,-0.052 -1.651,-0.181 -2.424,-0.345 -0.485,0.017 -0.964,-0.011 -1.437,-0.064 2.05,0.591 4.053,1.081 6.191,1.62 -0.351,-0.381 -0.707,-0.774 -1.065,-1.18 M 1.63,-45.501 c 0.016,10e-4 0.035,0.005 0.053,0.008 -0.007,-0.007 -0.013,-0.015 -0.02,-0.022 -0.011,0.005 -0.024,0.008 -0.033,0.014 m -1.766,-2.134 c -0.623,0.027 -1.207,0.005 -1.771,-0.033 -0.292,0.373 -0.606,0.719 -0.938,1.035 0.41,0.161 0.802,0.305 1.172,0.432 0.687,-0.01 1.386,-0.058 1.996,-0.2 0.15,-0.035 0.322,-0.065 0.507,-0.094 -0.322,-0.386 -0.635,-0.766 -0.938,-1.143 -0.01,10e-4 -0.018,0.003 -0.028,0.003 m 0.735,-3.532 c -0.071,0.63 -0.178,1.255 -0.333,1.832 0.687,-0.027 1.375,-0.067 2.062,-0.113 -0.606,-0.651 -1.162,-1.179 -1.729,-1.719 m 4.024,-30.42 c -0.283,0.1 -0.556,0.189 -0.788,0.246 0.446,-0.009 0.953,-0.017 1.472,-0.03 -0.231,-0.065 -0.456,-0.142 -0.684,-0.216 m 9.471,-23.677 c 0.143,0.464 0.295,0.922 0.452,1.384 0.127,0.02 0.255,0.046 0.382,0.07 0.094,-0.179 0.193,-0.353 0.3,-0.518 -0.291,-0.319 -0.583,-0.642 -0.847,-0.966 -0.095,0.01 -0.192,0.022 -0.287,0.03 m -0.445,99.181 c -0.149,0.201 -0.287,0.393 -0.408,0.566 0.037,-0.006 0.072,-0.012 0.108,-0.02 0.098,-0.126 0.204,-0.26 0.319,-0.401 -0.007,-0.052 -0.014,-0.094 -0.019,-0.145 M 7.504,-6.567 c -0.011,0.286 -0.022,0.573 -0.035,0.863 0.329,-0.057 0.626,-0.115 0.893,-0.175 0.773,-0.663 1.368,-1.296 2.254,-2.354 -1.071,0.634 -2.11,1.162 -3.112,1.666 m 0.078,-2.232 c 0.005,-0.003 0.007,-0.006 0.01,-0.008 -0.003,0.001 -0.005,0.002 -0.01,0.005 z m -4.369,2.081 c -0.108,0.091 -0.218,0.181 -0.328,0.273 0.57,0.025 1.322,-0.076 2.201,-0.294 0.311,-0.242 0.634,-0.5 0.975,-0.776 0.012,-0.179 0.028,-0.36 0.043,-0.539 C 5.1,-7.569 4.031,-7.082 3.213,-6.718 M 5.688,-9.021 C 5.543,-8.865 5.382,-8.732 5.235,-8.582 5.575,-8.712 5.89,-8.831 6.168,-8.937 6.185,-9.186 6.205,-9.436 6.222,-9.682 6.041,-9.44 5.859,-9.205 5.688,-9.021 M 4.064,-9.096 c 0.017,-0.018 0.034,-0.042 0.051,-0.06 -0.005,0.001 -0.009,0.004 -0.013,0.007 -0.013,0.013 -0.027,0.041 -0.038,0.053 m -1.17,-0.272 c 0.449,-0.704 0.777,-1.225 1.046,-1.691 -0.453,0.493 -0.884,1.051 -1.265,1.493 -0.14,0.16 -0.288,0.313 -0.434,0.47 0.208,-0.075 0.409,-0.149 0.614,-0.221 0.01,-0.015 0.029,-0.037 0.039,-0.051 m -0.01,-2.212 c -0.328,0.733 -0.767,1.522 -1.186,2.144 0.465,-0.376 0.928,-0.754 1.406,-1.105 0.274,-0.201 0.591,-0.403 0.894,-0.617 0.259,-0.455 0.467,-0.866 0.664,-1.326 -0.547,0.295 -1.154,0.6 -1.778,0.904 m -4.845,-16.667 c -0.18,0.277 -0.385,0.553 -0.614,0.828 0.108,0.093 0.217,0.189 0.325,0.28 0.832,0.707 1.607,1.4 2.354,2.087 0.001,-0.002 0.002,-0.003 0.005,-0.004 -0.662,-1.074 -1.354,-2.14 -2.07,-3.191 m -2.856,-10.438 c 0.086,0.113 0.175,0.225 0.26,0.337 0.532,0.123 1.144,0.223 1.788,0.303 -0.294,-0.254 -0.588,-0.515 -0.884,-0.776 -0.372,0.056 -0.772,0.094 -1.164,0.136 m -0.609,-5.307 c 0.004,0.003 0.008,0.006 0.014,0.01 -0.005,-0.013 -0.012,-0.034 -0.014,-0.044 z m 3.246,-5.521 c -0.131,-0.109 -0.266,-0.217 -0.396,-0.326 0.017,0.156 0.032,0.307 0.038,0.444 0.082,0.008 0.164,0.019 0.246,0.026 0.038,-0.049 0.074,-0.094 0.112,-0.144 m 8.715,-27.265 c 0.143,-0.014 0.286,-0.028 0.43,-0.036 -0.188,-0.214 -0.378,-0.416 -0.582,-0.574 0.079,0.194 0.119,0.401 0.152,0.61 m -1.328,0.223 c 0.239,-0.065 0.48,-0.103 0.721,-0.143 C 5.793,-77.558 5.596,-78.4 5.083,-79 c -0.228,0.697 0.034,1.627 0.124,2.445 m -1.37,-2.677 c -0.138,0.947 -0.456,1.926 -0.872,2.543 0.219,-1.004 0.381,-1.786 0.433,-2.608 -0.444,-0.075 -0.888,-0.158 -1.322,-0.258 -0.397,0.342 -0.824,0.667 -1.214,0.983 0.189,-0.447 0.453,-0.793 0.72,-1.11 -0.216,-0.056 -0.433,-0.11 -0.643,-0.171 -0.13,0.163 -0.225,0.28 -0.225,0.28 l 0.127,-0.307 c -0.348,-0.104 -0.687,-0.219 -1.016,-0.341 -0.092,0.062 -0.183,0.109 -0.27,0.138 0.052,-0.056 0.098,-0.127 0.15,-0.186 -0.322,-0.121 -0.637,-0.251 -0.934,-0.392 -0.562,-0.264 -2.257,-0.961 -3.149,-1.269 0.009,0.034 0.02,0.068 0.03,0.103 0.24,0.279 0.497,0.577 0.768,0.892 2.055,1.47 5.82,3.558 5.82,3.558 0,0 -1.662,-0.395 -3.668,-1.064 1.488,1.689 2.619,2.823 3.459,3.582 0.769,-0.339 1.419,-0.981 2.208,-1.346 0.235,-0.109 0.466,-0.18 0.699,-0.253 -0.21,-0.9 -0.43,-1.802 -0.657,-2.707 -0.148,-0.02 -0.297,-0.046 -0.444,-0.067 m 0.07,-0.848 v 0.026 c 0.054,0.014 0.105,0.027 0.159,0.041 -0.007,-0.023 -0.012,-0.045 -0.019,-0.067 -0.046,-0.001 -0.091,0.001 -0.14,0 m -1.281,-1.899 c -0.075,0.101 -0.225,0.292 -0.417,0.539 0.142,0.039 0.289,0.067 0.431,0.103 0.045,-0.191 0.066,-0.399 0.049,-0.634 -0.019,-0.003 -0.042,-0.005 -0.063,-0.008 m 12.098,-21.377 c 0.007,-0.02 0.015,-0.036 0.024,-0.054 -0.014,0.002 -0.028,0 -0.042,0.002 0.005,0.016 0.011,0.034 0.018,0.052 m -2.673,-1.42 c 0.109,0.211 0.22,0.423 0.315,0.628 0.007,0.018 0.014,0.034 0.023,0.052 0.343,0.015 0.686,0.034 1.03,0.067 -0.195,-0.283 -0.412,-0.591 -0.683,-0.892 -0.228,0.052 -0.452,0.106 -0.685,0.145 m -10.615,2.449 c 0.124,0.089 0.247,0.176 0.371,0.264 l 0.345,-0.498 c 0.021,-0.035 0.052,-0.074 0.075,-0.109 l 0.068,-0.099 v 0.005 -0.002 -0.003 l 0.077,-0.112 c -0.215,-0.101 -0.42,-0.206 -0.629,-0.31 -0.09,0.283 -0.195,0.574 -0.307,0.864 m -0.585,-1.33 c -0.126,0.19 -0.27,0.384 -0.404,0.577 0.19,0.156 0.387,0.31 0.59,0.462 0.152,-0.237 0.292,-0.476 0.418,-0.718 -0.206,-0.105 -0.405,-0.213 -0.604,-0.321 M 0.412,-7.331 C 0.392,-7.314 0.371,-7.298 0.35,-7.28 0.469,-7.308 0.692,-7.357 0.983,-7.422 1.115,-7.54 1.246,-7.658 1.379,-7.778 0.945,-7.576 0.599,-7.416 0.412,-7.331 m -6.517,-3.95 c -0.075,0.097 -0.161,0.189 -0.241,0.283 0.068,0.462 0.138,0.923 0.222,1.333 0.037,-0.037 0.072,-0.08 0.11,-0.117 0.05,-0.051 0.096,-0.108 0.147,-0.159 -0.079,-0.381 -0.161,-0.852 -0.238,-1.34 m -1.568,-4.168 c 0.107,0.254 0.169,0.642 0.211,1.087 0.472,-0.468 0.928,-0.937 1.364,-1.406 -0.003,-0.143 -0.007,-0.281 -0.01,-0.414 -0.515,0.249 -1.039,0.492 -1.565,0.733 m 2.368,-3.64 c -0.12,0.099 -0.245,0.197 -0.369,0.294 0.018,0.399 0.043,0.786 0.091,1.109 0.148,-0.064 0.297,-0.128 0.444,-0.194 -0.03,-0.491 -0.084,-0.872 -0.166,-1.209 m 3.633,-1.08 c -0.243,-0.515 -0.505,-1.022 -0.765,-1.531 -0.188,0.19 -0.376,0.369 -0.56,0.55 -0.142,0.776 -0.271,1.583 -0.378,2.409 0.396,-0.211 0.785,-0.428 1.157,-0.663 0.229,-0.144 0.454,-0.3 0.679,-0.452 -0.043,-0.102 -0.086,-0.216 -0.133,-0.313 m -0.942,-5.493 c -0.221,-0.208 -0.458,-0.416 -0.697,-0.625 0.441,1.075 0.865,2.158 1.275,3.244 0.195,-0.185 0.378,-0.365 0.544,-0.531 0.169,-0.17 0.365,-0.357 0.567,-0.547 -0.521,-0.464 -1.076,-0.968 -1.689,-1.541 m -2.084,-6.407 c 0.596,1.253 1.302,3.115 1.948,4.466 0.296,-0.221 0.565,-0.443 0.772,-0.668 -0.861,-1.261 -1.764,-2.526 -2.72,-3.798 m -0.409,-16.154 c -0.094,-0.026 -0.202,-0.047 -0.293,-0.074 -10e-4,0.189 -0.003,0.377 -0.004,0.565 0.039,0.019 0.08,0.036 0.12,0.054 0.042,-0.131 0.103,-0.318 0.177,-0.545 m 2.14,-3.522 c 0.049,0.18 0.09,0.351 0.132,0.525 0.027,-0.048 0.05,-0.093 0.077,-0.14 -0.069,-0.128 -0.146,-0.259 -0.209,-0.385 M -3.462,-79.18 c 0.211,0.555 0.432,1.1 0.656,1.616 0.574,0.779 1.293,1.611 2.07,2.434 0.875,0.326 1.593,0.521 1.983,0.484 0.156,-0.015 0.304,-0.046 0.447,-0.09 -0.592,-0.511 -1.2,-1.061 -1.68,-1.568 -0.456,-0.481 -1.292,-1.39 -2.218,-2.402 -0.415,-0.148 -0.837,-0.308 -1.258,-0.474 m 4.971,-2.944 -0.284,0.366 c 0.115,0.039 0.231,0.074 0.347,0.111 l 0.181,-0.442 c -0.08,-0.012 -0.163,-0.024 -0.244,-0.035 m 7.284,-22.058 c 0.042,0.056 0.091,0.111 0.132,0.168 0.407,-0.032 0.815,-0.055 1.224,-0.073 -0.143,-0.082 -0.289,-0.162 -0.437,-0.243 -0.303,0.056 -0.608,0.107 -0.919,0.148 m -0.438,-0.656 c 0.095,-0.024 0.188,-0.047 0.282,-0.072 -0.048,-0.024 -0.101,-0.05 -0.154,-0.076 -0.04,0.048 -0.079,0.093 -0.128,0.148 m -13.524,1.512 c -0.001,0.101 -0.004,0.205 -0.005,0.306 0.32,0.055 0.632,0.067 0.94,0.048 -0.028,-0.148 -0.057,-0.309 -0.088,-0.483 -0.276,0.038 -0.54,0.078 -0.816,0.115 -0.01,0.004 -0.02,0.008 -0.031,0.014 m 4.758,97.033 c 0.082,-0.055 0.188,-0.133 0.31,-0.226 -0.059,-0.015 -0.115,-0.031 -0.171,-0.048 -0.071,0.121 -0.126,0.221 -0.139,0.274 m -6.06,-1.433 c 0.051,0.217 0.101,0.429 0.151,0.643 0.122,-0.072 0.244,-0.141 0.366,-0.211 -0.055,-0.226 -0.111,-0.455 -0.165,-0.707 -0.118,0.092 -0.234,0.183 -0.352,0.275 M -6.95,-9.96 c 0.065,0.33 0.133,0.648 0.202,0.971 0.119,-0.136 0.241,-0.261 0.361,-0.391 -0.073,-0.419 -0.138,-0.837 -0.196,-1.254 -0.124,0.224 -0.239,0.453 -0.367,0.674 m -3.442,-2.308 c -0.083,0.26 -0.161,0.502 -0.238,0.744 0.141,-0.113 0.283,-0.227 0.423,-0.345 0.029,-0.448 0.057,-0.948 0.086,-1.469 -0.102,0.437 -0.2,0.838 -0.271,1.07 m 4.719,-8.534 c -0.323,-0.549 -0.605,-1.124 -0.876,-1.702 -0.188,0.197 -0.378,0.392 -0.571,0.585 -0.045,0.499 -0.088,0.996 -0.135,1.458 v 1.069 c -0.012,0.116 -0.031,0.254 -0.045,0.38 0.019,-0.01 0.04,-0.018 0.058,-0.027 0.491,-0.246 1.016,-0.573 1.55,-0.945 -0.005,-0.007 -0.009,-0.012 -0.013,-0.018 0.01,-0.269 0.022,-0.533 0.032,-0.8 m 2.873,-1.623 c -0.001,0.035 -0.01,0.073 -0.013,0.107 0.014,-0.014 0.031,-0.027 0.047,-0.041 -0.013,-0.022 -0.023,-0.044 -0.034,-0.066 m -1.751,-6.725 c 0.064,0.059 0.13,0.118 0.197,0.177 -0.118,-0.164 -0.232,-0.329 -0.342,-0.493 0.049,0.106 0.096,0.211 0.145,0.316 m -4.667,-9.09 c -10e-4,0.119 0.009,0.239 0.016,0.358 0.026,0.042 0.045,0.071 0.075,0.12 0.469,0.767 0.922,1.54 1.364,2.316 0.013,-0.229 0.027,-0.462 0.036,-0.702 -0.498,-0.689 -0.975,-1.366 -1.491,-2.092 m 1.622,-4.334 c -0.189,-0.2 -0.369,-0.399 -0.513,-0.615 0.151,0.27 0.34,0.532 0.515,0.797 -10e-4,-0.062 -0.002,-0.116 -0.002,-0.182 m -0.717,-3.298 c -0.003,0.03 -0.004,0.06 -0.006,0.089 0.221,0.134 0.444,0.268 0.667,0.405 -0.002,-0.052 -0.003,-0.103 -0.005,-0.156 -0.218,-0.111 -0.438,-0.224 -0.656,-0.338 m 0.085,-1.351 c -0.003,0.041 -0.005,0.082 -0.007,0.125 0.174,0.081 0.359,0.167 0.55,0.256 -0.001,-0.07 -0.002,-0.139 -0.004,-0.207 -0.178,-0.06 -0.36,-0.116 -0.539,-0.174 m 0.125,-2.105 c -0.006,0.094 -0.01,0.193 -0.016,0.29 0.128,0.064 0.258,0.13 0.394,0.197 -0.003,-0.112 -0.006,-0.218 -0.007,-0.327 -0.125,-0.055 -0.254,-0.107 -0.371,-0.16 m 2.724,-1.967 c -0.003,0.447 -0.005,0.894 -0.01,1.344 0.17,0.05 0.338,0.102 0.51,0.149 -0.153,-0.493 -0.319,-0.99 -0.5,-1.493 m 1.347,3.341 c 0.008,0.167 0.02,0.331 0.029,0.494 0.121,-0.093 0.278,-0.238 0.448,-0.412 -0.159,-0.029 -0.323,-0.051 -0.477,-0.082 m 0.392,-2.42 c -0.05,0.291 -0.099,0.561 -0.147,0.807 0.106,0.02 0.202,0.045 0.309,0.063 -0.043,-0.29 -0.098,-0.58 -0.162,-0.87 m 3.802,-31.973 c -0.046,0.042 -0.088,0.089 -0.133,0.13 0.254,0.108 0.507,0.215 0.777,0.314 0.052,-0.101 0.091,-0.205 0.139,-0.307 -0.259,-0.044 -0.522,-0.088 -0.783,-0.137 m 11.086,-17.824 c -0.966,-0.452 -1.811,-0.864 -2.662,-1.244 0.304,0.157 0.63,0.334 0.963,0.517 0.002,-0.002 0.002,-0.002 0.003,-0.003 0,10e-4 -10e-4,0.003 -10e-4,0.004 0.834,0.461 1.699,0.979 2.29,1.445 0.037,0.03 0.069,0.058 0.107,0.086 0.326,0.08 0.651,0.159 0.95,0.206 0.163,-0.027 0.297,-0.044 0.419,-0.058 -0.678,-0.312 -1.379,-0.63 -2.069,-0.953 m 2.507,-0.689 c 0.216,0.081 0.43,0.167 0.64,0.257 0.012,-0.357 0.017,-0.715 0.021,-1.075 -0.353,-0.046 -0.688,-0.086 -1.012,-0.128 0.145,0.361 0.26,0.67 0.351,0.946 m -6.661,-2.498 c 0.158,0.045 0.343,0.089 0.547,0.134 -0.091,-0.048 -0.179,-0.094 -0.271,-0.142 -0.093,0.003 -0.195,0.004 -0.276,0.008 m -0.641,3.016 c 0.095,-0.117 0.184,-0.236 0.275,-0.357 -0.147,-0.155 -0.295,-0.309 -0.448,-0.458 -0.152,-0.067 -0.302,-0.132 -0.436,-0.191 0.194,0.312 0.397,0.643 0.609,1.006 m -10.916,0.267 c 0.005,-0.085 0.012,-0.171 0.015,-0.25 -0.029,0.05 -0.043,0.113 -0.067,0.166 0.017,0.029 0.034,0.056 0.052,0.084 m -3.317,47.612 c -0.075,-0.113 -0.15,0.581 -0.224,1.638 0.08,0.027 0.161,0.056 0.243,0.083 -0.019,-0.949 -0.027,-1.616 -0.019,-1.721 m 3.518,1.015 c -0.032,-0.033 -0.049,-0.078 -0.075,-0.114 0.012,0.079 0.032,0.161 0.042,0.241 0.019,0.147 0.031,0.3 0.046,0.451 0.066,-0.19 0.13,-0.38 0.195,-0.562 -0.097,0.016 -0.177,0.018 -0.208,-0.016 m -1.325,-27.547 -0.163,1.205 c 0.049,0.137 0.1,0.273 0.151,0.412 0.728,0.381 1.517,0.776 2.303,1.146 -0.344,-0.341 -0.679,-0.686 -0.985,-1.032 -0.566,-0.639 -0.983,-1.218 -1.306,-1.731 m 4.155,-5.444 c -0.809,-0.038 -1.511,-0.073 -1.985,-0.09 0.462,0.174 0.987,0.343 1.556,0.506 0.147,-0.133 0.289,-0.271 0.429,-0.416 m 11.719,-15.516 c -0.264,-0.008 -0.542,-0.039 -0.833,-0.098 0.08,0.069 0.157,0.143 0.235,0.216 0.245,0.037 0.475,0.075 0.678,0.115 0.162,0.031 0.307,0.071 0.462,0.105 -0.171,-0.108 -0.351,-0.22 -0.542,-0.338 m -2.572,-1.491 c 0.265,0.151 0.53,0.304 0.811,0.448 -0.322,-0.187 -0.631,-0.365 -0.904,-0.521 0.03,0.022 0.063,0.049 0.093,0.073 m 2.743,0.015 c -1.179,-0.36 -2.4,-0.724 -3.364,-0.933 1.341,0.369 2.931,0.993 4.281,1.6 -0.294,-0.223 -0.599,-0.446 -0.917,-0.667 m 0.042,-0.495 c 0.675,0.194 1.309,0.393 1.813,0.566 0.237,0.08 0.515,0.172 0.808,0.272 -0.181,-0.276 -0.378,-0.55 -0.587,-0.822 -0.704,-0.081 -1.51,-0.227 -2.328,-0.379 0.099,0.121 0.197,0.241 0.294,0.363 m -3.241,1.798 c -0.066,-0.076 -0.136,-0.147 -0.202,-0.221 -0.033,0.065 -0.064,0.129 -0.1,0.192 0.102,0.009 0.197,0.019 0.302,0.029 m -1.31,-0.118 c -0.322,-0.536 -0.66,-1.034 -1.01,-1.489 -0.025,-0.009 -0.049,-0.02 -0.074,-0.03 0.248,0.454 0.494,0.956 0.729,1.492 0.11,0.008 0.22,0.016 0.355,0.027 m -7.266,-3.039 c -0.139,0.218 -0.259,0.443 -0.339,0.652 10e-4,0.015 0.007,0.034 0.008,0.049 0.175,0.172 0.35,0.342 0.517,0.503 0.238,-0.179 0.466,-0.376 0.686,-0.593 -0.301,-0.201 -0.597,-0.404 -0.872,-0.611 m -1.356,31.698 c -10e-4,-0.002 -0.002,-0.003 -0.002,-0.003 -0.052,-0.026 -0.105,-0.046 -0.157,-0.071 -0.119,-0.057 -0.254,-0.133 -0.378,-0.198 -0.104,0.496 -0.184,0.99 -0.258,1.453 0.039,0.027 0.083,0.056 0.122,0.084 0.342,-0.371 0.444,-0.824 0.673,-1.265 M -3.73,-87.735 c -0.145,-0.228 -0.288,-0.462 -0.425,-0.699 -0.377,0.301 -0.748,0.588 -1.115,0.852 0.012,0.123 0.02,0.249 0.03,0.376 0.25,-0.061 0.507,-0.122 0.794,-0.193 0.239,-0.112 0.478,-0.222 0.716,-0.336 m 11.261,-12.906 c 0.19,0.201 0.394,0.394 0.575,0.601 0.246,0.028 0.493,0.056 0.734,0.087 -0.184,-0.141 -0.37,-0.284 -0.559,-0.42 -0.255,-0.085 -0.504,-0.174 -0.75,-0.268 m -6.929,-1.369 c -0.214,-0.128 -0.434,-0.258 -0.638,-0.388 -0.198,0.269 -0.406,0.526 -0.612,0.787 0.155,0.154 0.316,0.307 0.48,0.458 0.28,-0.265 0.535,-0.552 0.77,-0.857 m 0.508,0.482 c -0.151,0.362 -0.344,0.713 -0.532,1.066 0.06,0.056 0.122,0.112 0.182,0.168 0.095,0.048 0.178,0.081 0.28,0.14 0.065,-0.017 0.128,-0.031 0.192,-0.047 0.069,-0.428 0.158,-0.792 0.246,-1.073 -0.112,-0.118 -0.221,-0.229 -0.331,-0.342 -0.013,0.029 -0.024,0.059 -0.037,0.088 m 5.628,-0.642 c -0.038,-0.013 -0.077,-0.028 -0.112,-0.042 0.023,0.015 0.044,0.031 0.066,0.046 z m 0.213,-0.597 c 0.63,0.094 1.431,0.275 2.251,0.487 -0.137,-0.089 -0.273,-0.177 -0.409,-0.264 -0.681,-0.115 -1.321,-0.207 -1.842,-0.223 m 7.28,3.314 c 0.08,-0.254 0.112,-0.513 0.136,-0.773 -0.156,-0.046 -0.312,-0.082 -0.468,-0.131 0.063,0.274 0.087,0.498 0.066,0.677 -0.14,-0.26 -0.294,-0.525 -0.451,-0.789 -0.624,-0.201 -1.249,-0.41 -1.867,-0.599 -0.189,-0.057 -0.39,-0.119 -0.584,-0.179 0.168,0.197 0.347,0.391 0.537,0.583 0.063,0.028 0.132,0.057 0.194,0.086 0.585,0.27 1.474,0.704 2.286,1.189 0.049,-0.02 0.096,-0.035 0.151,-0.064 m -14.847,16.948 c 0.017,0.006 0.032,0.015 0.046,0.023 0.004,-0.004 0.007,-0.008 0.01,-0.013 -0.018,-0.004 -0.036,-0.006 -0.056,-0.01 m 0.819,-1.009 c 0.031,-0.043 0.064,-0.088 0.092,-0.13 -0.224,-0.147 -0.443,-0.294 -0.652,-0.446 -0.186,0.105 -0.372,0.213 -0.563,0.317 0.361,0.09 0.739,0.177 1.123,0.259 m -8.589,38.661 c 0.244,0.236 0.507,0.452 0.757,0.681 0,-0.013 -0.001,-0.025 -0.001,-0.037 -0.249,-0.218 -0.511,-0.426 -0.756,-0.648 z m 2.88,39.429 0.018,0.002 V -5.45 c -0.006,0.009 -0.011,0.018 -0.018,0.026 m -4.834,-2.283 c -0.147,0.107 -0.283,0.209 -0.461,0.335 -0.22,0.336 -0.496,0.741 -0.827,1.206 0.369,-0.184 0.726,-0.388 1.089,-0.585 0.035,-0.038 0.07,-0.077 0.102,-0.116 0.039,-0.3 0.071,-0.591 0.097,-0.84 m -0.51,-4.927 c 10e-4,0.022 10e-4,0.046 0.003,0.07 0.031,-0.062 0.056,-0.123 0.087,-0.185 -0.031,0.038 -0.059,0.078 -0.09,0.115 m 0.094,-3.223 c -0.035,0.014 -0.07,0.028 -0.105,0.041 0,0.006 0.001,0.01 0.001,0.016 0.29,-0.073 0.578,-0.151 0.868,-0.228 0.002,-0.057 0.003,-0.114 0.006,-0.17 -0.256,0.114 -0.507,0.233 -0.77,0.341 m 0.47,-3.109 c -0.322,0.259 -0.667,0.509 -1.023,0.754 0.075,0.298 0.15,0.596 0.221,0.914 0.053,-0.021 0.106,-0.043 0.16,-0.067 0.019,-0.034 0.044,-0.065 0.065,-0.101 0.01,0.021 0.002,0.05 0.007,0.071 0.275,-0.116 0.544,-0.228 0.822,-0.35 -0.064,-0.421 -0.151,-0.828 -0.252,-1.221 m 4.816,-1.512 c 0.012,0.102 0.023,0.2 0.032,0.308 0.037,-0.026 0.073,-0.053 0.11,-0.081 -0.049,-0.074 -0.094,-0.15 -0.142,-0.227 m 0.462,-1.327 c -0.01,-0.557 -0.029,-1.093 -0.054,-1.37 -0.032,-0.372 -0.059,-0.688 -0.084,-0.986 -0.129,0.171 -0.237,0.351 -0.374,0.517 0.175,0.614 0.353,1.226 0.512,1.839 m -6.968,10.44 c 0.058,0.194 0.11,0.403 0.16,0.628 0.077,-0.135 0.155,-0.263 0.231,-0.4 -0.038,-0.175 -0.08,-0.345 -0.123,-0.51 -0.087,0.094 -0.178,0.189 -0.268,0.282 m 0.917,-2.676 c 0.024,0.09 0.041,0.187 0.061,0.282 0.179,-0.174 0.379,-0.327 0.55,-0.507 -0.203,0.079 -0.406,0.15 -0.611,0.225 m 0.268,-6.871 c -0.101,-0.49 -0.17,-1.094 -0.268,-1.601 -0.471,0.466 -0.963,0.92 -1.456,1.369 -0.014,0.227 -0.032,0.443 -0.039,0.683 0.123,0.123 0.29,0.16 0.481,0.16 0.104,-0.323 0.23,-0.554 0.38,-0.755 0.01,0.483 0.044,0.876 0.086,1.24 0.317,-0.2 0.63,-0.403 0.935,-0.614 -0.041,-0.161 -0.086,-0.324 -0.119,-0.482 m 1.929,-0.962 c 0.022,-0.022 0.044,-0.043 0.066,-0.065 0.008,-0.054 0.015,-0.105 0.024,-0.161 -0.217,-0.687 -0.388,-1.39 -0.552,-2.095 -0.015,0.98 0.064,1.517 0.224,2.528 0.077,-0.071 0.164,-0.133 0.238,-0.207 m 0.062,-3.357 c 0.086,0.403 0.173,0.806 0.26,1.211 0.06,-0.561 0.118,-1.155 0.17,-1.761 -0.15,0.189 -0.297,0.373 -0.43,0.55 m 2.238,-1.975 v -0.853 c -0.018,0.024 -0.035,0.049 -0.053,0.074 -0.017,0.189 -0.034,0.39 -0.049,0.582 0.06,0.189 0.119,0.378 0.181,0.566 -0.031,-0.173 -0.058,-0.315 -0.079,-0.369 m -2.681,-0.552 c 0.003,0.196 0.003,0.39 0.009,0.595 0.058,0.249 0.117,0.497 0.173,0.748 0.115,-0.113 0.227,-0.223 0.342,-0.335 -0.181,-0.337 -0.35,-0.672 -0.524,-1.008 m -2.94,1.65 c 0,1.068 -0.073,1.968 -0.157,2.832 0.243,-0.231 0.534,-0.506 0.852,-0.81 v -0.456 c -0.233,-0.543 -0.255,-1.418 -0.569,-1.724 -0.039,0.049 -0.084,0.106 -0.126,0.158 m 6.303,1.173 c 0.2,-0.206 0.405,-0.409 0.61,-0.611 -0.002,-0.018 -0.004,-0.035 -0.005,-0.053 v -1.304 c -0.183,-0.326 -0.364,-0.655 -0.548,-0.982 -0.075,0.882 -0.148,1.799 -0.183,2.554 0.042,0.132 0.085,0.262 0.126,0.396 m -5.123,15.277 c -0.011,0.287 -0.023,0.501 -0.159,0.685 -0.063,0.14 -0.088,0.127 -0.212,0.16 0,-0.199 -0.002,-0.377 -0.008,-0.551 -0.057,0.043 -0.113,0.082 -0.176,0.126 -0.002,0.003 -0.003,0.005 -0.005,0.008 0.033,0.289 0.061,0.581 0.075,0.876 -0.002,0.003 0,0.009 -0.002,0.013 0.157,-0.095 0.305,-0.186 0.457,-0.279 0.27,-0.364 0.513,-0.703 0.723,-1.01 v -0.62 c -0.215,0.2 -0.446,0.397 -0.693,0.592 m 17.23,-94.106 c 0.095,-0.009 0.192,-0.019 0.29,-0.029 -0.015,-0.008 -0.029,-0.015 -0.043,-0.021 -0.082,0.019 -0.168,0.028 -0.247,0.05 m 4.945,0.369 c -0.55,0.01 -1.173,0.011 -1.795,0.011 0.13,0.183 0.265,0.357 0.396,0.533 0.833,0.125 1.648,0.233 2.256,0.314 -0.258,-0.289 -0.534,-0.572 -0.836,-0.843 -0.006,-0.005 -0.015,-0.009 -0.021,-0.015 m -15.473,56.137 c 0,0 0.058,-0.034 0.137,-0.086 -0.019,-0.069 -0.037,-0.136 -0.057,-0.204 -0.049,0.19 -0.08,0.29 -0.08,0.29 m -1.67,29.743 c 0.021,-0.021 0.048,-0.036 0.056,-0.063 0.07,-0.301 0.049,-0.66 0.015,-1.038 -0.058,0.044 -0.11,0.091 -0.169,0.134 -0.456,0.339 -0.93,0.653 -1.413,0.953 -0.028,0.233 -0.051,0.461 -0.078,0.693 0.529,-0.225 1.06,-0.451 1.589,-0.679 m -0.105,3.861 c 0.01,-0.291 -0.003,-1.174 -0.02,-1.996 -0.382,0.565 -0.903,1.368 -1.313,1.97 0.042,0.692 0.067,1.427 0.154,1.993 0.02,0.122 0.044,0.24 0.065,0.361 0.159,-0.128 0.324,-0.258 0.483,-0.388 -0.04,-0.427 -0.068,-0.834 -0.069,-1.183 h 0.106 v 0.158 c 0.069,0.229 0.126,0.523 0.181,0.838 0.081,-0.128 0.161,-0.26 0.242,-0.39 -0.053,-0.416 -0.089,-0.793 -0.098,-1.064 0.126,-0.078 0.17,-0.161 0.269,-0.299 m 6.055,-90.498 c -0.158,0.033 -0.322,0.06 -0.48,0.092 -0.021,0.016 -0.041,0.032 -0.062,0.05 0.227,0.232 0.471,0.462 0.734,0.689 0.141,-0.16 0.284,-0.317 0.423,-0.476 -0.212,-0.117 -0.415,-0.236 -0.615,-0.355 m 12.718,0.727 c 0.17,0.375 0.323,0.721 0.46,1.037 0.42,0.054 0.844,0.11 1.276,0.175 10e-4,-0.017 0.008,-0.035 0.009,-0.051 -0.193,-0.379 -0.393,-0.757 -0.617,-1.133 -0.385,-0.013 -0.76,-0.022 -1.128,-0.028 m -13.222,79.656 c -0.329,0.398 -0.64,0.761 -0.861,0.99 -0.136,0.142 -0.262,0.268 -0.395,0.405 0.266,0.712 0.531,1.425 0.797,2.137 0.831,-0.592 1.629,-1.226 2.362,-1.868 -0.601,-0.526 -1.223,-1.063 -1.903,-1.664 m 0.175,13.705 c -0.001,0 -0.001,0.002 -0.001,0.002 -0.096,0.161 -0.184,0.325 -0.282,0.488 0.14,0.328 0.22,0.661 0.256,0.991 0.416,-0.542 0.773,-1.03 1.007,-1.374 0.143,-0.211 0.323,-0.492 0.515,-0.8 -0.516,0.241 -1.023,0.473 -1.495,0.693 m 3.702,4.606 C 3.023,-5.605 2.638,-5.752 2.216,-5.891 2.11,-5.805 2.01,-5.716 1.904,-5.631 c -0.582,0.462 -2.615,1.729 -4.171,2.737 l -0.4,0.888 c 1.792,-0.793 4.564,-2.47 6.019,-3.452 m 2.354,0.032 C 5.768,-5.436 5.818,-5.443 5.883,-5.452 5.887,-5.496 5.891,-5.54 5.894,-5.585 5.831,-5.53 5.769,-5.48 5.706,-5.426 m 0.091,0.858 C 5.508,-4.65 5.214,-4.73 4.936,-4.819 4.759,-4.688 4.577,-4.547 4.411,-4.439 4.021,-4.182 1.273,-2.362 0.995,-1.996 1.882,-2.198 4.572,-3.213 5.73,-3.875 5.754,-4.106 5.775,-4.337 5.797,-4.568 m 2.284,0.682 c -0.286,0.263 -0.531,0.456 -0.717,0.564 0,10e-4 -10e-4,0.004 -10e-4,0.005 C 7.641,-3.466 7.938,-3.638 8.246,-3.825 8.191,-3.845 8.137,-3.866 8.081,-3.886 M 9.142,-4.97 c 0.322,-0.035 0.643,-0.071 0.955,-0.104 0.67,-0.497 1.334,-1.052 1.954,-1.65 -0.801,0.409 -1.6,0.792 -2.37,1.132 -0.181,0.215 -0.36,0.424 -0.539,0.622 m -3.85,-9.185 c 0.295,-0.853 0.612,-2.448 0.5,-3.53 0,-0.004 -0.002,-0.01 -0.002,-0.015 -1.034,-1.185 -1.925,-2.104 -2.774,-2.913 0.04,0.288 0.088,0.58 0.081,0.849 -0.27,-0.535 -0.56,-1.036 -0.839,-1.556 -0.081,-0.072 -0.161,-0.143 -0.241,-0.215 -0.019,0.021 -0.04,0.048 -0.058,0.067 -0.691,0.802 -1.581,1.556 -2.558,2.244 0.214,0.57 0.427,1.142 0.649,1.708 0.167,0.427 0.278,0.921 0.341,1.338 -0.705,-0.707 -1.13,-1.729 -1.519,-2.703 -0.779,0.514 -1.588,0.994 -2.397,1.411 -0.076,0.685 -0.143,1.362 -0.192,1.998 -0.034,0.444 -0.088,0.788 -0.127,1.095 0.043,-0.04 0.084,-0.091 0.126,-0.128 -0.033,0.069 -0.083,0.154 -0.14,0.244 -0.056,0.51 -0.037,0.895 0.267,1.379 0.273,-0.464 0.525,-0.936 0.732,-1.421 -0.04,0.492 -0.315,1.067 -0.595,1.599 0.2,0.275 0.473,0.579 0.888,0.958 0.113,-0.09 0.228,-0.169 0.341,-0.262 0.063,-0.051 0.126,-0.108 0.191,-0.163 0.256,-0.436 0.509,-0.875 0.782,-1.296 0.164,-0.251 0.37,-0.518 0.551,-0.789 -0.199,0.462 -0.357,0.963 -0.513,1.409 0.179,-0.136 0.36,-0.264 0.545,-0.361 -0.206,0.387 -0.527,0.78 -0.875,1.163 -0.118,0.289 -0.245,0.574 -0.38,0.859 0.076,0.064 0.126,0.113 0.209,0.181 0.218,0.184 0.396,0.375 0.554,0.571 0.143,-0.043 0.29,-0.096 0.437,-0.145 0.576,-0.838 0.98,-1.655 1.641,-2.577 0.224,-0.311 0.489,-1.299 0.787,-1.621 -0.156,0.478 -0.328,1.238 -0.534,1.735 -0.308,0.755 -0.674,1.47 -1.062,2.176 0.042,-0.015 0.088,-0.033 0.129,-0.048 0.491,-0.401 0.961,-0.819 1.388,-1.269 -0.169,0.366 -0.488,0.73 -0.84,1.079 0.257,-0.086 0.489,-0.162 0.72,-0.238 0.916,-1.518 2.043,-3.564 2.408,-4.629 0.203,-0.591 0.344,-1.286 0.64,-1.796 -0.172,0.456 -0.472,2.973 -1.369,5.458 -0.044,0.123 -0.11,0.265 -0.164,0.399 0.095,-0.041 0.187,-0.077 0.292,-0.124 0.348,-0.153 0.884,-0.392 1.433,-0.648 0.169,-0.413 0.34,-0.876 0.547,-1.473 m 8.06,5.919 c -0.294,-0.336 -0.615,-0.722 -0.962,-1.151 -0.134,0.094 -0.266,0.191 -0.399,0.282 -0.179,0.38 -0.357,0.762 -0.568,1.119 -0.3,0.505 -0.678,1.043 -1.083,1.572 0.864,-0.274 1.54,-0.567 2.415,-1.027 0.21,-0.232 0.419,-0.465 0.608,-0.706 -0.004,-0.029 -0.007,-0.06 -0.011,-0.089 M 4.131,-47.377 c -0.49,0.675 -1.128,1.199 -1.864,1.583 0.086,0.126 0.173,0.25 0.26,0.375 0.643,0.053 1.288,0.096 1.929,0.119 0.051,-0.588 0.121,-1.082 0.217,-1.452 -0.189,-0.219 -0.369,-0.425 -0.542,-0.625 M 5.2,-25.134 c -0.999,-0.915 -1.976,-1.96 -2.424,-2.573 -1.473,-2.009 -2.612,-3.161 -3.888,-4.437 -1.509,-0.98 -3.157,-2.131 -3.568,-2.41 1.202,0.887 1.59,2.215 2.651,3.276 1.403,1.404 1.871,3.275 2.183,4.055 -0.136,-0.102 -0.274,-0.233 -0.413,-0.352 0.382,0.584 0.771,1.207 1.151,1.847 0.092,-0.076 0.193,-0.164 0.278,-0.234 -0.057,0.087 -0.135,0.197 -0.228,0.322 0.515,0.872 0.984,1.766 1.362,2.651 0.496,-0.54 0.941,-1.099 1.533,-1.593 0.073,0.57 -0.476,1.405 -1.038,2.116 1.08,1.087 2.066,2.139 2.968,3.146 0.019,-0.078 0.046,-0.146 0.082,-0.19 0.009,0.103 0.018,0.208 0.027,0.312 0.165,0.185 0.322,0.366 0.481,0.548 -0.064,-0.903 -0.165,-1.707 -0.31,-2.366 C 5.697,-22.6 5.422,-23.944 5.2,-25.134 m 4.666,12.515 c -0.269,0.247 -0.525,0.467 -0.749,0.632 -0.184,0.134 -0.349,0.267 -0.525,0.401 0.523,-0.213 0.918,-0.373 0.918,-0.373 0,0 -0.551,0.283 -1.307,0.672 -0.185,0.142 -0.38,0.285 -0.562,0.427 -0.007,0.311 -0.017,0.607 -0.025,0.949 -0.004,0.136 -0.008,0.276 -0.013,0.416 0.406,-0.163 0.85,-0.346 1.375,-0.567 0.441,-0.423 0.828,-0.815 1.088,-1.131 0.151,-0.185 0.301,-0.382 0.451,-0.581 -0.206,-0.268 -0.422,-0.547 -0.651,-0.845 m 3.542,-0.438 c -0.213,0.741 -0.444,1.484 -0.703,2.218 0.171,0.208 0.342,0.411 0.508,0.606 0.002,-0.736 0.065,-1.574 0.195,-2.824 m 25.484,-112.027 c -0.244,0.35 -0.381,0.849 -0.615,1.153 -0.418,0.545 -1.402,0.716 -1.74,1.319 -0.344,0.617 0.275,1.422 0.518,2.171 -2.504,0.432 -6.644,0.069 -8.204,2.107 -0.071,0.092 -0.13,0.617 -0.224,0.792 -0.189,0.351 -0.789,0.656 -1.071,0.968 -0.207,0.229 -0.241,0.645 -0.442,0.834 -0.627,0.581 -1.949,0.473 -2.457,1.211 -0.392,0.571 -0.132,1.501 -0.209,2.252 -0.189,1.824 -1.078,4.213 -2.65,5.28 0.02,0.019 0.041,0.039 0.031,0.075 -0.149,0.227 -0.392,0.617 -0.626,0.983 0.151,0.305 0.399,0.6 0.671,0.865 0.663,0.654 2.077,1.142 2.826,1.819 -0.599,-0.309 -1.156,-0.408 -1.887,-0.707 -1.051,-0.434 -1.634,-0.838 -2.101,-1.24 -0.049,0.065 -0.091,0.117 -0.114,0.134 -0.06,0.042 -0.197,0.065 -0.365,0.083 0.274,0.454 0.613,0.939 0.999,1.326 0.674,0.673 1.426,1.379 1.953,1.582 -1.569,-0.523 -2.2,-1.059 -3.773,-2.02 -0.351,-0.215 -0.649,-0.417 -0.921,-0.61 -0.122,0.063 -0.222,0.137 -0.257,0.24 -0.209,1.809 0.41,3.878 1.351,5.014 0.439,0.529 1.246,0.883 1.822,1.091 1.953,-0.208 2.008,-0.196 3.23,-1.237 0.331,-0.286 0.731,-0.795 1.042,-1.072 1.121,-0.966 3.186,-1.556 4.001,-2.365 0.503,-0.562 0.85,-0.889 1.266,-1.503 0.306,-0.395 1.489,-1.185 1.715,-1.116 0.324,0.13 1.446,1.132 1.566,1.845 -0.017,0.403 -0.334,0.484 -0.602,0.615 -0.318,0.117 -0.399,0.097 -0.897,0.451 -0.248,0.346 -0.175,0.086 -0.472,0.656 -0.406,0.782 -1.05,1.217 -1.371,2.178 -0.246,0.733 -0.688,1.532 -1.036,2.139 -0.41,0.724 -0.826,1.132 -0.602,2.011 0.465,1.502 4.476,3.249 3.881,6.555 0.016,0.229 -0.203,0.607 -0.186,0.84 -0.645,-0.35 -1.271,-1.023 -1.529,-1.805 -0.106,0.078 0.261,1.735 -0.235,2.395 -1.116,-0.166 -2.946,-2.786 -3.331,-3.677 -0.33,-0.774 -0.373,-2.081 -0.904,-2.39 -0.06,-0.054 -0.123,-0.11 -0.183,-0.163 -0.901,1.369 -1.414,1.095 -2.273,2.52 -0.464,0.774 -0.667,1.967 -1.132,2.737 -0.634,1.054 -1.83,1.352 -2.809,2.126 -0.478,0.622 -0.956,1.241 -1.435,1.857 -1.099,0.957 -2.472,2.048 -3.803,2.731 -0.535,0.274 -1.085,0.484 -1.641,0.666 0.026,0.071 0.043,0.118 0.043,0.118 0,0 -0.021,-0.046 -0.053,-0.115 -1.831,0.6 -3.748,0.733 -5.618,0.525 -0.545,0.283 -1.192,0.485 -1.907,0.61 1.329,0.288 2.786,0.419 3.961,0.553 -0.815,0.097 -1.402,0.323 -2.275,0.211 -1.011,-0.13 -2.023,-0.361 -2.89,-0.574 0.197,0.127 0.515,0.291 0.89,0.464 0.721,0.174 1.428,0.353 2.056,0.586 -0.215,0.008 -0.437,0.004 -0.656,0.005 1.126,0.433 2.361,0.823 3.11,0.891 -1.413,0.467 -2.748,-0.231 -3.966,-0.905 -0.136,-0.005 -0.275,-0.011 -0.412,-0.019 0.84,0.86 1.719,1.56 2.703,2.134 0.693,-0.027 1.22,-0.028 1.637,0.55 0.071,0.097 0.102,0.221 0.155,0.332 0.061,0.024 0.112,0.054 0.173,0.077 -0.049,-0.002 -0.094,-0.012 -0.143,-0.017 0.339,0.762 0.374,1.72 0.666,2.441 0.032,-0.006 0.066,-0.011 0.1,-0.018 -0.024,-0.968 0.015,-2.055 0.211,-2.976 1.553,-0.055 3.098,-0.152 4.616,0.039 l 0.003,-0.012 c 0,0 -0.002,0.011 -0.002,0.012 0.696,0.089 1.385,0.231 2.067,0.478 0.896,0.323 2.706,0.884 2.545,2.024 -1.297,0.386 -2.603,0.528 -3.985,1.259 -1.993,1.054 -3.721,2.36 -6.085,2.599 -1.136,0.117 -2.116,-0.247 -3.01,-0.799 0.004,0.016 0.014,0.027 0.018,0.043 0.081,0.278 0.081,0.512 0.059,0.718 0.123,0.103 0.238,0.218 0.371,0.299 -0.145,0.02 -0.287,0.025 -0.43,0.042 -0.065,0.203 -0.143,0.332 -0.143,0.332 0,0 0.053,-0.126 0.06,-0.324 -0.12,0.012 -0.239,0.023 -0.358,0.034 0.005,0.018 0.014,0.041 0.014,0.041 0,0 -0.028,-0.029 -0.039,-0.038 -0.92,0.078 -1.836,0.084 -2.742,0.026 0.007,0.005 0.016,0.009 0.021,0.015 0.947,0.737 2.301,1.727 3.135,2.236 0.927,0.571 1.848,1.253 2.573,2.048 0.73,0.8 1.143,1.917 1.935,2.63 -0.738,0.752 -2.114,0.887 -2.918,1.587 0,0.001 0.002,0.001 0.003,0.003 0.937,-0.359 2.512,-0.724 3.56,-0.663 0.671,0.859 0.395,2.585 0.427,3.61 -1.096,0.132 -2.122,0.066 -3.224,0.014 -1.452,-0.066 -2.342,-0.626 -3.638,-0.953 -0.006,-0.45 0.044,-0.908 0.086,-1.363 -0.277,0.135 -0.539,0.258 -0.795,0.379 -0.157,0.244 -0.302,0.488 -0.388,0.73 -0.218,-0.08 -0.442,-0.156 -0.666,-0.233 -0.82,0.409 -1.716,0.916 -2.178,1.212 1.339,0.374 2.546,0.288 4.474,0.967 1.753,0.617 2.794,1.317 2.794,1.317 0,0 -3.589,-0.455 -6.284,-0.861 3.008,1.43 5.918,2.991 5.918,2.991 0,0 -2.705,-1.024 -5.409,-1.973 1.514,0.657 3.107,1.266 3.148,1.713 -0.661,-0.362 -1.734,-0.575 -2.698,-0.787 3.133,1.482 7.332,4.136 9.982,6.007 -2.144,-0.942 -5.595,-3.243 -8.168,-4.361 -1.918,-0.832 -3.58,-1.573 -5.079,-2.062 0.085,0.141 0.186,0.275 0.287,0.408 2.117,1.051 4.718,2.546 6.433,3.634 2.344,1.487 6.226,4.209 7.878,6.169 -2.898,-2.478 -8.115,-5.477 -12.411,-7.804 0.336,0.355 0.651,0.735 0.907,1.167 1.746,1.191 3.462,2.382 4.43,3.105 2.576,1.922 4.197,3.624 5.849,5.469 -1.907,-1.527 -3.254,-2.627 -5.471,-4.24 -0.408,-0.295 -1.213,-0.887 -2.138,-1.568 -0.165,0.071 -0.343,0.138 -0.521,0.205 0.286,0.268 0.539,0.511 0.697,0.685 1.682,1.842 3.437,4.085 4.069,5.795 -1.389,-1.639 -2.704,-3.431 -4.872,-5.383 -0.215,-0.193 -0.517,-0.468 -0.849,-0.77 -0.297,0.094 -0.6,0.182 -0.913,0.265 0.194,0.246 0.385,0.481 0.574,0.738 0.034,0.044 0.061,0.085 0.094,0.129 0.248,-0.227 0.515,-0.155 0.5,0.467 -0.001,0.069 -0.004,0.15 -0.007,0.225 0.385,0.542 0.75,1.076 1.092,1.598 0.427,0.015 0.843,0.025 1.298,0.048 -0.35,0.097 -0.732,0.168 -1.11,0.242 0.495,0.763 0.971,1.525 1.478,2.334 -0.407,-0.464 -1.152,-1.309 -1.96,-2.229 -0.286,0.046 -0.581,0.071 -0.874,0.107 -0.021,0.557 -0.042,1.166 -0.06,1.813 1.658,0.407 4.843,1.164 5.835,1.338 -1.955,-0.126 -3.91,-0.253 -5.86,-0.444 -0.036,1.472 -0.057,3.075 -0.034,4.634 0.745,0.426 1.487,0.86 2.238,1.261 1.107,0.591 2.192,0.979 3.035,1.851 -1.778,-0.637 -3.534,-1.321 -5.252,-2.063 0.013,0.436 0.028,0.867 0.049,1.284 0.028,0.528 0.065,1.016 0.111,1.479 1.707,1.546 3.353,3.151 4.697,4.616 -1.575,-0.703 -3.034,-1.531 -4.4,-2.406 0.382,2.273 0.942,4.406 1.454,8.513 0.419,3.354 0.542,4.289 0.531,5.887 0.224,-1.304 0.489,-3.009 0.482,-3.505 -0.006,-0.288 -0.038,-0.603 0.008,-0.874 0.08,1.266 0.273,2.688 0.353,4.006 0.028,0.483 0.035,0.972 0.026,1.46 0.117,0.144 0.23,0.284 0.346,0.427 0.011,-0.044 0.031,-0.1 0.041,-0.136 0.402,-1.452 0.637,-2.868 0.717,-4.371 0.054,-1.026 -0.476,-2.447 -0.171,-3.414 0.269,0.158 0.47,2.702 0.648,3.7 0.169,0.961 0.16,2.208 0.105,3.181 -0.022,0.363 -0.231,2.136 -0.168,2.494 0.228,-0.599 0.407,-2.73 0.528,-3.36 0.315,-1.635 0.369,-3.254 0.402,-4.91 0.022,-0.969 -0.079,-2.171 -0.052,-3.012 0.292,0.632 0.301,1.484 0.378,2.163 0.126,1.108 0.267,2.216 0.316,3.329 0.045,1.009 0.172,2.004 0.088,3.004 0.101,-0.525 0.259,-1.109 0.328,-1.619 0.263,-1.897 0.473,-3.838 0.435,-5.757 -0.011,-0.455 -0.091,-2.073 -0.243,-3.264 0.178,1.451 0.665,2.887 0.852,4.359 0.118,0.931 0.293,1.887 0.301,2.819 0.006,0.565 -0.189,1.212 -0.095,1.754 0.287,-0.154 0.315,-0.693 0.356,-1.037 0.175,-1.498 0.221,-3.077 0.074,-4.575 -0.088,-0.883 -0.192,-1.802 -0.41,-2.659 -0.115,-0.449 -0.398,-1.013 -0.283,-1.447 0.183,0.359 0.344,0.862 0.491,1.421 -0.009,-0.167 -0.019,-0.331 -0.029,-0.509 -0.221,-4.345 -0.707,-8.67 -1.26,-11.912 -0.141,-0.835 0.06,-0.979 0.668,-0.141 0.956,1.317 1.039,7.008 1.481,11.493 0.183,1.847 0.388,3.755 0.517,5.894 0.053,-0.827 0.109,-1.592 0.105,-1.76 -0.023,-0.994 -0.061,-1.772 -0.061,-2.767 0,-1.116 -0.042,-2.152 -0.044,-2.912 0.114,0.698 0.441,1.978 0.487,2.606 0.085,1.155 0.378,4.745 0.5,5.816 0.068,-0.375 0.478,-3.492 0.484,-3.744 0.017,-0.823 0.055,-1.449 0.123,-2.277 0.115,-1.346 -0.052,-2.865 -0.038,-4.164 0.528,2.094 0.405,6.261 0.196,8.5 0.293,-1.085 1.434,-4.762 1.578,-5.474 0.2,-0.984 0.562,-2.149 0.591,-3.185 0.006,1.201 -0.161,2.519 -0.273,3.692 -0.041,0.446 -0.419,2.52 -0.717,3.25 0.353,-0.466 1.094,-1.97 1.294,-2.488 0.456,-1.197 0.918,-2.576 1.517,-3.754 -0.088,1.082 -0.464,2.512 -0.883,3.556 -0.347,0.868 -1.842,3.87 -2.174,4.298 0.747,-0.511 1.356,-2 1.87,-2.7 0.408,-0.555 0.906,-1.146 1.122,-1.805 0.26,-0.794 0.438,-1.221 0.665,-1.574 -0.324,2.668 -2.716,6.098 -4.398,7.993 -0.294,0.331 -0.967,1.177 -1.821,2.229 0.026,2.273 -0.06,4.838 -0.347,7.87 -0.012,0.115 -0.016,0.237 -0.024,0.356 0.824,-1.414 1.975,-3.441 2.192,-4.047 0.118,-0.329 0.213,-0.704 0.382,-0.993 -0.45,1.478 -0.835,3.183 -1.309,4.721 -0.207,0.669 -0.449,1.333 -0.722,1.983 0.295,-0.141 0.581,-0.287 0.86,-0.439 0.879,-1.288 1.64,-2.603 2.272,-4.05 0.5,-1.15 0.502,-2.997 1.265,-3.967 0.238,0.292 -0.617,3.282 -0.842,4.498 -0.216,1.169 -0.761,2.586 -1.241,3.673 -0.12,0.275 -0.614,1.249 -0.946,1.984 0.05,0.037 0.099,0.073 0.15,0.108 0.554,-0.939 1.272,-2.417 1.58,-2.926 1.056,-1.73 1.81,-3.554 2.554,-5.43 0.438,-1.098 0.837,-2.513 1.228,-3.46 0.063,0.846 -0.29,1.822 -0.492,2.63 -0.332,1.317 -0.642,2.643 -1.061,3.933 -0.379,1.172 -0.662,2.363 -1.184,3.465 0.338,-0.555 0.768,-1.153 1.066,-1.705 1.108,-2.055 2.18,-4.178 2.953,-6.385 0.186,-0.523 0.785,-2.402 1.119,-3.826 -0.419,1.73 -0.474,3.576 -0.889,5.337 -0.262,1.113 -0.469,2.279 -0.859,3.346 -0.235,0.646 -0.735,1.3 -0.861,1.96 0.394,-0.053 0.657,-0.658 0.85,-1.032 0.84,-1.634 1.568,-3.415 2.037,-5.189 0.28,-1.044 0.553,-2.138 0.668,-3.21 0.06,-0.56 -0.02,-1.326 0.295,-1.77 0.282,2.427 -1.307,8.18 -1.632,10.576 0.12,-0.611 1.819,-4.19 1.968,-4.617 0.399,-1.143 0.686,-2.045 1.113,-3.181 0.476,-1.274 0.873,-2.473 1.193,-3.343 -0.166,0.848 -0.34,2.446 -0.556,3.183 -0.399,1.352 -1.596,5.577 -1.913,6.849 0.238,-0.397 2.039,-3.778 2.151,-4.064 0.37,-0.931 0.681,-1.631 1.113,-2.546 0.706,-1.487 1.165,-3.289 1.734,-4.767 -0.293,2.612 -2.212,7.317 -3.404,9.783 0.795,-1.114 3.667,-4.822 4.137,-5.574 0.648,-1.037 1.556,-2.212 2.037,-3.381 -0.511,1.373 -1.264,2.807 -1.89,4.096 -0.241,0.493 -1.555,2.696 -2.206,3.403 0.599,-0.383 2.089,-1.781 2.538,-2.287 1.03,-1.17 2.146,-2.546 3.335,-3.635 -0.56,1.197 -1.605,2.667 -2.526,3.68 -0.766,0.842 -3.757,3.629 -4.317,3.976 1.068,-0.264 2.402,-1.702 3.285,-2.282 0.703,-0.461 1.524,-0.92 2.051,-1.58 0.637,-0.796 1.024,-1.206 1.431,-1.511 -1.508,2.905 -5.705,5.797 -8.431,7.239 -0.334,0.178 -1.002,0.57 -1.856,1.075 -1.477,0.959 -4.021,2.518 -7.139,4.049 19.469,14.477 5.362,19.141 5.362,19.141 l -4.117,-0.197 c 0,0 13.758,-4.786 3.947,-12.797 -3.428,-2.799 -5.385,-4.275 -6.781,-5.389 -0.203,0.094 -0.397,0.179 -0.588,0.262 -0.288,0.129 -0.585,0.253 -0.88,0.378 0.061,0.53 0.131,1.069 0.208,1.611 l 1.312,0.237 c -0.264,0.051 -0.719,0.063 -1.272,0.049 1.103,7.568 3.557,15.846 3.557,15.846 h -2.668 c 0,0 -0.959,-6.471 -1.998,-15.159 C 14.139,-2.334 14.109,-2.562 14.078,-2.81 13.163,-2.874 12.153,-2.978 11.257,-3.101 10.238,-0.621 8.69,1.482 7.014,3.356 6.999,3.644 6.982,3.927 6.965,4.207 L 12.65,1.388 C 12.011,2.112 8.905,4.02 6.917,5.02 6.65,9.552 6.415,12.988 6.415,12.988 l -2.869,0.107 c 0,0 0.471,-2.957 1.032,-7.175 -1.739,0.58 -3.51,1.46 -5.19,1.809 -1.109,0.231 -2.895,0.891 -3.907,1.382 -0.144,0.07 -0.287,0.112 -0.43,0.168 l -3.189,3.638 H -481.687 V -125.91 H -4.759 c 0,0 -10e-4,0.04 -0.002,0.113 H 39.47 c -0.116,0.328 -0.449,0.529 -0.578,0.713" />
        </g>
      </g>
    </g>
  </g>
</svg>
