<?xml version="1.0" encoding="UTF-8" standalone="no"?>
<!-- Created with Inkscape (http://www.inkscape.org/) -->

<svg
   xmlns:dc="http://purl.org/dc/elements/1.1/"
   xmlns:cc="http://creativecommons.org/ns#"
   xmlns:rdf="http://www.w3.org/1999/02/22-rdf-syntax-ns#"
   xmlns:svg="http://www.w3.org/2000/svg"
   xmlns="http://www.w3.org/2000/svg"
   xmlns:sodipodi="http://sodipodi.sourceforge.net/DTD/sodipodi-0.dtd"
   xmlns:inkscape="http://www.inkscape.org/namespaces/inkscape"
   width="118.55292mm"
   height="73.08326mm"
   viewBox="0 0 118.55292 73.083261"
   version="1.1"
   id="svg8"
   inkscape:export-filename="D:\projects\burgerszoo-docs\documentatie\onderzoeken\poot-afbeelding-naar-plankje/a.png"
   inkscape:export-xdpi="96"
   inkscape:export-ydpi="96"
   inkscape:version="0.92.2 (5c3e80d, 2017-08-06)"
   sodipodi:docname="vlinder-b.svg">
  <defs
     id="defs2" />
  <sodipodi:namedview
     id="base"
     pagecolor="#ffffff"
     bordercolor="#666666"
     borderopacity="1.0"
     inkscape:pageopacity="0.0"
     inkscape:pageshadow="2"
     inkscape:zoom="0.98994949"
     inkscape:cx="582.88809"
     inkscape:cy="-43.480041"
     inkscape:document-units="mm"
     inkscape:current-layer="layer1"
     showgrid="false"
     fit-margin-top="0"
     fit-margin-left="0"
     fit-margin-right="0"
     fit-margin-bottom="0"
     inkscape:window-width="1920"
     inkscape:window-height="1001"
     inkscape:window-x="-9"
     inkscape:window-y="-9"
     inkscape:window-maximized="1" />
  <metadata
     id="metadata5">
    <rdf:RDF>
      <cc:Work
         rdf:about="">
        <dc:format>image/svg+xml</dc:format>
        <dc:type
           rdf:resource="http://purl.org/dc/dcmitype/StillImage" />
        <dc:title></dc:title>
      </cc:Work>
    </rdf:RDF>
  </metadata>
  <g
     inkscape:label="Laag 1"
     inkscape:groupmode="layer"
     id="layer1"
     transform="translate(-84.32939,-126.70439)">
    <path
       style="fill:#000000;stroke-width:0.35277778"
       d="m 123.90328,198.75772 c -0.61216,-0.828 -0.77899,-1.43212 -0.66196,-2.39714 0.19188,-1.58226 -0.33978,-2.87767 -1.18105,-2.87767 -0.34546,0 -0.72622,-0.15875 -0.84614,-0.35278 -0.11992,-0.19403 -0.60554,-0.35278 -1.07916,-0.35278 -0.72197,0 -0.86112,-0.17133 -0.86112,-1.0603 0,-0.81797 -0.47698,-1.54928 -2.08697,-3.19973 -1.79897,-1.8442 -2.11963,-2.37698 -2.32371,-3.86084 -0.24867,-1.80802 -0.65093,-2.37332 -1.6762,-2.35558 -0.58101,0.01 -0.58253,0.0508 -0.0248,0.6671 0.57516,0.63554 0.55569,0.64026 -0.61348,0.14866 -1.39653,-0.58719 -1.67093,-1.28873 -1.67174,-4.27403 l -7.1e-4,-2.11666 0.63638,1.94028 0.63639,1.94027 0.0346,-2.03326 c 0.019,-1.11829 -0.14943,-2.3279 -0.37433,-2.68803 -0.34383,-0.55056 -0.13768,-1.08293 1.29522,-3.3449 0.93727,-1.47957 1.75697,-2.63729 1.82155,-2.57271 0.18261,0.18261 -1.01938,2.49475 -1.44255,2.77491 -0.26426,0.17494 -0.25436,0.37299 0.033,0.66035 0.22575,0.22575 0.3265,0.62923 0.22389,0.89663 -0.10247,0.2674 -0.0107,0.48618 0.20409,0.48618 0.21479,0 0.39053,-0.25191 0.39053,-0.55981 0,-0.3079 0.47625,-0.73958 1.05833,-0.95929 0.58208,-0.21971 1.05833,-0.52342 1.05833,-0.67491 0,-0.15149 0.27782,-0.27652 0.61736,-0.27784 0.61136,-0.002 2.04413,-1.79129 2.26569,-2.82885 0.0632,-0.29601 -0.22775,-0.97384 -0.64658,-1.50629 -0.63207,-0.80354 -0.90184,-0.91349 -1.58718,-0.64688 -1.36779,0.53211 -3.82429,1.56117 -3.82429,1.60204 0,0.021 -0.55369,1.30661 -1.23041,2.85684 -1.01392,2.32266 -1.23118,2.62524 -1.23472,1.71965 -0.006,-1.43112 -1.21084,-2.95799 -2.33487,-2.95799 -0.61832,0 -1.07793,-0.35541 -1.59674,-1.23472 -0.40068,-0.6791 -0.87157,-1.23473 -1.04644,-1.23473 -0.17486,0 -0.31793,-0.23812 -0.31793,-0.52916 0,-0.34919 -0.34929,-0.52917 -1.02697,-0.52917 -1.31951,0 -2.87639,-1.73326 -2.65475,-2.95552 0.16408,-0.90484 -0.63204,-1.84055 -1.24412,-1.46227 -0.20385,0.12599 -0.827037,-0.0959 -1.384857,-0.49312 -0.87461,-0.62277 -1.0475,-1.03296 -1.255985,-2.97981 -0.25493,-2.38051 -1.08059,-3.75095 -2.25987,-3.75095 -0.71334,0 -2.33845,-2.61361 -1.98286,-3.18897 0.29876,-0.4834 -0.47069,-1.39714 -1.17653,-1.39714 -0.7304,0 -2.88357,-1.47942 -2.88664,-1.98338 -0.001,-0.21774 -0.63469,-0.49699 -1.40749,-0.62057 -0.98312,-0.1572 -1.59004,-0.50698 -2.021,-1.1647 -0.45161,-0.68924 -0.50028,-0.97858 -0.18243,-1.08453 0.6936,-0.2312 0.50059,-1.43609 -0.29856,-1.86378 -0.61707,-0.33025 -0.69628,-0.6036 -0.50427,-1.7401 0.13877,-0.82138 0.0802,-1.43953 -0.14988,-1.58172 -0.48003,-0.29667 -0.49462,-2.19452 -0.0191,-2.48838 0.19719,-0.12188 0.2656,-0.37196 0.15201,-0.55574 -0.11358,-0.18379 -0.3543,-0.24283 -0.53492,-0.1312 -0.65817,0.40677 -0.30738,-0.88911 0.42551,-1.5719 1.23078,-1.14664 4.91512,-2.78586 7.16019,-3.18567 4.21412,-0.75046 12.166262,-0.33388 16.603952,0.86981 2.64483,0.71739 6.23623,1.81515 7.23194,2.21054 0.76676,0.30447 0.66271,0.34795 -0.79663,0.33291 -2.90485,-0.0299 -2.65039,0.69834 0.58725,1.68074 1.2848,0.38985 1.85306,0.42383 2.20487,0.13186 0.6649,-0.55183 0.59402,-0.8429 -0.31979,-1.31325 -2.18581,-1.12504 1.23143,0.16443 4.14514,1.56415 6.85047,3.29089 10.6509,5.85564 15.98012,10.78428 1.45464,1.34531 2.78204,2.30144 3.05152,2.19803 0.27244,-0.10455 0.47697,-0.7017 0.47697,-1.39257 0,-0.706 -0.14497,-1.11993 -0.34824,-0.99431 -0.19152,0.11837 -0.2743,0.49793 -0.18394,0.84346 0.16869,0.64508 -0.53332,0.76829 -1.06275,0.18653 -0.15114,-0.16608 -0.0764,-0.18776 0.16618,-0.0482 0.28835,0.16594 0.45623,0.002 0.48507,-0.47261 0.10703,-1.76299 0.72497,-2.6482 1.67517,-2.39971 0.4126,0.10789 0.75017,0.13771 0.75017,0.0663 0,-0.63961 -2.83086,-5.84866 -3.71367,-6.83349 -1.36829,-1.52643 -6.51688,-11.47566 -6.51688,-12.59334 0,-1.83381 0.79708,-0.99892 2.46759,2.58463 0.97658,2.09494 2.18181,4.60274 2.6783,5.57287 0.49649,0.97014 1.78234,3.49027 2.85746,5.60028 1.35063,2.65076 2.04544,3.68966 2.24819,3.36161 0.44572,-0.7212 0.794,-0.12413 0.37943,0.65049 -0.27956,0.52237 -0.24581,0.67698 0.14781,0.67698 0.30424,0 0.51011,-0.34407 0.51011,-0.85255 0,-0.52678 0.1685,-0.79528 0.44097,-0.70268 0.44322,0.15064 0.76576,-0.30974 3.4003,-4.85357 2.24509,-3.87213 2.67073,-4.57368 2.88944,-4.7625 0.34515,-0.29796 2.06099,-3.60988 2.78722,-5.37986 0.82801,-2.01803 1.9757,-2.39963 1.59153,-0.52917 -0.22294,1.08546 -1.18261,2.67921 -3.75417,6.23469 -0.62071,0.85821 -1.45802,2.16408 -1.86068,2.90193 -0.40266,0.73785 -1.5018,2.45477 -2.44253,3.81538 -1.60571,2.32238 -2.45829,4.95147 -1.60571,4.95147 0.3406,0 1.18404,1.72184 1.08004,2.20486 -0.0313,0.14552 0.0621,0.24579 0.20762,0.22281 1.03256,-0.16303 1.2341,0.0767 0.59089,0.70283 -0.44284,0.43108 -0.82157,0.54785 -1.08865,0.33565 -0.25318,-0.20116 -0.49268,-0.19092 -0.62724,0.0268 -0.11973,0.19371 0.10427,0.5245 0.49775,0.73509 0.3935,0.21059 0.71544,0.2492 0.71544,0.0858 0,-0.51062 7.53619,-7.00489 9.5494,-8.22913 1.05373,-0.64077 2.4715,-1.59713 3.15059,-2.12522 0.6791,-0.5281 2.5841,-1.63309 4.23334,-2.45555 1.64923,-0.82245 3.39677,-1.85958 3.88342,-2.30473 0.60711,-0.55535 1.82501,-0.99049 3.88055,-1.38648 1.64766,-0.31741 4.90075,-0.97492 7.22908,-1.46115 9.80319,-2.04719 19.83902,-1.12807 22.77441,2.08577 1.10181,1.20632 1.71434,4.57421 0.99055,5.44633 -0.31543,0.38007 -0.31738,0.60084 -0.008,0.91016 0.2246,0.22461 0.40837,0.85288 0.40837,1.39616 0,0.75259 -0.16799,0.98777 -0.70555,0.98777 -0.40546,0 -0.70556,0.23519 -0.70556,0.55294 0,0.40754 0.20214,0.48879 0.76867,0.30898 0.75426,-0.2394 0.75261,-0.22443 -0.0882,0.79916 -0.47127,0.57371 -1.93653,1.8794 -3.25613,2.90152 -1.3196,1.02212 -3.14523,2.78394 -4.05695,3.91514 -0.91171,1.13121 -1.84529,2.06773 -2.07462,2.08117 -0.6323,0.037 -1.75516,1.79296 -2.19785,3.43696 -0.57234,2.12552 -6.78751,9.8396 -8.34067,10.35219 -0.63741,0.21036 -1.34134,0.60228 -1.5643,0.87092 -0.72709,0.8761 -2.44003,1.01559 -3.75765,0.306 -1.00877,-0.54325 -1.26229,-0.57085 -1.51329,-0.16473 -0.23984,0.38809 -0.38354,0.33456 -0.70266,-0.26171 -0.41619,-0.77767 -2.42302,-2.00668 -2.74724,-1.68246 -0.10162,0.10162 0.83962,1.58177 2.09165,3.28921 2.76803,3.77486 3.21938,4.57502 2.74575,4.86773 -0.19455,0.12025 -0.35373,1.36456 -0.35373,2.76514 0,2.78747 -0.70953,4.4905 -1.57248,3.77431 -0.4815,-0.39961 -0.95106,-0.0163 -1.34706,1.09957 -0.33965,0.9571 0.2001,1.09566 0.8834,0.22677 l 0.63671,-0.80964 -0.34906,0.96796 c -0.54099,1.5002 -1.39618,2.7287 -3.52367,5.06179 -1.07788,1.18205 -2.48469,2.80924 -3.12623,3.61597 -0.64155,0.80672 -1.39561,1.46678 -1.6757,1.46678 -0.61974,0 -0.65607,-0.41763 -0.0859,-0.98778 0.32926,-0.32926 0.32526,-0.42334 -0.018,-0.42334 -0.54078,0 -1.46368,2.1149 -1.46368,3.35412 0,1.38946 -1.31084,3.70144 -2.09864,3.70144 -1.10225,0 -1.66999,-0.88858 -2.13192,-3.33668 -0.37255,-1.97444 -0.5611,-2.34591 -1.28267,-2.52702 -0.84701,-0.21258 -1.8951,0.34666 -1.8951,1.0112 0,0.19403 0.26847,0.1349 0.5966,-0.13139 0.3499,-0.28396 0.2405,0.0264 -0.26459,0.75056 -0.47365,0.67909 -1.01993,1.35135 -1.21396,1.4939 -0.78146,0.57413 -1.9454,0.23448 -2.70161,-0.78835 -1.1859,-1.60401 -2.8595,-1.27168 -4.04954,0.80412 -0.22912,0.39965 -0.65333,0.47492 -1.7155,0.30438 -1.22034,-0.19592 -1.51471,-0.43181 -2.17732,-1.74472 -1.09685,-2.17329 -1.52612,-2.58802 -2.55499,-2.46842 -0.82286,0.0957 -0.93028,0.28647 -1.09751,1.94945 -0.10195,1.01388 -0.35957,2.01763 -0.5725,2.23056 -0.66882,0.66882 -2.72857,0.25356 -3.11544,-0.6281 -0.59703,-1.36064 -3.35864,-1.85261 -3.35864,-0.59832 0,1.09296 -2.73125,1.63996 -3.50906,0.70277 -0.23125,-0.27863 -0.53918,-0.95332 -0.6843,-1.4993 -0.29297,-1.10225 -1.49558,-1.51132 -2.35244,-0.80019 -0.59315,0.49226 -0.69522,1.19848 -0.12203,0.84423 0.21325,-0.13179 0.076,0.37477 -0.30509,1.12571 -0.38105,0.75093 -0.91772,1.84158 -1.1926,2.42366 -0.71943,1.52345 -2.02179,1.59091 -3.08004,0.15954 z m 21.34147,-6.56654 c -0.46146,-0.85152 -0.54476,-0.89313 -0.55677,-0.27813 -0.008,0.39775 0.17373,0.91104 0.40332,1.14064 0.6653,0.6653 0.74343,0.22616 0.15345,-0.86251 z m -2.0996,-0.35457 c -0.12935,-0.12935 -0.23519,-0.0235 -0.23519,0.23519 0,0.2587 0.10584,0.36453 0.23519,0.23518 0.12935,-0.12935 0.12935,-0.34102 0,-0.47037 z m -24.77213,-3.87919 c -0.70317,-0.51417 -1.56899,-0.62855 -1.56798,-0.20715 3.4e-4,0.14552 0.43691,0.5127 0.97014,0.81596 1.10424,0.62799 1.59952,0.12364 0.59784,-0.60881 z m 52.90308,-0.52427 c -0.2244,-0.36309 -1.55503,0.28976 -1.55503,0.76294 0,0.19127 0.37037,0.16405 0.87088,-0.064 0.47899,-0.21824 0.78685,-0.53276 0.68415,-0.69894 z m -32.1639,-1.13831 c 0.46666,-0.71418 0.28347,-3.5718 -0.28059,-4.37712 -1.18225,-1.68789 -3.43412,-2.18078 -3.82691,-0.83764 -0.80156,2.74099 -0.5501,4.11662 0.9897,5.41408 0.79436,0.66935 2.62674,0.5522 3.1178,-0.19932 z m 14.38109,-2.95637 c 0,-0.79821 -0.16248,-1.87867 -0.36108,-2.40101 -0.32555,-0.85625 -0.4884,-0.92906 -1.6546,-0.73981 -1.86054,0.30192 -2.57431,1.18738 -2.81177,3.48808 -0.1773,1.7179 -0.11471,2.00949 0.50219,2.33964 0.3876,0.20744 0.78235,0.29954 0.87723,0.20466 0.0949,-0.0949 0.3563,0.049 0.58094,0.31964 0.33967,0.40928 0.61541,0.30256 1.63776,-0.63389 1.02223,-0.93633 1.22933,-1.37051 1.22933,-2.57731 z m -10.73782,1.6082 c -0.35939,-0.86015 -0.8053,-1.30788 -1.41948,-1.42529 -0.80437,-0.15377 -0.89492,-0.0595 -0.89007,0.92642 0.007,1.49694 0.45152,2.10602 1.33198,1.82657 0.42112,-0.13366 0.83224,-0.0467 0.99057,0.20946 0.52145,0.84371 0.51193,-0.28082 -0.013,-1.53716 z m 3.66782,0.94834 1.07278,0.23563 v -1.61553 c 0,-0.88854 -0.085,-1.61553 -0.18879,-1.61553 -0.48606,0 -1.92787,1.18937 -1.92787,1.59033 0,0.24797 -0.23813,0.54222 -0.52917,0.65391 -0.29104,0.11168 -0.52917,0.4656 -0.52917,0.78649 0,0.47133 0.0989,0.50136 0.51472,0.15626 0.31469,-0.26117 0.93162,-0.33561 1.5875,-0.19156 z m -15.33138,-0.17321 c 0.11991,-0.19403 0.66792,-0.35278 1.2178,-0.35278 1.21246,0 1.42803,-0.47586 1.42803,-3.15233 0,-1.67253 -0.15454,-2.20306 -0.8651,-2.96977 -0.4758,-0.5134 -1.0015,-0.93345 -1.1682,-0.93345 -0.64375,0 -1.79957,1.43904 -2.38314,2.96709 -0.59343,1.55389 -0.58956,1.64154 0.14106,3.19586 0.74218,1.57894 1.20486,1.93254 1.62955,1.24538 z m 27.92898,-3.75836 c -0.24745,-1.52488 -1.54058,-3.64997 -2.22102,-3.64997 -0.28403,0 -0.90608,0.38966 -1.38233,0.86591 -0.70545,0.70544 -0.86384,1.21209 -0.8547,2.73403 0.0125,2.07117 0.57187,3.10283 1.68255,3.10283 0.40372,0 0.83962,0.17083 0.96866,0.37962 0.13716,0.22194 0.6019,-0.16089 1.11886,-0.92167 0.6769,-0.99614 0.83823,-1.58489 0.68798,-2.51075 z m -31.75973,2.97221 c 0.8079,-1.30721 -0.19745,-5.91663 -1.29045,-5.91663 -0.18834,0 -0.83287,0.67469 -1.43229,1.49931 -0.86767,1.19364 -1.0514,1.73946 -0.90123,2.67731 0.10375,0.6479 0.3745,1.40197 0.60167,1.67569 0.50796,0.61206 2.65554,0.65776 3.0223,0.0643 z m 35.85428,-0.21654 c 0.34448,-0.13615 0.85981,-0.6976 1.14518,-1.24765 0.45995,-0.88655 0.4561,-1.13237 -0.0339,-2.16503 -0.70841,-1.49288 -1.74445,-2.42794 -2.40801,-2.1733 -1.10589,0.42437 -1.48375,4.24604 -0.53308,5.39153 0.44261,0.53332 0.86021,0.57769 1.82985,0.19445 z m -39.33184,-5.01296 c 0.49676,-0.96757 0.76724,-2.0424 0.70556,-2.80379 -0.0846,-1.04485 -0.24481,-1.25146 -1.04148,-1.34358 -0.64814,-0.0749 -1.306,0.21687 -2.11157,0.93664 -0.98793,0.88272 -1.16416,1.27302 -1.13181,2.50667 0.0731,2.78953 2.28519,3.22465 3.5793,0.70406 z m 44.17358,-1.0523 c 0,-1.65254 -1.48309,-3.1626 -3.10611,-3.1626 -1.06748,0 -1.12719,0.0701 -1.12668,1.32291 3.1e-4,0.72761 0.27812,1.87397 0.61737,2.54748 1.16651,2.31587 3.61542,1.83645 3.61542,-0.70779 z m -47.35721,-2.54524 c 0.40895,-0.43657 0.90816,-1.22826 1.10936,-1.75932 0.3193,-0.84282 0.24426,-1.07828 -0.59026,-1.85209 -1.1658,-1.08099 -1.22653,-1.08337 -2.36662,-0.0928 -0.92713,0.80556 -1.52267,2.90615 -1.12083,3.95334 0.3158,0.82296 2.10469,0.67279 2.96835,-0.24917 z m 49.71455,-0.62209 c 0.10475,-1.42938 -0.55338,-3.02961 -1.44148,-3.5049 -0.69648,-0.37275 -0.97761,-0.34674 -1.75456,0.16234 -1.12235,0.7354 -1.17078,1.5288 -0.17091,2.79994 1.36537,1.73579 3.25717,2.04067 3.36695,0.54262 z m -57.50826,-0.23046 c -0.12935,-0.12935 -0.34102,-0.12935 -0.47037,0 -0.12935,0.12935 -0.0235,0.23519 0.23518,0.23519 0.25871,0 0.36454,-0.10584 0.23519,-0.23519 z m 17.4037,-0.27316 c 0,-0.0856 -0.18328,-0.26884 -0.40728,-0.40729 -0.25234,-0.15595 -0.31153,-0.0968 -0.15557,0.15557 0.25133,0.40667 0.56285,0.54599 0.56285,0.25172 z m 11.27726,-1.8729 c -0.14248,-0.92164 -0.36294,-3.38783 -0.48992,-5.48044 -0.27425,-4.51946 -0.4444,-5.04081 -2.24452,-6.87729 -0.75965,-0.775 -1.48577,-1.68162 -1.61359,-2.01471 -0.13896,-0.36213 -0.44395,-0.52 -0.75859,-0.39264 -1.65652,0.67053 -1.79895,0.69166 -1.16095,0.17226 0.56202,-0.45754 0.55649,-0.54104 -0.0874,-1.32024 -0.38774,-0.46925 -0.91051,-0.74617 -1.19936,-0.63533 -0.30653,0.11762 -0.44764,0.0267 -0.35159,-0.22652 0.0882,-0.23266 -0.55136,-0.89926 -1.42133,-1.48134 -0.86996,-0.58209 -1.58524,-1.15581 -1.58951,-1.27494 -0.0205,-0.57295 -2.8729,-2.14752 -3.56326,-1.96698 -0.41119,0.10753 -0.65219,0.10008 -0.53556,-0.0165 0.35351,-0.35351 -0.90661,-1.50123 -1.69625,-1.54496 -0.53981,-0.0299 -0.58244,-0.0825 -0.1581,-0.19525 0.86895,-0.23082 1.00612,-2.40005 0.23224,-3.67259 -0.56508,-0.92922 -1.85136,-1.73568 -2.76832,-1.73568 -0.53931,0 -1.33508,1.51809 -1.45724,2.77996 -0.11133,1.15013 -0.0546,1.21038 1.59752,1.69723 0.94213,0.27763 1.63883,0.5789 1.54824,0.66949 -0.0906,0.0906 -0.59395,0.001 -1.11856,-0.19792 -1.82232,-0.69285 -3.44961,-0.40915 -6.19957,1.08082 -4.97014,2.6929 -6.59765,5.29114 -4.16541,6.64987 0.91417,0.51068 1.12633,0.4412 5.64445,-1.84859 4.39526,-2.22753 7.17937,-3.23127 4.59918,-1.65813 -0.63455,0.38688 -1.34143,1.11539 -1.57084,1.6189 -0.36458,0.80016 -0.32011,0.98912 0.35302,1.50012 0.42357,0.32155 0.87497,1.14026 1.00312,1.81936 0.32184,1.70566 0.74945,2.14681 1.84976,1.90833 0.64682,-0.14019 0.78449,-0.0991 0.45238,0.13494 -0.69532,0.49003 0.1076,1.83315 1.10717,1.85207 0.65742,0.0124 0.58876,0.11734 -0.43295,0.66146 l -1.21428,0.64667 1.10857,0.57326 c 0.60971,0.3153 1.2999,0.57327 1.53376,0.57327 0.23386,0 0.96602,0.41251 1.62704,0.91669 1.1096,0.84634 1.24967,0.87341 1.82497,0.35278 0.88761,-0.80328 1.32872,-0.69944 0.57355,0.13502 -0.5201,0.5747 -0.55285,0.79495 -0.18426,1.23907 0.34121,0.41113 0.56348,0.44452 0.93063,0.13982 0.37323,-0.30975 0.48236,-0.27466 0.48236,0.15508 0,0.5462 2.78205,2.70598 3.48562,2.70598 0.19793,0 0.5385,-0.27781 0.75682,-0.61736 0.35683,-0.55497 0.37379,-0.54606 0.16778,0.0882 -0.397,1.2223 -0.36819,1.41098 0.21627,1.41643 0.31325,0.003 0.82919,0.2208 1.14653,0.48417 0.50574,0.41973 0.58203,0.37551 0.6179,-0.3581 0.0353,-0.72277 0.0642,-0.7407 0.21161,-0.13139 0.21212,0.87685 1.48704,2.29306 2.06428,2.29306 0.23646,0 0.5213,0.23812 0.63299,0.52916 0.38389,1.00042 0.47218,0.52643 0.21357,-1.14652 z m -8.80781,-16.13959 c 0,-0.097 0.0794,-0.17638 0.17639,-0.17638 0.097,0 0.17639,0.0794 0.17639,0.17638 0,0.097 -0.0794,0.17639 -0.17639,0.17639 -0.097,0 -0.17639,-0.0794 -0.17639,-0.17639 z m -8.81945,-4.23333 c 0,-0.097 0.0794,-0.17639 0.17639,-0.17639 0.097,0 0.17639,0.0794 0.17639,0.17639 0,0.097 -0.0794,0.17639 -0.17639,0.17639 -0.097,0 -0.17639,-0.0794 -0.17639,-0.17639 z m 1.76389,-0.70556 c 0,-0.097 0.0794,-0.17638 0.17639,-0.17638 0.097,0 0.17639,0.0794 0.17639,0.17638 0,0.097 -0.0794,0.17639 -0.17639,0.17639 -0.097,0 -0.17639,-0.0794 -0.17639,-0.17639 z m 6.39912,21.70757 c 0.45805,-0.3816 0.63439,-0.6991 0.39185,-0.70555 -0.24253,-0.007 -0.44097,0.17735 -0.44097,0.40847 0,0.23111 -0.24991,0.11204 -0.55535,-0.26459 -0.53937,-0.66508 -0.55023,-0.66101 -0.37731,0.14144 0.17148,0.79579 0.15296,0.80352 -0.50299,0.2099 -0.5929,-0.53657 -0.68102,-0.54458 -0.68102,-0.0619 0,0.49082 0.42919,0.8544 1.10745,0.93817 0.12402,0.0153 0.60027,-0.28437 1.05834,-0.66597 z m 14.92607,-0.14617 c 0.6167,0.23665 1.87468,-1.56555 2.13864,-3.06382 0.23058,-1.30886 0.63878,-1.98429 0.51894,-0.85869 -0.0413,0.38806 -0.0518,1.10243 -0.0233,1.5875 0.049,0.83361 0.0789,0.84617 0.54632,0.22926 0.27196,-0.35898 0.65282,-0.55483 0.84635,-0.43522 0.72586,0.44861 0.73525,-0.49001 0.0171,-1.70723 -0.40945,-0.69399 -0.65349,-1.26181 -0.5423,-1.26181 0.1112,0 0.45264,0.48433 0.75875,1.07629 0.64674,1.25067 1.34483,1.17954 3.25786,-0.33194 0.933,-0.73717 1.12398,-1.09657 0.95789,-1.80268 l -0.20744,-0.88194 0.56884,0.79375 c 0.67603,0.94331 1.07811,1.00429 1.38301,0.20974 0.13698,-0.35697 -0.0884,-0.92991 -0.57962,-1.47376 l -0.80372,-0.88974 1.19608,0.82751 c 1.09972,0.76083 1.23076,0.78009 1.62639,0.23903 0.23667,-0.32366 0.62976,-0.58848 0.87353,-0.58848 0.26826,0 0.37102,-0.27612 0.26033,-0.69943 -0.15362,-0.58745 -0.0792,-0.64393 0.46492,-0.35273 0.68901,0.36875 2.21003,-0.0253 2.6127,-0.67677 0.12283,-0.19874 -0.53644,-0.75471 -1.46504,-1.23548 l -1.68836,-0.87415 1.2926,0.19663 c 0.85948,0.13074 1.54914,0.0169 2.0582,-0.33961 0.73065,-0.51177 0.73606,-0.55492 0.11851,-0.94545 -0.56536,-0.35753 -0.52966,-0.38455 0.28269,-0.21396 1.14768,0.241 1.56285,-0.23441 1.8789,-2.15155 0.13344,-0.80942 0.47279,-1.55999 0.75411,-1.66795 0.36049,-0.13833 0.44393,-0.48496 0.28264,-1.17416 -0.32113,-1.37219 -0.66714,-1.6226 -3.76623,-2.72559 -2.40541,-0.85612 -2.8733,-0.92231 -3.80151,-0.53784 -0.58217,0.24114 -1.38268,0.89373 -1.77892,1.45019 -0.39623,0.55646 -0.94774,1.01174 -1.22556,1.01174 -0.27783,0 -0.50515,0.15368 -0.50515,0.34151 0,0.18783 -0.43007,0.56685 -0.95572,0.84226 l -0.95572,0.50076 1.2203,0.74392 c 1.42702,0.86993 1.14257,0.99811 -0.42084,0.18964 -1.01928,-0.52709 -1.11435,-0.51675 -1.77569,0.19311 -0.59364,0.6372 -0.62801,0.83703 -0.22845,1.32852 0.41311,0.50816 0.3845,0.54584 -0.23527,0.30992 -0.38804,-0.14772 -0.78492,-0.27562 -0.88193,-0.28422 -0.68738,-0.0609 -1.05834,0.13937 -1.05834,0.57148 0,0.27695 -0.40293,0.8205 -0.8954,1.20788 -0.61647,0.48492 -0.85228,0.95995 -0.75699,1.52491 0.0761,0.45132 0.0688,0.61337 -0.0162,0.36009 -0.27544,-0.82055 -0.95191,-0.22596 -1.35713,1.19287 -0.21745,0.76136 -0.47767,3.60679 -0.57828,6.32318 -0.1006,2.71639 -0.11468,4.66988 -0.0313,4.34108 0.0834,-0.32879 0.36185,-0.51715 0.61875,-0.41857 z m -0.5113,-1.10029 c 0,-0.097 0.0794,-0.17638 0.17639,-0.17638 0.097,0 0.17639,0.0794 0.17639,0.17638 0,0.097 -0.0794,0.17639 -0.17639,0.17639 -0.097,0 -0.17639,-0.0794 -0.17639,-0.17639 z m 2.82223,-6.17361 c 0,-0.2587 0.10583,-0.36453 0.23518,-0.23518 0.12935,0.12935 0.12935,0.34102 0,0.47037 -0.12935,0.12935 -0.23518,0.0235 -0.23518,-0.23519 z m 5.99721,-1.5875 c 0,-0.097 0.0794,-0.17638 0.17639,-0.17638 0.097,0 0.17639,0.0794 0.17639,0.17638 0,0.097 -0.0794,0.17639 -0.17639,0.17639 -0.097,0 -0.17639,-0.0794 -0.17639,-0.17639 z m 6.70278,-4.93888 c 0,-0.097 0.0794,-0.17639 0.17639,-0.17639 0.097,0 0.17639,0.0794 0.17639,0.17639 0,0.097 -0.0794,0.17638 -0.17639,0.17638 -0.097,0 -0.17639,-0.0794 -0.17639,-0.17638 z m -9.17222,-0.70556 c 0,-0.097 0.0794,-0.17639 0.17638,-0.17639 0.097,0 0.17639,0.0794 0.17639,0.17639 0,0.097 -0.0794,0.17639 -0.17639,0.17639 -0.097,0 -0.17638,-0.0794 -0.17638,-0.17639 z m 3.175,-1.41111 c 0,-0.097 0.0794,-0.17639 0.17639,-0.17639 0.097,0 0.17638,0.0794 0.17638,0.17639 0,0.097 -0.0794,0.17639 -0.17638,0.17639 -0.097,0 -0.17639,-0.0794 -0.17639,-0.17639 z m 3.175,-4.58611 c 0,-0.097 0.0794,-0.17639 0.17639,-0.17639 0.097,0 0.17638,0.0794 0.17638,0.17639 0,0.097 -0.0794,0.17639 -0.17638,0.17639 -0.097,0 -0.17639,-0.0794 -0.17639,-0.17639 z m -29.98611,20.81389 c 0,-0.097 -0.0794,-0.17639 -0.17639,-0.17639 -0.097,0 -0.17639,0.0794 -0.17639,0.17639 0,0.097 0.0794,0.17638 0.17639,0.17638 0.097,0 0.17639,-0.0794 0.17639,-0.17638 z m 43.08298,-2.29306 c 0.0243,-0.19403 0.0742,-0.55121 0.11098,-0.79375 0.0821,-0.54123 -0.75823,-2.34363 -1.47301,-3.15953 -0.45558,-0.52002 -0.59545,-0.53373 -1.02839,-0.10079 -0.2756,0.2756 -0.48187,0.60808 -0.45836,0.73883 0.0235,0.13076 -0.15333,0.35892 -0.39296,0.50701 -0.64594,0.39922 0.70878,2.54441 1.79869,2.84822 1.26693,0.35316 1.39435,0.34963 1.44305,-0.04 z m -26.97279,-0.94074 c -0.12936,-0.12935 -0.34102,-0.12935 -0.47038,0 -0.12935,0.12935 -0.0235,0.23519 0.23519,0.23519 0.2587,0 0.36454,-0.10584 0.23519,-0.23519 z m -33.21991,-0.82315 c 0.11991,-0.19403 0.13865,-0.35278 0.0416,-0.35278 -0.097,0 -0.2745,0.15875 -0.39442,0.35278 -0.11992,0.19403 -0.13865,0.35278 -0.0416,0.35278 0.097,0 0.2745,-0.15875 0.39442,-0.35278 z m 14.2875,-0.17639 c 0,-0.097 -0.0794,-0.17639 -0.17639,-0.17639 -0.097,0 -0.17639,0.0794 -0.17639,0.17639 0,0.097 0.0794,0.17639 0.17639,0.17639 0.097,0 0.17639,-0.0794 0.17639,-0.17639 z m -15.28704,-0.41157 c -0.12935,-0.12935 -0.34102,-0.12935 -0.47037,0 -0.12935,0.12935 -0.0235,0.23518 0.23518,0.23518 0.25871,0 0.36454,-0.10583 0.23519,-0.23518 z m 3.90995,-1.53334 c 2.42539,-1.11772 3.47564,-2.08756 1.76389,-1.62883 -0.43656,0.117 -0.96225,0.21489 -1.1682,0.21754 -0.20595,0.003 -0.72394,0.33041 -1.15109,0.72837 -0.42716,0.39795 -0.93334,0.62671 -1.12486,0.50834 -0.19152,-0.11836 -0.34821,-0.0249 -0.34821,0.2077 0,0.2326 -0.27781,0.65061 -0.61736,0.92892 -0.71647,0.58727 -0.71453,0.58656 2.64583,-0.96204 z m 9.71398,0.70469 c -0.10227,-0.39107 -0.35251,-0.81399 -0.55609,-0.93981 -0.23276,-0.14386 -0.28243,-1.7e-4 -0.13381,0.38712 0.12999,0.33875 0.23634,0.76166 0.23634,0.93982 0,0.17816 0.14389,0.32393 0.31975,0.32393 0.17586,0 0.23608,-0.31998 0.13381,-0.71106 z m 21.06589,0.35828 c 0,-0.19403 -0.23813,-0.35278 -0.52917,-0.35278 -0.29104,0 -0.52917,0.15875 -0.52917,0.35278 0,0.19403 0.23813,0.35278 0.52917,0.35278 0.29104,0 0.52917,-0.15875 0.52917,-0.35278 z m -22.22501,-0.52917 c 0,-0.097 -0.0794,-0.17639 -0.17638,-0.17639 -0.097,0 -0.17639,0.0794 -0.17639,0.17639 0,0.097 0.0794,0.17639 0.17639,0.17639 0.097,0 0.17638,-0.0794 0.17638,-0.17639 z m -1.05833,-0.35278 c 0,-0.097 -0.0794,-0.17638 -0.17639,-0.17638 -0.097,0 -0.17639,0.0794 -0.17639,0.17638 0,0.097 0.0794,0.17639 0.17639,0.17639 0.097,0 0.17639,-0.0794 0.17639,-0.17639 z m -11.37708,-1.23085 c 0.85625,-0.52207 1.14355,-0.94599 1.13479,-1.67438 -0.0249,-2.06692 -2.52988,-3.59815 -3.88303,-2.37357 -0.82053,0.74256 -0.90527,1.86747 -0.16218,2.15262 0.29104,0.11168 0.52917,0.33449 0.52917,0.49513 0,0.58331 0.69502,2.10186 0.9614,2.10057 0.15033,-7.1e-4 0.78926,-0.31589 1.41985,-0.70037 z m 13.01001,-0.25242 c -0.29078,-0.29078 -1.28015,0.17499 -1.28015,0.60267 0,0.2609 0.22559,0.25553 0.73577,-0.0175 0.40467,-0.21657 0.64964,-0.47989 0.54438,-0.58516 z m 18.12263,0.77772 c 0,-0.097 -0.0794,-0.17639 -0.17639,-0.17639 -0.097,0 -0.17639,0.0794 -0.17639,0.17639 0,0.097 0.0794,0.17639 0.17639,0.17639 0.097,0 0.17639,-0.0794 0.17639,-0.17639 z m 3.52778,-0.17639 c 0,-0.19403 -0.16812,-0.35278 -0.3736,-0.35278 -0.20548,0 -0.27549,0.15875 -0.15557,0.35278 0.11992,0.19403 0.28804,0.35278 0.3736,0.35278 0.0856,0 0.15557,-0.15875 0.15557,-0.35278 z m 27.16388,-0.17639 c 0,-0.097 -0.0794,-0.17639 -0.17639,-0.17639 -0.097,0 -0.17639,0.0794 -0.17639,0.17639 0,0.097 0.0794,0.17639 0.17639,0.17639 0.097,0 0.17639,-0.0794 0.17639,-0.17639 z m 10.58333,-0.17639 c 0,-0.19403 -0.14938,-0.35278 -0.33195,-0.35278 -0.18258,0 -0.43007,0.15875 -0.54999,0.35278 -0.11992,0.19403 0.0295,0.35278 0.33196,0.35278 0.30249,0 0.54998,-0.15875 0.54998,-0.35278 z m -60.57259,-0.22277 c 0.34886,-0.34887 -0.42441,-1.54112 -0.99954,-1.54112 -0.51955,0 -0.7203,1.08997 -0.28157,1.52871 0.29727,0.29726 0.98955,0.30397 1.28111,0.0124 z m 48.46056,-0.36519 c -0.12936,-0.12935 -0.34102,-0.12935 -0.47037,0 -0.12935,0.12935 -0.0235,0.23518 0.23518,0.23518 0.2587,0 0.36454,-0.10583 0.23519,-0.23518 z m 7.22601,-0.82315 c 0.20291,-0.58208 0.59153,-1.05833 0.86359,-1.05833 0.27206,0 0.49466,-0.24856 0.49466,-0.55236 0,-1.00926 -0.7202,-1.91723 -1.51172,-1.90587 -0.89013,0.0128 -2.12131,0.82427 -1.77539,1.17019 0.12633,0.12634 -0.0163,0.2297 -0.31698,0.2297 -0.7972,0 -0.61308,2.0564 0.23997,2.68015 1.03494,0.75677 1.60106,0.59774 2.00587,-0.56348 z m -12.48253,0.23029 c 0.46646,-0.29137 0.27449,-0.93584 -0.27874,-0.93584 -0.17575,0 -0.48179,0.30314 -0.68008,0.67365 -0.38119,0.71226 0.0497,0.83008 0.95882,0.26219 z m -0.62311,-0.0539 c 0,-0.097 0.0794,-0.17639 0.17639,-0.17639 0.097,0 0.17638,0.0794 0.17638,0.17639 0,0.097 -0.0794,0.17639 -0.17638,0.17639 -0.097,0 -0.17639,-0.0794 -0.17639,-0.17639 z m -47.97778,-2.11667 c 0,-0.097 -0.0794,-0.17639 -0.17639,-0.17639 -0.097,0 -0.17639,0.0794 -0.17639,0.17639 0,0.097 0.0794,0.17639 0.17639,0.17639 0.097,0 0.17639,-0.0794 0.17639,-0.17639 z m 1.23472,-0.52916 c 0.11992,-0.19403 0.0593,-0.35278 -0.13475,-0.35278 -0.19402,0 -0.45089,0.15875 -0.5708,0.35278 -0.11992,0.19402 -0.0593,0.35277 0.13475,0.35277 0.19403,0 0.45089,-0.15875 0.5708,-0.35277 z m 68.47089,-0.61477 c -0.24465,-0.24465 -0.91394,0.25243 -0.91394,0.67878 0,0.23393 0.20241,0.20716 0.53769,-0.0711 0.29573,-0.24543 0.46504,-0.51889 0.37625,-0.60769 z m -67.23616,0.0856 c 0,-0.097 -0.0794,-0.17639 -0.17639,-0.17639 -0.097,0 -0.17639,0.0794 -0.17639,0.17639 0,0.097 0.0794,0.17639 0.17639,0.17639 0.097,0 0.17639,-0.0794 0.17639,-0.17639 z m 1.41111,-0.70555 c 0,-0.097 -0.0794,-0.17639 -0.17639,-0.17639 -0.097,0 -0.17639,0.0794 -0.17639,0.17639 0,0.097 0.0794,0.17639 0.17639,0.17639 0.097,0 0.17639,-0.0794 0.17639,-0.17639 z m -14.64191,-0.52855 c 0.80165,-0.30479 0.91151,-0.52652 0.81671,-1.64843 -0.0897,-1.06105 -0.28831,-1.35547 -1.0948,-1.62256 -1.43245,-0.47439 -2.71889,-0.0596 -2.71889,0.87653 0,0.5976 1.55179,2.74662 1.98331,2.74662 0.0481,0 0.50423,-0.15848 1.01367,-0.35216 z m 75.50422,-0.97616 c 0.19851,-0.14255 0.62725,-0.67822 0.95276,-1.19038 0.55466,-0.87272 0.55415,-0.96464 -0.008,-1.46374 -0.84329,-0.7485 -3.06461,-0.0385 -3.07806,0.98383 -0.0209,1.58993 1.06329,2.43877 2.13345,1.67029 z m -64.03731,-0.61196 c 0,-0.097 -0.0794,-0.17639 -0.17639,-0.17639 -0.097,0 -0.17639,0.0794 -0.17639,0.17639 0,0.097 0.0794,0.17639 0.17639,0.17639 0.097,0 0.17639,-0.0794 0.17639,-0.17639 z m 1.05833,0.0208 c 0,-0.0856 -0.15875,-0.25368 -0.35278,-0.3736 -0.19402,-0.11992 -0.35277,-0.0499 -0.35277,0.15557 0,0.20548 0.15875,0.3736 0.35277,0.3736 0.19403,0 0.35278,-0.07 0.35278,-0.15557 z m -6.11481,-0.4324 c -0.12936,-0.12935 -0.34102,-0.12935 -0.47038,0 -0.12935,0.12936 -0.0235,0.2352 0.23519,0.2352 0.2587,0 0.36454,-0.10584 0.23519,-0.23519 z m 25.87037,0.0588 c 0,-0.097 -0.0794,-0.17639 -0.17639,-0.17639 -0.097,0 -0.17639,0.0794 -0.17639,0.17639 0,0.097 0.0794,0.17639 0.17639,0.17639 0.097,0 0.17639,-0.0794 0.17639,-0.17639 z m -24.34707,-0.76854 c 0.006,0.30854 1.06373,-0.64003 1.06373,-0.95373 0,-0.10185 -0.46373,0.081 -1.03052,0.40626 -0.56679,0.32529 -0.94382,0.73173 -0.83785,0.9032 0.10597,0.17147 0.32915,0.0964 0.49596,-0.16688 0.1668,-0.26325 0.30571,-0.34823 0.30868,-0.18885 z m 23.28873,0.063 c 0,-0.097 -0.0794,-0.17639 -0.17638,-0.17639 -0.097,0 -0.17639,0.0794 -0.17639,0.17639 0,0.097 0.0794,0.17639 0.17639,0.17639 0.097,0 0.17638,-0.0794 0.17638,-0.17639 z m 1.43957,-0.51394 c 0.84686,0.45323 0.88855,0.0467 0.0597,-0.58248 -0.58558,-0.44452 -0.58451,-0.46922 0.0208,-0.47986 0.351,-0.006 0.54208,-0.16672 0.42462,-0.35677 -0.13516,-0.21869 -0.45822,-0.19276 -0.87995,0.0706 -0.3665,0.22889 -0.5879,0.54313 -0.49199,0.69833 0.0959,0.15519 -0.003,0.28217 -0.22002,0.28217 -0.21707,0 -0.2767,0.19046 -0.13262,0.42359 0.20206,0.32693 0.29381,0.32758 0.40206,0.003 0.10096,-0.30289 0.32995,-0.31926 0.81735,-0.0584 z m 8.69545,-0.22837 c -0.11723,-0.11722 -0.4215,-0.12975 -0.67616,-0.0278 -0.28142,0.11262 -0.19783,0.19621 0.21314,0.21314 0.37189,0.0153 0.58025,-0.0681 0.46302,-0.18529 z m 43.17269,-1.99172 c 0.46424,-0.8446 0.13615,-0.77507 -0.73008,0.15472 -0.39561,0.42464 -0.71425,1.01995 -0.70808,1.32291 0.009,0.43541 0.12518,0.40299 0.55502,-0.15471 0.29909,-0.38806 0.6965,-0.98337 0.88314,-1.32292 z m -42.37159,1.32292 c 0,-0.097 -0.0794,-0.17639 -0.17639,-0.17639 -0.097,0 -0.17639,0.0794 -0.17639,0.17639 0,0.097 0.0794,0.17639 0.17639,0.17639 0.097,0 0.17639,-0.0794 0.17639,-0.17639 z m 26.87152,-0.76023 c 0.81129,-0.73421 0.82916,-2.00396 0.0393,-2.79378 -0.78446,-0.78446 -5.27159,-3.70969 -6.57845,-4.28858 -0.55586,-0.24623 -1.42898,-0.43773 -1.94028,-0.42556 -1.23909,0.0295 -6.10956,1.82382 -6.16414,2.27093 -0.0237,0.19402 1.54127,0.91134 3.47766,1.59403 1.93641,0.68268 4.71136,1.90564 6.16656,2.71767 2.88696,1.61097 4.01163,1.81913 4.99931,0.92529 z m -27.92985,0.0547 c 0,-0.097 -0.0794,-0.17639 -0.17639,-0.17639 -0.097,0 -0.1764,0.0794 -0.1764,0.17639 0,0.097 0.0794,0.17638 0.1764,0.17638 0.097,0 0.17639,-0.0794 0.17639,-0.17638 z m -45.42555,-1.03262 c 0.41829,-0.61088 0.30885,-1.62477 -0.23398,-2.1676 -0.6466,-0.64659 -2.11145,-0.64907 -2.646407,-0.004 -0.33062,0.39837 -0.27159,0.54487 0.29153,0.7236 0.640797,0.20338 1.332067,1.40217 1.169077,2.0274 -0.0946,0.36282 1.11174,-0.12907 1.41978,-0.57893 z m 37.66443,-0.73129 c 0,-0.097 -0.0794,-0.17639 -0.17639,-0.17639 -0.097,0 -0.17639,0.0794 -0.17639,0.17639 0,0.097 0.0794,0.17639 0.17639,0.17639 0.097,0 0.17639,-0.0794 0.17639,-0.17639 z m 3.4186,-0.40073 c 0.23031,-0.60017 -0.21951,-1.59032 -0.81223,-1.78789 -0.18802,-0.0627 -0.63334,0.0992 -0.98961,0.35971 -0.53758,0.39309 -0.57805,0.60391 -0.2379,1.23948 0.48204,0.9007 1.72249,1.01546 2.03974,0.1887 z m 3.98973,0.40073 c 0,-0.097 -0.0794,-0.17639 -0.17638,-0.17639 -0.097,0 -0.17639,0.0794 -0.17639,0.17639 0,0.097 0.0794,0.17639 0.17639,0.17639 0.097,0 0.17638,-0.0794 0.17638,-0.17639 z m 39.16964,-0.83898 c 1.10038,-1.10037 1.03829,-1.45408 -0.25522,-1.45408 -0.84607,0 -1.74851,1.46149 -1.32529,2.14628 0.3016,0.48799 0.47725,0.41106 1.58051,-0.6922 z m -46.93075,-0.043 c 0.70899,-0.22706 0.74358,-0.28448 0.17639,-0.29282 -0.38805,-0.006 -1.02305,0.12607 -1.41111,0.29282 -0.89895,0.3863 0.0285,0.3863 1.23472,0 z m 9.17223,0.17639 c 0,-0.097 -0.0794,-0.17639 -0.17639,-0.17639 -0.097,0 -0.17639,0.0794 -0.17639,0.17639 0,0.097 0.0794,0.17639 0.17639,0.17639 0.097,0 0.17639,-0.0794 0.17639,-0.17639 z m -38.98195,-1.9904 c 3.26942,-1.81272 3.69858,-2.17124 4.01713,-3.35587 0.36116,-1.34311 -0.24178,-3.58661 -1.08522,-4.038 -1.05565,-0.56497 -2.46456,-0.0779 -5.8282,2.01485 -4.65615,2.89693 -5.2398,3.86118 -3.10093,5.12314 0.67909,0.40068 1.23472,0.93772 1.23472,1.19343 0,1.21638 1.36087,0.94847 4.7625,-0.93755 z m 73.19526,-0.60695 c 0.98689,-1.01693 1.3887,-1.69928 1.25278,-2.12751 -0.11005,-0.34673 -1.2231,-1.2511 -2.47346,-2.00971 -6.53794,-3.96665 -7.88639,-3.98838 -8.41143,-0.13555 -0.10424,0.76496 0.0238,1.50815 0.33277,1.93061 0.59326,0.81132 6.39456,3.90295 7.25304,3.86529 0.32638,-0.0143 1.24721,-0.69972 2.0463,-1.52313 z m -45.85498,1.00988 c -0.29104,-0.18808 -0.68792,-0.34197 -0.88195,-0.34197 -0.19402,0 -0.11465,0.15389 0.17639,0.34197 0.29104,0.18809 0.68792,0.34198 0.88195,0.34198 0.19403,0 0.11465,-0.15389 -0.17639,-0.34198 z m 2.82222,0.19721 c 0,-0.0856 -0.18328,-0.26884 -0.40728,-0.40728 -0.25235,-0.15596 -0.31153,-0.0968 -0.15557,0.15557 0.25133,0.40666 0.56285,0.54598 0.56285,0.25171 z m 55.22041,-1.89161 c -0.23705,-0.23704 -1.24541,0.64284 -1.24541,1.08672 0,0.20034 0.31847,0.076 0.70772,-0.27622 0.38924,-0.35226 0.6312,-0.71699 0.53769,-0.8105 z m -52.39819,0.81246 c 0,-0.097 -0.0794,-0.17639 -0.17639,-0.17639 -0.097,0 -0.17638,0.0794 -0.17638,0.17639 0,0.097 0.0794,0.17639 0.17638,0.17639 0.097,0 0.17639,-0.0794 0.17639,-0.17639 z m 1.76389,0 c 0,-0.097 -0.0794,-0.17639 -0.17639,-0.17639 -0.097,0 -0.17639,0.0794 -0.17639,0.17639 0,0.097 0.0794,0.17639 0.17639,0.17639 0.097,0 0.17639,-0.0794 0.17639,-0.17639 z m -46.213887,-1.86972 c 0,-0.34925 0.1853,-0.8203 0.41177,-1.04677 0.41822,-0.41822 0.41836,-0.41812 -1.293705,-0.953 -0.63952,-0.19979 -1.5875,0.1247 -1.5875,0.5434 0,0.46269 1.52997,2.01201 2.02847,2.05412 0.242525,0.0205 0.440965,-0.2485 0.440965,-0.59775 z m 39.158337,0.52461 c 0,-0.0607 -0.51594,-0.57665 -1.14653,-1.14653 l -1.14653,-1.03614 1.03614,1.14653 c 0.96583,1.06873 1.25692,1.30868 1.25692,1.03614 z m 7.29074,-0.83035 c -0.12935,-0.12935 -0.23519,-0.0235 -0.23519,0.23518 0,0.2587 0.10584,0.36454 0.23519,0.23519 0.12935,-0.12936 0.12935,-0.34102 0,-0.47037 z m 1.17592,0.23518 c 0,-0.19403 -0.15875,-0.35278 -0.35277,-0.35278 -0.19403,0 -0.35278,0.15875 -0.35278,0.35278 0,0.19403 0.15875,0.35278 0.35278,0.35278 0.19402,0 0.35277,-0.15875 0.35277,-0.35278 z m 18.87361,-0.68274 c 1.87145,-0.66635 1.96879,-0.90733 1.39846,-3.4624 -0.26071,-1.16795 -2.11519,-1.08403 -3.40763,0.1542 -0.98791,0.94647 -1.16852,1.69926 -0.76709,3.19719 0.24985,0.93231 0.44746,0.94021 2.77626,0.11101 z m 25.77031,-0.37559 c 0.2814,0 0.51164,-0.23813 0.51164,-0.52917 0,-0.58023 -1.2789,-0.71391 -2.0649,-0.21585 -0.38513,0.24405 -0.39394,0.45845 -0.0456,1.10934 0.38318,0.71599 0.4687,0.7409 0.75951,0.22125 0.18023,-0.32206 0.55794,-0.58557 0.83934,-0.58557 z m -58.47865,-0.52917 c -0.52313,-0.48507 -1.07713,-0.87623 -1.23112,-0.86926 -0.28918,0.0131 1.70165,1.74633 2.00947,1.74945 0.095,0.001 -0.25523,-0.39512 -0.77835,-0.88019 z m 66.04584,0.70556 c 0,-0.097 -0.0794,-0.17639 -0.17639,-0.17639 -0.097,0 -0.17639,0.0794 -0.17639,0.17639 0,0.097 0.0794,0.17639 0.17639,0.17639 0.097,0 0.17639,-0.0794 0.17639,-0.17639 z m -55.38611,-0.35278 c 0,-0.097 -0.0794,-0.17639 -0.17639,-0.17639 -0.097,0 -0.17638,0.0794 -0.17638,0.17639 0,0.097 0.0794,0.17639 0.17638,0.17639 0.097,0 0.17639,-0.0794 0.17639,-0.17639 z m 1.76389,0 c 0,-0.097 -0.0794,-0.17639 -0.17639,-0.17639 -0.097,0 -0.17639,0.0794 -0.17639,0.17639 0,0.097 0.0794,0.17639 0.17639,0.17639 0.097,0 0.17639,-0.0794 0.17639,-0.17639 z m -49.388882,-0.35278 c 0,-0.097 -0.0794,-0.17639 -0.17639,-0.17639 -0.097,0 -0.17639,0.0794 -0.17639,0.17639 0,0.097 0.0794,0.17639 0.17639,0.17639 0.097,0 0.17639,-0.0794 0.17639,-0.17639 z m 39.863882,-0.30958 c 0,-0.0733 -0.27781,-0.35107 -0.61736,-0.61736 -0.55953,-0.43881 -0.572,-0.42633 -0.13319,0.13319 0.46085,0.58764 0.75055,0.77452 0.75055,0.48417 z m 9.40741,-0.80755 c -0.12935,-0.12935 -0.23519,-0.0235 -0.23519,0.23519 0,0.2587 0.10584,0.36453 0.23519,0.23518 0.12935,-0.12935 0.12935,-0.34102 0,-0.47037 z m -50.682402,-0.90409 c 0,-0.19102 -0.23813,-0.25594 -0.52917,-0.14426 -0.29104,0.11168 -0.53399,0.01 -0.53989,-0.22684 -0.006,-0.23645 -0.18312,-0.13318 -0.39382,0.22947 -0.28903,0.49748 -0.26765,0.73072 0.0871,0.94996 0.49564,0.30632 1.37579,-0.2108 1.37579,-0.80833 z m 36.688882,0.96289 c 0,-0.097 -0.0794,-0.17639 -0.17639,-0.17639 -0.097,0 -0.17639,0.0794 -0.17639,0.17639 0,0.097 0.0794,0.17639 0.17639,0.17639 0.097,0 0.17639,-0.0794 0.17639,-0.17639 z m -38.805552,-0.68474 c 0,-0.0856 -0.15875,-0.25368 -0.35277,-0.37359 -0.19403,-0.11992 -0.35278,-0.0499 -0.35278,0.15556 0,0.20548 0.15875,0.3736 0.35278,0.3736 0.19402,0 0.35277,-0.07 0.35277,-0.15557 z m 103.363882,-0.19721 c 0,-0.19402 -0.27781,-0.35034 -0.61736,-0.34737 -0.5276,0.005 -0.54042,0.0551 -0.0882,0.34737 0.66576,0.43026 0.70555,0.43026 0.70555,0 z m -62.08888,-0.17638 c 0,-0.097 -0.0794,-0.17639 -0.17639,-0.17639 -0.097,0 -0.17639,0.0794 -0.17639,0.17639 0,0.097 0.0794,0.17638 0.17639,0.17638 0.097,0 0.17639,-0.0794 0.17639,-0.17638 z m -15.57886,-1.07494 c 0.53141,-1.1663 0.51977,-2.10259 -0.0316,-2.53959 -0.85019,-0.67389 -2.87024,-0.43455 -4.30678,0.51028 l -1.39636,0.91841 1.44207,0.42579 c 0.79314,0.23419 1.81401,0.68631 2.26861,1.00473 1.13389,0.7942 1.54621,0.72909 2.02403,-0.31962 z m 54.59019,-0.12016 c 0.59825,-0.36481 1.62303,-0.78086 2.27729,-0.92456 l 1.18956,-0.26128 -0.80621,-0.65283 c -1.62344,-1.31458 -4.41635,-1.52004 -5.12287,-0.37686 -0.2401,0.3885 0.72496,2.88212 1.11465,2.88014 0.14292,-7.4e-4 0.74933,-0.2998 1.34758,-0.66461 z m -71.43696,-0.42099 c 2.49126,-0.80814 3.55156,-1.38483 4.97054,-2.70342 1.15549,-1.07375 0.93838,-1.83808 -0.5403,-1.90215 -0.9627,-0.0417 -0.99259,-0.0692 -0.22684,-0.20827 1.47186,-0.26739 4.68208,-1.13318 4.85948,-1.31057 0.43775,-0.43775 -0.3697,-1.24899 -1.57678,-1.58418 -1.67293,-0.46456 -3.79985,-0.46643 -6.98507,-0.006 -2.710687,0.39171 -3.395882,0.84075 -3.567562,2.33798 -0.24827,2.16513 -0.34071,2.42777 -1.05986,3.01141 -0.66166,0.53698 -0.70137,0.74435 -0.35465,1.85209 0.47363,1.51322 1.15713,1.59151 4.481042,0.51326 z m 31.01451,0.57857 c 0,-0.0856 -0.18327,-0.26884 -0.40728,-0.40728 -0.25234,-0.15596 -0.31153,-0.0968 -0.15557,0.15557 0.25133,0.40666 0.56285,0.54598 0.56285,0.25171 z m 59.26667,-1.07915 c 0,-0.59934 0.19468,-0.88195 0.60756,-0.88195 0.53873,0 0.52623,-0.0813 -0.1104,-0.71795 -0.95096,-0.95097 -5.06664,-2.34993 -7.81116,-2.65509 -1.90759,-0.21211 -2.23017,-0.16249 -2.43631,0.3747 -0.40441,1.05387 2.63524,2.99933 6.39892,4.09549 2.96469,0.86346 3.35139,0.83863 3.35139,-0.2152 z m -99.688572,-0.39052 c 0.70789,-0.27164 0.72746,-1.40925 0.0289,-1.67733 -1.22608,-0.47049 -2.05608,0.57621 -1.16416,1.46813 0.49471,0.49471 0.42483,0.48183 1.13531,0.2092 z m 106.392362,-1.54913 c -0.49162,-0.30384 -1.41213,-0.0957 -1.41213,0.31934 0,0.13446 0.1803,0.42477 0.40066,0.64513 0.29902,0.29902 0.53726,0.26405 0.93916,-0.13785 0.43773,-0.43773 0.45126,-0.59242 0.0723,-0.82662 z m -7.62497,-2.55827 c -0.12317,-0.82462 -0.42745,-1.71666 -0.67617,-1.98232 -0.62737,-0.6701 -6.65389,-1.53599 -8.8731,-1.27489 -1.80255,0.21208 -2.84439,0.8721 -2.4314,1.54033 0.3162,0.51161 2.12589,1.0215 5.6699,1.59751 1.74625,0.28382 3.81,0.75294 4.58611,1.0425 1.98029,0.73882 1.97346,0.74247 1.72466,-0.92313 z m -99.065582,0.52377 c 0.48165,-0.32981 0.86938,-1.36314 0.60913,-1.62339 -0.31015,-0.31016 -1.46094,0.42426 -1.87391,1.1959 -0.30724,0.57409 -0.26187,0.69652 0.2565,0.69207 0.34637,-0.003 0.8001,-0.12203 1.00828,-0.26458 z m 106.552802,-0.95373 c -0.64556,-0.98524 -1.27438,-1.17462 -1.27438,-0.38379 0,0.52176 1.41901,1.7172 1.7022,1.43401 0.0865,-0.0865 -0.10602,-0.5591 -0.42782,-1.05022 z m -24.02854,-1.95984 1.05833,-0.43309 -1.03868,-0.29617 c -2.05407,-0.58569 -5.48318,0.92683 -4.07472,1.7973 0.42665,0.26369 1.47642,-0.0128 4.05507,-1.06804 z m -64.33391,-1.49852 c -1.87942,-0.81956 -3.92859,-1.18393 -3.92859,-0.69855 0,0.63815 3.98946,1.89396 4.93098,1.55218 0.33649,-0.12214 -0.0188,-0.42474 -1.00239,-0.85363 z m 71.04619,0.0568 c 1.7269,-0.43484 2.87717,-1.37192 1.68403,-1.37192 -0.83876,0 -4.03621,1.0364 -4.49812,1.458 -0.47015,0.42911 0.93928,0.386 2.81409,-0.0861 z m -20.99978,59.12946 c 0,-0.097 0.0794,-0.17639 0.17639,-0.17639 0.097,0 0.17638,0.0794 0.17638,0.17639 0,0.097 -0.0794,0.17639 -0.17638,0.17639 -0.097,0 -0.17639,-0.0794 -0.17639,-0.17639 z m 18.04736,-17.10972 c 0,-0.48507 0.0801,-0.6835 0.17794,-0.44097 0.0979,0.24254 0.0979,0.63941 0,0.88195 -0.0979,0.24253 -0.17794,0.0441 -0.17794,-0.44098 z m -1.2416,-5.82083 c -0.11169,-0.29104 -0.0493,-0.52917 0.13864,-0.52917 0.18794,0 0.34171,0.23813 0.34171,0.52917 0,0.29104 -0.0624,0.52917 -0.13865,0.52917 -0.0763,0 -0.23002,-0.23813 -0.3417,-0.52917 z m -34.44465,-25.4 c 0,-0.097 0.0794,-0.17639 0.17639,-0.17639 0.097,0 0.17639,0.0794 0.17639,0.17639 0,0.097 -0.0794,0.17639 -0.17639,0.17639 -0.097,0 -0.17639,-0.0794 -0.17639,-0.17639 z"
       id="path826"
       inkscape:connector-curvature="0" />
  </g>
</svg>
